M48
;Layer_Color=9474304
;FILE_FORMAT=4:4
METRIC,LZ
;TYPE=PLATED
T01F00S00C0.3000
T02F00S00C1.0200
T03F00S00C2.4000
;TYPE=NON_PLATED
T04F00S00C0.7600
T05F00S00C0.7620
%
T01
X00064Y-00149
X0008
X00061062Y-0009475
X0005825Y-000825
X000579Y-00072
X00062312Y-000615
X00061812Y-000475
X00064562Y000035
X00062562Y0005025
Y00064
X00062312Y0007975
X00061812Y000935
X00173562Y-00142
X0021Y-00146
X00048Y-00149512
X00032Y-00149
X00016
X0
X-00016
X-00032
X-000335Y-0009625
X-000405Y-000905
X-0004025Y-00076
X-00033Y-000825
X-0002525Y-0008625
X-000255Y-0007325
X-00045438Y-0004825
X-000565Y-00047
X-00059411Y-00052247
X-00058243Y-00029056
X-0006975Y-0003
X-0007Y-0000475
X-0007725Y-00008
X-0008541Y-00008486
X-00082Y-0000325
X-0008925Y-000035
X-00090344Y00016844
X-00088627Y000235
X-000835Y0003525
X-00076281Y00036116
X-00071004Y00039141
X-00080048Y00054298
Y00060232
X-00086057Y00060306
X-00086355Y0005441
X-0010875Y000575
X-00118773Y0005782
X-0013045Y000581
X-00127666Y00075867
X-00120494Y00074989
X-00114423Y00075423
X-0010075Y0007875
X-0009625Y000735
X-0010025Y000905
X-0008775Y00091
X-00084Y0009625
X-000625Y00096
X-000515Y0009225
X-00034Y0009625
X-0002925Y000895
Y0008375
X-000355Y0006175
X-00039Y00057
X-0004425Y000605
X-000545Y0005325
X-00054Y000305
X-00061Y00006
X-0006875Y0001325
X-00080117Y00012827
X-00103Y00016762
X-0011025Y0003
X-001185
X-00114951Y00042426
X-00122Y00042798
X-00132199Y00038058
X-00143381Y00039512
X-00136438Y00018
X-001375Y0
X-0015
X-001625
X-00175
X-001785Y-00018
Y-00024
X-0017225Y-0003425
X-001715Y-000405
X-0016775Y-000465
X-00161Y-0004725
X-001525Y-0003925
X-001535Y-00033
X-0012925Y-0002125
X-00123Y00005
X-0011725Y00004488
X-0010075Y0004125
X-00074163Y00079326
X-00068064Y00073881
X-00135031Y000775
X-00120575Y00094641
X-00152Y00096
X-00165
X-00176289Y00094198
X-0018225Y0009425
X-00181Y00077
X-0018075Y00060262
X-00184Y0004
X-00197881Y00045
X-00198526Y00031593
X-00203293Y0002795
X-0020275Y0001525
X-0020525Y000085
X-00211Y0002075
X-0021575Y0001775
X-00240888Y00012733
X-00232899Y00002149
X-0023875Y-000075
X-00221965Y-00008924
X-002012Y-00009954
X-00209971Y-00023971
X-00210081Y-0003955
X-00204702Y-00042209
X-00198606Y-0004175
X-0019275Y-00043058
X-0019325Y-0005725
X-00185188Y-00062
X-0019075Y-0006775
X-0021075Y-0006775
X-00216479Y-00069531
X-00225504Y-00066949
X-00229509Y-00062316
X-00229751Y-00055833
X-00224483Y-00058704
X-00228026Y-00042449
X-00238Y-0003955
X-00245592
X-002418Y-000442
X-00254774Y-00043064
X-0025926Y-00038524
X-00264304Y-00042
X-0027Y-0005875
X-0023953Y-0006419
X-00230067Y-00076172
X-00228297Y-00087451
X-00232815Y-00091685
X-00252136Y-00094583
X-0026275Y-00093
X-0028775Y-000925
X-00288Y-0007875
X-00296462Y-00044085
X-00296339Y-00034022
X-00296843Y-00027159
X-00296319Y-00021182
X-00296011Y-00011457
X-00296762Y-00005504
X-00295571Y00000376
X-00296186Y00010295
X-00289627Y00018377
X-00285691Y00022278
X-00291252Y00024635
X-0029025Y00034086
X-002865Y0003925
X-0029575Y0003825
X-0029675Y000445
X-00311Y000485
X-0030925Y000635
X-0029325Y0007025
X-00293242Y00075985
X-0029325Y00084
X-00293044Y0008958
X-0031Y000915
X-00261Y00089
Y00075
Y00064
X-00261011Y00047657
X-00267756Y0004821
X-00273927Y00048421
X-00254267Y0004675
X-00248262Y00045778
X-00241667Y0004533
X-00236772Y00057
X-00226512Y0006575
X-002265Y00081
X-00241891Y0007777
X-002565Y0009875
X-00219Y00096
X-002Y0007825
Y000715
X-00234Y00031
X-0025275Y00020762
X-0026275Y0002575
X-0026255Y00015232
X-00265893Y0001025
X-0026255Y00005267
Y-00000733
X-00255762Y000005
X-0024925Y-0001875
X-00238Y-0003
X-00283661Y-00021028
X-0028375Y-00015028
X-00283661Y-00009029
X-00284718Y00006823
X-002025Y-0008375
X-0020275Y-0009475
X-00176Y-00096
X-00175938Y-0008925
X-00176188Y-000805
X-001535Y-000815
X-00152Y-0009
X-00156Y-00094
X-0014825Y-000945
X-0012025Y-0009375
X-0011425Y-000935
X-0011325Y-000805
X-00131Y-000575
X-0009125Y-00055479
X-0008125
Y-00045479
X-0009125
X-00048Y-00035
X-0005575Y-0001675
X-00055Y-000065
X-0002875Y-00008
X-00027722Y-00002089
X-00021Y00003
X-00031Y00016
X-000305Y-000175
X-00002783Y-00019495
X-00002214Y-00012855
X00004729Y-00012589
X00004691Y-00019571
X000225Y0001575
X000285Y000155
X0002875Y0002781
X00023
X000505Y0007275
Y000845
X-0007325Y-00095
X-00092438Y-0015225
X-00130084Y-00145084
X-0013Y00143
X-00094688Y001545
X-0004Y00148
X-00024
X-00008
X00008
X00024
X0004
X-00191Y0013
X-00194Y0017
X-00249012Y00126
X-00271
X-00296Y0013
X00056Y00148
X00072
X00170062Y00155
X0021Y00144
T02
X-003135Y-0017
X-002881
X-002627
X-002373
X-002119Y-00170001
X-001865
Y-00138001
X-002119
X-002373Y-00138
X-002627
X-002881
X-003135
X-0036Y-000635
Y-000381
X-0036Y-000127
Y000127
Y000381
Y000635
X-003948Y000725
X-004202
Y00025
X-003948
Y-00025
X-004202
Y-00075
X-003948
T03
X0032Y-0015
X-0038
Y0015
X0032
T04
X0021526Y-00161
X-0013526
Y00161
X0021526
T05
X-00253Y-00111
X-00239
X-002245Y-0011075
X-00323Y-000015
Y0001525
X-0000375Y-00111
X00013
X0003
Y00111
X00013
X-0000475
X-002435
X-0025775
X-0027525
M30
