M48
;Layer_Color=9474304
;FILE_FORMAT=4:4
METRIC,LZ
;TYPE=PLATED
T01F00S00C0.3000
T02F00S00C1.5000
T03F00S00C1.7000
;TYPE=NON_PLATED
T04F00S00C0.8400
%
T01
X-00185857Y-00104458
X-0017Y-00105
X-00155857Y-00104458
X-00125857
X-00095857
X-00065857
X-00061Y-00068
X-00050857Y-00074458
X-00080857
X-00110857
X-00140857
X-00170857
X-00155857Y-00044458
X-00125857
X-00095857
X-00080857Y-00014459
X-00110857
X-00140857
X-00170857
X-00155857Y00015541
X-00125857
X-00095857
X-00065857
X-00061Y00031
X-00080857Y00045542
X-00110857
X-00140857
X-00170857
X-00185857Y00015541
Y-00044458
X-00061Y-00032
X-00025Y-00094
X-00005
X00015
X00035
X0004Y-00114
X00049Y-00111
X00059Y-00108
X00084143Y-00104458
X00069143Y-00074458
X00061Y-00067
Y-00032
X00069143Y-00014459
X00084143Y00015541
X00062Y00032
X00069143Y00045542
X00084143Y-00044458
X0003Y-00116
X00114143Y-00104458
X00099143Y-00074458
X00114143Y-00044458
X00144143
X00174143
X00189143Y-00014459
Y00045542
X00159143
X00129143
X00099143
Y-00014459
X00144143Y00015541
X00159143Y-00074458
X00189143
X0017Y-00105
X00174143Y00075542
X00144143
X00114143
X00129143Y00105541
X00159143
X0017Y00105
X00189143Y00105541
X00099143
X00069143
X00063Y00067
X00054143Y00075542
X00084143
X00035Y00094
X00015
X-00005
X-00025
X-00011Y00116
X0
X0001
X0002
X-00050857Y00105541
X-00080857
X-00110857
X-00140857
X-0017Y00105
X-00155857Y00075542
X-00125857
X-00095857
X-00065857
X-00061Y00067
X-00185857Y00075542
T02
X00137Y0
T03
X001116Y-000254
X001624
Y000254
X001116
T04
X-0017526Y-00161
X0017526
Y00161
X-0017526
M30
