G04*
G04 #@! TF.GenerationSoftware,Altium Limited,Altium Designer,24.6.1 (21)*
G04*
G04 Layer_Color=16711935*
%FSLAX44Y44*%
%MOMM*%
G71*
G04*
G04 #@! TF.SameCoordinates,E18C277C-CF0C-426E-95C7-D1DF2096CF1D*
G04*
G04*
G04 #@! TF.FilePolarity,Negative*
G04*
G01*
G75*
%ADD24R,0.5000X0.4000*%
%ADD27R,0.4000X0.5000*%
%ADD33R,0.5725X0.5682*%
%ADD41R,0.6000X0.4000*%
%ADD43R,0.6153X0.5725*%
%ADD44R,0.4682X0.4725*%
%ADD46R,0.4725X0.4682*%
%ADD47R,1.1051X1.0062*%
%ADD48R,0.6500X0.7000*%
%ADD49R,1.0062X1.1051*%
%ADD58R,0.5682X0.5725*%
%ADD62R,0.5153X0.4725*%
%ADD67R,0.9000X0.7500*%
%ADD68R,0.5725X0.6153*%
%ADD70C,1.9000*%
%ADD72C,1.0500*%
%ADD73R,0.5700X0.6100*%
%ADD78C,0.2760*%
%ADD79R,0.6100X0.5700*%
G04:AMPARAMS|DCode=80|XSize=0.6mm|YSize=0.85mm|CornerRadius=0.0745mm|HoleSize=0mm|Usage=FLASHONLY|Rotation=0.000|XOffset=0mm|YOffset=0mm|HoleType=Round|Shape=RoundedRectangle|*
%AMROUNDEDRECTD80*
21,1,0.6000,0.7010,0,0,0.0*
21,1,0.4510,0.8500,0,0,0.0*
1,1,0.1490,0.2255,-0.3505*
1,1,0.1490,-0.2255,-0.3505*
1,1,0.1490,-0.2255,0.3505*
1,1,0.1490,0.2255,0.3505*
%
%ADD80ROUNDEDRECTD80*%
%ADD82R,1.0500X0.9500*%
%ADD96C,5.0500*%
%ADD97C,0.8500*%
%ADD98R,1.5700X1.5700*%
%ADD99C,1.5700*%
%ADD100R,1.5700X1.5700*%
%ADD101C,0.8100*%
%ADD115R,0.5334X1.0414*%
%ADD119R,1.1064X0.4156*%
%ADD124R,0.6000X0.6000*%
%ADD128R,0.4725X0.5153*%
G04:AMPARAMS|DCode=129|XSize=1.2397mm|YSize=0.5258mm|CornerRadius=0.2629mm|HoleSize=0mm|Usage=FLASHONLY|Rotation=270.000|XOffset=0mm|YOffset=0mm|HoleType=Round|Shape=RoundedRectangle|*
%AMROUNDEDRECTD129*
21,1,1.2397,0.0000,0,0,270.0*
21,1,0.7139,0.5258,0,0,270.0*
1,1,0.5258,0.0000,-0.3569*
1,1,0.5258,0.0000,0.3569*
1,1,0.5258,0.0000,0.3569*
1,1,0.5258,0.0000,-0.3569*
%
%ADD129ROUNDEDRECTD129*%
%ADD130R,0.5258X1.2397*%
%ADD131R,0.4000X0.3500*%
%ADD132R,0.5100X0.4000*%
%ADD136R,0.6000X0.5000*%
%ADD138R,0.8000X2.7000*%
%ADD139R,1.3082X1.0057*%
%ADD140R,1.1318X0.1524*%
%ADD141R,0.7000X0.6500*%
%ADD142R,0.3627X0.4541*%
%ADD143R,0.4541X0.3627*%
%ADD144R,0.5000X0.4750*%
G04:AMPARAMS|DCode=145|XSize=0.806mm|YSize=0.2393mm|CornerRadius=0.1196mm|HoleSize=0mm|Usage=FLASHONLY|Rotation=180.000|XOffset=0mm|YOffset=0mm|HoleType=Round|Shape=RoundedRectangle|*
%AMROUNDEDRECTD145*
21,1,0.8060,0.0000,0,0,180.0*
21,1,0.5667,0.2393,0,0,180.0*
1,1,0.2393,-0.2834,0.0000*
1,1,0.2393,0.2834,0.0000*
1,1,0.2393,0.2834,0.0000*
1,1,0.2393,-0.2834,0.0000*
%
%ADD145ROUNDEDRECTD145*%
G04:AMPARAMS|DCode=146|XSize=0.2393mm|YSize=0.806mm|CornerRadius=0.1196mm|HoleSize=0mm|Usage=FLASHONLY|Rotation=180.000|XOffset=0mm|YOffset=0mm|HoleType=Round|Shape=RoundedRectangle|*
%AMROUNDEDRECTD146*
21,1,0.2393,0.5667,0,0,180.0*
21,1,0.0000,0.8060,0,0,180.0*
1,1,0.2393,0.0000,0.2834*
1,1,0.2393,0.0000,0.2834*
1,1,0.2393,0.0000,-0.2834*
1,1,0.2393,0.0000,-0.2834*
%
%ADD146ROUNDEDRECTD146*%
%ADD147R,1.5000X1.5000*%
%ADD148R,0.8060X0.2393*%
%ADD149R,0.4750X0.5000*%
%ADD150R,0.9898X1.7010*%
%ADD151R,0.3500X1.2500*%
%ADD152R,1.4500X1.0500*%
%ADD153R,0.7500X0.3000*%
%ADD154R,1.7000X2.4300*%
%ADD155R,0.5250X0.5500*%
%ADD156R,0.5500X0.5250*%
G04:AMPARAMS|DCode=157|XSize=0.8mm|YSize=0.27mm|CornerRadius=0.0316mm|HoleSize=0mm|Usage=FLASHONLY|Rotation=90.000|XOffset=0mm|YOffset=0mm|HoleType=Round|Shape=RoundedRectangle|*
%AMROUNDEDRECTD157*
21,1,0.8000,0.2068,0,0,90.0*
21,1,0.7368,0.2700,0,0,90.0*
1,1,0.0632,0.1034,0.3684*
1,1,0.0632,0.1034,-0.3684*
1,1,0.0632,-0.1034,-0.3684*
1,1,0.0632,-0.1034,0.3684*
%
%ADD157ROUNDEDRECTD157*%
G04:AMPARAMS|DCode=158|XSize=0.86mm|YSize=0.27mm|CornerRadius=0.0316mm|HoleSize=0mm|Usage=FLASHONLY|Rotation=180.000|XOffset=0mm|YOffset=0mm|HoleType=Round|Shape=RoundedRectangle|*
%AMROUNDEDRECTD158*
21,1,0.8600,0.2068,0,0,180.0*
21,1,0.7968,0.2700,0,0,180.0*
1,1,0.0632,-0.3984,0.1034*
1,1,0.0632,0.3984,0.1034*
1,1,0.0632,0.3984,-0.1034*
1,1,0.0632,-0.3984,-0.1034*
%
%ADD158ROUNDEDRECTD158*%
G04:AMPARAMS|DCode=159|XSize=0.96mm|YSize=0.27mm|CornerRadius=0.0316mm|HoleSize=0mm|Usage=FLASHONLY|Rotation=0.000|XOffset=0mm|YOffset=0mm|HoleType=Round|Shape=RoundedRectangle|*
%AMROUNDEDRECTD159*
21,1,0.9600,0.2068,0,0,0.0*
21,1,0.8968,0.2700,0,0,0.0*
1,1,0.0632,0.4484,-0.1034*
1,1,0.0632,-0.4484,-0.1034*
1,1,0.0632,-0.4484,0.1034*
1,1,0.0632,0.4484,0.1034*
%
%ADD159ROUNDEDRECTD159*%
%ADD160R,1.3500X0.7612*%
%ADD161R,0.9500X0.7000*%
G36*
X45032Y51269D02*
X45050Y51261D01*
X45093Y51243D01*
X45145Y51203D01*
X50098Y46250D01*
X50138Y46198D01*
X50164Y46137D01*
X50172Y46072D01*
Y36928D01*
X50164Y36863D01*
X50156Y36845D01*
X50138Y36802D01*
X50098Y36750D01*
X45145Y31797D01*
X45093Y31757D01*
X45032Y31731D01*
X44967Y31723D01*
X16519D01*
X16454Y31731D01*
X16436Y31739D01*
X16393Y31757D01*
X16341Y31797D01*
X11462Y36676D01*
X-2531D01*
X-2596Y36684D01*
X-2657Y36710D01*
X-2709Y36750D01*
X-2749Y36802D01*
X-2775Y36863D01*
X-2783Y36928D01*
Y46072D01*
X-2775Y46137D01*
X-2749Y46198D01*
X-2709Y46250D01*
X-2657Y46290D01*
X-2596Y46316D01*
X-2531Y46324D01*
X11462D01*
X16341Y51203D01*
X16393Y51243D01*
X16454Y51269D01*
X16519Y51277D01*
X44967D01*
X45032Y51269D01*
D02*
G37*
D24*
X-45250Y10750D02*
D03*
Y2750D02*
D03*
X-71743Y92362D02*
D03*
Y84362D02*
D03*
X-40000Y66000D02*
D03*
Y74000D02*
D03*
D27*
X-79250Y4000D02*
D03*
X-71250D02*
D03*
X-137250Y43250D02*
D03*
X-129250D02*
D03*
X-99000Y-23728D02*
D03*
X-107000D02*
D03*
D33*
X-35750Y-22D02*
D03*
Y9021D02*
D03*
X-110750Y91021D02*
D03*
Y81979D02*
D03*
D41*
X-96250Y24750D02*
D03*
Y33750D02*
D03*
D43*
X-138286Y68000D02*
D03*
X-129714D02*
D03*
X-58536Y70000D02*
D03*
X-49964D02*
D03*
X-50214Y60250D02*
D03*
X-58786D02*
D03*
X-162286Y25000D02*
D03*
X-153714D02*
D03*
D44*
X-255021Y13500D02*
D03*
X-246978D02*
D03*
X-237978Y62000D02*
D03*
X-246021D02*
D03*
X-20229Y60250D02*
D03*
X-28272D02*
D03*
X6022Y-5000D02*
D03*
X-2022D02*
D03*
X-246271Y5000D02*
D03*
X-238228D02*
D03*
X-19771Y82250D02*
D03*
X-11729D02*
D03*
D46*
X-234000Y38979D02*
D03*
Y47021D02*
D03*
X-15250Y41021D02*
D03*
Y32978D02*
D03*
X-2250Y12021D02*
D03*
Y3979D02*
D03*
X-12000Y51729D02*
D03*
Y59771D02*
D03*
D47*
X185244Y-130750D02*
D03*
X199256D02*
D03*
X-105494Y-152500D02*
D03*
X-119506D02*
D03*
X185494Y155000D02*
D03*
X199506D02*
D03*
X-107994D02*
D03*
X-122006D02*
D03*
X-99506Y-75729D02*
D03*
X-85494D02*
D03*
X-7006Y-88000D02*
D03*
X7006D02*
D03*
D48*
X-212750Y73000D02*
D03*
X-226250D02*
D03*
X7750Y-40000D02*
D03*
X-5750D02*
D03*
D49*
X-18000Y-23006D02*
D03*
Y-8994D02*
D03*
X-19000Y-55006D02*
D03*
Y-40994D02*
D03*
X7500Y-69506D02*
D03*
Y-55494D02*
D03*
X25000Y-87006D02*
D03*
Y-72994D02*
D03*
D58*
X-134022Y32250D02*
D03*
X-124979D02*
D03*
X-46021Y-55750D02*
D03*
X-36978D02*
D03*
X-37229Y-65750D02*
D03*
X-46272D02*
D03*
D62*
X-61500Y28000D02*
D03*
X-69071D02*
D03*
D67*
X-200750Y78250D02*
D03*
Y93750D02*
D03*
D68*
X-243000Y85714D02*
D03*
Y94286D02*
D03*
D70*
X329500Y-150000D02*
G03*
X329500Y-150000I-9500J0D01*
G01*
Y150000D02*
G03*
X329500Y150000I-9500J0D01*
G01*
X-370500Y-150000D02*
G03*
X-370500Y-150000I-9500J0D01*
G01*
Y150000D02*
G03*
X-370500Y150000I-9500J0D01*
G01*
D72*
X162000Y-130000D02*
D03*
X225000Y143000D02*
D03*
X155000Y155000D02*
D03*
X216000Y-130000D02*
D03*
X-184083Y86695D02*
D03*
X-189250Y-81230D02*
D03*
X41250Y78750D02*
D03*
X-97500Y2250D02*
D03*
X-118750Y19500D02*
D03*
X-146000Y89000D02*
D03*
D73*
X-108388Y50550D02*
D03*
Y42950D02*
D03*
X-62500Y89050D02*
D03*
Y81450D02*
D03*
X-54250Y2700D02*
D03*
Y10300D02*
D03*
X-164500Y-39050D02*
D03*
Y-31450D02*
D03*
X-80750Y81450D02*
D03*
Y89050D02*
D03*
D78*
X-176750Y-54250D02*
D03*
Y-50250D02*
D03*
X-180750Y-54250D02*
D03*
Y-50250D02*
D03*
X-117000Y63250D02*
D03*
X-112000D02*
D03*
X-117000Y68250D02*
D03*
X-112000D02*
D03*
X-107000D02*
D03*
Y63250D02*
D03*
X-132250Y81500D02*
D03*
X-127250D02*
D03*
X-132250Y86500D02*
D03*
X-127250D02*
D03*
X-122250D02*
D03*
Y81500D02*
D03*
X-95750Y86500D02*
D03*
Y82500D02*
D03*
X-91750D02*
D03*
Y86500D02*
D03*
D79*
X-129450Y52250D02*
D03*
X-137050D02*
D03*
X-211800Y62000D02*
D03*
X-204200D02*
D03*
X-260050Y-49250D02*
D03*
X-252450D02*
D03*
X-275800Y-91500D02*
D03*
X-268200D02*
D03*
D80*
X-28500Y50000D02*
D03*
X-47500D02*
D03*
X-38000D02*
D03*
X-28500Y24500D02*
D03*
X-38000D02*
D03*
X-47500D02*
D03*
D82*
X25000Y7000D02*
D03*
Y-9000D02*
D03*
Y-25000D02*
D03*
X47500Y-6500D02*
D03*
Y-22500D02*
D03*
Y-38500D02*
D03*
Y-88500D02*
D03*
Y-72500D02*
D03*
Y-56500D02*
D03*
D96*
X320000Y-150000D02*
D03*
Y150000D02*
D03*
X-380000Y-150000D02*
D03*
Y150000D02*
D03*
D97*
X-275250Y111000D02*
D03*
X-323000Y15250D02*
D03*
Y-1500D02*
D03*
X-253000Y-111000D02*
D03*
X-224500Y-110750D02*
D03*
X-239000Y-111000D02*
D03*
X-243500Y111000D02*
D03*
X-257750D02*
D03*
X30000Y-111000D02*
D03*
X-3750D02*
D03*
X30000Y111000D02*
D03*
X13000D02*
D03*
X-4750D02*
D03*
X13000Y-111000D02*
D03*
D98*
X-420200Y-75000D02*
D03*
Y-25000D02*
D03*
Y25000D02*
D03*
Y72500D02*
D03*
X-186500Y-138001D02*
D03*
Y-170001D02*
D03*
D99*
X-394800Y-75000D02*
D03*
Y-25000D02*
D03*
Y25000D02*
D03*
Y72500D02*
D03*
X-360000Y-38100D02*
D03*
X-360000Y-12700D02*
D03*
Y12700D02*
D03*
Y38100D02*
D03*
Y63500D02*
D03*
X-313500Y-138000D02*
D03*
X-288100D02*
D03*
X-262700D02*
D03*
X-237300D02*
D03*
X-211900Y-138001D02*
D03*
X-313500Y-170000D02*
D03*
X-288100D02*
D03*
X-262700D02*
D03*
X-237300D02*
D03*
X-211900Y-170001D02*
D03*
D100*
X-360000Y-63500D02*
D03*
D101*
X215260Y161000D02*
D03*
X-135260D02*
D03*
Y-161000D02*
D03*
X215260D02*
D03*
D115*
X40000Y-157141D02*
D03*
X56000D02*
D03*
X32000D02*
D03*
X80000D02*
D03*
X64000D02*
D03*
X72000D02*
D03*
X-24000D02*
D03*
X-16000D02*
D03*
X-40000D02*
D03*
X-32000D02*
D03*
X8000D02*
D03*
X24000D02*
D03*
X0D02*
D03*
X-8000D02*
D03*
X48000D02*
D03*
X16000D02*
D03*
X0Y157141D02*
D03*
X-16000D02*
D03*
X8000D02*
D03*
X-40000D02*
D03*
X-24000D02*
D03*
X-32000D02*
D03*
X64000D02*
D03*
X56000D02*
D03*
X80000D02*
D03*
X72000D02*
D03*
X32000D02*
D03*
X16000D02*
D03*
X40000D02*
D03*
X48000D02*
D03*
X-8000D02*
D03*
X24000D02*
D03*
D119*
X-63820Y-23228D02*
D03*
X-86680D02*
D03*
D124*
X-182500Y-10250D02*
D03*
Y250D02*
D03*
X-192500Y-10250D02*
D03*
Y250D02*
D03*
D128*
X-226250Y94786D02*
D03*
Y87214D02*
D03*
X-212000Y94786D02*
D03*
Y87214D02*
D03*
X-300000Y86714D02*
D03*
Y94286D02*
D03*
Y65714D02*
D03*
Y73286D02*
D03*
X6250Y4214D02*
D03*
Y11786D02*
D03*
D129*
X-170750Y48345D02*
D03*
X-151750D02*
D03*
X-161250D02*
D03*
X-151750Y71655D02*
D03*
X-161250D02*
D03*
D130*
X-170750D02*
D03*
D131*
X-28750Y67750D02*
D03*
Y74250D02*
D03*
D132*
X12450Y77000D02*
D03*
X-450Y72000D02*
D03*
Y82000D02*
D03*
D136*
X-22500Y12000D02*
D03*
X-11500D02*
D03*
X-153000Y34500D02*
D03*
X-164000D02*
D03*
D138*
X-143000Y-28000D02*
D03*
X-121000D02*
D03*
Y-70000D02*
D03*
X-143000D02*
D03*
D139*
X-165000Y-65738D02*
D03*
Y-80262D02*
D03*
D140*
X-274252Y-53800D02*
D03*
X-305748D02*
D03*
Y-49800D02*
D03*
Y-45800D02*
D03*
Y-41800D02*
D03*
Y-37800D02*
D03*
Y-33800D02*
D03*
Y-29800D02*
D03*
Y-25800D02*
D03*
Y-21800D02*
D03*
Y-17800D02*
D03*
Y-13800D02*
D03*
X-274252Y-9800D02*
D03*
X-305748D02*
D03*
X-274252Y-5800D02*
D03*
X-305748D02*
D03*
X-274252Y-1800D02*
D03*
X-305748D02*
D03*
X-274252Y2200D02*
D03*
X-305748D02*
D03*
X-274252Y6200D02*
D03*
X-305748D02*
D03*
X-274252Y10200D02*
D03*
X-305748D02*
D03*
X-274252Y14200D02*
D03*
X-305748D02*
D03*
X-274252Y18200D02*
D03*
X-305748D02*
D03*
X-274252Y22200D02*
D03*
X-305748D02*
D03*
X-274252Y26200D02*
D03*
X-305748D02*
D03*
X-274252Y30200D02*
D03*
X-305748D02*
D03*
X-274252Y34200D02*
D03*
X-305748D02*
D03*
X-274252Y38200D02*
D03*
X-305748D02*
D03*
X-274252Y42200D02*
D03*
X-305748D02*
D03*
X-274252Y-13800D02*
D03*
Y-17800D02*
D03*
Y-21800D02*
D03*
Y-25800D02*
D03*
Y-29800D02*
D03*
Y-33800D02*
D03*
Y-37800D02*
D03*
Y-41800D02*
D03*
Y-45800D02*
D03*
Y-49800D02*
D03*
D141*
X-284750Y87000D02*
D03*
Y73500D02*
D03*
D142*
X-82000Y26043D02*
D03*
Y19957D02*
D03*
D143*
X-17543Y72500D02*
D03*
X-11457D02*
D03*
D144*
X-59250Y46375D02*
D03*
Y36124D02*
D03*
D145*
X-96561Y60000D02*
D03*
Y55000D02*
D03*
Y65000D02*
D03*
Y50000D02*
D03*
X-69500D02*
D03*
Y55000D02*
D03*
Y60000D02*
D03*
D146*
X-85531Y71031D02*
D03*
X-90531D02*
D03*
X-80531D02*
D03*
Y43969D02*
D03*
X-90531D02*
D03*
X-85531D02*
D03*
X-75531Y71031D02*
D03*
Y43969D02*
D03*
D147*
X-83031Y57500D02*
D03*
D148*
X-69500Y65000D02*
D03*
D149*
X-71876Y19500D02*
D03*
X-61624D02*
D03*
D150*
X92500Y-176341D02*
D03*
X-52500D02*
D03*
Y176341D02*
D03*
X92500D02*
D03*
D151*
X-249500Y138500D02*
D03*
X-239500D02*
D03*
X-259500D02*
D03*
X-264500D02*
D03*
X-254500D02*
D03*
X-244500D02*
D03*
X-269500D02*
D03*
X-274500D02*
D03*
D152*
X-215000Y165000D02*
D03*
X-298500D02*
D03*
D153*
X-100500Y-60479D02*
D03*
Y-55479D02*
D03*
Y-50479D02*
D03*
Y-45479D02*
D03*
Y-40479D02*
D03*
X-72000Y-60479D02*
D03*
Y-55479D02*
D03*
Y-50479D02*
D03*
Y-45479D02*
D03*
Y-40479D02*
D03*
D154*
X-86250Y-50479D02*
D03*
D155*
X-61370Y-41250D02*
D03*
X-51130D02*
D03*
D156*
X-60000Y-83598D02*
D03*
X-59996Y-73331D02*
D03*
X-71000Y-72859D02*
D03*
Y-83098D02*
D03*
X-40250Y-31130D02*
D03*
Y-41370D02*
D03*
D157*
X-255250Y-31200D02*
D03*
X-251250D02*
D03*
X-247250D02*
D03*
X-243250D02*
D03*
Y-6300D02*
D03*
X-247250D02*
D03*
X-251250D02*
D03*
X-255250D02*
D03*
Y-87700D02*
D03*
Y-62800D02*
D03*
X-251250D02*
D03*
X-247250D02*
D03*
X-243250D02*
D03*
Y-87700D02*
D03*
X-247250D02*
D03*
X-251250D02*
D03*
D158*
X-240800Y-24750D02*
D03*
Y-20750D02*
D03*
Y-16750D02*
D03*
Y-12750D02*
D03*
X-257700D02*
D03*
Y-16750D02*
D03*
Y-20750D02*
D03*
Y-77250D02*
D03*
Y-73250D02*
D03*
Y-69250D02*
D03*
X-240800D02*
D03*
Y-73250D02*
D03*
Y-77250D02*
D03*
Y-81250D02*
D03*
D159*
X-257200Y-24750D02*
D03*
Y-81250D02*
D03*
D160*
X4073Y56486D02*
D03*
Y26514D02*
D03*
D161*
X25000Y-40250D02*
D03*
Y-54750D02*
D03*
M02*
