G04*
G04 #@! TF.GenerationSoftware,Altium Limited,Altium Designer,24.6.1 (21)*
G04*
G04 Layer_Physical_Order=3*
G04 Layer_Color=16440176*
%FSLAX44Y44*%
%MOMM*%
G71*
G04*
G04 #@! TF.SameCoordinates,E18C277C-CF0C-426E-95C7-D1DF2096CF1D*
G04*
G04*
G04 #@! TF.FilePolarity,Positive*
G04*
G01*
G75*
%ADD11C,0.1524*%
%ADD12C,0.2000*%
%ADD103C,0.2030*%
%ADD108C,0.8000*%
%ADD109R,1.5200X1.5200*%
%ADD110C,1.5200*%
%ADD111R,1.5200X1.5200*%
%ADD112C,0.7600*%
%ADD113C,0.4500*%
%ADD114C,3.0000*%
D11*
X-344905Y23005D02*
X-318246D01*
X-296750Y44500D01*
X-360000Y38100D02*
X-344905Y23005D01*
X-185000Y62000D02*
X-163000Y84000D01*
X-225000Y40000D02*
X-203000Y62000D01*
X-185000D01*
X-225000Y29000D02*
Y40000D01*
X-206658Y67342D02*
X-197658D01*
X-235000Y39000D02*
X-206658Y67342D01*
X-197658D02*
X-176500Y88500D01*
X-217000Y39250D02*
X-199750Y56500D01*
X-256000Y-9000D02*
X-217000Y30000D01*
Y39250D01*
X-237000Y17000D02*
X-225000Y29000D01*
X-288771Y-7758D02*
X-285358Y-4345D01*
X-288771Y-26454D02*
Y-7758D01*
X-296339Y-34022D02*
X-288771Y-26454D01*
X-360000Y-63500D02*
X-343000Y-46499D01*
Y-19000D01*
X-333000Y-9000D01*
X-308501D01*
X-296319Y-21182D01*
X-262550Y15232D02*
X-261937D01*
X-260169Y17000D01*
X-237000D01*
X-277568Y-4345D02*
X-267956Y5267D01*
X-285358Y-4345D02*
X-277568D01*
X-279848Y-848D02*
X-271000Y8000D01*
X-286138Y-848D02*
X-279848D01*
X-292249Y-6959D02*
X-286138Y-848D01*
X-292249Y-17112D02*
Y-6959D01*
X-296319Y-21182D02*
X-292249Y-17112D01*
X-282849Y2311D02*
X-275000Y10160D01*
X-287255Y2311D02*
X-282849D01*
X-271000Y8000D02*
Y14000D01*
X-275000Y10160D02*
Y26017D01*
X-271000Y14000D02*
X-263762Y21238D01*
X-267956Y5267D02*
X-262550D01*
X-258762Y21238D02*
X-249000Y31000D01*
X-263762Y21238D02*
X-258762D01*
X-249000Y31000D02*
X-234000D01*
X-262750Y25750D02*
X-249500Y39000D01*
X-235000D01*
X-207500Y33500D02*
Y41762D01*
X-255999Y-14999D02*
X-207500Y33500D01*
X-283750Y-14999D02*
X-255999D01*
X-248546Y46347D02*
X-248119Y45920D01*
X-296750Y44500D02*
X-286250Y55000D01*
X-132500Y71547D02*
Y74163D01*
X-152750Y77500D02*
X-135031D01*
Y76695D02*
X-132500Y74163D01*
X-135031Y76695D02*
Y77500D01*
X-198369Y50893D02*
X-103393D01*
X-102308Y49808D01*
X-207500Y41762D02*
X-198369Y50893D01*
X-57942Y49808D02*
X-54500Y53250D01*
X-102308Y49808D02*
X-57942D01*
X-132500Y71547D02*
X-118773Y57820D01*
X-187131Y36750D02*
X-184028Y33647D01*
X-128890D02*
X-124250Y38286D01*
X-184028Y33647D02*
X-128890D01*
X-124250Y38286D02*
X-105536D01*
X-97000Y29750D01*
X-295750Y38250D02*
X-285579Y48421D01*
X-273927D01*
X-286250Y55000D02*
X-252500D01*
X-171500Y-40500D02*
X-159000Y-28000D01*
X-125062Y23438D02*
X-118500Y30000D01*
X-173750Y56500D02*
X-152750Y77500D01*
X-199750Y56500D02*
X-173750D01*
X-260494Y-101744D02*
X-256250Y-97500D01*
Y-69750D02*
X-244000Y-57500D01*
X-256250Y-97500D02*
Y-69750D01*
X-260494Y-132514D02*
Y-101744D01*
X-238000Y-93750D02*
X-231750Y-100000D01*
Y-118151D02*
Y-100000D01*
Y-118151D02*
X-211900Y-138001D01*
X-246000Y-77500D02*
X-235581Y-67081D01*
X-246000Y-122000D02*
Y-77500D01*
Y-122000D02*
X-237000Y-131000D01*
X-262700Y-134719D02*
X-260494Y-132514D01*
X-262700Y-138000D02*
Y-134719D01*
X-216750Y-121500D02*
Y-102500D01*
X-228297Y-90954D02*
X-216750Y-102500D01*
Y-121500D02*
X-213000Y-125250D01*
X-296186Y10295D02*
Y26754D01*
X-292616Y30324D02*
X-285642D01*
X-296186Y26754D02*
X-292616Y30324D01*
X-281238Y19459D02*
Y27430D01*
X-285642Y30324D02*
X-267756Y48210D01*
X-232419Y-40919D02*
Y-35419D01*
X-188000Y9000D02*
X-73000D01*
X-232419Y-35419D02*
X-188000Y9000D01*
X-237592Y-35592D02*
X-189750Y12250D01*
X-27817Y-2183D02*
Y-2183D01*
X-189750Y12250D02*
X-86143D01*
X-237592Y-39142D02*
Y-35592D01*
X-283661Y-9000D02*
X-256000D01*
X-235964Y-75710D02*
X-230528D01*
X-238000Y-77747D02*
X-235964Y-75710D01*
X-230528D02*
X-230067Y-76172D01*
X-238000Y-93750D02*
Y-77747D01*
Y-39550D02*
X-237592Y-39142D01*
X-184000Y-5250D02*
X-98774D01*
X-214625Y-42125D02*
Y-35875D01*
X-184000Y-5250D01*
X-281328Y-22555D02*
X-247424D01*
X-201431Y23438D01*
X-282855Y-21028D02*
X-281328Y-22555D01*
X-283661Y-21028D02*
X-282855D01*
X-163000Y84000D02*
X-70000D01*
X-176500Y88500D02*
X-102631D01*
X-70000Y84000D02*
X-53750Y67750D01*
X-34250D02*
X-30988Y64488D01*
X-53750Y67750D02*
X-34250D01*
X-30988Y40012D02*
Y64488D01*
X-213000Y-125250D02*
X-199251D01*
X-186500Y-138001D01*
X-201431Y23438D02*
X-125062D01*
X-31000Y40000D02*
X-30988Y40012D01*
X-31000Y16000D02*
Y40000D01*
X-186000Y-39000D02*
X-163500Y-16500D01*
X-118286D01*
X-182000Y-9000D02*
X-94750D01*
X-180750Y-13000D02*
X-69250D01*
X-204702Y-31702D02*
X-182000Y-9000D01*
X-198606Y-30856D02*
X-180750Y-13000D01*
X-69250D02*
X-65500Y-16750D01*
X-98774Y-5250D02*
X-92262Y1262D01*
X-94750Y-9000D02*
X-89250Y-3500D01*
X-118286Y-16500D02*
X-110911Y-23875D01*
X-129250Y-21250D02*
X-120500Y-30000D01*
X-66875Y-23875D02*
X-61694Y-29056D01*
X-110911Y-23875D02*
X-66875D01*
X-120500Y-30000D02*
X-69750D01*
X-161750Y-23750D02*
X-143000D01*
X-133438Y-33312D02*
X-78061D01*
X-143000Y-23750D02*
X-133438Y-33312D01*
X-159000Y-28000D02*
X-145500D01*
X-135250Y-38250D02*
X-80862D01*
X-145500Y-28000D02*
X-135250Y-38250D01*
X-78061Y-33312D02*
X-64373Y-47000D01*
X-80862Y-38250D02*
X-76870Y-42242D01*
X-49262Y1262D02*
X-30500Y-17500D01*
X-198606Y-41750D02*
Y-30856D01*
X-204702Y-42209D02*
Y-31702D01*
X-92262Y1262D02*
X-49262D01*
X-65500Y-16750D02*
X-55750D01*
X-61694Y-29056D02*
X-58243D01*
X-225493Y-66960D02*
X-225458D01*
X-225504Y-66949D02*
X-225493Y-66960D01*
X-231505Y-47005D02*
X-219505D01*
X-234250Y-49750D02*
X-231505Y-47005D01*
X-241431Y-44569D02*
X-236069D01*
X-241800Y-44200D02*
X-241431Y-44569D01*
X-236069D02*
X-232419Y-40919D01*
X-248262Y45778D02*
X-248119Y45920D01*
X-219505Y-47005D02*
X-214625Y-42125D01*
X-229751Y-55027D02*
X-226724Y-52000D01*
X-192250D02*
X-186000Y-45750D01*
X-226724Y-52000D02*
X-192250D01*
X-58250Y28250D02*
X-27817Y-2183D01*
Y-2183D02*
X-27722Y-2089D01*
X-50000Y13250D02*
X-28750Y-8000D01*
X-64373Y-47000D02*
X-56500D01*
X-228297Y-90954D02*
Y-87451D01*
X-245500Y-49750D02*
X-234250D01*
X-235581Y-67081D02*
X-225466D01*
X-225458Y-67020D02*
Y-66960D01*
X-225466Y-67081D02*
Y-67028D01*
X-225458Y-67020D01*
X-229751Y-55833D02*
Y-55027D01*
X-231484Y-60453D02*
X-229566Y-62372D01*
X-234437Y-57500D02*
X-234321Y-57617D01*
Y-57810D02*
Y-57617D01*
X-231678Y-60453D02*
X-231484D01*
X-244000Y-57500D02*
X-234437D01*
X-234321Y-57810D02*
X-231678Y-60453D01*
X-229566Y-62372D02*
X-229509Y-62316D01*
X-250262Y-44988D02*
X-245500Y-49750D01*
X-250262Y-44988D02*
Y-38738D01*
X-264304Y-42000D02*
X-264000Y-41696D01*
Y-36250D01*
X-256250Y-32750D02*
X-250262Y-38738D01*
X-186000Y-45750D02*
Y-39000D01*
X-260500Y-32750D02*
X-256250D01*
X-264000Y-36250D02*
X-260500Y-32750D01*
X-172250Y-34250D02*
X-161750Y-23750D01*
X-193125Y-57375D02*
X-131125D01*
X-294501Y-4935D02*
X-287255Y2311D01*
X-295571Y376D02*
X-290938Y5009D01*
X-296762Y-5504D02*
X-296193Y-4935D01*
X-294501D01*
X-290938Y5009D02*
Y9759D01*
X-283750Y-15028D02*
X-283750Y-15028D01*
Y-14999D01*
X-283661Y-9029D02*
X-283661Y-9029D01*
Y-9000D01*
X-290938Y9759D02*
X-281238Y19459D01*
X-199750Y36750D02*
X-187131D01*
X-203038Y33462D02*
X-199750Y36750D01*
X-203038Y29724D02*
X-202769Y29455D01*
X-203221Y29002D02*
X-202731Y28512D01*
X-203293Y27950D02*
X-202731Y28512D01*
X-203221Y29002D02*
X-202769Y29455D01*
X-203038Y29724D02*
Y33462D01*
X-97000Y18393D02*
Y29750D01*
X-60216Y-52247D02*
X-59411D01*
X-68559Y-50693D02*
X-61770D01*
X-60216Y-52247D01*
X-76870Y-42381D02*
X-68559Y-50693D01*
X-100631Y90500D02*
X-100250D01*
X-102631Y88500D02*
X-100631Y90500D01*
X-248546Y46347D02*
Y51046D01*
X-252500Y55000D02*
X-248546Y51046D01*
X-241920Y45330D02*
X-241667D01*
X-242000Y45250D02*
X-241920Y45330D01*
X-275000Y26017D02*
X-254267Y46750D01*
X-281238Y27430D02*
X-261011Y47657D01*
X-76870Y-42381D02*
Y-42242D01*
X-27817Y-2183D02*
X-27817D01*
X-68500Y13250D02*
X-50000D01*
X-86750Y28250D02*
X-58250D01*
X-131125Y-57375D02*
X-131000Y-57500D01*
X-193250Y-57250D02*
X-193125Y-57375D01*
X-88380Y23747D02*
Y26620D01*
X-88627Y23500D02*
X-88380Y23747D01*
Y26620D02*
X-86750Y28250D01*
X-73000Y9000D02*
X-68750Y13250D01*
X-86143Y12250D02*
X-85250Y13143D01*
Y20123D01*
X-88627Y23500D02*
X-85250Y20123D01*
X-95451Y16844D02*
X-90344D01*
X-97000Y18393D02*
X-95451Y16844D01*
D12*
X-195204Y47000D02*
X-106500D01*
X-100750Y41250D01*
X-197204Y45000D02*
X-195204Y47000D01*
X-196510Y31115D02*
X-195105Y29710D01*
X-127040D02*
X-121750Y35000D01*
X-195105Y29710D02*
X-127040D01*
X-198048Y31115D02*
X-196510D01*
X-121750Y35000D02*
X-108000D01*
X-103000Y30000D01*
X-198526Y31593D02*
X-198048Y31115D01*
X-103000Y16762D02*
Y30000D01*
X-197881Y45000D02*
X-197204D01*
D103*
X-262750Y-93000D02*
Y-65250D01*
X-254012Y-56512D01*
X-264750Y-50000D02*
X-258008Y-43258D01*
X-290750Y-50000D02*
X-264750D01*
X-254968Y-43258D02*
X-254774Y-43064D01*
X-258008Y-43258D02*
X-254968D01*
X-296623Y-44127D02*
X-290750Y-50000D01*
X-296581Y-44085D02*
X-296462D01*
X-296623Y-44127D02*
X-296581Y-44085D01*
X-254012Y-56512D02*
Y-43211D01*
D108*
X-275250Y111000D02*
D03*
X-323000Y15250D02*
D03*
Y-1500D02*
D03*
X-253000Y-111000D02*
D03*
X-224500Y-110750D02*
D03*
X-239000Y-111000D02*
D03*
X-243500Y111000D02*
D03*
X-257750D02*
D03*
X30000Y-111000D02*
D03*
X-3750D02*
D03*
X30000Y111000D02*
D03*
X13000D02*
D03*
X-4750D02*
D03*
X13000Y-111000D02*
D03*
D109*
X-420200Y-75000D02*
D03*
Y-25000D02*
D03*
Y25000D02*
D03*
Y72500D02*
D03*
X-186500Y-138001D02*
D03*
Y-170001D02*
D03*
D110*
X-394800Y-75000D02*
D03*
Y-25000D02*
D03*
Y25000D02*
D03*
Y72500D02*
D03*
X-360000Y-38100D02*
D03*
X-360000Y-12700D02*
D03*
Y12700D02*
D03*
Y38100D02*
D03*
Y63500D02*
D03*
X-313500Y-138000D02*
D03*
X-288100D02*
D03*
X-262700D02*
D03*
X-237300D02*
D03*
X-211900Y-138001D02*
D03*
X-313500Y-170000D02*
D03*
X-288100D02*
D03*
X-262700D02*
D03*
X-237300D02*
D03*
X-211900Y-170001D02*
D03*
D111*
X-360000Y-63500D02*
D03*
D112*
X215260Y161000D02*
D03*
X-135260D02*
D03*
Y-161000D02*
D03*
X215260D02*
D03*
D113*
X-234000Y31000D02*
D03*
X-135031Y77500D02*
D03*
X-118773Y57820D02*
D03*
X-295750Y38250D02*
D03*
X-296750Y44500D02*
D03*
X-171500Y-40500D02*
D03*
X-118500Y30000D02*
D03*
X-296186Y10295D02*
D03*
X-129250Y-21250D02*
D03*
X-69750Y-30000D02*
D03*
X-225504Y-66949D02*
D03*
X-241800Y-44200D02*
D03*
X-238000Y-39550D02*
D03*
X-248262Y45778D02*
D03*
X-54500Y53250D02*
D03*
X-262750Y-93000D02*
D03*
X-27722Y-2089D02*
D03*
X-28750Y-8000D02*
D03*
X-68750Y13250D02*
D03*
X-230067Y-76172D02*
D03*
X-229751Y-55833D02*
D03*
X-229509Y-62316D02*
D03*
X-228297Y-87451D02*
D03*
X-198606Y-41750D02*
D03*
X-204702Y-42209D02*
D03*
X-264304Y-42000D02*
D03*
X-254774Y-43064D02*
D03*
X-172250Y-34250D02*
D03*
X-262750Y25750D02*
D03*
X-296462Y-44085D02*
D03*
X-296762Y-5504D02*
D03*
X-295571Y376D02*
D03*
X-283750Y-15028D02*
D03*
X-283661Y-21028D02*
D03*
X-296319Y-21182D02*
D03*
X-283661Y-9029D02*
D03*
X-203293Y27950D02*
D03*
X-198526Y31593D02*
D03*
X-197881Y45000D02*
D03*
X-59411Y-52247D02*
D03*
X-56500Y-47000D02*
D03*
X-296339Y-34022D02*
D03*
X-273927Y48421D02*
D03*
X-241667Y45330D02*
D03*
X-254267Y46750D02*
D03*
X-267756Y48210D02*
D03*
X-261011Y47657D02*
D03*
X-262550Y5267D02*
D03*
Y15232D02*
D03*
X-58243Y-29056D02*
D03*
X-89250Y-3500D02*
D03*
X-30500Y-17500D02*
D03*
X-131000Y-57500D02*
D03*
X-103000Y16762D02*
D03*
X-90344Y16844D02*
D03*
X-55750Y-16750D02*
D03*
X-100250Y90500D02*
D03*
X-193250Y-57250D02*
D03*
X-88627Y23500D02*
D03*
X-100750Y41250D02*
D03*
X-31000Y16000D02*
D03*
D114*
X320000Y-150000D02*
D03*
Y150000D02*
D03*
X-380000Y-150000D02*
D03*
Y150000D02*
D03*
M02*
