G04*
G04 #@! TF.GenerationSoftware,Altium Limited,Altium Designer,24.6.1 (21)*
G04*
G04 Layer_Color=32896*
%FSLAX44Y44*%
%MOMM*%
G71*
G04*
G04 #@! TF.SameCoordinates,E18C277C-CF0C-426E-95C7-D1DF2096CF1D*
G04*
G04*
G04 #@! TF.FilePolarity,Positive*
G04*
G01*
G75*
%ADD11C,0.1524*%
%ADD12C,0.2000*%
%ADD13C,0.2500*%
%ADD14C,0.1000*%
%ADD16C,0.1500*%
%ADD17C,0.1270*%
%ADD163C,0.5080*%
%ADD164C,0.0500*%
%ADD165C,0.2540*%
G36*
X-43165Y-90639D02*
Y-90914D01*
X-45921D01*
Y-90694D01*
X-45976D01*
Y-90473D01*
X-46031D01*
Y-90198D01*
X-46086D01*
Y-89922D01*
X-46141D01*
Y-89702D01*
X-46196D01*
Y-89316D01*
X-46251D01*
Y-89150D01*
X-46306D01*
Y-88820D01*
X-46362D01*
Y-88544D01*
X-46417D01*
Y-88379D01*
X-46472D01*
Y-87993D01*
X-46527D01*
Y-87828D01*
X-46582D01*
Y-87442D01*
X-46637D01*
Y-87222D01*
X-46692D01*
Y-86946D01*
X-46747D01*
Y-86671D01*
X-46802D01*
Y-86505D01*
X-46858D01*
Y-86120D01*
X-46913D01*
Y-86065D01*
X-50825D01*
Y-86395D01*
X-50770D01*
Y-86560D01*
X-50715D01*
Y-86891D01*
X-50660D01*
Y-87167D01*
X-50605D01*
Y-87332D01*
X-50550D01*
Y-87718D01*
X-50495D01*
Y-87883D01*
X-50440D01*
Y-88269D01*
X-50384D01*
Y-88489D01*
X-50329D01*
Y-88765D01*
X-50274D01*
Y-89095D01*
X-50219D01*
Y-89261D01*
X-50164D01*
Y-89647D01*
X-50109D01*
Y-89867D01*
X-50054D01*
Y-90198D01*
X-49999D01*
Y-90473D01*
X-49943D01*
Y-90639D01*
X-49888D01*
Y-91024D01*
X-49833D01*
Y-91189D01*
X-49778D01*
Y-91575D01*
X-49723D01*
Y-91796D01*
X-49668D01*
Y-92071D01*
X-49613D01*
Y-92402D01*
X-49558D01*
Y-92567D01*
X-49503D01*
Y-92953D01*
X-49448D01*
Y-93173D01*
X-49392D01*
Y-93504D01*
X-49337D01*
Y-93724D01*
X-49282D01*
Y-93945D01*
X-49227D01*
Y-94276D01*
X-49172D01*
Y-94496D01*
X-49117D01*
Y-94827D01*
X-49062D01*
Y-95047D01*
X-49007D01*
Y-95323D01*
X-48952D01*
Y-95653D01*
X-48896D01*
Y-95874D01*
X-48841D01*
Y-96204D01*
X-48786D01*
Y-96425D01*
X-48731D01*
Y-96755D01*
X-48676D01*
Y-97031D01*
X-48621D01*
Y-97251D01*
X-48566D01*
Y-97582D01*
X-48511D01*
Y-97802D01*
X-48456D01*
Y-98133D01*
X-48401D01*
Y-98354D01*
X-48345D01*
Y-98574D01*
X-48235D01*
Y-98629D01*
X-48125D01*
Y-98574D01*
X-44653D01*
Y-98629D01*
X-44598D01*
Y-98574D01*
X-44378D01*
Y-98409D01*
X-44433D01*
Y-98243D01*
X-44488D01*
Y-97858D01*
X-44543D01*
Y-97692D01*
X-44598D01*
Y-97362D01*
X-44653D01*
Y-97086D01*
X-44708D01*
Y-96866D01*
X-44763D01*
Y-96535D01*
X-44819D01*
Y-96314D01*
X-44874D01*
Y-95929D01*
X-44929D01*
Y-95763D01*
X-44984D01*
Y-95433D01*
X-45039D01*
Y-95157D01*
X-45094D01*
Y-94937D01*
X-45149D01*
Y-94606D01*
X-45204D01*
Y-94386D01*
X-45259D01*
Y-94055D01*
X-45314D01*
Y-93835D01*
X-45259D01*
Y-93780D01*
X-42614D01*
Y-93835D01*
X-42559D01*
Y-93945D01*
X-42504D01*
Y-94331D01*
X-42449D01*
Y-94551D01*
X-42394D01*
Y-94771D01*
X-42339D01*
Y-95157D01*
X-42284D01*
Y-95323D01*
X-42228D01*
Y-95708D01*
X-42173D01*
Y-95929D01*
X-42118D01*
Y-96204D01*
X-42063D01*
Y-96480D01*
X-42008D01*
Y-96700D01*
X-41953D01*
Y-97086D01*
X-41898D01*
Y-97306D01*
X-41843D01*
Y-97637D01*
X-41788D01*
Y-97858D01*
X-41733D01*
Y-98078D01*
X-41677D01*
Y-98464D01*
X-41622D01*
Y-98574D01*
X-41512D01*
Y-98629D01*
X-41402D01*
Y-98574D01*
X-37930D01*
Y-98629D01*
X-37820D01*
Y-98574D01*
X-37710D01*
Y-98243D01*
X-37765D01*
Y-97968D01*
X-37820D01*
Y-97747D01*
X-37875D01*
Y-97417D01*
X-37930D01*
Y-97196D01*
X-37985D01*
Y-96866D01*
X-38040D01*
Y-96590D01*
X-38095D01*
Y-96314D01*
X-38150D01*
Y-96039D01*
X-38206D01*
Y-95819D01*
X-38261D01*
Y-95488D01*
X-38316D01*
Y-95267D01*
X-38371D01*
Y-94937D01*
X-38426D01*
Y-94661D01*
X-38481D01*
Y-94441D01*
X-38536D01*
Y-94110D01*
X-38591D01*
Y-93890D01*
X-38647D01*
Y-93559D01*
X-38702D01*
Y-93339D01*
X-38757D01*
Y-93008D01*
X-38812D01*
Y-92732D01*
X-38867D01*
Y-92512D01*
X-38922D01*
Y-92182D01*
X-38977D01*
Y-91961D01*
X-39032D01*
Y-91630D01*
X-39087D01*
Y-91355D01*
X-39142D01*
Y-91134D01*
X-39198D01*
Y-90804D01*
X-39253D01*
Y-90639D01*
X-39308D01*
Y-90253D01*
X-39363D01*
Y-90032D01*
X-39418D01*
Y-89757D01*
X-39473D01*
Y-89481D01*
X-39528D01*
Y-89261D01*
X-36332D01*
Y-89316D01*
X-36277D01*
Y-89591D01*
X-36222D01*
Y-89757D01*
X-36167D01*
Y-90142D01*
X-36112D01*
Y-90363D01*
X-36056D01*
Y-90583D01*
X-36001D01*
Y-90914D01*
X-35946D01*
Y-91134D01*
X-35891D01*
Y-91520D01*
X-35836D01*
Y-91741D01*
X-35781D01*
Y-92016D01*
X-35726D01*
Y-92292D01*
X-35671D01*
Y-92512D01*
X-35616D01*
Y-92898D01*
X-35561D01*
Y-93063D01*
X-35505D01*
Y-93394D01*
X-35450D01*
Y-93614D01*
X-35395D01*
Y-93835D01*
X-35340D01*
Y-94220D01*
X-35285D01*
Y-94386D01*
X-35230D01*
Y-94827D01*
X-35175D01*
Y-94992D01*
X-35120D01*
Y-95267D01*
X-35064D01*
Y-95598D01*
X-35009D01*
Y-95763D01*
X-34954D01*
Y-96204D01*
X-34899D01*
Y-96314D01*
X-34844D01*
Y-96700D01*
X-34789D01*
Y-96921D01*
X-34734D01*
Y-97141D01*
X-34679D01*
Y-97527D01*
X-34624D01*
Y-97692D01*
X-34569D01*
Y-98133D01*
X-34513D01*
Y-98298D01*
X-34458D01*
Y-98519D01*
X-34403D01*
Y-98574D01*
X-34348D01*
Y-98629D01*
X-34238D01*
Y-98574D01*
X-30491D01*
Y-98409D01*
X-30546D01*
Y-98188D01*
X-30601D01*
Y-97802D01*
X-30656D01*
Y-97637D01*
X-30711D01*
Y-97251D01*
X-30766D01*
Y-97086D01*
X-30821D01*
Y-96755D01*
X-30876D01*
Y-96480D01*
X-30931D01*
Y-96259D01*
X-30987D01*
Y-95929D01*
X-31042D01*
Y-95708D01*
X-31097D01*
Y-95378D01*
X-31152D01*
Y-95102D01*
X-31207D01*
Y-94937D01*
X-31262D01*
Y-94551D01*
X-31317D01*
Y-94331D01*
X-31372D01*
Y-94000D01*
X-31427D01*
Y-93780D01*
X-31483D01*
Y-93504D01*
X-31538D01*
Y-93173D01*
X-31593D01*
Y-93008D01*
X-31648D01*
Y-92622D01*
X-31703D01*
Y-92402D01*
X-31758D01*
Y-92071D01*
X-31813D01*
Y-91796D01*
X-31868D01*
Y-91630D01*
X-31923D01*
Y-91245D01*
X-31978D01*
Y-91079D01*
X-32034D01*
Y-90694D01*
X-32089D01*
Y-90473D01*
X-32144D01*
Y-90198D01*
X-32199D01*
Y-89867D01*
X-32254D01*
Y-89702D01*
X-32309D01*
Y-89261D01*
X-32254D01*
Y-89206D01*
X-32144D01*
Y-89261D01*
X-23492D01*
Y-89316D01*
X-23437D01*
Y-89647D01*
X-23382D01*
Y-89867D01*
X-23327D01*
Y-90198D01*
X-23272D01*
Y-90418D01*
X-23216D01*
Y-90694D01*
X-23161D01*
Y-90914D01*
X-28727D01*
Y-91024D01*
X-28782D01*
Y-91079D01*
X-28727D01*
Y-91355D01*
X-28672D01*
Y-91520D01*
X-28617D01*
Y-91906D01*
X-28562D01*
Y-92126D01*
X-28507D01*
Y-92402D01*
X-28452D01*
Y-92677D01*
X-28396D01*
Y-92898D01*
X-28341D01*
Y-93284D01*
X-28286D01*
Y-93504D01*
X-28231D01*
Y-93724D01*
X-28176D01*
Y-93780D01*
X-22610D01*
Y-93835D01*
X-22555D01*
Y-94000D01*
X-22500D01*
Y-94331D01*
X-22445D01*
Y-94551D01*
X-22390D01*
Y-94882D01*
X-22335D01*
Y-95102D01*
X-22280D01*
Y-95433D01*
X-27790D01*
Y-95488D01*
X-27845D01*
Y-95708D01*
X-27790D01*
Y-95984D01*
X-27735D01*
Y-96204D01*
X-27680D01*
Y-96590D01*
X-27625D01*
Y-96755D01*
X-27570D01*
Y-97141D01*
X-27515D01*
Y-97362D01*
X-27460D01*
Y-97582D01*
X-27405D01*
Y-97968D01*
X-27349D01*
Y-98133D01*
X-27294D01*
Y-98519D01*
X-27239D01*
Y-98574D01*
X-17926D01*
Y-98629D01*
X-17816D01*
Y-98574D01*
X-17706D01*
Y-98409D01*
X-17761D01*
Y-97968D01*
X-17816D01*
Y-97802D01*
X-17871D01*
Y-97472D01*
X-17926D01*
Y-97251D01*
X-17981D01*
Y-96976D01*
X-18036D01*
Y-96645D01*
X-18091D01*
Y-96480D01*
X-18147D01*
Y-96039D01*
X-18202D01*
Y-95874D01*
X-18257D01*
Y-95598D01*
X-18312D01*
Y-95267D01*
X-18367D01*
Y-95047D01*
X-18422D01*
Y-94661D01*
X-18477D01*
Y-94496D01*
X-18532D01*
Y-94165D01*
X-18587D01*
Y-93945D01*
X-18642D01*
Y-93669D01*
X-18698D01*
Y-93339D01*
X-18753D01*
Y-93173D01*
X-18808D01*
Y-92732D01*
X-18863D01*
Y-92567D01*
X-18918D01*
Y-92292D01*
X-18973D01*
Y-91961D01*
X-19028D01*
Y-91796D01*
X-19083D01*
Y-91355D01*
X-19138D01*
Y-91189D01*
X-19194D01*
Y-90859D01*
X-19249D01*
Y-90639D01*
X-19304D01*
Y-90418D01*
X-19359D01*
Y-90032D01*
X-19414D01*
Y-89867D01*
X-19469D01*
Y-89481D01*
X-19524D01*
Y-89261D01*
X-19579D01*
Y-89040D01*
X-19634D01*
Y-88655D01*
X-19690D01*
Y-88489D01*
X-19745D01*
Y-88104D01*
X-19800D01*
Y-87883D01*
X-19855D01*
Y-87607D01*
X-19910D01*
Y-87332D01*
X-19965D01*
Y-87112D01*
X-20020D01*
Y-86726D01*
X-20075D01*
Y-86560D01*
X-20130D01*
Y-86175D01*
X-20185D01*
Y-86065D01*
X-44047D01*
Y-86120D01*
X-44102D01*
Y-86395D01*
X-44047D01*
Y-86616D01*
X-43992D01*
Y-86781D01*
X-43937D01*
Y-87222D01*
X-43882D01*
Y-87387D01*
X-43827D01*
Y-87773D01*
X-43772D01*
Y-87993D01*
X-43716D01*
Y-88214D01*
X-43661D01*
Y-88544D01*
X-43606D01*
Y-88710D01*
X-43551D01*
Y-89095D01*
X-43496D01*
Y-89316D01*
X-43441D01*
Y-89591D01*
X-43386D01*
Y-89867D01*
X-43331D01*
Y-90087D01*
X-43275D01*
Y-90418D01*
X-43220D01*
Y-90639D01*
X-43165D01*
D02*
G37*
D11*
X85994Y-153871D02*
X97216D01*
Y-164759D02*
Y-153871D01*
X-57216D02*
X-45994D01*
X-44848Y-186129D02*
X84848D01*
X-57216Y-164759D02*
Y-153871D01*
Y153871D02*
X-45994D01*
X-57216D02*
Y164759D01*
X85994Y153871D02*
X97216D01*
X-44848Y186129D02*
X84848D01*
X97216Y153871D02*
Y164759D01*
X-85537Y-17823D02*
Y-14973D01*
Y-31484D02*
Y-28634D01*
Y-31484D02*
X-64963D01*
Y-17823D02*
Y-14973D01*
X-85537D02*
X-64963D01*
Y-31484D02*
Y-28634D01*
X-305621Y46289D02*
Y54950D01*
X-274379Y46289D02*
Y54950D01*
X-305621Y-67300D02*
X-274379D01*
X-305621D02*
Y-57889D01*
Y54950D02*
X-274379D01*
Y-67300D02*
Y-57889D01*
D12*
X-264803Y-24980D02*
G03*
X-264803Y-24980I-1000J0D01*
G01*
X-120630Y72880D02*
G03*
X-120630Y72880I-1000J0D01*
G01*
X-135880Y91130D02*
G03*
X-135880Y91130I-1000J0D01*
G01*
X5000Y18000D02*
G03*
X5000Y18000I-1000J0D01*
G01*
X-263500Y41700D02*
G03*
X-263500Y41700I-500J0D01*
G01*
X-266250Y-81250D02*
G03*
X-266250Y-81250I-1000J0D01*
G01*
X-86120Y77870D02*
G03*
X-86120Y77870I-1000J0D01*
G01*
X-236000Y130500D02*
Y135500D01*
X-213500D01*
Y157500D01*
Y172500D02*
Y189000D01*
X-278000Y130500D02*
Y135500D01*
Y130500D02*
X-236000D01*
X-299500Y135500D02*
X-299500Y157500D01*
X-299500Y135500D02*
X-278000D01*
X-299500Y189000D02*
X-213500D01*
X-299500D02*
X-299500Y172500D01*
X-101750Y-65978D02*
Y-65729D01*
Y-35229D02*
Y-34978D01*
X-70750Y-65978D02*
Y-65729D01*
Y-35229D02*
Y-34978D01*
X-101750Y-65978D02*
X-98000D01*
X-74500D02*
X-70750D01*
X-101750Y-34978D02*
X-98000D01*
X-74500D02*
X-70750D01*
X-172120Y-54250D02*
Y-45620D01*
X-185380D02*
X-172120D01*
X-185380Y-58880D02*
Y-45620D01*
Y-58880D02*
X-176750D01*
X-172120Y-54250D01*
X-175750Y59543D02*
Y60457D01*
Y59543D02*
X-146750D01*
X-175750Y60457D02*
X-146750D01*
Y59543D02*
Y60457D01*
X-121630Y58620D02*
Y68250D01*
Y58620D02*
X-102370D01*
X-121630Y68250D02*
X-117000Y72880D01*
X-102370Y58620D02*
Y72880D01*
X-117000D02*
X-102370D01*
X-136880Y76870D02*
Y86500D01*
Y76870D02*
X-117620D01*
X-136880Y86500D02*
X-132250Y91130D01*
X-117620Y76870D02*
Y91130D01*
X-132250D02*
X-117620D01*
X10250Y68500D02*
Y71250D01*
X5850Y68500D02*
X10250D01*
Y82750D02*
Y85500D01*
X5850D02*
X10250D01*
X32500Y-32000D02*
Y14000D01*
X17500Y-32000D02*
X32500D01*
X17500Y-32000D02*
X17500Y-32000D01*
X17500Y-32000D02*
Y14000D01*
X32500D01*
X55000Y-45500D02*
Y500D01*
X40000Y-45500D02*
X55000D01*
X40000Y-45500D02*
X40000Y-45500D01*
X40000Y-45500D02*
Y500D01*
X55000D01*
X40000Y-49500D02*
X55000D01*
X40000Y-95500D02*
Y-49500D01*
Y-95500D02*
X40000Y-95500D01*
X55000D01*
Y-49500D01*
X-135250Y-44000D02*
X-128750D01*
X-135250Y-12000D02*
X-128750D01*
X-135250Y-54000D02*
X-128750D01*
X-135250Y-86000D02*
X-128750D01*
X-98031Y72500D02*
X-95531D01*
X-98031Y70000D02*
Y72500D01*
Y42500D02*
X-95531D01*
X-98031D02*
Y45000D01*
X-70531Y72500D02*
X-68031D01*
Y70000D02*
Y72500D01*
X-70531Y42500D02*
X-68031D01*
Y45000D01*
X-22500Y32250D02*
Y42250D01*
X-53500D02*
X-22500D01*
X-53500Y32250D02*
X-22500D01*
X-53500D02*
Y42250D01*
X-100380Y77870D02*
X-91750D01*
X-100380D02*
Y91130D01*
X-91750Y77870D02*
X-87120Y82500D01*
X-100380Y91130D02*
X-87120D01*
Y82500D02*
Y91130D01*
X-202249Y35500D02*
Y32501D01*
Y34000D01*
X-211246D01*
X-209747Y35500D01*
Y28002D02*
X-211246Y26503D01*
Y23504D01*
X-209747Y22004D01*
X-208247D01*
X-206748Y23504D01*
X-205248Y22004D01*
X-203748D01*
X-202249Y23504D01*
Y26503D01*
X-203748Y28002D01*
X-205248D01*
X-206748Y26503D01*
X-208247Y28002D01*
X-209747D01*
X-206748Y26503D02*
Y23504D01*
X-202249Y19005D02*
X-203748D01*
Y17506D01*
X-202249D01*
Y19005D01*
X-209747Y11508D02*
X-211246Y10008D01*
Y7009D01*
X-209747Y5510D01*
X-203748D01*
X-202249Y7009D01*
Y10008D01*
X-203748Y11508D01*
X-209747D01*
X-202249Y-3487D02*
Y2511D01*
X-208247Y-3487D01*
X-209747D01*
X-211246Y-1988D01*
Y1011D01*
X-209747Y2511D01*
X-202249Y-6486D02*
X-203748D01*
Y-7986D01*
X-202249D01*
Y-6486D01*
Y-19982D02*
Y-13984D01*
X-208247Y-19982D01*
X-209747D01*
X-211246Y-18483D01*
Y-15483D01*
X-209747Y-13984D01*
X-211246Y-28979D02*
Y-22981D01*
X-206748D01*
X-208247Y-25980D01*
Y-27480D01*
X-206748Y-28979D01*
X-203748D01*
X-202249Y-27480D01*
Y-24481D01*
X-203748Y-22981D01*
X-211246Y-40975D02*
X-205248D01*
X-202249Y-43974D01*
X-205248Y-46973D01*
X-211246D01*
X-202249Y-49972D02*
Y-54471D01*
X-203748Y-55970D01*
X-205248Y-54471D01*
Y-51472D01*
X-206748Y-49972D01*
X-208247Y-51472D01*
Y-55970D01*
X-202249Y-63468D02*
Y-60469D01*
X-203748Y-58969D01*
X-206748D01*
X-208247Y-60469D01*
Y-63468D01*
X-206748Y-64967D01*
X-205248D01*
Y-58969D01*
X-208247Y-67966D02*
X-202249D01*
X-205248D01*
X-206748Y-69466D01*
X-208247Y-70965D01*
Y-72465D01*
X-199250Y-79963D02*
Y-81462D01*
X-200749Y-82962D01*
X-208247D01*
Y-78463D01*
X-206748Y-76964D01*
X-203748D01*
X-202249Y-78463D01*
Y-82962D01*
Y-90459D02*
Y-87460D01*
X-203748Y-85961D01*
X-206748D01*
X-208247Y-87460D01*
Y-90459D01*
X-206748Y-91959D01*
X-205248D01*
Y-85961D01*
X-202249Y-94958D02*
Y-97957D01*
Y-96457D01*
X-208247D01*
Y-94958D01*
X-226248Y34250D02*
X-218250D01*
X-220916Y31584D01*
X-218250Y28918D01*
X-226248D01*
Y26253D02*
X-219583D01*
X-218250Y24920D01*
Y22254D01*
X-219583Y20921D01*
X-226248D01*
Y18255D02*
X-218250D01*
Y12924D01*
Y10258D02*
X-226248D01*
Y6259D01*
X-224915Y4926D01*
X-222249D01*
X-220916Y6259D01*
Y10258D01*
X-226248Y2260D02*
X-219583D01*
X-218250Y927D01*
Y-1738D01*
X-219583Y-3071D01*
X-226248D01*
X-224915Y-11069D02*
X-226248Y-9736D01*
Y-7070D01*
X-224915Y-5737D01*
X-223582D01*
X-222249Y-7070D01*
Y-9736D01*
X-220916Y-11069D01*
X-219583D01*
X-218250Y-9736D01*
Y-7070D01*
X-219583Y-5737D01*
X-218250Y-21732D02*
X-226248D01*
Y-25731D01*
X-224915Y-27064D01*
X-222249D01*
X-220916Y-25731D01*
Y-21732D01*
X-218250Y-29729D02*
X-226248D01*
Y-33728D01*
X-224915Y-35061D01*
X-222249D01*
X-220916Y-33728D01*
Y-29729D01*
Y-32395D02*
X-218250Y-35061D01*
X-226248Y-41726D02*
Y-39060D01*
X-224915Y-37727D01*
X-219583D01*
X-218250Y-39060D01*
Y-41726D01*
X-219583Y-43058D01*
X-224915D01*
X-226248Y-41726D01*
X-223582Y-53722D02*
X-218250Y-56387D01*
X-223582Y-59053D01*
X-218250Y-61719D02*
Y-64385D01*
Y-63052D01*
X-226248D01*
X-224915Y-61719D01*
X-218250Y-68383D02*
X-219583D01*
Y-69716D01*
X-218250D01*
Y-68383D01*
X-224915Y-75048D02*
X-226248Y-76381D01*
Y-79047D01*
X-224915Y-80380D01*
X-219583D01*
X-218250Y-79047D01*
Y-76381D01*
X-219583Y-75048D01*
X-224915D01*
X-218250Y-83046D02*
X-219583D01*
Y-84378D01*
X-218250D01*
Y-83046D01*
X-224915Y-89710D02*
X-226248Y-91043D01*
Y-93709D01*
X-224915Y-95042D01*
X-219583D01*
X-218250Y-93709D01*
Y-91043D01*
X-219583Y-89710D01*
X-224915D01*
D13*
X-169500Y82854D02*
G03*
X-169500Y82854I-1250J0D01*
G01*
X-53250Y53250D02*
G03*
X-53250Y53250I-1250J0D01*
G01*
D14*
X-105250Y-65978D02*
G03*
X-105250Y-65978I-500J0D01*
G01*
D16*
X-173750Y-61750D02*
G03*
X-173750Y-61750I-1000J0D01*
G01*
X-63250Y71250D02*
G03*
X-63250Y71250I-1250J0D01*
G01*
X-53750Y-89753D02*
X-59082D01*
Y-91086D01*
X-53750Y-96417D01*
Y-97750D01*
X-59082D01*
X-61747Y-89753D02*
Y-96417D01*
X-63080Y-97750D01*
X-65746D01*
X-67079Y-96417D01*
Y-89753D01*
X-69745Y-97750D02*
Y-89753D01*
X-73744D01*
X-75076Y-91086D01*
Y-93751D01*
X-73744Y-95084D01*
X-69745D01*
X-72411D02*
X-75076Y-97750D01*
X-77742Y-89753D02*
X-80408D01*
X-79075D01*
Y-97750D01*
X-77742D01*
X-80408D01*
X-89738Y-91086D02*
X-88406Y-89753D01*
X-85740D01*
X-84407Y-91086D01*
Y-96417D01*
X-85740Y-97750D01*
X-88406D01*
X-89738Y-96417D01*
X-92404Y-89753D02*
Y-97750D01*
Y-93751D01*
X-97736D01*
Y-89753D01*
Y-97750D01*
X144168Y-127336D02*
X145501Y-126003D01*
X148167D01*
X149500Y-127336D01*
Y-132667D01*
X148167Y-134000D01*
X145501D01*
X144168Y-132667D01*
Y-130001D01*
X146834D01*
X141503Y-134000D02*
Y-126003D01*
X136171Y-134000D01*
Y-126003D01*
X133505D02*
Y-134000D01*
X129507D01*
X128174Y-132667D01*
Y-127336D01*
X129507Y-126003D01*
X133505D01*
X160168Y172665D02*
X161501Y173997D01*
X164167D01*
X165500Y172665D01*
Y167333D01*
X164167Y166000D01*
X161501D01*
X160168Y167333D01*
Y169999D01*
X162834D01*
X157503Y166000D02*
Y173997D01*
X152171Y166000D01*
Y173997D01*
X149505D02*
Y166000D01*
X145506D01*
X144174Y167333D01*
Y172665D01*
X145506Y173997D01*
X149505D01*
X276500Y165497D02*
Y157500D01*
X272501D01*
X271168Y158833D01*
Y160166D01*
X272501Y161499D01*
X276500D01*
X272501D01*
X271168Y162832D01*
Y164165D01*
X272501Y165497D01*
X276500D01*
X264504D02*
X267170D01*
X268503Y164165D01*
Y158833D01*
X267170Y157500D01*
X264504D01*
X263171Y158833D01*
Y164165D01*
X264504Y165497D01*
X260505D02*
X255174D01*
X257839D01*
Y157500D01*
X239179Y165497D02*
X244510D01*
Y157500D01*
X239179D01*
X244510Y161499D02*
X241845D01*
X236513Y165497D02*
Y157500D01*
X231181D01*
X275500Y-125503D02*
Y-133500D01*
X271501D01*
X270168Y-132167D01*
Y-130834D01*
X271501Y-129501D01*
X275500D01*
X271501D01*
X270168Y-128168D01*
Y-126835D01*
X271501Y-125503D01*
X275500D01*
X263504D02*
X266170D01*
X267503Y-126835D01*
Y-132167D01*
X266170Y-133500D01*
X263504D01*
X262171Y-132167D01*
Y-126835D01*
X263504Y-125503D01*
X259505D02*
X254174D01*
X256839D01*
Y-133500D01*
X238179Y-125503D02*
X243510D01*
Y-133500D01*
X238179D01*
X243510Y-129501D02*
X240845D01*
X235513Y-125503D02*
Y-133500D01*
X230181D01*
X175000Y-144753D02*
Y-152750D01*
X171001D01*
X169668Y-151417D01*
Y-150084D01*
X171001Y-148751D01*
X175000D01*
X171001D01*
X169668Y-147418D01*
Y-146086D01*
X171001Y-144753D01*
X175000D01*
X165670Y-152750D02*
X163004D01*
X161671Y-151417D01*
Y-148751D01*
X163004Y-147418D01*
X165670D01*
X167003Y-148751D01*
Y-151417D01*
X165670Y-152750D01*
X157672Y-147418D02*
X155007D01*
X153674Y-148751D01*
Y-152750D01*
X157672D01*
X159005Y-151417D01*
X157672Y-150084D01*
X153674D01*
X151008Y-147418D02*
Y-152750D01*
Y-150084D01*
X149675Y-148751D01*
X148342Y-147418D01*
X147009D01*
X137679Y-144753D02*
Y-152750D01*
X141677D01*
X143010Y-151417D01*
Y-148751D01*
X141677Y-147418D01*
X137679D01*
X125683Y-152750D02*
Y-144753D01*
X123017D02*
Y-152750D01*
X127015Y-147418D02*
X123017D01*
X121684D01*
X127015Y-150084D02*
X121684D01*
X229918Y-151417D02*
Y-146086D01*
X231251Y-144753D01*
X233917D01*
X235250Y-146086D01*
Y-151417D01*
X233917Y-152750D01*
X231251D01*
X232584Y-150084D02*
X229918Y-152750D01*
X231251D02*
X229918Y-151417D01*
X227253Y-152750D02*
Y-147418D01*
X224587Y-144753D01*
X221921Y-147418D01*
Y-152750D01*
Y-148751D01*
X227253D01*
X63249Y4250D02*
Y9582D01*
X65915Y6916D02*
X60583D01*
X67247Y12247D02*
X59250D01*
X63249D01*
Y17579D01*
X67247D01*
X59250D01*
X67247Y20245D02*
X61916D01*
X59250Y22911D01*
X61916Y25576D01*
X67247D01*
X65915Y-92918D02*
X67247Y-94251D01*
Y-96917D01*
X65915Y-98250D01*
X60583D01*
X59250Y-96917D01*
Y-94251D01*
X60583Y-92918D01*
X63249D01*
Y-95584D01*
X59250Y-90253D02*
X67247D01*
X59250Y-84921D01*
X67247D01*
Y-82255D02*
X59250D01*
Y-78257D01*
X60583Y-76924D01*
X65915D01*
X67247Y-78257D01*
Y-82255D01*
X62499Y-51250D02*
Y-45918D01*
X66497Y-43253D02*
X58500D01*
X62499D01*
Y-37921D01*
X66497D01*
X58500D01*
X66497Y-35255D02*
X61166D01*
X58500Y-32589D01*
X61166Y-29924D01*
X66497D01*
X-96000Y-17414D02*
X-90668Y-12083D01*
X-96000D02*
X-90668Y-17414D01*
X-96000Y-14749D02*
X-90668D01*
X-93334Y-12083D02*
Y-17414D01*
X-107668Y-133584D02*
X-106335Y-132251D01*
X-103670D01*
X-102337Y-133584D01*
Y-138916D01*
X-103670Y-140249D01*
X-106335D01*
X-107668Y-138916D01*
X-110334Y-133584D02*
X-111667Y-132251D01*
X-114333D01*
X-115666Y-133584D01*
Y-134917D01*
X-114333Y-136250D01*
X-113000D01*
X-114333D01*
X-115666Y-137583D01*
Y-138916D01*
X-114333Y-140249D01*
X-111667D01*
X-110334Y-138916D01*
X-123663Y-132251D02*
X-120997Y-133584D01*
X-118332Y-136250D01*
Y-138916D01*
X-119664Y-140249D01*
X-122330D01*
X-123663Y-138916D01*
Y-137583D01*
X-122330Y-136250D01*
X-118332D01*
X-109668Y170166D02*
X-108336Y171499D01*
X-105670D01*
X-104337Y170166D01*
Y164834D01*
X-105670Y163501D01*
X-108336D01*
X-109668Y164834D01*
X-112334Y170166D02*
X-113667Y171499D01*
X-116333D01*
X-117666Y170166D01*
Y168833D01*
X-116333Y167500D01*
X-115000D01*
X-116333D01*
X-117666Y166167D01*
Y164834D01*
X-116333Y163501D01*
X-113667D01*
X-112334Y164834D01*
X-125663Y171499D02*
X-120332D01*
Y167500D01*
X-122997Y168833D01*
X-124330D01*
X-125663Y167500D01*
Y164834D01*
X-124330Y163501D01*
X-121664D01*
X-120332Y164834D01*
X197582Y172416D02*
X198915Y173749D01*
X201580D01*
X202913Y172416D01*
Y167084D01*
X201580Y165751D01*
X198915D01*
X197582Y167084D01*
X194916Y172416D02*
X193583Y173749D01*
X190917D01*
X189584Y172416D01*
Y171083D01*
X190917Y169750D01*
X192250D01*
X190917D01*
X189584Y168417D01*
Y167084D01*
X190917Y165751D01*
X193583D01*
X194916Y167084D01*
X182920Y165751D02*
Y173749D01*
X186918Y169750D01*
X181587D01*
X62996Y96499D02*
X57664D01*
X60330D01*
Y88501D01*
X54998D02*
Y96499D01*
X50999D01*
X49666Y95166D01*
Y92500D01*
X50999Y91167D01*
X54998D01*
X47001Y88501D02*
X44335D01*
X45668D01*
Y96499D01*
X47001Y95166D01*
X40336D02*
X39003Y96499D01*
X36337D01*
X35004Y95166D01*
Y93833D01*
X36337Y92500D01*
X37670D01*
X36337D01*
X35004Y91167D01*
Y89834D01*
X36337Y88501D01*
X39003D01*
X40336Y89834D01*
X-105754Y5999D02*
X-111086D01*
X-108420D01*
Y-1999D01*
X-113752D02*
Y5999D01*
X-117751D01*
X-119084Y4666D01*
Y2000D01*
X-117751Y667D01*
X-113752D01*
X-121749Y-1999D02*
X-124415D01*
X-123082D01*
Y5999D01*
X-121749Y4666D01*
X-133745Y-1999D02*
X-128414D01*
X-133745Y3333D01*
Y4666D01*
X-132413Y5999D01*
X-129747D01*
X-128414Y4666D01*
X-151004Y99999D02*
X-156336D01*
X-153670D01*
Y92001D01*
X-159002D02*
Y99999D01*
X-163001D01*
X-164334Y98666D01*
Y96000D01*
X-163001Y94667D01*
X-159002D01*
X-166999Y92001D02*
X-169665D01*
X-168332D01*
Y99999D01*
X-166999Y98666D01*
X-173664Y93334D02*
X-174997Y92001D01*
X-177663D01*
X-178995Y93334D01*
Y98666D01*
X-177663Y99999D01*
X-174997D01*
X-173664Y98666D01*
Y97333D01*
X-174997Y96000D01*
X-178995D01*
X-163255Y-90001D02*
X-168586D01*
X-165920D01*
Y-97999D01*
X-171252D02*
Y-90001D01*
X-175251D01*
X-176583Y-91334D01*
Y-94000D01*
X-175251Y-95333D01*
X-171252D01*
X-179249Y-97999D02*
X-181915D01*
X-180582D01*
Y-90001D01*
X-179249Y-91334D01*
X-185914D02*
X-187247Y-90001D01*
X-189913D01*
X-191245Y-91334D01*
Y-92667D01*
X-189913Y-94000D01*
X-191245Y-95333D01*
Y-96666D01*
X-189913Y-97999D01*
X-187247D01*
X-185914Y-96666D01*
Y-95333D01*
X-187247Y-94000D01*
X-185914Y-92667D01*
Y-91334D01*
X-187247Y-94000D02*
X-189913D01*
X-127837Y19499D02*
X-133169D01*
X-130503D01*
Y11501D01*
X-135835D02*
Y19499D01*
X-139834D01*
X-141166Y18166D01*
Y15500D01*
X-139834Y14167D01*
X-135835D01*
X-143832Y11501D02*
X-146498D01*
X-145165D01*
Y19499D01*
X-143832Y18166D01*
X-150497Y11501D02*
X-153163D01*
X-151830D01*
Y19499D01*
X-150497Y18166D01*
X-239003Y-93501D02*
Y-100166D01*
X-240336Y-101499D01*
X-243002D01*
X-244335Y-100166D01*
Y-93501D01*
X-247001Y-101499D02*
X-249667D01*
X-248334D01*
Y-93501D01*
X-247001Y-94834D01*
X-253665Y-93501D02*
X-258997D01*
Y-94834D01*
X-253665Y-100166D01*
Y-101499D01*
X45999Y9667D02*
Y7001D01*
Y8334D01*
X39334D01*
X38001Y7001D01*
Y5668D01*
X39334Y4336D01*
Y12333D02*
X38001Y13666D01*
Y16332D01*
X39334Y17665D01*
X44666D01*
X45999Y16332D01*
Y13666D01*
X44666Y12333D01*
X43333D01*
X42000Y13666D01*
Y17665D01*
X66999Y-13333D02*
Y-15999D01*
Y-14666D01*
X60334D01*
X59001Y-15999D01*
Y-17332D01*
X60334Y-18664D01*
X65666Y-10667D02*
X66999Y-9334D01*
Y-6668D01*
X65666Y-5336D01*
X64333D01*
X63000Y-6668D01*
X61667Y-5336D01*
X60334D01*
X59001Y-6668D01*
Y-9334D01*
X60334Y-10667D01*
X61667D01*
X63000Y-9334D01*
X64333Y-10667D01*
X65666D01*
X63000Y-9334D02*
Y-6668D01*
X66999Y-66083D02*
Y-68749D01*
Y-67416D01*
X60334D01*
X59001Y-68749D01*
Y-70082D01*
X60334Y-71414D01*
X66999Y-63417D02*
Y-58085D01*
X65666D01*
X60334Y-63417D01*
X59001D01*
X-269251Y74668D02*
Y69337D01*
X-273250D01*
Y72003D01*
Y69337D01*
X-277249D01*
X-269251Y77334D02*
X-277249D01*
Y81333D01*
X-275916Y82666D01*
X-274583D01*
X-273250Y81333D01*
Y77334D01*
Y81333D01*
X-271917Y82666D01*
X-270584D01*
X-269251Y81333D01*
Y77334D01*
X-270584Y85332D02*
X-269251Y86664D01*
Y89330D01*
X-270584Y90663D01*
X-271917D01*
X-273250Y89330D01*
Y87997D01*
Y89330D01*
X-274583Y90663D01*
X-275916D01*
X-277249Y89330D01*
Y86664D01*
X-275916Y85332D01*
X-240003Y-36751D02*
Y-43416D01*
X-241336Y-44749D01*
X-244002D01*
X-245335Y-43416D01*
Y-36751D01*
X-248001Y-44749D02*
X-250667D01*
X-249334D01*
Y-36751D01*
X-248001Y-38084D01*
X-254665D02*
X-255998Y-36751D01*
X-258664D01*
X-259997Y-38084D01*
Y-39417D01*
X-258664Y-40750D01*
X-259997Y-42083D01*
Y-43416D01*
X-258664Y-44749D01*
X-255998D01*
X-254665Y-43416D01*
Y-42083D01*
X-255998Y-40750D01*
X-254665Y-39417D01*
Y-38084D01*
X-255998Y-40750D02*
X-258664D01*
X-148003Y-46501D02*
Y-53166D01*
X-149336Y-54499D01*
X-152002D01*
X-153335Y-53166D01*
Y-46501D01*
X-156001Y-54499D02*
X-158666D01*
X-157333D01*
Y-46501D01*
X-156001Y-47834D01*
X-167997Y-46501D02*
X-165331Y-47834D01*
X-162665Y-50500D01*
Y-53166D01*
X-163998Y-54499D01*
X-166664D01*
X-167997Y-53166D01*
Y-51833D01*
X-166664Y-50500D01*
X-162665D01*
X-55501Y-66247D02*
X-62166D01*
X-63499Y-64914D01*
Y-62248D01*
X-62166Y-60915D01*
X-55501D01*
X-63499Y-58249D02*
Y-55584D01*
Y-56916D01*
X-55501D01*
X-56834Y-58249D01*
X-55501Y-46253D02*
Y-51585D01*
X-59500D01*
X-58167Y-48919D01*
Y-47586D01*
X-59500Y-46253D01*
X-62166D01*
X-63499Y-47586D01*
Y-50252D01*
X-62166Y-51585D01*
X29249Y68753D02*
X22584D01*
X21251Y70086D01*
Y72752D01*
X22584Y74085D01*
X29249D01*
X21251Y76751D02*
Y79416D01*
Y78084D01*
X29249D01*
X27916Y76751D01*
Y83415D02*
X29249Y84748D01*
Y87414D01*
X27916Y88747D01*
X26583D01*
X25250Y87414D01*
Y86081D01*
Y87414D01*
X23917Y88747D01*
X22584D01*
X21251Y87414D01*
Y84748D01*
X22584Y83415D01*
X-87836Y101999D02*
Y95334D01*
X-89168Y94001D01*
X-91834D01*
X-93167Y95334D01*
Y101999D01*
X-101165D02*
X-98499Y100666D01*
X-95833Y98000D01*
Y95334D01*
X-97166Y94001D01*
X-99832D01*
X-101165Y95334D01*
Y96667D01*
X-99832Y98000D01*
X-95833D01*
X-178335Y75249D02*
Y68584D01*
X-179668Y67251D01*
X-182334D01*
X-183667Y68584D01*
Y75249D01*
X-191665D02*
X-186333D01*
Y71250D01*
X-188999Y72583D01*
X-190332D01*
X-191665Y71250D01*
Y68584D01*
X-190332Y67251D01*
X-187666D01*
X-186333Y68584D01*
X-120336Y101749D02*
Y95084D01*
X-121668Y93751D01*
X-124334D01*
X-125667Y95084D01*
Y101749D01*
X-132332Y93751D02*
Y101749D01*
X-128333Y97750D01*
X-133665D01*
X-7085Y27249D02*
Y20584D01*
X-8418Y19251D01*
X-11084D01*
X-12417Y20584D01*
Y27249D01*
X-20415Y19251D02*
X-15083D01*
X-20415Y24583D01*
Y25916D01*
X-19082Y27249D01*
X-16416D01*
X-15083Y25916D01*
X-77944Y38237D02*
Y31573D01*
X-79277Y30240D01*
X-81943D01*
X-83276Y31573D01*
Y38237D01*
X-85942Y30240D02*
X-88608D01*
X-87275D01*
Y38237D01*
X-85942Y36904D01*
X-288170Y123501D02*
Y131499D01*
X-292168D01*
X-293501Y130166D01*
Y127500D01*
X-292168Y126167D01*
X-288170D01*
X-301499Y131499D02*
X-298833D01*
X-300166D01*
Y124834D01*
X-298833Y123501D01*
X-297500D01*
X-296167Y124834D01*
X-304165Y123501D02*
X-306830D01*
X-305497D01*
Y131499D01*
X-304165Y130166D01*
X-127086Y-90251D02*
Y-98249D01*
X-132417D01*
X-135083Y-91584D02*
X-136416Y-90251D01*
X-139082D01*
X-140414Y-91584D01*
Y-92917D01*
X-139082Y-94250D01*
X-137749D01*
X-139082D01*
X-140414Y-95583D01*
Y-96916D01*
X-139082Y-98249D01*
X-136416D01*
X-135083Y-96916D01*
X-285585Y-73001D02*
X-282919D01*
X-284252D01*
Y-79666D01*
X-282919Y-80999D01*
X-281586D01*
X-280253Y-79666D01*
X-288251Y-80999D02*
X-290916D01*
X-289583D01*
Y-73001D01*
X-288251Y-74334D01*
X-300247Y-80999D02*
X-294915D01*
X-300247Y-75667D01*
Y-74334D01*
X-298914Y-73001D01*
X-296248D01*
X-294915Y-74334D01*
X-72917Y-167501D02*
X-70251D01*
X-71584D01*
Y-174166D01*
X-70251Y-175499D01*
X-68918D01*
X-67586Y-174166D01*
X-80914Y-167501D02*
X-78249Y-168834D01*
X-75583Y-171500D01*
Y-174166D01*
X-76916Y-175499D01*
X-79582D01*
X-80914Y-174166D01*
Y-172833D01*
X-79582Y-171500D01*
X-75583D01*
X115333Y167999D02*
X117999D01*
X116666D01*
Y161334D01*
X117999Y160001D01*
X119332D01*
X120665Y161334D01*
X108668Y160001D02*
Y167999D01*
X112667Y164000D01*
X107336D01*
X-238918Y76749D02*
X-233587D01*
Y72750D01*
X-236253D01*
X-233587D01*
Y68751D01*
X-241584Y76749D02*
Y68751D01*
X-245583D01*
X-246916Y70084D01*
Y71417D01*
X-245583Y72750D01*
X-241584D01*
X-245583D01*
X-246916Y74083D01*
Y75416D01*
X-245583Y76749D01*
X-241584D01*
X-253580Y68751D02*
Y76749D01*
X-249582Y72750D01*
X-254913D01*
X5999Y-25001D02*
X11330D01*
Y-29000D01*
X8665D01*
X11330D01*
Y-32999D01*
X3333Y-25001D02*
Y-32999D01*
X-666D01*
X-1999Y-31666D01*
Y-30333D01*
X-666Y-29000D01*
X3333D01*
X-666D01*
X-1999Y-27667D01*
Y-26334D01*
X-666Y-25001D01*
X3333D01*
X-4665Y-32999D02*
X-7330D01*
X-5997D01*
Y-25001D01*
X-4665Y-26334D01*
X-69085Y-3001D02*
Y-10999D01*
X-73084D01*
X-74417Y-9666D01*
Y-4334D01*
X-73084Y-3001D01*
X-69085D01*
X-77083Y-4334D02*
X-78416Y-3001D01*
X-81082D01*
X-82415Y-4334D01*
Y-5667D01*
X-81082Y-7000D01*
X-79749D01*
X-81082D01*
X-82415Y-8333D01*
Y-9666D01*
X-81082Y-10999D01*
X-78416D01*
X-77083Y-9666D01*
X12332Y97249D02*
Y89251D01*
X8333D01*
X7000Y90584D01*
Y95916D01*
X8333Y97249D01*
X12332D01*
X4334Y89251D02*
X1668D01*
X3001D01*
Y97249D01*
X4334Y95916D01*
X-152336Y-14751D02*
Y-22749D01*
X-157667D01*
X-164332D02*
Y-14751D01*
X-160333Y-18750D01*
X-165665D01*
D17*
X-239950Y-32050D02*
Y-27550D01*
X-258550Y-32050D02*
Y-27550D01*
X-239950Y-9950D02*
Y-5450D01*
X-258550Y-9950D02*
Y-5450D01*
X13217Y63979D02*
X37601D01*
X13217Y63242D02*
Y63979D01*
X37601Y54230D02*
Y63979D01*
Y19021D02*
Y28770D01*
X13217Y19021D02*
X37601D01*
X13217D02*
Y19758D01*
X-258550Y-66450D02*
Y-61950D01*
X-239950Y-66450D02*
Y-61950D01*
X-258550Y-88550D02*
Y-84050D01*
X-239950Y-88550D02*
Y-84050D01*
D163*
X92250Y-160641D02*
G03*
X92250Y-160641I-2000J0D01*
G01*
X-48250Y160641D02*
G03*
X-48250Y160641I-2000J0D01*
G01*
D164*
X-65750Y-41000D02*
G03*
X-65750Y-41500I0J-250D01*
G01*
D02*
G03*
X-65750Y-41000I0J250D01*
G01*
X-59750Y-68979D02*
G03*
X-60250Y-68979I-250J0D01*
G01*
D02*
G03*
X-59750Y-68979I250J0D01*
G01*
X-70750Y-68478D02*
G03*
X-71250Y-68478I-250J0D01*
G01*
D02*
G03*
X-70750Y-68478I250J0D01*
G01*
X-40000Y-26750D02*
G03*
X-40500Y-26750I-250J0D01*
G01*
D02*
G03*
X-40000Y-26750I250J0D01*
G01*
D165*
X266500Y-185750D02*
Y-141000D01*
X111500D02*
X266500D01*
X189000Y-185625D02*
Y-141000D01*
X111500Y-185500D02*
Y-141000D01*
X111250Y-185750D02*
X266500D01*
M02*
