G04*
G04 #@! TF.GenerationSoftware,Altium Limited,Altium Designer,24.6.1 (21)*
G04*
G04 Layer_Color=8421504*
%FSLAX44Y44*%
%MOMM*%
G71*
G04*
G04 #@! TF.SameCoordinates,E18C277C-CF0C-426E-95C7-D1DF2096CF1D*
G04*
G04*
G04 #@! TF.FilePolarity,Positive*
G04*
G01*
G75*
%ADD18R,0.8000X0.8500*%
%ADD19R,0.9000X2.0000*%
%ADD20R,0.1600X0.7000*%
%ADD21R,0.1600X0.7000*%
%ADD22C,1.0000*%
%ADD23R,0.5200X0.5600*%
%ADD24R,0.5000X0.4000*%
%ADD25R,0.6000X0.2400*%
%ADD26R,0.2400X0.6000*%
%ADD27R,0.4000X0.5000*%
%ADD28R,0.6725X0.7154*%
%ADD29R,0.7154X0.6725*%
%ADD30R,1.0000X1.1500*%
%ADD31R,0.7112X3.0988*%
%ADD32R,1.4986X3.0988*%
%ADD33R,0.5725X0.5682*%
%ADD34R,0.5121X0.5811*%
%ADD35R,0.2794X1.4620*%
%ADD36R,1.4620X0.2794*%
%ADD37C,0.2260*%
%ADD38R,0.5600X0.5200*%
%ADD39R,0.5725X0.5654*%
G04:AMPARAMS|DCode=40|XSize=0.55mm|YSize=0.8mm|CornerRadius=0.0495mm|HoleSize=0mm|Usage=FLASHONLY|Rotation=0.000|XOffset=0mm|YOffset=0mm|HoleType=Round|Shape=RoundedRectangle|*
%AMROUNDEDRECTD40*
21,1,0.5500,0.7010,0,0,0.0*
21,1,0.4510,0.8000,0,0,0.0*
1,1,0.0990,0.2255,-0.3505*
1,1,0.0990,-0.2255,-0.3505*
1,1,0.0990,-0.2255,0.3505*
1,1,0.0990,0.2255,0.3505*
%
%ADD40ROUNDEDRECTD40*%
%ADD41R,0.6000X0.4000*%
%ADD42R,0.5000X0.6000*%
%ADD43R,0.6153X0.5725*%
%ADD44R,0.4682X0.4725*%
%ADD45R,0.9000X0.6500*%
%ADD46R,0.4725X0.4682*%
%ADD47R,1.1051X1.0062*%
%ADD48R,0.6500X0.7000*%
%ADD49R,1.0062X1.1051*%
%ADD50R,0.4000X0.6000*%
%ADD51R,0.8000X0.7000*%
%ADD52R,0.6500X0.6500*%
%ADD53R,1.0000X0.9000*%
%ADD54R,1.6000X1.2500*%
%ADD55R,0.6000X0.5500*%
%ADD56R,0.7000X0.4000*%
%ADD57R,0.2500X0.4000*%
%ADD58R,0.5682X0.5725*%
%ADD59O,0.5800X0.3000*%
%ADD60O,0.3500X0.6300*%
%ADD61O,0.5800X0.2500*%
%ADD62R,0.5153X0.4725*%
%ADD63R,0.4500X1.2000*%
%ADD64R,3.1000X2.6000*%
%ADD65R,0.5500X0.6000*%
%ADD66R,0.5000X1.0000*%
%ADD67R,0.9000X0.7500*%
%ADD68R,0.5725X0.6153*%
%ADD69R,0.7500X0.9000*%
G36*
X67550Y163476D02*
X62493D01*
Y178750D01*
X67550D01*
Y163476D01*
D02*
G37*
G36*
X87550Y163475D02*
X82529D01*
Y178750D01*
X87550D01*
Y163475D01*
D02*
G37*
G36*
X97550Y163475D02*
X92547D01*
Y178750D01*
X97550D01*
Y163475D01*
D02*
G37*
G36*
X-42450Y163473D02*
X-47703D01*
Y178750D01*
X-42450D01*
Y163473D01*
D02*
G37*
G36*
X-22450Y163473D02*
X-27666D01*
Y178750D01*
X-22450D01*
Y163473D01*
D02*
G37*
G36*
X-62450D02*
X-67735D01*
Y178750D01*
X-62450D01*
Y163473D01*
D02*
G37*
G36*
X207550Y163473D02*
X202727D01*
Y178750D01*
X207550D01*
Y163473D01*
D02*
G37*
G36*
X57550Y163473D02*
X52471D01*
Y178750D01*
X57550D01*
Y163473D01*
D02*
G37*
G36*
X-2450Y163472D02*
X-7629D01*
Y178750D01*
X-2450D01*
Y163472D01*
D02*
G37*
G36*
X-102450Y163471D02*
X-107783D01*
Y178750D01*
X-102450D01*
Y163471D01*
D02*
G37*
G36*
X107550Y163469D02*
X102540D01*
Y178750D01*
X107550D01*
Y163469D01*
D02*
G37*
G36*
X137550Y163469D02*
X132581D01*
Y178750D01*
X137550D01*
Y163469D01*
D02*
G37*
G36*
X77550D02*
X72496D01*
Y178750D01*
X77550D01*
Y163469D01*
D02*
G37*
G36*
X127550Y163468D02*
X122558D01*
Y178750D01*
X127550D01*
Y163468D01*
D02*
G37*
G36*
X187550Y163466D02*
X182620D01*
Y178750D01*
X187550D01*
Y163466D01*
D02*
G37*
G36*
X-82450Y163466D02*
X-87702D01*
Y178750D01*
X-82450D01*
Y163466D01*
D02*
G37*
G36*
X147550Y163465D02*
X142563D01*
Y178750D01*
X147550D01*
Y163465D01*
D02*
G37*
G36*
X177550Y163465D02*
X172594D01*
Y178750D01*
X177550D01*
Y163465D01*
D02*
G37*
G36*
X197550Y163464D02*
X192607D01*
Y178750D01*
X197550D01*
Y163464D01*
D02*
G37*
G36*
X17550Y163463D02*
X12422D01*
Y178750D01*
X17550D01*
Y163463D01*
D02*
G37*
G36*
X-12450Y163462D02*
X-17603D01*
Y178750D01*
X-12450D01*
Y163462D01*
D02*
G37*
G36*
X47550Y163461D02*
X42452D01*
Y178750D01*
X47550D01*
Y163461D01*
D02*
G37*
G36*
X7550D02*
X2420D01*
Y178750D01*
X7550D01*
Y163461D01*
D02*
G37*
G36*
X27550Y163460D02*
X22436D01*
Y178750D01*
X27550D01*
Y163460D01*
D02*
G37*
G36*
X-72450D02*
X-77641D01*
Y178750D01*
X-72450D01*
Y163460D01*
D02*
G37*
G36*
X37550Y163460D02*
X32444D01*
Y178750D01*
X37550D01*
Y163460D01*
D02*
G37*
G36*
X-52450Y163459D02*
X-57612D01*
Y178750D01*
X-52450D01*
Y163459D01*
D02*
G37*
G36*
X-112450Y163457D02*
X-117630D01*
Y178750D01*
X-112450D01*
Y163457D01*
D02*
G37*
G36*
X117550Y163456D02*
X112484D01*
Y178750D01*
X117550D01*
Y163456D01*
D02*
G37*
G36*
X157550Y163453D02*
X152476D01*
Y178750D01*
X157550D01*
Y163453D01*
D02*
G37*
G36*
X167550Y163453D02*
X162476D01*
Y178750D01*
X167550D01*
Y163453D01*
D02*
G37*
G36*
X-32450Y163451D02*
X-37557D01*
Y178750D01*
X-32450D01*
Y163451D01*
D02*
G37*
G36*
X-92450Y163451D02*
X-97559D01*
Y178750D01*
X-92450D01*
Y163451D01*
D02*
G37*
G36*
X-122450Y163451D02*
X-127560D01*
Y178750D01*
X-122450D01*
Y163451D01*
D02*
G37*
G36*
X-87450Y121249D02*
X-92555D01*
Y136550D01*
X-87450D01*
Y121249D01*
D02*
G37*
G36*
X-27450Y121248D02*
X-32554D01*
Y136550D01*
X-27450D01*
Y121248D01*
D02*
G37*
G36*
X72550Y121248D02*
X67452D01*
Y136550D01*
X72550D01*
Y121248D01*
D02*
G37*
G36*
X212550Y121246D02*
X207476D01*
Y136550D01*
X212550D01*
Y121246D01*
D02*
G37*
G36*
X-57450Y121245D02*
X-62566D01*
Y136550D01*
X-57450D01*
Y121245D01*
D02*
G37*
G36*
X-17450Y121243D02*
X-22564D01*
Y136550D01*
X-17450D01*
Y121243D01*
D02*
G37*
G36*
X92550Y121243D02*
X87462D01*
Y136550D01*
X92550D01*
Y121243D01*
D02*
G37*
G36*
X-77450Y121242D02*
X-82585D01*
Y136550D01*
X-77450D01*
Y121242D01*
D02*
G37*
G36*
X-7450Y121240D02*
X-12568D01*
Y136550D01*
X-7450D01*
Y121240D01*
D02*
G37*
G36*
X202550Y121239D02*
X197509D01*
Y136550D01*
X202550D01*
Y121239D01*
D02*
G37*
G36*
X152550Y121236D02*
X147503D01*
Y136550D01*
X152550D01*
Y121236D01*
D02*
G37*
G36*
X62550D02*
X57459D01*
Y136550D01*
X62550D01*
Y121236D01*
D02*
G37*
G36*
X-107450Y121235D02*
X-112632D01*
Y136550D01*
X-107450D01*
Y121235D01*
D02*
G37*
G36*
X132550Y121234D02*
X127498D01*
Y136550D01*
X132550D01*
Y121234D01*
D02*
G37*
G36*
X2550Y121233D02*
X-2575D01*
Y136550D01*
X2550D01*
Y121233D01*
D02*
G37*
G36*
X-127450Y121233D02*
X-132654D01*
Y136550D01*
X-127450D01*
Y121233D01*
D02*
G37*
G36*
X-97450Y121232D02*
X-102641D01*
Y136550D01*
X-97450D01*
Y121232D01*
D02*
G37*
G36*
X32550Y121231D02*
X27442D01*
Y136550D01*
X32550D01*
Y121231D01*
D02*
G37*
G36*
X122550Y121228D02*
X117510D01*
Y136550D01*
X122550D01*
Y121228D01*
D02*
G37*
G36*
X182550Y121222D02*
X177583D01*
Y136550D01*
X182550D01*
Y121222D01*
D02*
G37*
G36*
X172550Y121220D02*
X167584D01*
Y136550D01*
X172550D01*
Y121220D01*
D02*
G37*
G36*
X22550Y121219D02*
X17425D01*
Y136550D01*
X22550D01*
Y121219D01*
D02*
G37*
G36*
X-117450Y121216D02*
X-122743D01*
Y136550D01*
X-117450D01*
Y121216D01*
D02*
G37*
G36*
X102550Y121209D02*
X97531D01*
Y136550D01*
X102550D01*
Y121209D01*
D02*
G37*
G36*
X42550Y121208D02*
X37446D01*
Y136550D01*
X42550D01*
Y121208D01*
D02*
G37*
G36*
X192550Y121205D02*
X187681D01*
Y136550D01*
X192550D01*
Y121205D01*
D02*
G37*
G36*
X12550Y121204D02*
X7398D01*
Y136550D01*
X12550D01*
Y121204D01*
D02*
G37*
G36*
X162550Y121202D02*
X157646D01*
Y136550D01*
X162550D01*
Y121202D01*
D02*
G37*
G36*
X-47450Y121201D02*
X-52709D01*
Y136550D01*
X-47450D01*
Y121201D01*
D02*
G37*
G36*
X-67450Y121199D02*
X-72749D01*
Y136550D01*
X-67450D01*
Y121199D01*
D02*
G37*
G36*
X82550Y121196D02*
X77520D01*
Y136550D01*
X82550D01*
Y121196D01*
D02*
G37*
G36*
X52550Y121196D02*
X47464D01*
Y136550D01*
X52550D01*
Y121196D01*
D02*
G37*
G36*
X142550Y121196D02*
X137634D01*
Y136550D01*
X142550D01*
Y121196D01*
D02*
G37*
G36*
X112550Y121195D02*
X107578D01*
Y136550D01*
X112550D01*
Y121195D01*
D02*
G37*
G36*
X-37450Y121193D02*
X-42713D01*
Y136550D01*
X-37450D01*
Y121193D01*
D02*
G37*
G36*
X234200Y120750D02*
X225300D01*
Y179250D01*
X234200D01*
Y120750D01*
D02*
G37*
G36*
X-145300D02*
X-154200D01*
Y179250D01*
X-145300D01*
Y120750D01*
D02*
G37*
G36*
X-200800Y12600D02*
X-210400D01*
Y22200D01*
X-200800D01*
Y12600D01*
D02*
G37*
G36*
X-212400D02*
X-222000D01*
Y22200D01*
X-212400D01*
Y12600D01*
D02*
G37*
G36*
X-224000D02*
X-233600D01*
Y22200D01*
X-224000D01*
Y12600D01*
D02*
G37*
G36*
X-235600D02*
X-245200D01*
Y22200D01*
X-235600D01*
Y12600D01*
D02*
G37*
G36*
X-247200D02*
X-256800D01*
Y22200D01*
X-247200D01*
Y12600D01*
D02*
G37*
G36*
X-200800Y1000D02*
X-210400D01*
Y10600D01*
X-200800D01*
Y1000D01*
D02*
G37*
G36*
X-212400D02*
X-222000D01*
Y10600D01*
X-212400D01*
Y1000D01*
D02*
G37*
G36*
X-224000D02*
X-233600D01*
Y10600D01*
X-224000D01*
Y1000D01*
D02*
G37*
G36*
X-235600D02*
X-245200D01*
Y10600D01*
X-235600D01*
Y1000D01*
D02*
G37*
G36*
X-247200D02*
X-256800D01*
Y10600D01*
X-247200D01*
Y1000D01*
D02*
G37*
G36*
X-200800Y-10600D02*
X-210400D01*
Y-1000D01*
X-200800D01*
Y-10600D01*
D02*
G37*
G36*
X-212400D02*
X-222000D01*
Y-1000D01*
X-212400D01*
Y-10600D01*
D02*
G37*
G36*
X-224000D02*
X-233600D01*
Y-1000D01*
X-224000D01*
Y-10600D01*
D02*
G37*
G36*
X-235600D02*
X-245200D01*
Y-1000D01*
X-235600D01*
Y-10600D01*
D02*
G37*
G36*
X-247200D02*
X-256800D01*
Y-1000D01*
X-247200D01*
Y-10600D01*
D02*
G37*
G36*
X-200800Y-22200D02*
X-210400D01*
Y-12600D01*
X-200800D01*
Y-22200D01*
D02*
G37*
G36*
X-212400D02*
X-222000D01*
Y-12600D01*
X-212400D01*
Y-22200D01*
D02*
G37*
G36*
X-224000D02*
X-233600D01*
Y-12600D01*
X-224000D01*
Y-22200D01*
D02*
G37*
G36*
X-235600D02*
X-245200D01*
Y-12600D01*
X-235600D01*
Y-22200D01*
D02*
G37*
G36*
X-247200D02*
X-256800D01*
Y-12600D01*
X-247200D01*
Y-22200D01*
D02*
G37*
G36*
X-200800Y-33800D02*
X-210400D01*
Y-24200D01*
X-200800D01*
Y-33800D01*
D02*
G37*
G36*
X-212400D02*
X-222000D01*
Y-24200D01*
X-212400D01*
Y-33800D01*
D02*
G37*
G36*
X-224000D02*
X-233600D01*
Y-24200D01*
X-224000D01*
Y-33800D01*
D02*
G37*
G36*
X-235600D02*
X-245200D01*
Y-24200D01*
X-235600D01*
Y-33800D01*
D02*
G37*
G36*
X-247200D02*
X-256800D01*
Y-24200D01*
X-247200D01*
Y-33800D01*
D02*
G37*
G36*
X212654Y-136550D02*
X207450D01*
Y-121233D01*
X212654D01*
Y-136550D01*
D02*
G37*
G36*
X202743D02*
X197450D01*
Y-121216D01*
X202743D01*
Y-136550D01*
D02*
G37*
G36*
X192632D02*
X187450D01*
Y-121235D01*
X192632D01*
Y-136550D01*
D02*
G37*
G36*
X182641D02*
X177450D01*
Y-121232D01*
X182641D01*
Y-136550D01*
D02*
G37*
G36*
X172555D02*
X167450D01*
Y-121249D01*
X172555D01*
Y-136550D01*
D02*
G37*
G36*
X162585D02*
X157450D01*
Y-121242D01*
X162585D01*
Y-136550D01*
D02*
G37*
G36*
X152749D02*
X147450D01*
Y-121199D01*
X152749D01*
Y-136550D01*
D02*
G37*
G36*
X142566D02*
X137450D01*
Y-121245D01*
X142566D01*
Y-136550D01*
D02*
G37*
G36*
X132709D02*
X127450D01*
Y-121201D01*
X132709D01*
Y-136550D01*
D02*
G37*
G36*
X122713D02*
X117450D01*
Y-121193D01*
X122713D01*
Y-136550D01*
D02*
G37*
G36*
X112554D02*
X107450D01*
Y-121248D01*
X112554D01*
Y-136550D01*
D02*
G37*
G36*
X102564D02*
X97450D01*
Y-121243D01*
X102564D01*
Y-136550D01*
D02*
G37*
G36*
X92568D02*
X87450D01*
Y-121240D01*
X92568D01*
Y-136550D01*
D02*
G37*
G36*
X82575D02*
X77450D01*
Y-121233D01*
X82575D01*
Y-136550D01*
D02*
G37*
G36*
X72603D02*
X67450D01*
Y-121204D01*
X72603D01*
Y-136550D01*
D02*
G37*
G36*
X62575D02*
X57450D01*
Y-121219D01*
X62575D01*
Y-136550D01*
D02*
G37*
G36*
X52558D02*
X47450D01*
Y-121231D01*
X52558D01*
Y-136550D01*
D02*
G37*
G36*
X42554D02*
X37450D01*
Y-121208D01*
X42554D01*
Y-136550D01*
D02*
G37*
G36*
X32536D02*
X27450D01*
Y-121196D01*
X32536D01*
Y-136550D01*
D02*
G37*
G36*
X22541D02*
X17450D01*
Y-121236D01*
X22541D01*
Y-136550D01*
D02*
G37*
G36*
X12548D02*
X7450D01*
Y-121248D01*
X12548D01*
Y-136550D01*
D02*
G37*
G36*
X2480D02*
X-2550D01*
Y-121196D01*
X2480D01*
Y-136550D01*
D02*
G37*
G36*
X-7462D02*
X-12550D01*
Y-121243D01*
X-7462D01*
Y-136550D01*
D02*
G37*
G36*
X-17531D02*
X-22550D01*
Y-121209D01*
X-17531D01*
Y-136550D01*
D02*
G37*
G36*
X-27578D02*
X-32550D01*
Y-121195D01*
X-27578D01*
Y-136550D01*
D02*
G37*
G36*
X-37510D02*
X-42550D01*
Y-121228D01*
X-37510D01*
Y-136550D01*
D02*
G37*
G36*
X-47498D02*
X-52550D01*
Y-121234D01*
X-47498D01*
Y-136550D01*
D02*
G37*
G36*
X-57634D02*
X-62550D01*
Y-121196D01*
X-57634D01*
Y-136550D01*
D02*
G37*
G36*
X-67503D02*
X-72550D01*
Y-121236D01*
X-67503D01*
Y-136550D01*
D02*
G37*
G36*
X-77646D02*
X-82550D01*
Y-121202D01*
X-77646D01*
Y-136550D01*
D02*
G37*
G36*
X-87584D02*
X-92550D01*
Y-121220D01*
X-87584D01*
Y-136550D01*
D02*
G37*
G36*
X-97583D02*
X-102550D01*
Y-121222D01*
X-97583D01*
Y-136550D01*
D02*
G37*
G36*
X-107681D02*
X-112550D01*
Y-121205D01*
X-107681D01*
Y-136550D01*
D02*
G37*
G36*
X-117509D02*
X-122550D01*
Y-121239D01*
X-117509D01*
Y-136550D01*
D02*
G37*
G36*
X-127476D02*
X-132550D01*
Y-121246D01*
X-127476D01*
Y-136550D01*
D02*
G37*
G36*
X207560Y-178750D02*
X202450D01*
Y-163451D01*
X207560D01*
Y-178750D01*
D02*
G37*
G36*
X197630D02*
X192450D01*
Y-163457D01*
X197630D01*
Y-178750D01*
D02*
G37*
G36*
X187783D02*
X182450D01*
Y-163471D01*
X187783D01*
Y-178750D01*
D02*
G37*
G36*
X177559D02*
X172450D01*
Y-163451D01*
X177559D01*
Y-178750D01*
D02*
G37*
G36*
X167702D02*
X162450D01*
Y-163466D01*
X167702D01*
Y-178750D01*
D02*
G37*
G36*
X157641D02*
X152450D01*
Y-163460D01*
X157641D01*
Y-178750D01*
D02*
G37*
G36*
X147735D02*
X142450D01*
Y-163473D01*
X147735D01*
Y-178750D01*
D02*
G37*
G36*
X137612D02*
X132450D01*
Y-163459D01*
X137612D01*
Y-178750D01*
D02*
G37*
G36*
X127703D02*
X122450D01*
Y-163473D01*
X127703D01*
Y-178750D01*
D02*
G37*
G36*
X117557D02*
X112450D01*
Y-163451D01*
X117557D01*
Y-178750D01*
D02*
G37*
G36*
X107666D02*
X102450D01*
Y-163473D01*
X107666D01*
Y-178750D01*
D02*
G37*
G36*
X97603D02*
X92450D01*
Y-163462D01*
X97603D01*
Y-178750D01*
D02*
G37*
G36*
X87629D02*
X82450D01*
Y-163472D01*
X87629D01*
Y-178750D01*
D02*
G37*
G36*
X77580D02*
X72450D01*
Y-163461D01*
X77580D01*
Y-178750D01*
D02*
G37*
G36*
X67578D02*
X62450D01*
Y-163463D01*
X67578D01*
Y-178750D01*
D02*
G37*
G36*
X57564D02*
X52450D01*
Y-163460D01*
X57564D01*
Y-178750D01*
D02*
G37*
G36*
X47556D02*
X42450D01*
Y-163460D01*
X47556D01*
Y-178750D01*
D02*
G37*
G36*
X37548D02*
X32450D01*
Y-163461D01*
X37548D01*
Y-178750D01*
D02*
G37*
G36*
X27529D02*
X22450D01*
Y-163473D01*
X27529D01*
Y-178750D01*
D02*
G37*
G36*
X17507D02*
X12450D01*
Y-163476D01*
X17507D01*
Y-178750D01*
D02*
G37*
G36*
X7504D02*
X2450D01*
Y-163469D01*
X7504D01*
Y-178750D01*
D02*
G37*
G36*
X-2529D02*
X-7550D01*
Y-163475D01*
X-2529D01*
Y-178750D01*
D02*
G37*
G36*
X-12546D02*
X-17550D01*
Y-163475D01*
X-12546D01*
Y-178750D01*
D02*
G37*
G36*
X-22540D02*
X-27550D01*
Y-163469D01*
X-22540D01*
Y-178750D01*
D02*
G37*
G36*
X-32484D02*
X-37550D01*
Y-163456D01*
X-32484D01*
Y-178750D01*
D02*
G37*
G36*
X-42558D02*
X-47550D01*
Y-163468D01*
X-42558D01*
Y-178750D01*
D02*
G37*
G36*
X-52581D02*
X-57550D01*
Y-163469D01*
X-52581D01*
Y-178750D01*
D02*
G37*
G36*
X-62563D02*
X-67550D01*
Y-163465D01*
X-62563D01*
Y-178750D01*
D02*
G37*
G36*
X-72476D02*
X-77550D01*
Y-163453D01*
X-72476D01*
Y-178750D01*
D02*
G37*
G36*
X-82476D02*
X-87550D01*
Y-163453D01*
X-82476D01*
Y-178750D01*
D02*
G37*
G36*
X-92594D02*
X-97550D01*
Y-163465D01*
X-92594D01*
Y-178750D01*
D02*
G37*
G36*
X-102620D02*
X-107550D01*
Y-163466D01*
X-102620D01*
Y-178750D01*
D02*
G37*
G36*
X-112607D02*
X-117550D01*
Y-163464D01*
X-112607D01*
Y-178750D01*
D02*
G37*
G36*
X-122727D02*
X-127550D01*
Y-163473D01*
X-122727D01*
Y-178750D01*
D02*
G37*
G36*
X234200Y-179250D02*
X225300D01*
Y-120750D01*
X234200D01*
Y-179250D01*
D02*
G37*
G36*
X-145300D02*
X-154200D01*
Y-120750D01*
X-145300D01*
Y-179250D01*
D02*
G37*
D18*
X-260500Y-70750D02*
D03*
X-202000D02*
D03*
D19*
X-245500Y-86000D02*
D03*
X-275500D02*
D03*
X-187000D02*
D03*
X-217000D02*
D03*
D20*
X-25501Y-64600D02*
D03*
X-21500D02*
D03*
X-17500Y-64599D02*
D03*
X-13500D02*
D03*
X-9500D02*
D03*
X-5501Y-64600D02*
D03*
X-1500D02*
D03*
X2500D02*
D03*
X10500Y-64599D02*
D03*
X14500D02*
D03*
X22499Y-64600D02*
D03*
X26500D02*
D03*
X30499D02*
D03*
X34500Y-64599D02*
D03*
X38500D02*
D03*
X42500D02*
D03*
X46500Y-64600D02*
D03*
X50500D02*
D03*
X-25501Y-95400D02*
D03*
X-21500D02*
D03*
X-17500Y-95399D02*
D03*
X-13500D02*
D03*
X-9500D02*
D03*
X-5501Y-95400D02*
D03*
X-1500D02*
D03*
X2500D02*
D03*
X10500Y-95399D02*
D03*
X14500D02*
D03*
X22499Y-95400D02*
D03*
X26500D02*
D03*
X30499D02*
D03*
X34500Y-95399D02*
D03*
X38500D02*
D03*
X42500D02*
D03*
X46500Y-95400D02*
D03*
X50500D02*
D03*
X50501Y64600D02*
D03*
X46501D02*
D03*
X42500Y64599D02*
D03*
X38500D02*
D03*
X34500D02*
D03*
X30501Y64600D02*
D03*
X26501D02*
D03*
X22501D02*
D03*
X14500Y64599D02*
D03*
X10500D02*
D03*
X2501Y64600D02*
D03*
X-1499D02*
D03*
X-5499D02*
D03*
X-9500Y64599D02*
D03*
X-13500D02*
D03*
X-17500D02*
D03*
X-21499Y64600D02*
D03*
X-25499D02*
D03*
X50501Y95400D02*
D03*
X46501D02*
D03*
X42500Y95399D02*
D03*
X38500D02*
D03*
X34500D02*
D03*
X30501Y95400D02*
D03*
X26501D02*
D03*
X22501D02*
D03*
X14500Y95399D02*
D03*
X10500D02*
D03*
X2501Y95400D02*
D03*
X-1499D02*
D03*
X-5499D02*
D03*
X-9500Y95399D02*
D03*
X-13500D02*
D03*
X-17500D02*
D03*
X-21499Y95400D02*
D03*
X-25499D02*
D03*
D21*
X6500Y-64600D02*
D03*
X18500Y-64600D02*
D03*
X6500Y-95400D02*
D03*
X18500Y-95400D02*
D03*
X18500Y64600D02*
D03*
X6500Y64600D02*
D03*
X18500Y95400D02*
D03*
X6500Y95400D02*
D03*
D22*
X-52000Y92250D02*
D03*
Y76250D02*
D03*
X-81000Y45500D02*
D03*
X-56250Y60750D02*
D03*
X-74472Y68000D02*
D03*
X-305000Y77000D02*
D03*
X-77250Y90500D02*
D03*
X-118000Y67438D02*
D03*
X-100250Y90500D02*
D03*
X-127772Y86250D02*
D03*
D23*
X-131000Y70550D02*
D03*
Y62950D02*
D03*
X-74750Y-550D02*
D03*
Y7050D02*
D03*
X-66000Y-93900D02*
D03*
Y-86100D02*
D03*
X-158000Y-53450D02*
D03*
Y-61050D02*
D03*
X-56750Y-86350D02*
D03*
Y-94150D02*
D03*
X-168000Y-60050D02*
D03*
Y-52450D02*
D03*
D24*
X-68500Y47250D02*
D03*
Y55250D02*
D03*
X-87500Y83000D02*
D03*
Y75000D02*
D03*
X-59250Y14000D02*
D03*
Y22000D02*
D03*
X-110750Y6250D02*
D03*
Y14250D02*
D03*
X-177000Y-52000D02*
D03*
Y-60000D02*
D03*
D25*
X-184800Y31709D02*
D03*
Y26708D02*
D03*
Y21707D02*
D03*
Y16706D02*
D03*
Y11704D02*
D03*
Y6703D02*
D03*
Y1702D02*
D03*
Y-3299D02*
D03*
Y-8301D02*
D03*
Y-13302D02*
D03*
Y-18303D02*
D03*
Y-23304D02*
D03*
Y-28306D02*
D03*
Y-33307D02*
D03*
Y-38308D02*
D03*
Y-43309D02*
D03*
X-272800D02*
D03*
Y-38308D02*
D03*
Y-33307D02*
D03*
Y-28306D02*
D03*
Y-23304D02*
D03*
Y-18303D02*
D03*
Y-13302D02*
D03*
Y-8301D02*
D03*
Y-3299D02*
D03*
Y1702D02*
D03*
Y6703D02*
D03*
Y11704D02*
D03*
Y16706D02*
D03*
Y21707D02*
D03*
Y26708D02*
D03*
Y31709D02*
D03*
D26*
X-191300Y-49800D02*
D03*
X-196300D02*
D03*
X-201300D02*
D03*
X-206300D02*
D03*
X-211300D02*
D03*
X-216300D02*
D03*
X-221300D02*
D03*
X-226300D02*
D03*
X-231300D02*
D03*
X-236300D02*
D03*
X-241300D02*
D03*
X-246300D02*
D03*
X-251300D02*
D03*
X-256300D02*
D03*
X-261300D02*
D03*
X-266300D02*
D03*
Y38200D02*
D03*
X-261300D02*
D03*
X-256300D02*
D03*
X-251300D02*
D03*
X-246300D02*
D03*
X-241300D02*
D03*
X-236300D02*
D03*
X-231300D02*
D03*
X-226300D02*
D03*
X-221300D02*
D03*
X-216300D02*
D03*
X-211300D02*
D03*
X-206300D02*
D03*
X-201300D02*
D03*
X-196300D02*
D03*
X-191300D02*
D03*
D27*
X-296000Y21500D02*
D03*
X-304000D02*
D03*
X-57750Y-500D02*
D03*
X-65750D02*
D03*
X-192000Y46500D02*
D03*
X-184000D02*
D03*
D28*
X-207500Y65964D02*
D03*
Y75536D02*
D03*
X-219400Y66014D02*
D03*
Y75586D02*
D03*
D29*
X-209614Y88800D02*
D03*
X-219186D02*
D03*
X-281714Y52250D02*
D03*
X-291286D02*
D03*
X-164464Y86500D02*
D03*
X-174036D02*
D03*
X-142464Y86250D02*
D03*
X-152036D02*
D03*
D30*
X-190500Y68750D02*
D03*
Y92250D02*
D03*
X-143500Y-48500D02*
D03*
Y-25000D02*
D03*
D31*
X-173000Y61000D02*
D03*
X-143000D02*
D03*
D32*
X-158000D02*
D03*
D33*
X-113250Y94522D02*
D03*
Y85478D02*
D03*
X-94000Y49271D02*
D03*
Y40229D02*
D03*
X-100500Y6271D02*
D03*
Y-2772D02*
D03*
D34*
X-96000Y66155D02*
D03*
Y58845D02*
D03*
D35*
X27940Y42164D02*
D03*
X22860D02*
D03*
X17780D02*
D03*
X12700D02*
D03*
X7620D02*
D03*
X2540D02*
D03*
X-2540D02*
D03*
X-7620D02*
D03*
X-12700D02*
D03*
X-17780D02*
D03*
X-22860D02*
D03*
X-27940D02*
D03*
Y-42164D02*
D03*
X-22860D02*
D03*
X-17780D02*
D03*
X-12700D02*
D03*
X-7620D02*
D03*
X-2540D02*
D03*
X2540D02*
D03*
X7620D02*
D03*
X12700D02*
D03*
X17780D02*
D03*
X22860D02*
D03*
X27940D02*
D03*
D36*
X-42164Y27940D02*
D03*
Y22860D02*
D03*
Y17780D02*
D03*
Y12700D02*
D03*
Y7620D02*
D03*
Y2540D02*
D03*
Y-2540D02*
D03*
Y-7620D02*
D03*
Y-12700D02*
D03*
Y-17780D02*
D03*
Y-22860D02*
D03*
Y-27940D02*
D03*
X42164D02*
D03*
Y-22860D02*
D03*
Y-17780D02*
D03*
Y-12700D02*
D03*
Y-7620D02*
D03*
Y-2540D02*
D03*
Y2540D02*
D03*
Y7620D02*
D03*
Y12700D02*
D03*
Y17780D02*
D03*
Y22860D02*
D03*
Y27940D02*
D03*
D37*
X-58750Y40750D02*
D03*
X-54750D02*
D03*
X-58750Y36750D02*
D03*
X-54750D02*
D03*
X-85000Y6000D02*
D03*
Y2000D02*
D03*
X-89000Y6000D02*
D03*
Y2000D02*
D03*
D38*
X-68550Y-10000D02*
D03*
X-60950D02*
D03*
X-127800Y13750D02*
D03*
X-120200D02*
D03*
X-304800Y31750D02*
D03*
X-297200D02*
D03*
X-185450Y55500D02*
D03*
X-193050D02*
D03*
D39*
X-96500Y30536D02*
D03*
Y21464D02*
D03*
D40*
X-109000Y23500D02*
D03*
X-118500D02*
D03*
X-128000D02*
D03*
X-118500Y49000D02*
D03*
X-109000D02*
D03*
X-128000D02*
D03*
D41*
X-144500Y12250D02*
D03*
Y21250D02*
D03*
X-286000Y-40000D02*
D03*
Y-31000D02*
D03*
D42*
X-153750Y12500D02*
D03*
Y23500D02*
D03*
X-48000Y-94000D02*
D03*
Y-83000D02*
D03*
D43*
X-172036Y13250D02*
D03*
X-163464D02*
D03*
X-172286Y-8000D02*
D03*
X-163714D02*
D03*
D44*
X-109228Y-3500D02*
D03*
X-117271D02*
D03*
X-65272Y-36000D02*
D03*
X-57228D02*
D03*
X-55022Y-60250D02*
D03*
X-46979D02*
D03*
X-129522Y-27000D02*
D03*
X-121479D02*
D03*
X-116522Y-12000D02*
D03*
X-108478D02*
D03*
X-100772D02*
D03*
X-92729D02*
D03*
D45*
X-65250Y-60250D02*
D03*
Y-74750D02*
D03*
D46*
X-78250Y-95021D02*
D03*
Y-86979D02*
D03*
D47*
X-91244Y-91250D02*
D03*
X-105256D02*
D03*
X-140256Y-77000D02*
D03*
X-126244D02*
D03*
D48*
X-127750Y-92250D02*
D03*
X-141250D02*
D03*
D49*
X-165000Y-91506D02*
D03*
Y-77494D02*
D03*
D50*
X-201250Y-59500D02*
D03*
X-210250D02*
D03*
D51*
X-299750Y-92250D02*
D03*
Y-77250D02*
D03*
D52*
X-300000Y-66250D02*
D03*
X-290000D02*
D03*
D53*
X-306000Y-51500D02*
D03*
Y-35500D02*
D03*
Y-19500D02*
D03*
D54*
X-279500Y89500D02*
D03*
X-242500D02*
D03*
Y67500D02*
D03*
X-279500D02*
D03*
D55*
X-252500Y53250D02*
D03*
X-244000D02*
D03*
D56*
X-128000Y-41000D02*
D03*
D57*
X-125750Y-48000D02*
D03*
X-130250D02*
D03*
D58*
X-139771Y-64000D02*
D03*
X-130729D02*
D03*
D59*
X-69350Y18250D02*
D03*
X-82150D02*
D03*
X-69350Y28250D02*
D03*
X-82150D02*
D03*
D60*
X-75750Y18900D02*
D03*
Y27600D02*
D03*
D61*
X-69350Y23250D02*
D03*
X-82150D02*
D03*
D62*
X-47214Y-68750D02*
D03*
X-54786D02*
D03*
D63*
X-80250Y-27500D02*
D03*
X-89750D02*
D03*
X-99250D02*
D03*
X-108750D02*
D03*
Y-72500D02*
D03*
X-99250D02*
D03*
X-89750D02*
D03*
X-80250D02*
D03*
D64*
X-94500Y-50000D02*
D03*
D65*
X-175500Y36250D02*
D03*
Y27750D02*
D03*
D66*
X-219900Y52800D02*
D03*
X-208900D02*
D03*
D67*
X-160000Y-39000D02*
D03*
Y-23500D02*
D03*
D68*
X-171500Y-17964D02*
D03*
Y-26536D02*
D03*
D69*
X-153250Y-9500D02*
D03*
X-137750D02*
D03*
M02*
