G04*
G04 #@! TF.GenerationSoftware,Altium Limited,Altium Designer,24.6.1 (21)*
G04*
G04 Layer_Physical_Order=1*
G04 Layer_Color=255*
%FSLAX44Y44*%
%MOMM*%
G71*
G04*
G04 #@! TF.SameCoordinates,E18C277C-CF0C-426E-95C7-D1DF2096CF1D*
G04*
G04*
G04 #@! TF.FilePolarity,Positive*
G04*
G01*
G75*
%ADD10C,0.3000*%
%ADD11C,0.1524*%
%ADD12C,0.2000*%
%ADD22C,1.0000*%
%ADD23R,0.5200X0.5600*%
%ADD24R,0.5000X0.4000*%
%ADD25R,0.6000X0.2400*%
%ADD26R,0.2400X0.6000*%
%ADD27R,0.4000X0.5000*%
%ADD28R,0.6725X0.7154*%
%ADD29R,0.7154X0.6725*%
%ADD30R,1.0000X1.1500*%
%ADD31R,0.7112X3.0988*%
%ADD32R,1.4986X3.0988*%
%ADD33R,0.5725X0.5682*%
%ADD34R,0.5121X0.5811*%
%ADD35R,0.2794X1.4620*%
%ADD36R,1.4620X0.2794*%
%ADD37C,0.2260*%
%ADD38R,0.5600X0.5200*%
%ADD39R,0.5725X0.5654*%
G04:AMPARAMS|DCode=40|XSize=0.55mm|YSize=0.8mm|CornerRadius=0.0495mm|HoleSize=0mm|Usage=FLASHONLY|Rotation=0.000|XOffset=0mm|YOffset=0mm|HoleType=Round|Shape=RoundedRectangle|*
%AMROUNDEDRECTD40*
21,1,0.5500,0.7010,0,0,0.0*
21,1,0.4510,0.8000,0,0,0.0*
1,1,0.0990,0.2255,-0.3505*
1,1,0.0990,-0.2255,-0.3505*
1,1,0.0990,-0.2255,0.3505*
1,1,0.0990,0.2255,0.3505*
%
%ADD40ROUNDEDRECTD40*%
%ADD41R,0.6000X0.4000*%
%ADD42R,0.5000X0.6000*%
%ADD43R,0.6153X0.5725*%
%ADD44R,0.4682X0.4725*%
%ADD45R,0.9000X0.6500*%
%ADD46R,0.4725X0.4682*%
%ADD47R,1.1051X1.0062*%
%ADD48R,0.6500X0.7000*%
%ADD49R,1.0062X1.1051*%
%ADD50R,0.4000X0.6000*%
%ADD51R,0.8000X0.7000*%
%ADD52R,0.6500X0.6500*%
%ADD53R,1.0000X0.9000*%
%ADD54R,1.6000X1.2500*%
%ADD55R,0.6000X0.5500*%
%ADD56R,0.7000X0.4000*%
%ADD57R,0.2500X0.4000*%
%ADD58R,0.5682X0.5725*%
%ADD59O,0.5800X0.3000*%
%ADD60O,0.3500X0.6300*%
%ADD61O,0.5800X0.2500*%
%ADD62R,0.5153X0.4725*%
%ADD63R,0.4500X1.2000*%
%ADD64R,3.1000X2.6000*%
%ADD65R,0.5500X0.6000*%
%ADD66R,0.5000X1.0000*%
%ADD67R,0.9000X0.7500*%
%ADD68R,0.5725X0.6153*%
%ADD69R,0.7500X0.9000*%
%ADD71C,0.2700*%
%ADD74R,6.0000X6.0000*%
%ADD76R,0.1000X0.1000*%
%ADD85R,1.0000X1.0500*%
%ADD86R,1.0500X2.2000*%
%ADD87R,0.2000X0.7000*%
%ADD102R,0.6100X1.6300*%
%ADD103C,0.2030*%
%ADD104C,0.2400*%
%ADD105C,0.4000*%
%ADD106C,0.2032*%
%ADD107C,5.0000*%
%ADD108C,0.8000*%
%ADD109R,1.5200X1.5200*%
%ADD110C,1.5200*%
%ADD111R,1.5200X1.5200*%
%ADD112C,0.7600*%
%ADD113C,0.4500*%
G36*
X208436Y161450D02*
X209550Y161450D01*
X209960Y160096D01*
Y159946D01*
X210767Y157998D01*
X212258Y156507D01*
X214206Y155700D01*
X216314D01*
X217551Y156212D01*
X218573Y155381D01*
X218745Y155057D01*
X218576Y154650D01*
Y121328D01*
X214550D01*
Y138550D01*
X213569D01*
Y142816D01*
X213750Y143254D01*
Y144746D01*
X213179Y146124D01*
X212124Y147179D01*
X210746Y147750D01*
X209254D01*
X207876Y147179D01*
X206821Y146124D01*
X206250Y144746D01*
Y143254D01*
X206431Y142816D01*
Y139668D01*
X205450Y138550D01*
X204550D01*
Y138550D01*
X195450D01*
Y138550D01*
X194550D01*
Y138550D01*
X185450D01*
Y138550D01*
X184550D01*
Y138550D01*
X175450D01*
Y138550D01*
X174550D01*
Y138550D01*
X165450D01*
Y138550D01*
X164550D01*
Y138550D01*
X155450D01*
Y138550D01*
X154550D01*
Y138550D01*
X145450D01*
Y138550D01*
X144550D01*
Y138550D01*
X135450D01*
Y138550D01*
X134550D01*
Y138550D01*
X125450D01*
Y138550D01*
X124550D01*
Y138550D01*
X115450D01*
Y138550D01*
X114550D01*
Y138550D01*
X105450D01*
Y138550D01*
X104550D01*
Y138550D01*
X95450D01*
Y138550D01*
X94550D01*
Y138550D01*
X85450D01*
Y138550D01*
X84550D01*
Y138550D01*
X75450D01*
Y138550D01*
X74550D01*
Y138550D01*
X72129D01*
X71545Y139958D01*
X75794Y144206D01*
X76957Y145947D01*
X77365Y148000D01*
X76957Y150053D01*
X75794Y151794D01*
X74053Y152957D01*
X72000Y153365D01*
X69947Y152957D01*
X68206Y151794D01*
X63778Y147365D01*
X61886D01*
X61365Y148000D01*
X60957Y150053D01*
X59794Y151794D01*
X58053Y152957D01*
X56000Y153365D01*
X53947Y152957D01*
X53706Y152796D01*
X53431D01*
X51378Y152387D01*
X49637Y151224D01*
X46835Y148422D01*
X45181Y148924D01*
X44957Y150053D01*
X43794Y151794D01*
X42053Y152957D01*
X40000Y153365D01*
X37947Y152957D01*
X36206Y151794D01*
X35670Y151258D01*
X34507Y149517D01*
X34099Y147464D01*
Y145686D01*
X29061Y140648D01*
X27653Y141232D01*
Y143260D01*
X27794Y143401D01*
X28957Y145142D01*
X29365Y147195D01*
Y148000D01*
X28957Y150053D01*
X27794Y151794D01*
X26053Y152957D01*
X24000Y153365D01*
X21947Y152957D01*
X20206Y151794D01*
X19043Y150053D01*
X18987Y149769D01*
X18494Y149276D01*
X17331Y147536D01*
X16923Y145483D01*
Y138673D01*
X15450Y138550D01*
X14889D01*
X13365Y139369D01*
Y148000D01*
X12957Y150053D01*
X11794Y151794D01*
X10053Y152957D01*
X8000Y153365D01*
X5947Y152957D01*
X4206Y151794D01*
X3043Y150053D01*
X2635Y148000D01*
Y142035D01*
X1111Y141476D01*
X-2635Y145222D01*
Y148000D01*
X-3043Y150053D01*
X-4206Y151794D01*
X-5947Y152957D01*
X-8000Y153365D01*
X-10053Y152957D01*
X-11794Y151794D01*
X-12957Y150053D01*
X-13365Y148000D01*
Y146944D01*
X-14773Y146361D01*
X-20206Y151794D01*
X-21947Y152957D01*
X-24000Y153365D01*
X-26053Y152957D01*
X-27794Y151794D01*
X-28957Y150053D01*
X-29365Y148000D01*
X-29886Y147365D01*
X-31778D01*
X-36206Y151794D01*
X-37947Y152957D01*
X-40000Y153365D01*
X-42053Y152957D01*
X-43794Y151794D01*
X-44957Y150053D01*
X-45365Y148000D01*
X-44957Y145947D01*
X-43794Y144206D01*
X-43794Y144206D01*
X-39545Y139958D01*
X-40128Y138550D01*
X-44550D01*
Y138550D01*
X-45450D01*
Y138550D01*
X-54550D01*
Y138550D01*
X-55450D01*
Y138550D01*
X-64550D01*
Y138550D01*
X-65450D01*
Y138550D01*
X-74550D01*
Y138550D01*
X-75450D01*
Y138550D01*
X-84550D01*
Y138550D01*
X-85450D01*
Y138550D01*
X-94550D01*
Y138550D01*
X-95450D01*
Y138550D01*
X-104550D01*
Y138550D01*
X-105450D01*
Y138550D01*
X-114550D01*
Y138550D01*
X-115450D01*
Y138550D01*
X-124550D01*
Y138550D01*
X-124907D01*
X-126431Y139668D01*
Y141816D01*
X-126250Y142254D01*
Y143746D01*
X-126821Y145124D01*
X-127876Y146179D01*
X-129254Y146750D01*
X-130746D01*
X-132124Y146179D01*
X-133179Y145124D01*
X-133750Y143746D01*
Y142254D01*
X-133569Y141816D01*
Y138550D01*
X-134550D01*
Y121333D01*
X-138576D01*
Y154600D01*
X-138770Y155068D01*
X-138684Y155248D01*
X-137574Y156222D01*
X-136314Y155700D01*
X-134206D01*
X-132258Y156507D01*
X-130767Y157998D01*
X-129960Y159946D01*
Y160096D01*
X-129550Y161450D01*
X-128436Y161450D01*
X-121074D01*
X-119550Y161450D01*
X-118926Y161450D01*
X-111074D01*
X-109550Y161450D01*
X-108926Y161450D01*
X-101074D01*
X-99550Y161450D01*
X-98926Y161450D01*
X-91074D01*
X-89550Y161450D01*
X-88926Y161450D01*
X-81074D01*
X-79550Y161450D01*
X-78926Y161450D01*
X-71074D01*
X-69550Y161450D01*
X-68926Y161450D01*
X-61074D01*
X-59550Y161450D01*
X-58926Y161450D01*
X-51074D01*
X-49550Y161450D01*
X-48926Y161450D01*
X-41074D01*
X-39550Y161450D01*
X-38926Y161450D01*
X-31074D01*
X-29550Y161450D01*
X-28926Y161450D01*
X-21074D01*
X-19550Y161450D01*
X-18926Y161450D01*
X-11074D01*
X-9550Y161450D01*
X-8926Y161450D01*
X-1074D01*
X450Y161450D01*
X1074Y161450D01*
X8926D01*
X10450Y161450D01*
X11074Y161450D01*
X18926D01*
X20450Y161450D01*
X21074Y161450D01*
X28926D01*
X30450Y161450D01*
X31074Y161450D01*
X38926D01*
X40450Y161450D01*
X41074Y161450D01*
X48926D01*
X50450Y161450D01*
X51074Y161450D01*
X58926D01*
X60450Y161450D01*
X61074Y161450D01*
X68926D01*
X70450Y161450D01*
X71074Y161450D01*
X78926D01*
X80450Y161450D01*
X81074Y161450D01*
X88926D01*
X90450Y161450D01*
X91074Y161450D01*
X98926D01*
X100450Y161450D01*
X101074Y161450D01*
X108926D01*
X110450Y161450D01*
X111074Y161450D01*
X118926D01*
X120450Y161450D01*
X121074Y161450D01*
X128926D01*
X130450Y161450D01*
X131074Y161450D01*
X138926D01*
X140450Y161450D01*
X141074Y161450D01*
X148926D01*
X150450Y161450D01*
X151074Y161450D01*
X158926D01*
X160450Y161450D01*
X161074Y161450D01*
X168926D01*
X170450Y161450D01*
X171074Y161450D01*
X178926D01*
X180450Y161450D01*
X181074Y161450D01*
X188926D01*
X190450Y161450D01*
X191074Y161450D01*
X198926D01*
X200450Y161450D01*
X201074Y161450D01*
X208436D01*
D02*
G37*
G36*
X346941Y157771D02*
X345417Y157529D01*
X344558Y160173D01*
X342665Y163889D01*
X340213Y167264D01*
X337264Y170213D01*
X333889Y172665D01*
X330173Y174559D01*
X326205Y175847D01*
X322086Y176500D01*
X317914D01*
X313795Y175847D01*
X309827Y174559D01*
X306111Y172665D01*
X302736Y170213D01*
X299787Y167264D01*
X297335Y163889D01*
X295441Y160173D01*
X294153Y156205D01*
X293500Y152086D01*
Y147914D01*
X294153Y143795D01*
X295441Y139827D01*
X297335Y136111D01*
X299787Y132736D01*
X302736Y129787D01*
X306111Y127335D01*
X309827Y125442D01*
X313795Y124152D01*
X317914Y123500D01*
X322086D01*
X326205Y124152D01*
X330173Y125442D01*
X333889Y127335D01*
X337264Y129787D01*
X340213Y132736D01*
X342665Y136111D01*
X344558Y139827D01*
X345417Y142471D01*
X346941Y142229D01*
Y121328D01*
X235824D01*
Y179300D01*
X235348Y180448D01*
X234200Y180924D01*
X220200D01*
X219052Y180448D01*
X218576Y179300D01*
Y167500D01*
X218802Y166956D01*
X218818Y166913D01*
X217722Y165717D01*
X216314Y166300D01*
X214206D01*
X212258Y165493D01*
X211074Y164309D01*
X209644Y164717D01*
X209550Y164776D01*
Y180750D01*
X201074D01*
X199550Y180750D01*
X198926Y180750D01*
X191074D01*
X189550Y180750D01*
X188926Y180750D01*
X181074D01*
X179550Y180750D01*
X178926Y180750D01*
X171074D01*
X169550Y180750D01*
X168926Y180750D01*
X161074D01*
X159550Y180750D01*
X158926Y180750D01*
X151074D01*
X149550Y180750D01*
X148926Y180750D01*
X141074D01*
X139550Y180750D01*
X138926Y180750D01*
X131074D01*
X129550Y180750D01*
X128926Y180750D01*
X121074D01*
X119550Y180750D01*
X118926Y180750D01*
X111074D01*
X109550Y180750D01*
X108926Y180750D01*
X101074D01*
X99550Y180750D01*
X98926Y180750D01*
X91074D01*
X89550Y180750D01*
X88926Y180750D01*
X81074D01*
X79550Y180750D01*
X78926Y180750D01*
X71074D01*
X69550Y180750D01*
X68926Y180750D01*
X61074D01*
X59550Y180750D01*
X58926Y180750D01*
X51074D01*
X49550Y180750D01*
X48926Y180750D01*
X41074D01*
X39550Y180750D01*
X38926Y180750D01*
X31074D01*
X29550Y180750D01*
X28926Y180750D01*
X21074D01*
X19550Y180750D01*
X18926Y180750D01*
X11074D01*
X9550Y180750D01*
X8926Y180750D01*
X1074D01*
X-450Y180750D01*
X-1074Y180750D01*
X-8926D01*
X-10450Y180750D01*
X-11074Y180750D01*
X-18926D01*
X-20450Y180750D01*
X-21074Y180750D01*
X-28926D01*
X-30450Y180750D01*
X-31074Y180750D01*
X-38926D01*
X-40450Y180750D01*
X-41074Y180750D01*
X-48926D01*
X-50450Y180750D01*
X-51074Y180750D01*
X-58926D01*
X-60450Y180750D01*
X-61074Y180750D01*
X-68926D01*
X-70450Y180750D01*
X-71074Y180750D01*
X-78926D01*
X-80450Y180750D01*
X-81074Y180750D01*
X-88926D01*
X-90450Y180750D01*
X-91074Y180750D01*
X-98926D01*
X-100450Y180750D01*
X-101074Y180750D01*
X-108926D01*
X-110450Y180750D01*
X-111074Y180750D01*
X-118926D01*
X-120450Y180750D01*
X-121074Y180750D01*
X-129550D01*
Y164776D01*
X-129644Y164717D01*
X-131074Y164309D01*
X-132258Y165493D01*
X-134206Y166300D01*
X-136314D01*
X-137648Y165748D01*
X-138778Y166882D01*
X-138795Y166922D01*
X-138576Y167450D01*
Y179250D01*
X-139052Y180398D01*
X-140200Y180874D01*
X-154200D01*
X-155348Y180398D01*
X-155824Y179250D01*
Y121333D01*
X-223333Y121333D01*
X-224290Y121333D01*
X-224682Y121255D01*
X-225081Y121228D01*
X-226930Y120733D01*
X-227289Y120556D01*
X-227668Y120428D01*
X-229326Y119472D01*
X-229626Y119208D01*
X-229959Y118986D01*
X-231313Y117633D01*
X-231535Y117301D01*
X-231799Y117000D01*
X-232757Y115343D01*
X-232886Y114964D01*
X-233063Y114606D01*
X-233560Y112757D01*
X-233587Y112358D01*
X-233665Y111966D01*
X-233666Y110052D01*
X-233589Y109659D01*
X-233563Y109260D01*
X-233069Y107411D01*
X-232893Y107052D01*
X-232765Y106673D01*
X-231810Y105014D01*
X-231546Y104713D01*
X-231325Y104381D01*
X-229973Y103025D01*
X-229641Y102803D01*
X-229340Y102539D01*
X-227684Y101579D01*
X-227306Y101450D01*
X-226947Y101273D01*
X-225099Y100774D01*
X-224700Y100748D01*
X-224308Y100669D01*
X-223351Y100667D01*
X-223348Y100668D01*
X-223346Y100667D01*
X-197861D01*
X-197000Y99143D01*
Y98298D01*
X-197124Y98000D01*
Y86500D01*
X-197000Y86202D01*
Y85000D01*
X-195798D01*
X-195500Y84876D01*
X-185500D01*
X-185202Y85000D01*
X-184000D01*
Y86202D01*
X-183876Y86500D01*
Y89578D01*
X-183328Y90126D01*
X-179112D01*
Y81638D01*
X-175564D01*
Y77994D01*
X-178056D01*
Y58542D01*
X-178064Y58500D01*
Y41600D01*
X-178613Y41464D01*
X-179040Y41682D01*
X-180000Y42668D01*
Y45500D01*
X-184000D01*
Y47500D01*
X-180000D01*
Y51000D01*
X-180650D01*
Y54500D01*
X-185450D01*
Y56500D01*
X-180650D01*
Y60100D01*
X-183701D01*
X-184000Y61500D01*
X-184000D01*
Y76000D01*
X-195224D01*
X-196250Y77504D01*
Y78996D01*
X-196821Y80374D01*
X-197876Y81429D01*
X-199254Y82000D01*
X-200746D01*
X-202124Y81429D01*
X-202441Y81112D01*
X-206500D01*
Y75536D01*
X-208500D01*
Y81112D01*
X-212862D01*
Y81112D01*
X-214038Y81162D01*
Y81162D01*
X-214366Y81162D01*
X-218400D01*
Y75586D01*
X-220400D01*
Y81162D01*
X-222345D01*
X-222906Y82622D01*
X-222143Y83938D01*
X-215191D01*
Y83438D01*
X-210614D01*
Y88800D01*
Y94162D01*
X-215191D01*
Y93662D01*
X-224262D01*
Y91349D01*
X-233000D01*
Y97250D01*
X-251413Y97250D01*
X-252061Y97615D01*
X-252750Y98945D01*
Y99238D01*
X-249357Y102631D01*
X-248857Y103379D01*
X-248682Y104262D01*
Y106248D01*
X-247158Y106880D01*
X-246616Y106337D01*
X-244594Y105500D01*
X-242406D01*
X-240385Y106337D01*
X-238837Y107885D01*
X-238000Y109906D01*
Y112094D01*
X-238837Y114115D01*
X-240385Y115663D01*
X-242406Y116500D01*
X-244594D01*
X-246616Y115663D01*
X-247158Y115120D01*
X-248682Y115752D01*
Y122250D01*
X-248266D01*
X-246888Y122821D01*
X-245833Y123876D01*
X-245262Y125254D01*
Y126746D01*
X-245833Y128124D01*
X-246888Y129179D01*
X-248266Y129750D01*
X-249758D01*
X-251136Y129179D01*
X-252191Y128124D01*
X-252762Y126746D01*
Y125254D01*
X-252706Y125119D01*
X-253119Y124502D01*
X-253294Y123619D01*
Y116314D01*
X-254818Y115739D01*
X-256656Y116500D01*
X-258844D01*
X-260865Y115663D01*
X-262413Y114115D01*
X-263250Y112094D01*
Y109906D01*
X-262413Y107885D01*
X-260865Y106337D01*
X-258844Y105500D01*
X-256656D01*
X-255997Y105773D01*
X-254239Y104852D01*
X-254136Y104375D01*
X-256012Y102500D01*
X-257246D01*
X-258624Y101929D01*
X-259679Y100874D01*
X-260250Y99496D01*
Y98004D01*
X-259679Y96626D01*
X-258624Y95571D01*
X-257246Y95000D01*
X-255754D01*
X-254376Y95571D01*
X-253963Y95984D01*
X-252565Y96242D01*
X-252000Y95955D01*
Y81750D01*
X-236626D01*
X-234049Y79173D01*
Y75750D01*
X-241500D01*
Y67500D01*
X-242500D01*
Y66500D01*
X-252500D01*
Y59250D01*
X-242998D01*
X-242079Y57726D01*
X-242199Y57500D01*
X-257000D01*
Y55814D01*
X-276638D01*
Y57112D01*
X-279150D01*
Y59750D01*
X-270000D01*
Y75250D01*
X-287968D01*
X-289000Y75250D01*
X-289492Y76570D01*
Y76731D01*
X-290063Y78109D01*
X-291118Y79164D01*
X-291131Y79169D01*
Y80819D01*
X-291126Y80821D01*
X-290928Y81019D01*
X-289500Y81250D01*
X-289500Y81250D01*
X-280500D01*
Y89500D01*
Y97750D01*
X-289500D01*
Y93494D01*
X-290920Y92759D01*
X-292298Y93330D01*
X-293790D01*
X-295168Y92759D01*
X-296223Y91704D01*
X-296794Y90326D01*
Y88834D01*
X-296223Y87456D01*
X-295660Y86893D01*
X-296429Y86124D01*
X-297000Y84746D01*
Y83254D01*
X-296429Y81876D01*
X-295374Y80821D01*
X-295361Y80815D01*
Y79166D01*
X-295366Y79164D01*
X-296421Y78109D01*
X-296487Y77949D01*
X-297466Y77931D01*
X-298058Y78139D01*
X-298477Y79702D01*
X-299399Y81298D01*
X-300702Y82601D01*
X-302298Y83523D01*
X-304000Y83979D01*
Y77000D01*
Y70021D01*
X-302298Y70477D01*
X-300702Y71399D01*
X-299399Y72702D01*
X-298477Y74298D01*
X-298389Y74628D01*
X-296783Y74734D01*
X-296421Y73861D01*
X-295682Y73121D01*
X-296429Y72374D01*
X-297000Y70996D01*
Y69504D01*
X-296429Y68126D01*
X-295374Y67071D01*
X-293996Y66500D01*
X-292504D01*
X-291126Y67071D01*
X-290524Y67673D01*
X-289000Y67042D01*
Y59750D01*
X-284279D01*
Y57839D01*
X-285709Y57612D01*
Y57612D01*
X-290286D01*
Y52250D01*
Y46888D01*
X-285709D01*
Y47388D01*
X-277558D01*
X-277106Y46297D01*
X-276051Y45242D01*
X-275888Y45174D01*
X-275705Y44255D01*
X-275149Y43423D01*
X-270098Y38372D01*
X-269266Y37816D01*
X-269000Y37763D01*
Y34910D01*
X-271800D01*
Y32709D01*
X-267800D01*
Y33700D01*
X-238590D01*
X-237572Y32176D01*
X-237750Y31746D01*
Y30254D01*
X-237179Y28876D01*
X-236124Y27821D01*
X-235890Y27724D01*
X-236193Y26200D01*
X-259000D01*
Y26496D01*
X-259571Y27874D01*
X-260626Y28929D01*
X-262004Y29500D01*
X-263496D01*
X-264874Y28929D01*
X-265929Y27874D01*
X-266500Y26496D01*
X-266776Y26375D01*
X-268300Y27372D01*
Y28510D01*
X-267800D01*
Y30709D01*
X-272800D01*
X-277800D01*
Y30256D01*
X-283050D01*
X-286500Y33706D01*
Y34832D01*
X-287071Y36210D01*
X-288126Y37265D01*
X-289504Y37836D01*
X-290592D01*
X-290996Y37836D01*
X-291978Y38970D01*
X-292026Y39059D01*
X-292571Y40374D01*
X-293626Y41429D01*
X-293330Y42956D01*
X-293000Y43754D01*
Y45246D01*
X-293049Y45364D01*
X-292286Y46506D01*
Y51250D01*
X-296862D01*
Y48250D01*
X-297496D01*
X-298874Y47679D01*
X-299929Y46624D01*
X-300500Y45246D01*
Y43754D01*
X-299929Y42376D01*
X-298874Y41321D01*
X-299170Y39794D01*
X-299500Y38996D01*
Y37667D01*
X-299599Y37407D01*
X-300672Y36350D01*
X-303800D01*
Y31750D01*
X-304800D01*
Y30750D01*
X-309600D01*
Y27150D01*
X-306431D01*
X-305616Y25626D01*
X-305700Y25500D01*
X-307500D01*
Y17500D01*
X-308872Y17133D01*
X-308883Y17131D01*
X-309631Y16631D01*
X-315558Y10704D01*
X-317777D01*
X-318360Y12112D01*
X-318337Y12134D01*
X-317500Y14156D01*
Y16344D01*
X-318337Y18365D01*
X-319884Y19913D01*
X-321906Y20750D01*
X-324094D01*
X-326115Y19913D01*
X-327663Y18365D01*
X-328500Y16344D01*
Y14156D01*
X-327663Y12134D01*
X-327640Y12112D01*
X-328223Y10704D01*
X-349703D01*
X-350900Y11502D01*
Y13898D01*
X-351520Y16212D01*
X-352718Y18287D01*
X-354412Y19981D01*
X-356487Y21179D01*
X-358801Y21800D01*
X-361198D01*
X-363512Y21179D01*
X-365587Y19981D01*
X-367281Y18287D01*
X-368479Y16212D01*
X-369100Y13898D01*
Y11502D01*
X-368479Y9187D01*
X-367281Y7112D01*
X-365587Y5418D01*
X-363512Y4220D01*
X-361198Y3600D01*
X-358801D01*
X-356487Y4220D01*
X-354412Y5418D01*
X-353063Y6767D01*
X-352773D01*
X-352025Y6267D01*
X-351142Y6091D01*
X-346461D01*
X-345878Y4683D01*
X-355406Y-4845D01*
X-356487Y-4221D01*
X-358801Y-3600D01*
X-361198D01*
X-363512Y-4221D01*
X-365587Y-5419D01*
X-367281Y-7113D01*
X-368479Y-9188D01*
X-369100Y-11502D01*
Y-13898D01*
X-368479Y-16213D01*
X-367281Y-18288D01*
X-365587Y-19982D01*
X-363512Y-21180D01*
X-361198Y-21800D01*
X-358801D01*
X-356487Y-21180D01*
X-354412Y-19982D01*
X-352718Y-18288D01*
X-351520Y-16213D01*
X-350900Y-13898D01*
Y-11502D01*
X-351520Y-9188D01*
X-352144Y-8106D01*
X-340990Y3047D01*
X-328222D01*
X-327639Y1639D01*
X-327663Y1616D01*
X-328500Y-406D01*
Y-2594D01*
X-327663Y-4615D01*
X-326115Y-6163D01*
X-324094Y-7000D01*
X-321906D01*
X-319884Y-6163D01*
X-318337Y-4615D01*
X-317500Y-2594D01*
Y-406D01*
X-318337Y1616D01*
X-318361Y1639D01*
X-317778Y3047D01*
X-300173D01*
X-299155Y1523D01*
X-299321Y1122D01*
Y-370D01*
X-299149Y-785D01*
X-298887Y-2325D01*
X-299941Y-3380D01*
X-300512Y-4758D01*
Y-6250D01*
X-299941Y-7629D01*
X-298887Y-8684D01*
X-299158Y-9301D01*
X-299190Y-9333D01*
X-299761Y-10711D01*
Y-12203D01*
X-300293Y-13000D01*
X-305000D01*
Y-19500D01*
X-307000D01*
Y-13000D01*
X-313000D01*
Y-14593D01*
X-314383Y-15083D01*
X-314524Y-15056D01*
X-314837Y-14587D01*
X-314837Y-14587D01*
X-314837Y-14587D01*
X-315014Y-14469D01*
X-315087Y-14292D01*
X-315750Y-13299D01*
X-317438Y-11611D01*
X-318431Y-10948D01*
X-320636Y-10035D01*
X-321806Y-9802D01*
X-324193D01*
X-325364Y-10035D01*
X-327569Y-10948D01*
X-328562Y-11611D01*
X-330249Y-13299D01*
X-330913Y-14292D01*
X-331826Y-16497D01*
X-332059Y-17667D01*
Y-18861D01*
Y-88941D01*
X-439941D01*
Y90941D01*
X-332528D01*
Y62813D01*
X-332295Y61642D01*
X-331386Y59448D01*
X-330723Y58456D01*
X-329044Y56777D01*
X-328052Y56114D01*
X-325858Y55205D01*
X-324687Y54972D01*
X-322313D01*
X-321142Y55205D01*
X-318948Y56114D01*
X-317956Y56777D01*
X-316277Y58456D01*
X-315614Y59448D01*
X-314705Y61642D01*
X-314472Y62813D01*
Y63844D01*
X-314441Y64000D01*
Y101941D01*
X-290807D01*
X-289636Y102174D01*
X-287431Y103088D01*
X-286438Y103750D01*
X-284751Y105438D01*
X-284088Y106431D01*
X-283174Y108636D01*
X-282941Y109806D01*
Y112193D01*
X-283174Y113364D01*
X-284088Y115569D01*
X-284751Y116562D01*
X-286438Y118249D01*
X-287431Y118912D01*
X-289636Y119826D01*
X-290807Y120059D01*
X-292000D01*
X-329188Y120059D01*
X-329189Y120059D01*
X-406941D01*
Y142229D01*
X-405417Y142471D01*
X-404558Y139827D01*
X-402665Y136111D01*
X-400213Y132736D01*
X-397264Y129787D01*
X-393889Y127335D01*
X-390173Y125442D01*
X-386205Y124152D01*
X-382086Y123500D01*
X-377914D01*
X-373795Y124152D01*
X-369827Y125442D01*
X-366111Y127335D01*
X-362736Y129787D01*
X-359787Y132736D01*
X-357335Y136111D01*
X-355442Y139827D01*
X-354152Y143795D01*
X-353500Y147914D01*
Y152086D01*
X-354152Y156205D01*
X-355442Y160173D01*
X-357335Y163889D01*
X-359787Y167264D01*
X-362736Y170213D01*
X-366111Y172665D01*
X-369827Y174559D01*
X-373795Y175847D01*
X-377914Y176500D01*
X-382086D01*
X-386205Y175847D01*
X-390173Y174559D01*
X-393889Y172665D01*
X-397264Y170213D01*
X-400213Y167264D01*
X-402665Y163889D01*
X-404558Y160173D01*
X-405417Y157529D01*
X-406941Y157771D01*
Y186941D01*
X346941D01*
Y157771D01*
D02*
G37*
G36*
X234200Y120800D02*
X220200D01*
Y154650D01*
X220520Y154999D01*
X220822Y155364D01*
X221105Y155744D01*
X221368Y156137D01*
X221610Y156544D01*
X221831Y156962D01*
X222031Y157392D01*
X222208Y157831D01*
X222363Y158278D01*
X222495Y158733D01*
X222603Y159194D01*
X222687Y159660D01*
X222747Y160130D01*
X222784Y160602D01*
X222796Y161075D01*
X222784Y161548D01*
X222747Y162020D01*
X222687Y162490D01*
X222603Y162956D01*
X222495Y163417D01*
X222363Y163872D01*
X222208Y164319D01*
X222031Y164758D01*
X221831Y165187D01*
X221610Y165606D01*
X221368Y166013D01*
X221105Y166406D01*
X220822Y166786D01*
X220520Y167151D01*
X220200Y167500D01*
Y179300D01*
X234200D01*
Y120800D01*
D02*
G37*
G36*
X-140200Y167450D02*
X-140520Y167101D01*
X-140822Y166736D01*
X-141105Y166357D01*
X-141368Y165963D01*
X-141610Y165556D01*
X-141831Y165138D01*
X-142031Y164708D01*
X-142208Y164269D01*
X-142363Y163822D01*
X-142494Y163367D01*
X-142603Y162906D01*
X-142687Y162440D01*
X-142747Y161970D01*
X-142784Y161498D01*
X-142796Y161025D01*
X-142784Y160552D01*
X-142747Y160080D01*
X-142687Y159610D01*
X-142603Y159144D01*
X-142494Y158683D01*
X-142363Y158228D01*
X-142208Y157781D01*
X-142031Y157342D01*
X-141831Y156912D01*
X-141610Y156494D01*
X-141368Y156087D01*
X-141105Y155694D01*
X-140822Y155314D01*
X-140520Y154949D01*
X-140200Y154600D01*
Y120750D01*
X-154200D01*
Y179250D01*
X-140200D01*
Y167450D01*
D02*
G37*
G36*
X-28000Y99143D02*
Y95723D01*
X-28064Y95400D01*
Y93544D01*
X-28504Y93250D01*
X-29996D01*
X-31374Y92679D01*
X-32429Y91624D01*
X-33000Y90246D01*
Y88754D01*
X-32429Y87376D01*
X-31678Y86625D01*
X-32429Y85874D01*
X-33000Y84496D01*
Y83004D01*
X-32429Y81626D01*
X-31374Y80571D01*
X-29996Y80000D01*
X-29126D01*
X-28064Y78938D01*
Y64600D01*
X-28000Y64277D01*
Y59600D01*
X-28000D01*
X-27521Y58443D01*
X-31424Y54540D01*
X-32587Y52799D01*
X-32996Y50746D01*
Y43721D01*
X-33305Y42164D01*
X-32897Y40111D01*
X-31734Y38370D01*
X-30837Y37771D01*
Y33354D01*
X-28413D01*
X-28032Y31439D01*
X-26772Y29553D01*
X-25633Y28414D01*
X-25739Y28256D01*
X-26088Y26500D01*
X-26088Y21250D01*
X-25739Y19494D01*
X-24744Y18005D01*
X-24744Y18005D01*
X-17838Y11099D01*
Y-6849D01*
X-26523Y-15534D01*
X-27321Y-15376D01*
X-28376Y-14321D01*
X-29754Y-13750D01*
X-31246D01*
X-31830Y-13992D01*
X-33354Y-13060D01*
Y-10374D01*
X-31679D01*
X-30874Y-11179D01*
X-29496Y-11750D01*
X-28004D01*
X-26626Y-11179D01*
X-25571Y-10124D01*
X-25000Y-8746D01*
Y-7254D01*
X-25207Y-6755D01*
X-25598Y-5268D01*
X-24543Y-4213D01*
X-23972Y-2835D01*
Y-1343D01*
X-24543Y35D01*
X-25598Y1090D01*
X-26976Y1661D01*
X-28468D01*
X-29846Y1090D01*
X-30687Y250D01*
X-33354D01*
Y4223D01*
X-32854D01*
Y6620D01*
X-42164D01*
Y8620D01*
X-32854D01*
Y11017D01*
X-31985Y12181D01*
X-31830Y12285D01*
X-31746Y12250D01*
X-30254D01*
X-28876Y12821D01*
X-27821Y13876D01*
X-27250Y15254D01*
Y16746D01*
X-27821Y18124D01*
X-28876Y19179D01*
X-30254Y19750D01*
X-31746D01*
X-31830Y19715D01*
X-32073Y19755D01*
X-33354Y20733D01*
Y24543D01*
X-32854D01*
Y26940D01*
X-42164D01*
Y27940D01*
X-43164D01*
Y31337D01*
X-48731D01*
X-50042Y32563D01*
Y34606D01*
X-50237Y35587D01*
X-50793Y36419D01*
X-52455Y38081D01*
X-52520Y38240D01*
X-52677Y38396D01*
X-52097Y38977D01*
X-51776Y39750D01*
X-54750D01*
Y40750D01*
X-55750D01*
Y44132D01*
X-56186Y44423D01*
Y47938D01*
X-54624Y49500D01*
X-53754D01*
X-52376Y50071D01*
X-51321Y51126D01*
X-50750Y52504D01*
Y53996D01*
X-51321Y55374D01*
X-51877Y55930D01*
X-51049Y56759D01*
X-50735Y57302D01*
X-48942Y57360D01*
X-48699Y56996D01*
X-48226Y56524D01*
X-48226Y56524D01*
X-46402Y55305D01*
X-44250Y54877D01*
X-42098Y55305D01*
X-40274Y56524D01*
X-39055Y58348D01*
X-38627Y60500D01*
X-38627Y60500D01*
Y68500D01*
X-38627Y68500D01*
X-39055Y70652D01*
X-40274Y72476D01*
X-45718Y77920D01*
X-45943Y78759D01*
X-46799Y80241D01*
X-48009Y81451D01*
X-49491Y82307D01*
X-51144Y82750D01*
X-52856D01*
X-54509Y82307D01*
X-55991Y81451D01*
X-57201Y80241D01*
X-58057Y78759D01*
X-58500Y77106D01*
Y75394D01*
X-58057Y73741D01*
X-57201Y72259D01*
X-55991Y71049D01*
X-54509Y70193D01*
X-53671Y69968D01*
X-50638Y66936D01*
X-50726Y66573D01*
X-51798Y66138D01*
X-52421Y66045D01*
X-53741Y66807D01*
X-55394Y67250D01*
X-57106D01*
X-58759Y66807D01*
X-60241Y65951D01*
X-61451Y64741D01*
X-62307Y63259D01*
X-62750Y61606D01*
Y59911D01*
X-62994Y59783D01*
X-64155Y59250D01*
X-67500D01*
Y55250D01*
X-68500D01*
Y54250D01*
X-73000D01*
Y51250D01*
X-72500Y49933D01*
Y47651D01*
X-73121Y46974D01*
X-74444Y47202D01*
X-74788Y47430D01*
X-74943Y48009D01*
X-75799Y49491D01*
X-77009Y50701D01*
X-78491Y51557D01*
X-80144Y52000D01*
X-81856D01*
X-83509Y51557D01*
X-84991Y50701D01*
X-86201Y49491D01*
X-87057Y48009D01*
X-87111Y47806D01*
X-89252D01*
X-89638Y48192D01*
Y53612D01*
X-90758D01*
X-91939Y54439D01*
Y61250D01*
X-91439D01*
Y65155D01*
X-96000D01*
X-100561D01*
Y61250D01*
X-100061D01*
Y54439D01*
X-99544D01*
X-98362Y53612D01*
Y45970D01*
X-99886Y44951D01*
X-100004Y45000D01*
X-101496D01*
X-101853Y44852D01*
X-103377Y45870D01*
Y49000D01*
X-103805Y51152D01*
X-104712Y52509D01*
X-104866Y53283D01*
X-105307Y53943D01*
X-105570Y55369D01*
X-105429Y55718D01*
X-105000Y56754D01*
Y58246D01*
X-105571Y59624D01*
X-106626Y60679D01*
X-108004Y61250D01*
X-109496D01*
X-110874Y60679D01*
X-111929Y59624D01*
X-112500Y58246D01*
Y56754D01*
X-112152Y55915D01*
X-112097Y55201D01*
X-112938Y54221D01*
X-114446Y54304D01*
X-114676Y54458D01*
X-115278Y55270D01*
X-115296Y56414D01*
X-115023Y57074D01*
Y58566D01*
X-115531Y59792D01*
X-115545Y60119D01*
X-115101Y61606D01*
X-114009Y62236D01*
X-112799Y63447D01*
X-111943Y64929D01*
X-111500Y66582D01*
Y68293D01*
X-111943Y69947D01*
X-112799Y71429D01*
X-113902Y72532D01*
Y73351D01*
X-113902Y73352D01*
X-114330Y75504D01*
X-115246Y76875D01*
X-115299Y77141D01*
X-116518Y78966D01*
X-116740Y79114D01*
X-116278Y80638D01*
X-114250D01*
Y85478D01*
X-113250D01*
Y86479D01*
X-108388D01*
Y90319D01*
X-108888D01*
Y98862D01*
X-117612D01*
Y93807D01*
X-118378Y93041D01*
X-118967Y92648D01*
X-121276Y90339D01*
X-122668D01*
X-123780Y91451D01*
X-125263Y92307D01*
X-126916Y92750D01*
X-128627D01*
X-130280Y92307D01*
X-131763Y91451D01*
X-132973Y90241D01*
X-133828Y88759D01*
X-134271Y87106D01*
Y85394D01*
X-133845Y83803D01*
X-135864Y81784D01*
X-137388Y82416D01*
Y91112D01*
X-146459D01*
Y91612D01*
X-151036D01*
Y86250D01*
X-153036D01*
Y91612D01*
X-157612D01*
Y91612D01*
X-158888Y91862D01*
X-158888Y91862D01*
X-159033Y91862D01*
X-163464D01*
Y86500D01*
X-165464D01*
Y91862D01*
X-170041D01*
Y91862D01*
X-171154Y91915D01*
X-172126Y93000D01*
Y95750D01*
X-172602Y96898D01*
X-174847Y99143D01*
X-174847Y99171D01*
X-174538Y100667D01*
X-53520Y100667D01*
X-53319Y99143D01*
X-54702Y98773D01*
X-56298Y97851D01*
X-57601Y96548D01*
X-58523Y94952D01*
X-58979Y93250D01*
X-52000D01*
X-45021D01*
X-45477Y94952D01*
X-46399Y96548D01*
X-47702Y97851D01*
X-49298Y98773D01*
X-50681Y99143D01*
X-50480Y100667D01*
X-29413D01*
X-28000Y99143D01*
D02*
G37*
G36*
X-173750Y95750D02*
Y93000D01*
X-175000Y91750D01*
X-184000D01*
X-185500Y90250D01*
Y86500D01*
X-195500D01*
Y98000D01*
X-176000D01*
X-173750Y95750D01*
D02*
G37*
G36*
X69441Y-6555D02*
X68449Y-7017D01*
X67917Y-7080D01*
X59584Y1254D01*
X57843Y2417D01*
X56400Y2704D01*
X56192Y3008D01*
X55885Y4187D01*
X55894Y4306D01*
X63044Y11456D01*
X64207Y13197D01*
X64615Y15250D01*
Y40250D01*
X64207Y42303D01*
X63044Y44044D01*
X49011Y58076D01*
X49643Y59600D01*
X53000D01*
Y64277D01*
X53064Y64600D01*
Y70011D01*
X53679Y70626D01*
X54250Y72004D01*
Y73496D01*
X53679Y74874D01*
X52624Y75929D01*
X51246Y76500D01*
X49754D01*
X49389Y76349D01*
X47865Y77367D01*
Y79883D01*
X49389Y80901D01*
X49754Y80750D01*
X51246D01*
X52624Y81321D01*
X53679Y82376D01*
X54250Y83754D01*
Y85246D01*
X53679Y86624D01*
X53064Y87239D01*
Y95400D01*
X53000Y95723D01*
Y100400D01*
X54415Y100663D01*
X69441D01*
Y-6555D01*
D02*
G37*
G36*
X-135100Y73429D02*
Y67750D01*
X-135600D01*
Y63950D01*
X-131000D01*
Y61950D01*
X-135600D01*
Y58150D01*
X-131138D01*
Y55543D01*
X-131460Y55061D01*
X-131681Y53952D01*
X-131693Y53943D01*
X-132134Y53283D01*
X-132288Y52509D01*
X-133195Y51152D01*
X-133623Y49000D01*
X-133195Y46848D01*
X-132288Y45491D01*
X-132134Y44717D01*
X-131693Y44057D01*
X-131033Y43616D01*
X-130255Y43461D01*
X-128422D01*
X-128000Y43377D01*
X-127578Y43461D01*
X-125745D01*
X-124967Y43616D01*
X-124432Y43973D01*
X-124249Y44049D01*
X-122634Y43817D01*
X-122554Y43696D01*
X-121728Y43145D01*
X-120755Y42951D01*
X-119500D01*
Y49000D01*
X-117500D01*
Y42951D01*
X-116245D01*
X-116147Y42971D01*
X-114623Y41885D01*
Y40421D01*
X-121191D01*
X-123343Y39993D01*
X-125167Y38774D01*
X-125167Y38774D01*
X-130867Y33074D01*
X-132086Y31249D01*
X-132261Y30373D01*
X-141000D01*
X-141000Y30373D01*
X-143152Y29945D01*
X-144976Y28726D01*
X-146491Y27211D01*
X-147286Y26021D01*
X-147726Y25727D01*
X-149250Y26542D01*
Y28500D01*
X-152750D01*
Y23500D01*
X-153750D01*
Y22500D01*
X-158250D01*
Y18500D01*
X-159511Y17865D01*
X-160900D01*
X-161411Y18207D01*
X-163464Y18615D01*
X-165518Y18207D01*
X-166407Y17612D01*
X-169093D01*
X-169982Y18207D01*
X-170154Y18241D01*
X-170476Y19859D01*
X-170423Y19894D01*
X-153631Y36686D01*
X-151500D01*
X-150519Y36881D01*
X-149687Y37437D01*
X-148539Y38585D01*
X-146859Y38110D01*
X-146560Y37388D01*
X-145505Y36333D01*
X-144127Y35762D01*
X-142635D01*
X-141257Y36333D01*
X-140202Y37388D01*
X-139631Y38766D01*
Y40258D01*
X-140202Y41636D01*
X-141047Y42482D01*
X-140856Y43470D01*
X-140580Y44006D01*
X-137944D01*
Y73118D01*
X-136544Y73943D01*
X-135100Y73429D01*
D02*
G37*
G36*
X21064Y31936D02*
X20876Y30989D01*
X19821Y29934D01*
X19250Y28556D01*
Y27064D01*
X19821Y25686D01*
X20876Y24631D01*
X22254Y24060D01*
X23746D01*
X25124Y24631D01*
X25875Y25382D01*
X26626Y24631D01*
X28004Y24060D01*
X28940D01*
X30169Y22831D01*
Y19867D01*
X29246Y19250D01*
X27754D01*
X26376Y18679D01*
X25625Y17928D01*
X24624Y18929D01*
X23246Y19500D01*
X21754D01*
X20376Y18929D01*
X19321Y17874D01*
X18750Y16496D01*
Y15004D01*
X19321Y13626D01*
X20376Y12571D01*
X21754Y12000D01*
X23246D01*
X24624Y12571D01*
X25375Y13322D01*
X26376Y12321D01*
X27754Y11750D01*
X29246D01*
X30169Y11133D01*
Y-22831D01*
X21500Y-31500D01*
X-22664D01*
X-27000Y-27308D01*
Y-22500D01*
X-13250Y-8750D01*
Y13000D01*
X-21500Y21250D01*
X-21500Y26500D01*
X-15000Y33000D01*
X20000Y33000D01*
X21064Y31936D01*
D02*
G37*
G36*
X-74750Y13875D02*
X-74587Y13908D01*
X-73388Y13263D01*
X-73049Y12998D01*
X-73008Y12765D01*
X-74145Y11350D01*
X-78850D01*
Y8564D01*
X-84318D01*
X-84477Y8630D01*
X-85523D01*
X-86490Y8230D01*
X-86646Y8073D01*
X-87227Y8654D01*
X-88000Y8974D01*
Y6000D01*
X-89000D01*
Y5000D01*
X-91974D01*
X-91653Y4227D01*
X-91073Y3646D01*
X-91230Y3490D01*
X-91489Y2864D01*
X-91619Y2669D01*
X-91814Y1688D01*
Y-761D01*
X-92429Y-1376D01*
X-93000Y-2754D01*
Y-4202D01*
X-93127Y-4322D01*
X-94323Y-5034D01*
X-96138Y-3219D01*
Y1431D01*
X-95638D01*
Y5271D01*
X-100500D01*
Y6271D01*
X-101500D01*
Y11112D01*
X-105083D01*
X-105362Y11112D01*
X-106698Y11429D01*
X-106750Y11567D01*
Y13053D01*
X-105226Y13685D01*
X-105124Y13583D01*
X-103746Y13012D01*
X-102254D01*
X-100876Y13583D01*
X-99821Y14638D01*
X-99693Y14946D01*
X-98957Y15438D01*
X-97258Y17138D01*
X-94094D01*
Y16098D01*
X-93523Y14720D01*
X-92468Y13665D01*
X-91090Y13094D01*
X-89598D01*
X-88220Y13665D01*
X-87347Y14538D01*
X-85181D01*
X-84298Y14713D01*
X-83575Y15196D01*
X-83550Y15191D01*
X-80750D01*
X-79579Y15424D01*
X-79091Y15750D01*
X-78454Y14796D01*
X-77213Y13968D01*
X-76750Y13875D01*
Y18900D01*
X-74750D01*
Y13875D01*
D02*
G37*
G36*
X-225300Y33200D02*
X-223100D01*
Y33700D01*
X-214500D01*
Y33200D01*
X-212300D01*
Y38200D01*
X-210300D01*
Y33200D01*
X-208965D01*
Y31850D01*
X-208770Y30868D01*
X-208214Y30036D01*
X-207382Y29480D01*
X-207043Y28696D01*
Y27204D01*
X-207714Y26200D01*
X-227800D01*
Y-4800D01*
X-196800D01*
Y26200D01*
X-197288D01*
X-198201Y27724D01*
X-198137Y27843D01*
X-197780D01*
X-196402Y28414D01*
X-195347Y29469D01*
X-194776Y30847D01*
Y32339D01*
X-194815Y32433D01*
X-193968Y33700D01*
X-189800D01*
Y32710D01*
X-184800D01*
Y30710D01*
X-189800D01*
Y28510D01*
X-189300D01*
Y19906D01*
X-189800D01*
Y13540D01*
X-190165Y11704D01*
X-189757Y9651D01*
X-189300Y8968D01*
Y4902D01*
X-189800D01*
Y2702D01*
X-184800D01*
X-179800D01*
Y3950D01*
X-134094D01*
X-124753Y-5390D01*
X-124753Y-5390D01*
X-123860Y-5987D01*
X-122807Y-6196D01*
X-122190D01*
X-121112Y-7274D01*
Y-7362D01*
X-120862Y-8783D01*
Y-11000D01*
X-116522D01*
Y-12000D01*
X-115521D01*
Y-16362D01*
X-112181D01*
Y-15862D01*
X-106136D01*
X-104638Y-15862D01*
Y-15862D01*
X-104612D01*
Y-15862D01*
X-101815D01*
Y-20000D01*
X-103000D01*
X-103000Y-33555D01*
X-104000Y-34186D01*
X-105000Y-33555D01*
Y-20000D01*
X-112500D01*
Y-24436D01*
X-117638D01*
Y-23138D01*
X-124323D01*
X-125456Y-22038D01*
X-125500Y-21688D01*
Y-20504D01*
X-126071Y-19126D01*
X-127126Y-18071D01*
X-128504Y-17500D01*
X-129996D01*
X-131374Y-18071D01*
X-132429Y-19126D01*
X-133000Y-20504D01*
Y-21996D01*
X-132847Y-22366D01*
X-133362Y-23138D01*
X-133362D01*
Y-30862D01*
X-131828D01*
Y-37500D01*
X-133000D01*
Y-47987D01*
X-133049Y-48235D01*
Y-50745D01*
X-133369Y-51224D01*
X-133564Y-52205D01*
Y-54761D01*
X-134179Y-55376D01*
X-134750Y-56754D01*
Y-57688D01*
X-134826Y-58299D01*
X-136030Y-59138D01*
X-138771D01*
Y-64000D01*
X-139771D01*
Y-65000D01*
X-144612D01*
Y-68445D01*
X-144612Y-68862D01*
X-145620Y-69969D01*
X-147781D01*
Y-76000D01*
X-140256D01*
Y-77000D01*
X-139256D01*
Y-84031D01*
X-133101D01*
X-132500Y-88674D01*
Y-97250D01*
X-131394D01*
X-130333Y-97784D01*
X-129954Y-97812D01*
X-129603Y-97958D01*
X-99853D01*
X-98770Y-98281D01*
Y-98281D01*
X-92244D01*
Y-91250D01*
Y-84219D01*
X-95999D01*
X-96884Y-82978D01*
X-95856Y-80000D01*
X-95500D01*
X-94000Y-80058D01*
Y-80500D01*
X-90750D01*
Y-72500D01*
X-88750D01*
Y-80500D01*
X-85500D01*
Y-80058D01*
X-84000Y-80000D01*
X-83976Y-80000D01*
X-81819D01*
Y-83138D01*
X-82112D01*
Y-90819D01*
X-82112D01*
Y-91181D01*
X-82112D01*
Y-98862D01*
X-74388D01*
Y-98862D01*
X-74134Y-98693D01*
X-73996Y-98750D01*
X-72504D01*
X-72124Y-98593D01*
X-70600Y-98700D01*
X-70600Y-98700D01*
X-70600Y-98700D01*
X-67000D01*
Y-93900D01*
X-65000D01*
Y-98700D01*
X-62770D01*
X-61350Y-98950D01*
X-59980Y-98950D01*
X-57750D01*
Y-94150D01*
X-55750D01*
Y-98950D01*
X-52500D01*
Y-99000D01*
X-49000D01*
Y-94000D01*
X-48000D01*
Y-93000D01*
X-43500D01*
Y-89000D01*
X-43942D01*
X-44000Y-87500D01*
X-44000D01*
Y-78500D01*
X-47453D01*
X-49463Y-76491D01*
X-49109Y-75588D01*
X-48686Y-75112D01*
X-47214Y-75306D01*
X-45518Y-75083D01*
X-43936Y-74428D01*
X-42579Y-73386D01*
X-42461Y-73268D01*
X-41419Y-71910D01*
X-40764Y-70329D01*
X-40540Y-68632D01*
Y-63062D01*
X-29749Y-52271D01*
X-29195Y-52321D01*
X-28143Y-52820D01*
X-27817Y-54462D01*
X-26654Y-56202D01*
X-24664Y-58192D01*
X-25247Y-59600D01*
X-28000D01*
Y-64277D01*
X-28064Y-64600D01*
Y-70511D01*
X-28679Y-71126D01*
X-29250Y-72504D01*
Y-73996D01*
X-28679Y-75374D01*
X-27624Y-76429D01*
X-26246Y-77000D01*
X-24754D01*
X-24389Y-76849D01*
X-22865Y-77867D01*
Y-81529D01*
X-24389Y-82548D01*
X-24504Y-82500D01*
X-25996D01*
X-27374Y-83071D01*
X-28429Y-84126D01*
X-29000Y-85504D01*
Y-86996D01*
X-28429Y-88374D01*
X-28049Y-88754D01*
Y-95324D01*
X-28064Y-95400D01*
X-28000Y-95723D01*
Y-100400D01*
X-29373Y-100765D01*
X-206500Y-100765D01*
X-207458Y-100765D01*
X-207850Y-100843D01*
X-208249Y-100869D01*
X-210099Y-101365D01*
X-210458Y-101542D01*
X-210837Y-101671D01*
X-212496Y-102628D01*
X-212796Y-102892D01*
X-213129Y-103114D01*
X-214484Y-104468D01*
X-214706Y-104801D01*
X-214970Y-105102D01*
X-215927Y-106761D01*
X-216056Y-107139D01*
X-216233Y-107498D01*
X-216729Y-109348D01*
X-216755Y-109748D01*
X-216833Y-110140D01*
X-216833Y-112055D01*
X-216755Y-112448D01*
X-216729Y-112847D01*
X-216233Y-114697D01*
X-216056Y-115056D01*
X-215927Y-115435D01*
X-214970Y-117093D01*
X-214706Y-117394D01*
X-214484Y-117727D01*
X-213129Y-119081D01*
X-212797Y-119304D01*
X-212496Y-119567D01*
X-210837Y-120525D01*
X-210458Y-120653D01*
X-210099Y-120830D01*
X-208249Y-121326D01*
X-207850Y-121352D01*
X-207458Y-121430D01*
X-206500Y-121430D01*
X-155824Y-121430D01*
Y-179300D01*
X-155348Y-180448D01*
X-154200Y-180924D01*
X-140200D01*
X-139052Y-180448D01*
X-138576Y-179300D01*
Y-167500D01*
X-138802Y-166956D01*
X-138818Y-166913D01*
X-137722Y-165717D01*
X-136314Y-166300D01*
X-134206D01*
X-132258Y-165493D01*
X-131074Y-164309D01*
X-129644Y-164717D01*
X-129550Y-164776D01*
Y-180750D01*
X-121074D01*
X-119550Y-180750D01*
X-118926Y-180750D01*
X-111074D01*
X-109550Y-180750D01*
X-108926Y-180750D01*
X-101074D01*
X-99550Y-180750D01*
X-98926Y-180750D01*
X-91074D01*
X-89550Y-180750D01*
X-88926Y-180750D01*
X-81074D01*
X-79550Y-180750D01*
X-78926Y-180750D01*
X-71074D01*
X-69550Y-180750D01*
X-68926Y-180750D01*
X-61074D01*
X-59550Y-180750D01*
X-58926Y-180750D01*
X-51074D01*
X-49550Y-180750D01*
X-48926Y-180750D01*
X-41074D01*
X-39550Y-180750D01*
X-38926Y-180750D01*
X-31074D01*
X-29550Y-180750D01*
X-28926Y-180750D01*
X-21074D01*
X-19550Y-180750D01*
X-18926Y-180750D01*
X-11074D01*
X-9550Y-180750D01*
X-8926Y-180750D01*
X-1074D01*
X450Y-180750D01*
X1074Y-180750D01*
X8926D01*
X10450Y-180750D01*
X11074Y-180750D01*
X18926D01*
X20450Y-180750D01*
X21074Y-180750D01*
X28926D01*
X30450Y-180750D01*
X31074Y-180750D01*
X38926D01*
X40450Y-180750D01*
X41074Y-180750D01*
X48926D01*
X50450Y-180750D01*
X51074Y-180750D01*
X58926D01*
X60450Y-180750D01*
X61074Y-180750D01*
X68926D01*
X70450Y-180750D01*
X71074Y-180750D01*
X78926D01*
X80450Y-180750D01*
X81074Y-180750D01*
X88926D01*
X90450Y-180750D01*
X91074Y-180750D01*
X98926D01*
X100450Y-180750D01*
X101074Y-180750D01*
X108926D01*
X110450Y-180750D01*
X111074Y-180750D01*
X118926D01*
X120450Y-180750D01*
X121074Y-180750D01*
X128926D01*
X130450Y-180750D01*
X131074Y-180750D01*
X138926D01*
X140450Y-180750D01*
X141074Y-180750D01*
X148926D01*
X150450Y-180750D01*
X151074Y-180750D01*
X158926D01*
X160450Y-180750D01*
X161074Y-180750D01*
X168926D01*
X170450Y-180750D01*
X171074Y-180750D01*
X178926D01*
X180450Y-180750D01*
X181074Y-180750D01*
X188926D01*
X190450Y-180750D01*
X191074Y-180750D01*
X198926D01*
X200450Y-180750D01*
X201074Y-180750D01*
X209550D01*
Y-164776D01*
X209644Y-164717D01*
X211074Y-164309D01*
X212258Y-165493D01*
X214206Y-166300D01*
X216314D01*
X217648Y-165748D01*
X218778Y-166882D01*
X218795Y-166922D01*
X218576Y-167450D01*
Y-179250D01*
X219052Y-180398D01*
X220200Y-180874D01*
X234200D01*
X235348Y-180398D01*
X235824Y-179250D01*
Y-121333D01*
X301524D01*
X346941D01*
Y-142229D01*
X345417Y-142471D01*
X344558Y-139827D01*
X342665Y-136111D01*
X340213Y-132736D01*
X337264Y-129787D01*
X333889Y-127335D01*
X330173Y-125442D01*
X326205Y-124152D01*
X322086Y-123500D01*
X317914D01*
X313795Y-124152D01*
X309827Y-125442D01*
X306111Y-127335D01*
X302736Y-129787D01*
X299787Y-132736D01*
X297335Y-136111D01*
X295441Y-139827D01*
X294153Y-143795D01*
X293500Y-147914D01*
Y-152086D01*
X294153Y-156205D01*
X295441Y-160173D01*
X297335Y-163889D01*
X299787Y-167264D01*
X302736Y-170213D01*
X306111Y-172665D01*
X309827Y-174559D01*
X313795Y-175847D01*
X317914Y-176500D01*
X322086D01*
X326205Y-175847D01*
X330173Y-174559D01*
X333889Y-172665D01*
X337264Y-170213D01*
X340213Y-167264D01*
X342665Y-163889D01*
X344558Y-160173D01*
X345417Y-157529D01*
X346941Y-157771D01*
Y-186941D01*
X-406941D01*
Y-157771D01*
X-405417Y-157529D01*
X-404558Y-160173D01*
X-402665Y-163889D01*
X-400213Y-167264D01*
X-397264Y-170213D01*
X-393889Y-172665D01*
X-390173Y-174559D01*
X-386205Y-175847D01*
X-382086Y-176500D01*
X-377914D01*
X-373795Y-175847D01*
X-369827Y-174559D01*
X-366111Y-172665D01*
X-362736Y-170213D01*
X-359787Y-167264D01*
X-357335Y-163889D01*
X-355442Y-160173D01*
X-354152Y-156205D01*
X-353500Y-152086D01*
Y-147914D01*
X-354152Y-143795D01*
X-355442Y-139827D01*
X-357335Y-136111D01*
X-359787Y-132736D01*
X-362736Y-129787D01*
X-366111Y-127335D01*
X-369827Y-125442D01*
X-373795Y-124152D01*
X-377914Y-123500D01*
X-382086D01*
X-386205Y-124152D01*
X-390173Y-125442D01*
X-393889Y-127335D01*
X-397264Y-129787D01*
X-400213Y-132736D01*
X-402665Y-136111D01*
X-404558Y-139827D01*
X-405417Y-142471D01*
X-406941Y-142229D01*
Y-120059D01*
X-328001D01*
X-328000Y-120059D01*
X-328000Y-120059D01*
X-269676Y-120059D01*
X-269676Y-120059D01*
X-268483Y-120059D01*
X-267312Y-119826D01*
X-265107Y-118913D01*
X-264114Y-118250D01*
X-262427Y-116562D01*
X-261764Y-115569D01*
X-260850Y-113364D01*
X-260617Y-112194D01*
X-260617Y-109807D01*
X-260850Y-108636D01*
X-261763Y-106431D01*
X-262427Y-105438D01*
X-264114Y-103751D01*
X-265107Y-103088D01*
X-267312Y-102174D01*
X-268483Y-101941D01*
X-269676Y-101941D01*
X-313941Y-101941D01*
Y-57700D01*
X-312500Y-57500D01*
Y-57500D01*
X-299500D01*
Y-48626D01*
X-298269Y-47395D01*
X-297208Y-47835D01*
X-295716D01*
X-294306Y-48900D01*
Y-60367D01*
X-295250Y-61500D01*
X-296274Y-61500D01*
X-304750D01*
Y-71000D01*
X-304750Y-71000D01*
X-305250Y-72250D01*
X-305250D01*
X-305250Y-72317D01*
Y-82250D01*
X-294250D01*
Y-72524D01*
X-294250Y-72250D01*
X-293589Y-71000D01*
X-285250D01*
Y-62020D01*
X-283804Y-61311D01*
X-273639Y-71476D01*
X-274250Y-72951D01*
Y-85000D01*
X-268000D01*
Y-78610D01*
X-267000Y-77500D01*
X-254000D01*
X-253000Y-78610D01*
Y-85000D01*
X-238500D01*
Y-78466D01*
X-237371Y-77136D01*
X-233726D01*
X-233246Y-78296D01*
X-232191Y-79351D01*
X-230813Y-79922D01*
X-229321D01*
X-229023Y-79798D01*
X-227700Y-80682D01*
X-227607Y-82230D01*
X-229102Y-83726D01*
X-230421Y-84272D01*
X-231476Y-85327D01*
X-232046Y-86705D01*
Y-87919D01*
X-232070Y-87935D01*
X-233561D01*
X-234940Y-88505D01*
X-235994Y-89560D01*
X-236565Y-90939D01*
Y-92430D01*
X-235994Y-93809D01*
X-234940Y-94864D01*
X-233561Y-95435D01*
X-232070D01*
X-230691Y-94864D01*
X-229636Y-93809D01*
X-229065Y-92430D01*
Y-91216D01*
X-229042Y-91201D01*
X-227551D01*
X-226172Y-90630D01*
X-225524Y-89982D01*
X-224000Y-90557D01*
Y-99000D01*
X-217750D01*
Y-86000D01*
X-216750D01*
Y-85000D01*
X-209500D01*
Y-78610D01*
X-208500Y-77500D01*
X-196024D01*
X-195500Y-77500D01*
X-194500Y-78610D01*
Y-85000D01*
X-188250D01*
Y-73000D01*
X-193976D01*
X-194500Y-73000D01*
X-195500Y-71890D01*
Y-64000D01*
X-197750D01*
Y-60044D01*
X-197185Y-59758D01*
X-196226Y-59577D01*
X-195374Y-60429D01*
X-193996Y-61000D01*
X-192504D01*
X-191126Y-60429D01*
X-190071Y-59374D01*
X-189500Y-57996D01*
Y-56504D01*
X-189575Y-56324D01*
X-188556Y-54800D01*
X-188100D01*
Y-50800D01*
X-191300D01*
Y-48800D01*
X-188100D01*
Y-46009D01*
X-185066D01*
X-184800Y-46062D01*
X-183331D01*
X-181053Y-48340D01*
Y-51200D01*
X-181000Y-51466D01*
Y-54683D01*
X-181500Y-56000D01*
X-181500D01*
X-181500Y-56000D01*
Y-59000D01*
X-177000D01*
Y-60000D01*
X-176000D01*
Y-64000D01*
X-172600D01*
Y-64850D01*
X-169000D01*
Y-60050D01*
X-167000D01*
Y-64850D01*
X-163400D01*
X-162600Y-65850D01*
Y-65850D01*
X-159000D01*
Y-61050D01*
X-158000D01*
Y-60050D01*
X-153400D01*
Y-56250D01*
X-152061Y-55803D01*
X-147300D01*
X-147034Y-55750D01*
X-137000D01*
Y-41250D01*
X-150000D01*
Y-50297D01*
X-153900D01*
Y-49150D01*
X-156700D01*
X-156857Y-48365D01*
X-157250Y-47776D01*
Y-46504D01*
X-157345Y-46274D01*
X-156327Y-44750D01*
X-153500D01*
Y-40000D01*
X-160000D01*
Y-39000D01*
X-161000D01*
Y-33250D01*
X-166500D01*
Y-38790D01*
X-168024Y-39093D01*
X-168321Y-38376D01*
X-169376Y-37321D01*
X-169482Y-36786D01*
X-169071Y-36374D01*
X-168500Y-34996D01*
Y-33504D01*
X-168652Y-33136D01*
X-167634Y-31612D01*
X-166638D01*
Y-30010D01*
X-166000Y-28750D01*
X-164693D01*
X-164333Y-28899D01*
X-155812D01*
X-150000Y-31773D01*
Y-32250D01*
X-148750D01*
X-148705Y-32253D01*
X-148359Y-32396D01*
X-138376D01*
X-138023Y-32250D01*
X-137000D01*
Y-31371D01*
X-136752Y-30773D01*
Y-19292D01*
X-136858Y-19035D01*
X-136842Y-18758D01*
X-137000Y-17750D01*
X-137000D01*
X-137180Y-17524D01*
X-136446Y-16000D01*
X-132000D01*
Y-10500D01*
X-137750D01*
X-143500D01*
Y-13575D01*
X-144791Y-14385D01*
X-147915Y-12874D01*
Y-5088D01*
X-148000Y-4884D01*
Y-3500D01*
X-149325D01*
X-149630Y-3374D01*
X-157027D01*
X-157114Y-3410D01*
X-158638Y-3138D01*
Y-3138D01*
X-162714D01*
Y-8000D01*
X-164714D01*
Y-3138D01*
X-168791D01*
Y-3138D01*
X-169279Y-3464D01*
X-175050D01*
X-179800Y-1239D01*
Y702D01*
X-184800D01*
X-189800D01*
Y-1498D01*
X-189800Y-1498D01*
X-189332Y-3022D01*
X-189363Y-8013D01*
X-189359Y-8022D01*
X-189363Y-8030D01*
X-189300Y-8179D01*
Y-10102D01*
X-189800D01*
Y-12302D01*
X-184800D01*
Y-14302D01*
X-189800D01*
Y-16502D01*
X-189300D01*
Y-25936D01*
X-190221Y-26120D01*
X-191054Y-26676D01*
X-195036Y-30658D01*
X-195276Y-31017D01*
X-196800Y-30555D01*
Y-6800D01*
X-228800D01*
X-260800D01*
Y-37800D01*
X-255544D01*
X-255520Y-39314D01*
X-256898Y-39885D01*
X-257953Y-40940D01*
X-258524Y-42318D01*
Y-43478D01*
X-259739Y-44489D01*
X-260601Y-42859D01*
X-260554Y-42746D01*
Y-41254D01*
X-261125Y-39876D01*
X-262180Y-38821D01*
X-263558Y-38250D01*
X-264598D01*
X-266168Y-36680D01*
X-267000Y-36124D01*
X-267981Y-35929D01*
X-268300D01*
Y-26004D01*
Y-16002D01*
Y-5999D01*
Y4383D01*
X-266776Y5296D01*
X-266300Y5041D01*
Y4521D01*
X-265729Y3143D01*
X-264853Y2267D01*
X-265729Y1391D01*
X-266300Y13D01*
Y-1479D01*
X-265729Y-2857D01*
X-264674Y-3912D01*
X-263296Y-4483D01*
X-261804D01*
X-261329Y-4800D01*
X-229800D01*
Y26200D01*
X-231807D01*
X-232110Y27724D01*
X-231876Y27821D01*
X-230821Y28876D01*
X-230250Y30254D01*
Y31746D01*
X-230370Y32036D01*
X-229203Y33200D01*
X-227300D01*
Y38200D01*
X-225300D01*
Y33200D01*
D02*
G37*
G36*
X-73350Y-5400D02*
Y-9000D01*
X-68550D01*
Y-10000D01*
X-67550D01*
Y-14600D01*
X-63750D01*
Y-14100D01*
X-60361D01*
X-59343Y-15624D01*
X-59500Y-16004D01*
Y-17496D01*
X-58929Y-18874D01*
X-57874Y-19929D01*
X-56496Y-20500D01*
X-55469D01*
X-54723Y-21900D01*
X-54721Y-21908D01*
X-58120Y-25306D01*
X-58989D01*
X-60368Y-25877D01*
X-61423Y-26932D01*
X-61993Y-28310D01*
Y-29802D01*
X-61864Y-30114D01*
X-62883Y-31638D01*
X-65404D01*
X-66000Y-30746D01*
Y-29254D01*
X-66571Y-27876D01*
X-67626Y-26821D01*
X-69004Y-26250D01*
X-70496D01*
X-71874Y-26821D01*
X-72489Y-27436D01*
X-76500D01*
Y-20000D01*
X-84000D01*
X-84000Y-33555D01*
X-85000Y-34186D01*
X-86000Y-33555D01*
Y-20000D01*
X-86997D01*
Y-15000D01*
X-86997Y-15000D01*
X-87207Y-13946D01*
X-87803Y-13053D01*
X-87803Y-13053D01*
X-88888Y-11969D01*
Y-8658D01*
X-88679Y-7893D01*
X-87928Y-7011D01*
X-87126Y-6679D01*
X-86496Y-6049D01*
X-85795Y-5690D01*
X-84570Y-5983D01*
X-84124Y-6429D01*
X-82746Y-7000D01*
X-81254D01*
X-79876Y-6429D01*
X-78821Y-5374D01*
X-78811Y-5350D01*
X-74853D01*
X-73350Y-5400D01*
D02*
G37*
G36*
X-175314Y-5134D02*
X-175269Y-5088D01*
X-169279D01*
Y-10897D01*
X-168291Y-11884D01*
Y-12362D01*
X-167813D01*
X-165648Y-14527D01*
X-159431D01*
X-157027Y-12122D01*
Y-4997D01*
X-149630D01*
X-149539Y-5088D01*
Y-13892D01*
X-138376Y-19292D01*
Y-30773D01*
X-148359D01*
X-155432Y-27276D01*
X-164333D01*
X-167138Y-24471D01*
Y-21959D01*
X-169649D01*
X-170701Y-20908D01*
X-174392D01*
X-175269Y-10897D01*
X-182169Y-9439D01*
X-186246Y-9502D01*
X-187739Y-8023D01*
X-187703Y-2093D01*
X-181803D01*
X-175314Y-5134D01*
D02*
G37*
G36*
X-112500Y-35000D02*
X-112000Y-36317D01*
Y-49000D01*
X-77000D01*
Y-36317D01*
X-76500Y-35000D01*
X-76500Y-33642D01*
X-75422Y-32564D01*
X-72489D01*
X-71874Y-33179D01*
X-70496Y-33750D01*
X-69612D01*
Y-35000D01*
X-65272D01*
Y-36000D01*
X-64271D01*
Y-40362D01*
X-60931D01*
Y-39862D01*
X-53388D01*
Y-36997D01*
X-52593Y-36466D01*
X-46965Y-30837D01*
X-36057D01*
X-35052Y-31983D01*
X-35092Y-32286D01*
Y-39070D01*
X-51273Y-55252D01*
X-51344Y-55344D01*
X-51614Y-55614D01*
X-51614Y-55614D01*
X-51732Y-55732D01*
X-52235Y-56388D01*
X-56093D01*
X-56725Y-54864D01*
X-56232Y-54371D01*
X-55661Y-52993D01*
Y-51501D01*
X-54532Y-50244D01*
X-54376Y-50179D01*
X-53321Y-49124D01*
X-52750Y-47746D01*
Y-46254D01*
X-53321Y-44876D01*
X-54376Y-43821D01*
X-55754Y-43250D01*
X-57246D01*
X-58624Y-43821D01*
X-59679Y-44876D01*
X-60250Y-46254D01*
Y-47746D01*
X-61379Y-49003D01*
X-61535Y-49068D01*
X-62590Y-50122D01*
X-63161Y-51501D01*
Y-52993D01*
X-62754Y-53976D01*
X-63285Y-55136D01*
X-63616Y-55500D01*
X-71250D01*
Y-65000D01*
X-60340D01*
X-59250Y-65000D01*
X-58862Y-66363D01*
Y-68636D01*
X-59250Y-70000D01*
X-60386Y-70000D01*
X-71250D01*
Y-79500D01*
X-69569D01*
Y-81800D01*
X-70100D01*
Y-83410D01*
X-74388D01*
Y-83138D01*
X-74681D01*
Y-78250D01*
X-74953Y-76884D01*
X-75727Y-75727D01*
X-76431Y-75022D01*
Y-72750D01*
X-76500Y-72405D01*
X-76500Y-65000D01*
X-77000Y-63683D01*
Y-51000D01*
X-112000D01*
Y-63683D01*
X-112500Y-65000D01*
X-112500Y-66317D01*
Y-74953D01*
X-114509Y-76963D01*
X-115374Y-77321D01*
X-116429Y-78376D01*
X-117000Y-79754D01*
Y-81246D01*
X-116429Y-82624D01*
X-115400Y-83653D01*
X-115401Y-83832D01*
X-115644Y-85217D01*
X-117591Y-85449D01*
X-119157Y-83839D01*
Y-72288D01*
X-119219Y-72138D01*
Y-70469D01*
X-120973D01*
X-120978Y-70467D01*
X-131398D01*
X-132430Y-70081D01*
X-133137Y-69171D01*
X-133066Y-68362D01*
X-126388D01*
Y-59638D01*
X-126388D01*
X-127250Y-58246D01*
Y-56754D01*
X-127821Y-55376D01*
X-128436Y-54761D01*
Y-53150D01*
X-128116Y-52671D01*
X-127982Y-52000D01*
X-126750D01*
Y-48000D01*
X-125750D01*
Y-47000D01*
X-122500D01*
Y-44000D01*
X-123000D01*
Y-37500D01*
X-127215D01*
Y-31940D01*
X-126138Y-30862D01*
X-124157Y-30862D01*
X-117638D01*
Y-29564D01*
X-112500D01*
X-112500Y-35000D01*
D02*
G37*
G36*
X-277300Y-35916D02*
Y-46009D01*
X-269500D01*
Y-48800D01*
X-266300D01*
Y-49800D01*
X-265300D01*
Y-54800D01*
X-263679D01*
Y-54885D01*
X-263484Y-55866D01*
X-262928Y-56698D01*
X-257034Y-62592D01*
X-257618Y-64000D01*
X-267000D01*
Y-68186D01*
X-269676D01*
X-283436Y-54426D01*
Y-43500D01*
X-281500D01*
Y-37631D01*
X-281398Y-37610D01*
X-280650Y-37111D01*
X-278824Y-35285D01*
X-277300Y-35916D01*
D02*
G37*
G36*
X68449Y-39032D02*
X69441Y-39495D01*
Y-100667D01*
X54413D01*
X53000Y-100400D01*
X53000Y-99630D01*
Y-95723D01*
X53064Y-95400D01*
Y-93992D01*
X60063Y-86993D01*
X60619Y-86161D01*
X60800Y-85254D01*
X61429Y-84624D01*
X62000Y-83246D01*
Y-81754D01*
X61429Y-80376D01*
X60374Y-79321D01*
X58996Y-78750D01*
X57504D01*
X56126Y-79321D01*
X55071Y-80376D01*
X54500Y-81754D01*
Y-83246D01*
X55071Y-84624D01*
X55125Y-84678D01*
X49404Y-90400D01*
X47865D01*
Y-69600D01*
X49404D01*
X53144Y-73341D01*
X53976Y-73896D01*
X54685Y-74037D01*
X54721Y-74124D01*
X55776Y-75179D01*
X57154Y-75750D01*
X58646D01*
X60024Y-75179D01*
X61079Y-74124D01*
X61650Y-72746D01*
Y-71254D01*
X61079Y-69876D01*
X60024Y-68821D01*
X58646Y-68250D01*
X57154D01*
X55848Y-68791D01*
X53064Y-66008D01*
Y-64600D01*
X53000Y-64277D01*
Y-59600D01*
X49443D01*
X48811Y-58076D01*
X67917Y-38970D01*
X68449Y-39032D01*
D02*
G37*
G36*
X-97122Y-78302D02*
X-97022Y-78403D01*
X-99687Y-86120D01*
X-99740Y-86111D01*
X-99902Y-86274D01*
X-99827Y-86349D01*
X-99853Y-86420D01*
X-99853Y-87604D01*
Y-96334D01*
X-129603D01*
X-130864Y-95699D01*
Y-88667D01*
X-131725Y-82016D01*
X-131472Y-72091D01*
X-120978D01*
X-120780Y-72288D01*
Y-84497D01*
X-118196Y-87156D01*
X-110792Y-86274D01*
X-107289D01*
X-101501Y-78403D01*
Y-66776D01*
X-101249Y-66524D01*
X-97122D01*
Y-78302D01*
D02*
G37*
G36*
X218576Y-154600D02*
X218770Y-155068D01*
X218684Y-155248D01*
X217574Y-156222D01*
X216314Y-155700D01*
X214206D01*
X212258Y-156507D01*
X210767Y-157998D01*
X209960Y-159946D01*
Y-160096D01*
X209550Y-161450D01*
X208436Y-161450D01*
X201074D01*
X199550Y-161450D01*
X198926Y-161450D01*
X191074D01*
X189550Y-161450D01*
X188926Y-161450D01*
X181074D01*
X179550Y-161450D01*
X178926Y-161450D01*
X171074D01*
X169550Y-161450D01*
X168926Y-161450D01*
X161074D01*
X159550Y-161450D01*
X158926Y-161450D01*
X151074D01*
X149550Y-161450D01*
X148926Y-161450D01*
X141074D01*
X139550Y-161450D01*
X138926Y-161450D01*
X131074D01*
X129550Y-161450D01*
X128926Y-161450D01*
X121074D01*
X119550Y-161450D01*
X118926Y-161450D01*
X111074D01*
X109550Y-161450D01*
X108926Y-161450D01*
X101074D01*
X99550Y-161450D01*
X98926Y-161450D01*
X91074D01*
X89550Y-161450D01*
X88926Y-161450D01*
X81074D01*
X79550Y-161450D01*
X78926Y-161450D01*
X71074D01*
X69550Y-161450D01*
X68926Y-161450D01*
X61074D01*
X59550Y-161450D01*
X58926Y-161450D01*
X51074D01*
X49550Y-161450D01*
X48926Y-161450D01*
X41074D01*
X39550Y-161450D01*
X38926Y-161450D01*
X31074D01*
X29550Y-161450D01*
X28926Y-161450D01*
X21074D01*
X19550Y-161450D01*
X18926Y-161450D01*
X11074D01*
X9550Y-161450D01*
X8926Y-161450D01*
X1074D01*
X-450Y-161450D01*
X-1074Y-161450D01*
X-8926D01*
X-10450Y-161450D01*
X-11074Y-161450D01*
X-18926D01*
X-20450Y-161450D01*
X-21074Y-161450D01*
X-28926D01*
X-30450Y-161450D01*
X-31074Y-161450D01*
X-38926D01*
X-40450Y-161450D01*
X-41074Y-161450D01*
X-48926D01*
X-50450Y-161450D01*
X-51074Y-161450D01*
X-58926D01*
X-60450Y-161450D01*
X-61074Y-161450D01*
X-68926D01*
X-70450Y-161450D01*
X-71074Y-161450D01*
X-78926D01*
X-80450Y-161450D01*
X-81074Y-161450D01*
X-88926D01*
X-90450Y-161450D01*
X-91074Y-161450D01*
X-98926D01*
X-100450Y-161450D01*
X-101074Y-161450D01*
X-108926D01*
X-110450Y-161450D01*
X-111074Y-161450D01*
X-118926D01*
X-120450Y-161450D01*
X-121074Y-161450D01*
X-128436D01*
X-129550Y-161450D01*
X-129960Y-160096D01*
Y-159946D01*
X-130767Y-157998D01*
X-132258Y-156507D01*
X-134206Y-155700D01*
X-136314D01*
X-137551Y-156212D01*
X-138573Y-155381D01*
X-138745Y-155057D01*
X-138576Y-154650D01*
Y-121430D01*
X-134550D01*
Y-138550D01*
X-133569D01*
Y-143698D01*
X-133834Y-144338D01*
Y-145830D01*
X-133263Y-147208D01*
X-132208Y-148263D01*
X-130830Y-148834D01*
X-129338D01*
X-127960Y-148263D01*
X-126905Y-147208D01*
X-126334Y-145830D01*
Y-144338D01*
X-126431Y-144102D01*
Y-139668D01*
X-125450Y-138550D01*
X-124550D01*
Y-138550D01*
X-115450D01*
Y-138550D01*
X-114550D01*
Y-138550D01*
X-105450D01*
Y-138550D01*
X-104550D01*
Y-138550D01*
X-95450D01*
Y-138550D01*
X-94550D01*
Y-138550D01*
X-85450D01*
Y-138550D01*
X-84550D01*
Y-138550D01*
X-75450D01*
Y-138550D01*
X-74550D01*
Y-138550D01*
X-65450D01*
Y-138550D01*
X-64550D01*
Y-138550D01*
X-55450D01*
Y-138550D01*
X-54550D01*
Y-138550D01*
X-45450D01*
Y-138550D01*
X-44550D01*
Y-138550D01*
X-35450D01*
Y-138550D01*
X-34550D01*
Y-138550D01*
X-31129D01*
X-30545Y-139958D01*
X-35794Y-145206D01*
X-36957Y-146947D01*
X-37365Y-149000D01*
X-36957Y-151053D01*
X-35794Y-152794D01*
X-34053Y-153957D01*
X-32000Y-154365D01*
X-29947Y-153957D01*
X-28206Y-152794D01*
X-22548Y-147135D01*
X-21144Y-147886D01*
X-21365Y-149000D01*
X-20957Y-151053D01*
X-19794Y-152794D01*
X-18053Y-153957D01*
X-16000Y-154365D01*
X-13947Y-153957D01*
X-12206Y-152794D01*
X-6889Y-147477D01*
X-5365Y-148108D01*
Y-149000D01*
X-4957Y-151053D01*
X-3794Y-152794D01*
X-2053Y-153957D01*
X0Y-154365D01*
X2053Y-153957D01*
X3794Y-152794D01*
X4957Y-151053D01*
X5365Y-149000D01*
Y-148108D01*
X6889Y-147477D01*
X12206Y-152794D01*
X12206Y-152794D01*
X13947Y-153957D01*
X16000Y-154365D01*
X18053Y-153957D01*
X19794Y-152794D01*
X20698Y-151440D01*
X22404Y-150992D01*
X23670Y-152258D01*
X25411Y-153421D01*
X27464Y-153829D01*
X29756D01*
X29947Y-153957D01*
X32000Y-154365D01*
X34053Y-153957D01*
X35794Y-152794D01*
X37492Y-152648D01*
X38598Y-153387D01*
X40651Y-153796D01*
X44940D01*
X45947Y-154469D01*
X48000Y-154877D01*
X50053Y-154469D01*
X51794Y-153306D01*
X52957Y-151565D01*
X53195Y-150365D01*
X57778D01*
X60206Y-152794D01*
X61947Y-153957D01*
X64000Y-154365D01*
X66053Y-153957D01*
X67794Y-152794D01*
X68957Y-151053D01*
X69365Y-149000D01*
X69144Y-147889D01*
X69146Y-147885D01*
X70548Y-147135D01*
X76206Y-152794D01*
X77947Y-153957D01*
X80000Y-154365D01*
X82053Y-153957D01*
X83794Y-152794D01*
X84957Y-151053D01*
X85365Y-149000D01*
X84957Y-146947D01*
X83794Y-145206D01*
X78545Y-139958D01*
X79129Y-138550D01*
X84550D01*
Y-138550D01*
X85450D01*
Y-138550D01*
X94550D01*
Y-138550D01*
X95450D01*
Y-138550D01*
X104550D01*
Y-138550D01*
X105450D01*
Y-138550D01*
X114550D01*
Y-138550D01*
X115450D01*
Y-138550D01*
X124550D01*
Y-138550D01*
X125450D01*
Y-138550D01*
X134550D01*
Y-138550D01*
X135450D01*
Y-138550D01*
X144550D01*
Y-138550D01*
X145450D01*
Y-138550D01*
X154550D01*
Y-138550D01*
X155450D01*
Y-138550D01*
X164550D01*
Y-138550D01*
X165450D01*
Y-138550D01*
X174550D01*
Y-138550D01*
X175450D01*
Y-138550D01*
X184550D01*
Y-138550D01*
X185450D01*
Y-138550D01*
X194550D01*
Y-138550D01*
X195450D01*
Y-138550D01*
X204550D01*
Y-138550D01*
X204907D01*
X206431Y-139668D01*
Y-144816D01*
X206250Y-145254D01*
Y-146746D01*
X206821Y-148124D01*
X207876Y-149179D01*
X209254Y-149750D01*
X210746D01*
X212124Y-149179D01*
X213179Y-148124D01*
X213750Y-146746D01*
Y-145254D01*
X213569Y-144816D01*
Y-138550D01*
X214550D01*
Y-121333D01*
X218576D01*
Y-154600D01*
D02*
G37*
G36*
X234200Y-179250D02*
X220200D01*
Y-167450D01*
X220520Y-167101D01*
X220822Y-166736D01*
X221105Y-166357D01*
X221368Y-165963D01*
X221610Y-165556D01*
X221831Y-165138D01*
X222031Y-164708D01*
X222208Y-164269D01*
X222363Y-163822D01*
X222495Y-163367D01*
X222603Y-162906D01*
X222687Y-162440D01*
X222747Y-161970D01*
X222784Y-161498D01*
X222796Y-161025D01*
X222784Y-160552D01*
X222747Y-160080D01*
X222687Y-159610D01*
X222603Y-159144D01*
X222495Y-158683D01*
X222363Y-158228D01*
X222208Y-157781D01*
X222031Y-157342D01*
X221831Y-156912D01*
X221610Y-156494D01*
X221368Y-156087D01*
X221105Y-155694D01*
X220822Y-155314D01*
X220520Y-154949D01*
X220200Y-154600D01*
Y-120750D01*
X234200D01*
Y-179250D01*
D02*
G37*
G36*
X-140200Y-154650D02*
X-140520Y-154999D01*
X-140822Y-155364D01*
X-141105Y-155744D01*
X-141368Y-156137D01*
X-141610Y-156544D01*
X-141831Y-156962D01*
X-142031Y-157392D01*
X-142208Y-157831D01*
X-142363Y-158278D01*
X-142494Y-158733D01*
X-142603Y-159194D01*
X-142687Y-159660D01*
X-142747Y-160130D01*
X-142784Y-160602D01*
X-142796Y-161075D01*
X-142784Y-161548D01*
X-142747Y-162020D01*
X-142687Y-162490D01*
X-142603Y-162956D01*
X-142494Y-163417D01*
X-142363Y-163872D01*
X-142208Y-164319D01*
X-142031Y-164758D01*
X-141831Y-165187D01*
X-141610Y-165606D01*
X-141368Y-166013D01*
X-141105Y-166406D01*
X-140822Y-166786D01*
X-140520Y-167151D01*
X-140200Y-167500D01*
Y-179300D01*
X-154200D01*
Y-120800D01*
X-140200D01*
Y-154650D01*
D02*
G37*
%LPC*%
G36*
X-237000Y170624D02*
X-248070D01*
X-248483Y170452D01*
X-248925Y170380D01*
X-249038Y170222D01*
X-249218Y170148D01*
X-249389Y169735D01*
X-249650Y169371D01*
X-252011Y159329D01*
X-255132D01*
X-256079Y160523D01*
X-254184Y168631D01*
X-254215Y168821D01*
X-254141Y169000D01*
X-254313Y169415D01*
X-254386Y169857D01*
X-254543Y169969D01*
X-254617Y170148D01*
X-255031Y170319D01*
X-255396Y170581D01*
X-255586Y170550D01*
X-255765Y170624D01*
X-325950D01*
X-326363Y170452D01*
X-326805Y170380D01*
X-326918Y170222D01*
X-327098Y170148D01*
X-327269Y169735D01*
X-327531Y169371D01*
X-334580Y139371D01*
X-334549Y139180D01*
X-334624Y139000D01*
X-334452Y138586D01*
X-334380Y138145D01*
X-334222Y138032D01*
X-334148Y137852D01*
X-333735Y137681D01*
X-333371Y137419D01*
X-333180Y137451D01*
X-333000Y137376D01*
X-304620D01*
X-304206Y137548D01*
X-303764Y137620D01*
X-303651Y137778D01*
X-303472Y137852D01*
X-303301Y138266D01*
X-303039Y138629D01*
X-301209Y146429D01*
X-301241Y146621D01*
X-301166Y146800D01*
X-301338Y147214D01*
X-301410Y147655D01*
X-301417Y147661D01*
X-301556Y148470D01*
X-301507Y149312D01*
X-301075Y150088D01*
X-299380Y157288D01*
X-299411Y157480D01*
X-299336Y157660D01*
X-299508Y158073D01*
X-298581Y159576D01*
X-293544D01*
X-292598Y158382D01*
X-297080Y139373D01*
X-297049Y139180D01*
X-297124Y139000D01*
X-296953Y138587D01*
X-296881Y138146D01*
X-296723Y138032D01*
X-296648Y137852D01*
X-296235Y137681D01*
X-295873Y137420D01*
X-295680Y137451D01*
X-295500Y137376D01*
X-283770D01*
X-283357Y137548D01*
X-282915Y137620D01*
X-282802Y137778D01*
X-282622Y137852D01*
X-282451Y138265D01*
X-282190Y138628D01*
X-277264Y159576D01*
X-271940D01*
X-270993Y158382D01*
X-275451Y139371D01*
X-275419Y139179D01*
X-275494Y139000D01*
X-275322Y138586D01*
X-275250Y138144D01*
X-275092Y138031D01*
X-275018Y137852D01*
X-274605Y137681D01*
X-274241Y137419D01*
X-274049Y137451D01*
X-273870Y137376D01*
X-262800D01*
X-262386Y137548D01*
X-261945Y137620D01*
X-261831Y137778D01*
X-261652Y137852D01*
X-261481Y138266D01*
X-261219Y138629D01*
X-258813Y148881D01*
X-255696D01*
X-254749Y147687D01*
X-256701Y139371D01*
X-256669Y139179D01*
X-256744Y139000D01*
X-256572Y138586D01*
X-256500Y138145D01*
X-256342Y138031D01*
X-256268Y137852D01*
X-255855Y137681D01*
X-255491Y137419D01*
X-255299Y137451D01*
X-255120Y137376D01*
X-244050D01*
X-243637Y137548D01*
X-243195Y137620D01*
X-243035Y137797D01*
X-242902Y137852D01*
X-241961Y137653D01*
X-241889Y137666D01*
X-241620Y137616D01*
X-232560D01*
X-232139Y137791D01*
X-231689Y137870D01*
X-231634Y137948D01*
X-231359Y138101D01*
X-230960Y138168D01*
X-230151Y138238D01*
X-229703Y138125D01*
X-229675Y138088D01*
X-229075Y137728D01*
X-228832Y137691D01*
X-228634Y137545D01*
X-228154Y137425D01*
X-227950Y137455D01*
X-227760Y137376D01*
X-226800D01*
X-226610Y137455D01*
X-226406Y137425D01*
X-225446Y137665D01*
X-225262Y137801D01*
X-225035Y137830D01*
X-224859Y137931D01*
X-224824Y137916D01*
X-224447Y137654D01*
X-224268Y137686D01*
X-224100Y137616D01*
X-221340D01*
X-220918Y137791D01*
X-220468Y137870D01*
X-219103Y137719D01*
X-218917Y137655D01*
X-218917Y137655D01*
X-218735Y137687D01*
X-218565Y137616D01*
X-216105D01*
X-215683Y137791D01*
X-215232Y137871D01*
X-215127Y138022D01*
X-214957Y138092D01*
X-214782Y138514D01*
X-214520Y138889D01*
X-214159Y140519D01*
X-213671Y142100D01*
X-212215Y141732D01*
X-212192Y141723D01*
X-212665Y139592D01*
X-212633Y139410D01*
X-212704Y139240D01*
X-212529Y138818D01*
X-212450Y138368D01*
X-212299Y138262D01*
X-212228Y138092D01*
X-211806Y137917D01*
X-211432Y137655D01*
X-211250Y137687D01*
X-211080Y137616D01*
X-208620D01*
X-208198Y137791D01*
X-207748Y137870D01*
X-207642Y138021D01*
X-207472Y138092D01*
X-207297Y138514D01*
X-207181Y138679D01*
X-205937Y138872D01*
X-205539Y138866D01*
X-205335Y138745D01*
X-205214Y138541D01*
X-204734Y138181D01*
X-204550Y138134D01*
X-204419Y137996D01*
X-203879Y137756D01*
X-203710Y137752D01*
X-203572Y137655D01*
X-203032Y137535D01*
X-202932Y137553D01*
X-202841Y137504D01*
X-201642Y137385D01*
X-201559Y137409D01*
X-201480Y137376D01*
X-200880D01*
X-200792Y137413D01*
X-200701Y137386D01*
X-199621Y137506D01*
X-199524Y137560D01*
X-199415Y137543D01*
X-198739Y137708D01*
X-198727Y137717D01*
X-198712Y137715D01*
X-198427Y137790D01*
X-198153Y137998D01*
X-197935Y138062D01*
X-197586Y137917D01*
X-197211Y137655D01*
X-197030Y137687D01*
X-196860Y137616D01*
X-194400D01*
X-193976Y137792D01*
X-193525Y137872D01*
X-192937Y138026D01*
X-192015Y138089D01*
X-191963Y138092D01*
X-191542Y137917D01*
X-191168Y137655D01*
X-190986Y137687D01*
X-190815Y137616D01*
X-188145D01*
X-187720Y137793D01*
X-187267Y137874D01*
X-187164Y138023D01*
X-186997Y138092D01*
X-186821Y138517D01*
X-186558Y138895D01*
X-185403Y144205D01*
X-184969Y146182D01*
X-184994Y146321D01*
X-184933Y146449D01*
X-184888Y147349D01*
X-184943Y147502D01*
X-184903Y147660D01*
X-185023Y148500D01*
X-185100Y148631D01*
X-185090Y148783D01*
X-185330Y149503D01*
X-185577Y149789D01*
X-185722Y150138D01*
X-186202Y150618D01*
X-186392Y150697D01*
X-186515Y150862D01*
X-187115Y151222D01*
X-187358Y151258D01*
X-187556Y151405D01*
X-188036Y151525D01*
X-188240Y151495D01*
X-188430Y151574D01*
X-188446D01*
X-189688Y152960D01*
X-189690Y153000D01*
X-189410Y154263D01*
X-189442Y154445D01*
X-189371Y154615D01*
X-189546Y155037D01*
X-189625Y155487D01*
X-189776Y155593D01*
X-189847Y155763D01*
X-190269Y155938D01*
X-190643Y156200D01*
X-190825Y156168D01*
X-190995Y156239D01*
X-193455D01*
X-193878Y156064D01*
X-194328Y155984D01*
X-194433Y155833D01*
X-194603Y155763D01*
X-194778Y155341D01*
X-195040Y154966D01*
X-195625Y152324D01*
X-196464Y151579D01*
X-197159Y151316D01*
X-197759Y151406D01*
X-197882Y151375D01*
X-198000Y151424D01*
X-198960D01*
X-199026Y151396D01*
X-199095Y151418D01*
X-200175Y151328D01*
X-200288Y151270D01*
X-200414Y151290D01*
X-201554Y151020D01*
X-201712Y150906D01*
X-201906Y150892D01*
X-202866Y150412D01*
X-203056Y150490D01*
X-204180Y151551D01*
X-203946Y152725D01*
X-204180Y153899D01*
X-204845Y154895D01*
X-205841Y155560D01*
X-207015Y155794D01*
X-208189Y155560D01*
X-209185Y154895D01*
X-209850Y153899D01*
X-210084Y152725D01*
X-210174Y152539D01*
X-211320Y151484D01*
X-211450Y151430D01*
X-211587Y151461D01*
X-211947Y151402D01*
X-212127Y151289D01*
X-212339Y151284D01*
X-212879Y151044D01*
X-212936Y150984D01*
X-213054Y151033D01*
X-213429Y151295D01*
X-213610Y151263D01*
X-213780Y151334D01*
X-216240D01*
X-216389Y151272D01*
X-217014Y151097D01*
X-217077Y151086D01*
X-218017Y151584D01*
X-218354Y151883D01*
X-218154Y152890D01*
X-218376Y154006D01*
X-219008Y154952D01*
X-219954Y155584D01*
X-221070Y155806D01*
X-222186Y155584D01*
X-223215Y154999D01*
X-224244Y155584D01*
X-225360Y155806D01*
X-226476Y155584D01*
X-226974Y155251D01*
X-227519Y154954D01*
X-229060Y154985D01*
X-229240Y154953D01*
X-229410Y155024D01*
X-237051D01*
X-238258Y156548D01*
X-235419Y168629D01*
X-235451Y168820D01*
X-235376Y169000D01*
X-235548Y169414D01*
X-235620Y169855D01*
X-235777Y169968D01*
X-235852Y170148D01*
X-236265Y170319D01*
X-236628Y170581D01*
X-236821Y170549D01*
X-237000Y170624D01*
D02*
G37*
G36*
X-274156Y116500D02*
X-276344D01*
X-278365Y115663D01*
X-279913Y114115D01*
X-280750Y112094D01*
Y109906D01*
X-279913Y107885D01*
X-278365Y106337D01*
X-276344Y105500D01*
X-274156D01*
X-272134Y106337D01*
X-270587Y107885D01*
X-269750Y109906D01*
Y112094D01*
X-270587Y114115D01*
X-272134Y115663D01*
X-274156Y116500D01*
D02*
G37*
G36*
X-269500Y97750D02*
X-278500D01*
Y90500D01*
X-269500D01*
Y97750D01*
D02*
G37*
G36*
X-204038Y94162D02*
X-208614D01*
Y89800D01*
X-204038D01*
Y94162D01*
D02*
G37*
G36*
Y87800D02*
X-208614D01*
Y83438D01*
X-204038D01*
Y87800D01*
D02*
G37*
G36*
X-269500Y88500D02*
X-278500D01*
Y81250D01*
X-269500D01*
Y88500D01*
D02*
G37*
G36*
X-306000Y83979D02*
X-307702Y83523D01*
X-309298Y82601D01*
X-310601Y81298D01*
X-311523Y79702D01*
X-311979Y78000D01*
X-306000D01*
Y83979D01*
D02*
G37*
G36*
X-410600Y82100D02*
X-419200D01*
Y73500D01*
X-410600D01*
Y82100D01*
D02*
G37*
G36*
X-421200D02*
X-429800D01*
Y73500D01*
X-421200D01*
Y82100D01*
D02*
G37*
G36*
X-306000Y76000D02*
X-311979D01*
X-311523Y74298D01*
X-310601Y72702D01*
X-309298Y71399D01*
X-307702Y70477D01*
X-306000Y70021D01*
Y76000D01*
D02*
G37*
G36*
X-243500Y75750D02*
X-252500D01*
Y68500D01*
X-243500D01*
Y75750D01*
D02*
G37*
G36*
X-358736Y73100D02*
X-359000D01*
Y64500D01*
X-350400D01*
Y64763D01*
X-351054Y67205D01*
X-352318Y69394D01*
X-354105Y71182D01*
X-356294Y72445D01*
X-358736Y73100D01*
D02*
G37*
G36*
X-361000D02*
X-361263D01*
X-363705Y72445D01*
X-365894Y71182D01*
X-367682Y69394D01*
X-368945Y67205D01*
X-369600Y64763D01*
Y64500D01*
X-361000D01*
Y73100D01*
D02*
G37*
G36*
X-393602Y81600D02*
X-395998D01*
X-398312Y80980D01*
X-400387Y79782D01*
X-402082Y78088D01*
X-403280Y76013D01*
X-403900Y73698D01*
Y71302D01*
X-403280Y68987D01*
X-402082Y66912D01*
X-400387Y65218D01*
X-398312Y64020D01*
X-395998Y63400D01*
X-393602D01*
X-391287Y64020D01*
X-389212Y65218D01*
X-387518Y66912D01*
X-386320Y68987D01*
X-385700Y71302D01*
Y73698D01*
X-386320Y76013D01*
X-387518Y78088D01*
X-389212Y79782D01*
X-391287Y80980D01*
X-393602Y81600D01*
D02*
G37*
G36*
X-410600Y71500D02*
X-419200D01*
Y62900D01*
X-410600D01*
Y71500D01*
D02*
G37*
G36*
X-421200D02*
X-429800D01*
Y62900D01*
X-421200D01*
Y71500D01*
D02*
G37*
G36*
X-350400Y62500D02*
X-359000D01*
Y53900D01*
X-358736D01*
X-356294Y54554D01*
X-354105Y55818D01*
X-352318Y57605D01*
X-351054Y59794D01*
X-350400Y62236D01*
Y62500D01*
D02*
G37*
G36*
X-361000D02*
X-369600D01*
Y62236D01*
X-368945Y59794D01*
X-367682Y57605D01*
X-365894Y55818D01*
X-363705Y54554D01*
X-361263Y53900D01*
X-361000D01*
Y62500D01*
D02*
G37*
G36*
X-292286Y57612D02*
X-296862D01*
Y53250D01*
X-292286D01*
Y57612D01*
D02*
G37*
G36*
X-305800Y36350D02*
X-309600D01*
Y32750D01*
X-305800D01*
Y36350D01*
D02*
G37*
G36*
X-273800Y34910D02*
X-277800D01*
Y32709D01*
X-273800D01*
Y34910D01*
D02*
G37*
G36*
X-358801Y47200D02*
X-361198D01*
X-363512Y46579D01*
X-365587Y45381D01*
X-367281Y43687D01*
X-368479Y41612D01*
X-369100Y39298D01*
Y36902D01*
X-368479Y34587D01*
X-367281Y32512D01*
X-365587Y30818D01*
X-363512Y29620D01*
X-361198Y29000D01*
X-358801D01*
X-356487Y29620D01*
X-354412Y30818D01*
X-352718Y32512D01*
X-351520Y34587D01*
X-350900Y36902D01*
Y39298D01*
X-351520Y41612D01*
X-352718Y43687D01*
X-354412Y45381D01*
X-356487Y46579D01*
X-358801Y47200D01*
D02*
G37*
G36*
X-410600Y34600D02*
X-419200D01*
Y26000D01*
X-410600D01*
Y34600D01*
D02*
G37*
G36*
X-421200D02*
X-429800D01*
Y26000D01*
X-421200D01*
Y34600D01*
D02*
G37*
G36*
X-322307Y52809D02*
X-324693D01*
X-325864Y52576D01*
X-328069Y51663D01*
X-329062Y50999D01*
X-330750Y49312D01*
X-331413Y48319D01*
X-332326Y46114D01*
X-332559Y44943D01*
Y43750D01*
X-332558Y43746D01*
X-332559Y43742D01*
X-332531Y32742D01*
X-332529Y32730D01*
Y31562D01*
X-332296Y30392D01*
X-331387Y28198D01*
X-330724Y27205D01*
X-329045Y25526D01*
X-328052Y24863D01*
X-325858Y23954D01*
X-324688Y23721D01*
X-322313D01*
X-321142Y23954D01*
X-318948Y24863D01*
X-317955Y25526D01*
X-316276Y27205D01*
X-315613Y28198D01*
X-314704Y30392D01*
X-314471Y31562D01*
Y32599D01*
X-314441Y32750D01*
X-314441Y44943D01*
X-314674Y46114D01*
X-315588Y48319D01*
X-316251Y49312D01*
X-317938Y50999D01*
X-318931Y51663D01*
X-321136Y52576D01*
X-322307Y52809D01*
D02*
G37*
G36*
X-393602Y34100D02*
X-395998D01*
X-398312Y33480D01*
X-400387Y32282D01*
X-402082Y30587D01*
X-403280Y28512D01*
X-403900Y26198D01*
Y23802D01*
X-403280Y21488D01*
X-402082Y19412D01*
X-400387Y17718D01*
X-398312Y16520D01*
X-395998Y15900D01*
X-393602D01*
X-391287Y16520D01*
X-389212Y17718D01*
X-387518Y19412D01*
X-386320Y21488D01*
X-385700Y23802D01*
Y26198D01*
X-386320Y28512D01*
X-387518Y30587D01*
X-389212Y32282D01*
X-391287Y33480D01*
X-393602Y34100D01*
D02*
G37*
G36*
X-410600Y24000D02*
X-419200D01*
Y15400D01*
X-410600D01*
Y24000D01*
D02*
G37*
G36*
X-421200D02*
X-429800D01*
Y15400D01*
X-421200D01*
Y24000D01*
D02*
G37*
G36*
X-410600Y-15400D02*
X-419200D01*
Y-24000D01*
X-410600D01*
Y-15400D01*
D02*
G37*
G36*
X-421200D02*
X-429800D01*
Y-24000D01*
X-421200D01*
Y-15400D01*
D02*
G37*
G36*
X-393602Y-15900D02*
X-395998D01*
X-398312Y-16520D01*
X-400387Y-17718D01*
X-402082Y-19412D01*
X-403280Y-21488D01*
X-403900Y-23802D01*
Y-26198D01*
X-403280Y-28512D01*
X-402082Y-30587D01*
X-400387Y-32282D01*
X-398312Y-33480D01*
X-395998Y-34100D01*
X-393602D01*
X-391287Y-33480D01*
X-389212Y-32282D01*
X-387518Y-30587D01*
X-386320Y-28512D01*
X-385700Y-26198D01*
Y-23802D01*
X-386320Y-21488D01*
X-387518Y-19412D01*
X-389212Y-17718D01*
X-391287Y-16520D01*
X-393602Y-15900D01*
D02*
G37*
G36*
X-410600Y-26000D02*
X-419200D01*
Y-34600D01*
X-410600D01*
Y-26000D01*
D02*
G37*
G36*
X-421200D02*
X-429800D01*
Y-34600D01*
X-421200D01*
Y-26000D01*
D02*
G37*
G36*
X-358802Y-29000D02*
X-361198D01*
X-363513Y-29620D01*
X-365588Y-30818D01*
X-367282Y-32512D01*
X-368480Y-34587D01*
X-369100Y-36902D01*
Y-39298D01*
X-368480Y-41612D01*
X-367282Y-43687D01*
X-365588Y-45381D01*
X-363513Y-46579D01*
X-361198Y-47200D01*
X-358802D01*
X-356488Y-46579D01*
X-354413Y-45381D01*
X-352719Y-43687D01*
X-351521Y-41612D01*
X-350900Y-39298D01*
Y-36902D01*
X-351521Y-34587D01*
X-352719Y-32512D01*
X-354413Y-30818D01*
X-356488Y-29620D01*
X-358802Y-29000D01*
D02*
G37*
G36*
X-350900Y-54400D02*
X-369100D01*
Y-72600D01*
X-350900D01*
Y-54400D01*
D02*
G37*
G36*
X-410600Y-65400D02*
X-419200D01*
Y-74000D01*
X-410600D01*
Y-65400D01*
D02*
G37*
G36*
X-421200D02*
X-429800D01*
Y-74000D01*
X-421200D01*
Y-65400D01*
D02*
G37*
G36*
X-393602Y-65900D02*
X-395998D01*
X-398312Y-66520D01*
X-400387Y-67718D01*
X-402082Y-69412D01*
X-403280Y-71487D01*
X-403900Y-73802D01*
Y-76198D01*
X-403280Y-78513D01*
X-402082Y-80588D01*
X-400387Y-82282D01*
X-398312Y-83480D01*
X-395998Y-84100D01*
X-393602D01*
X-391287Y-83480D01*
X-389212Y-82282D01*
X-387518Y-80588D01*
X-386320Y-78513D01*
X-385700Y-76198D01*
Y-73802D01*
X-386320Y-71487D01*
X-387518Y-69412D01*
X-389212Y-67718D01*
X-391287Y-66520D01*
X-393602Y-65900D01*
D02*
G37*
G36*
X-410600Y-76000D02*
X-419200D01*
Y-84600D01*
X-410600D01*
Y-76000D01*
D02*
G37*
G36*
X-421200D02*
X-429800D01*
Y-84600D01*
X-421200D01*
Y-76000D01*
D02*
G37*
%LPD*%
G36*
X-244050Y139000D02*
X-255120D01*
X-252420Y150505D01*
X-260100D01*
X-262800Y139000D01*
X-273870D01*
X-268665Y161200D01*
X-278550D01*
X-283770Y139000D01*
X-295500D01*
X-290265Y161200D01*
X-316065D01*
X-316905Y157660D01*
X-300960D01*
X-302655Y150460D01*
X-318585D01*
X-319440Y146800D01*
X-302790D01*
X-304620Y139000D01*
X-333000D01*
X-325950Y169000D01*
X-255765D01*
X-258405Y157705D01*
X-250725D01*
X-248070Y169000D01*
X-237000D01*
X-244050Y139000D01*
D02*
G37*
G36*
X-197400Y149710D02*
X-196860Y149515D01*
X-197340Y147340D01*
X-197760Y147460D01*
X-198060Y147520D01*
X-198720Y147580D01*
X-199440D01*
X-199920Y147520D01*
X-200400Y147340D01*
X-200880Y147040D01*
X-201420Y146380D01*
X-201780Y145840D01*
X-202080Y145180D01*
X-202320Y144400D01*
X-202440Y143620D01*
Y143080D01*
X-202380Y142660D01*
X-202260Y142240D01*
X-202080Y141880D01*
X-201840Y141640D01*
X-201420Y141400D01*
X-200940Y141280D01*
X-200520D01*
X-199920Y141340D01*
X-199140Y141520D01*
X-198585Y141715D01*
X-198840Y139360D01*
X-199125Y139285D01*
X-199800Y139120D01*
X-200880Y139000D01*
X-201480D01*
X-202680Y139120D01*
X-203220Y139240D01*
X-203760Y139480D01*
X-204240Y139840D01*
X-204600Y140320D01*
X-204900Y140920D01*
X-205080Y141520D01*
X-205200Y142420D01*
Y143440D01*
X-205080Y144220D01*
X-204900Y145000D01*
X-204600Y145840D01*
X-204300Y146560D01*
X-203880Y147280D01*
X-203400Y147880D01*
X-202920Y148360D01*
X-202140Y148960D01*
X-201180Y149440D01*
X-200040Y149710D01*
X-198960Y149800D01*
X-198000D01*
X-197400Y149710D01*
D02*
G37*
G36*
X-210600Y149800D02*
X-211155Y147295D01*
X-211560Y147400D01*
X-211860D01*
X-212280Y147220D01*
X-212700Y146920D01*
X-213210Y146410D01*
X-213960Y145420D01*
X-214500Y144400D01*
X-215160Y142780D01*
X-215730Y140935D01*
X-216105Y139240D01*
X-218565D01*
X-216240Y149710D01*
X-213780D01*
X-214425Y146800D01*
X-213960Y147760D01*
X-213480Y148480D01*
X-213060Y148900D01*
X-212580Y149320D01*
X-212220Y149560D01*
X-211680Y149800D01*
X-211320Y149860D01*
X-210960D01*
X-210600Y149800D01*
D02*
G37*
G36*
X-221340Y139240D02*
X-224100D01*
X-223680Y141160D01*
X-224370Y140350D01*
X-225000Y139720D01*
X-225840Y139240D01*
X-226800Y139000D01*
X-227760D01*
X-228240Y139120D01*
X-228840Y139480D01*
X-229320Y139960D01*
X-229560Y140680D01*
X-229680Y141520D01*
X-229635Y142420D01*
X-229200Y144400D01*
X-228045Y149710D01*
X-225375D01*
X-226920Y142780D01*
X-226980Y142360D01*
Y141880D01*
X-226920Y141520D01*
X-226680Y141280D01*
X-226320Y141160D01*
X-225960D01*
X-225480Y141400D01*
X-225000Y141730D01*
X-224400Y142360D01*
X-223800Y143320D01*
X-223200Y144400D01*
X-222690Y145615D01*
X-221790Y149710D01*
X-219015D01*
X-221340Y139240D01*
D02*
G37*
G36*
X-192510Y147790D02*
X-191820Y148600D01*
X-191190Y149230D01*
X-190350Y149710D01*
X-189390Y149950D01*
X-188430D01*
X-187950Y149830D01*
X-187350Y149470D01*
X-186870Y148990D01*
X-186630Y148270D01*
X-186510Y147430D01*
X-186555Y146530D01*
X-186990Y144550D01*
X-188145Y139240D01*
X-190815D01*
X-189270Y146170D01*
X-189210Y146590D01*
Y147070D01*
X-189270Y147430D01*
X-189510Y147670D01*
X-189870Y147790D01*
X-190230D01*
X-190710Y147550D01*
X-191190Y147220D01*
X-191790Y146590D01*
X-192390Y145630D01*
X-192990Y144550D01*
X-193500Y143335D01*
X-194400Y139240D01*
X-196860D01*
X-193455Y154615D01*
X-190995D01*
X-192510Y147790D01*
D02*
G37*
G36*
X-208620Y139240D02*
X-211080D01*
X-208755Y149710D01*
X-206295D01*
X-208620Y139240D01*
D02*
G37*
G36*
X-229755Y151840D02*
X-237510Y141730D01*
X-232005D01*
X-232560Y139240D01*
X-241620D01*
X-241275Y140845D01*
X-233550Y150910D01*
X-239040D01*
X-238485Y153400D01*
X-229410D01*
X-229755Y151840D01*
D02*
G37*
%LPC*%
G36*
X-76394Y97000D02*
X-78106D01*
X-79759Y96557D01*
X-81241Y95701D01*
X-82451Y94491D01*
X-83131Y93314D01*
X-84761D01*
X-85626Y94179D01*
X-87004Y94750D01*
X-88496D01*
X-89874Y94179D01*
X-90929Y93124D01*
X-91500Y91746D01*
Y90254D01*
X-90929Y88876D01*
X-90189Y88136D01*
Y86500D01*
X-91500D01*
Y80317D01*
X-92000Y79000D01*
X-92000Y78183D01*
Y76708D01*
X-93524Y76077D01*
X-94126Y76679D01*
X-95504Y77250D01*
X-96996D01*
X-98374Y76679D01*
X-99429Y75624D01*
X-100000Y74246D01*
Y72754D01*
X-99930Y72585D01*
X-100561Y71061D01*
X-100561D01*
Y67155D01*
X-96000D01*
X-91439D01*
Y69769D01*
X-91439Y71000D01*
X-90501Y71000D01*
X-88500D01*
Y75000D01*
X-87500D01*
Y76000D01*
X-83000D01*
Y79000D01*
X-83500Y80317D01*
Y85402D01*
X-81976Y86034D01*
X-81241Y85299D01*
X-79759Y84443D01*
X-78106Y84000D01*
X-76394D01*
X-76177Y82551D01*
X-76287Y82505D01*
X-77342Y81450D01*
X-77913Y80072D01*
Y78580D01*
X-77342Y77202D01*
X-76287Y76147D01*
X-75809Y75949D01*
X-75914Y74343D01*
X-76981Y74057D01*
X-78463Y73201D01*
X-79674Y71991D01*
X-80529Y70509D01*
X-80972Y68856D01*
Y67144D01*
X-80529Y65491D01*
X-79674Y64009D01*
X-78463Y62799D01*
X-76981Y61943D01*
X-75328Y61500D01*
X-73617D01*
X-71964Y61943D01*
X-70481Y62799D01*
X-69271Y64009D01*
X-68415Y65491D01*
X-67972Y67144D01*
Y68856D01*
X-68056Y69169D01*
X-67318Y70131D01*
X-65940Y70702D01*
X-64885Y71757D01*
X-64314Y73135D01*
Y74627D01*
X-64885Y76005D01*
X-65940Y77060D01*
X-67318Y77631D01*
X-68810D01*
X-69229Y77457D01*
X-70413Y78580D01*
Y80072D01*
X-70984Y81450D01*
X-72039Y82505D01*
X-73417Y83076D01*
X-74209D01*
X-74372Y83495D01*
X-74469Y84600D01*
X-73259Y85299D01*
X-72049Y86509D01*
X-71193Y87991D01*
X-70750Y89644D01*
Y91356D01*
X-71193Y93009D01*
X-72049Y94491D01*
X-73259Y95701D01*
X-74741Y96557D01*
X-76394Y97000D01*
D02*
G37*
G36*
X-45021Y91250D02*
X-51000D01*
Y85271D01*
X-49298Y85727D01*
X-47702Y86649D01*
X-46399Y87952D01*
X-45477Y89548D01*
X-45021Y91250D01*
D02*
G37*
G36*
X-53000D02*
X-58979D01*
X-58523Y89548D01*
X-57601Y87952D01*
X-56298Y86649D01*
X-54702Y85727D01*
X-53000Y85271D01*
Y91250D01*
D02*
G37*
G36*
X-99394Y97000D02*
X-101106D01*
X-102759Y96557D01*
X-104241Y95701D01*
X-105451Y94491D01*
X-106307Y93009D01*
X-106750Y91356D01*
Y89644D01*
X-106307Y87991D01*
X-105451Y86509D01*
X-104241Y85299D01*
X-102759Y84443D01*
X-101106Y84000D01*
X-99394D01*
X-97741Y84443D01*
X-96259Y85299D01*
X-95049Y86509D01*
X-94193Y87991D01*
X-93750Y89644D01*
Y91356D01*
X-94193Y93009D01*
X-95049Y94491D01*
X-96259Y95701D01*
X-97741Y96557D01*
X-99394Y97000D01*
D02*
G37*
G36*
X-108388Y84479D02*
X-112250D01*
Y80638D01*
X-108388D01*
Y84479D01*
D02*
G37*
G36*
X-83000Y74000D02*
X-86500D01*
Y71000D01*
X-83000D01*
Y74000D01*
D02*
G37*
G36*
X-69500Y59250D02*
X-73000D01*
Y56250D01*
X-69500D01*
Y59250D01*
D02*
G37*
G36*
X-53750Y43724D02*
Y41750D01*
X-51776D01*
X-52097Y42523D01*
X-52977Y43404D01*
X-53750Y43724D01*
D02*
G37*
G36*
X-32854Y31337D02*
X-41164D01*
Y28940D01*
X-32854D01*
Y31337D01*
D02*
G37*
G36*
X-154750Y28500D02*
X-158250D01*
Y24500D01*
X-154750D01*
Y28500D01*
D02*
G37*
G36*
X-99500Y11112D02*
Y7272D01*
X-95638D01*
Y11112D01*
X-99500D01*
D02*
G37*
G36*
X-90000Y8974D02*
X-90773Y8654D01*
X-91653Y7773D01*
X-91974Y7000D01*
X-90000D01*
Y8974D01*
D02*
G37*
G36*
X-132000Y-3000D02*
X-136750D01*
Y-8500D01*
X-132000D01*
Y-3000D01*
D02*
G37*
G36*
X-138750D02*
X-143500D01*
Y-8500D01*
X-138750D01*
Y-3000D01*
D02*
G37*
G36*
X-117521Y-13000D02*
X-120862D01*
Y-16362D01*
X-117521D01*
Y-13000D01*
D02*
G37*
G36*
X-153500Y-33250D02*
X-159000D01*
Y-38000D01*
X-153500D01*
Y-33250D01*
D02*
G37*
G36*
X-140772Y-59138D02*
X-144612D01*
Y-63000D01*
X-140772D01*
Y-59138D01*
D02*
G37*
G36*
X-178000Y-61000D02*
X-181500D01*
Y-64000D01*
X-178000D01*
Y-61000D01*
D02*
G37*
G36*
X-153400Y-62050D02*
X-157000D01*
Y-65850D01*
X-153400D01*
Y-62050D01*
D02*
G37*
G36*
X-157969Y-69969D02*
X-164000D01*
Y-76494D01*
X-157969D01*
Y-69969D01*
D02*
G37*
G36*
X-166000D02*
X-172031D01*
Y-76494D01*
X-166000D01*
Y-69969D01*
D02*
G37*
G36*
X-141256Y-78000D02*
X-147781D01*
Y-84031D01*
X-141256D01*
Y-78000D01*
D02*
G37*
G36*
X-186250Y-73000D02*
Y-85000D01*
X-180000D01*
Y-73000D01*
X-186250D01*
D02*
G37*
G36*
X-276250Y-73000D02*
X-282500D01*
Y-85000D01*
X-276250D01*
Y-73000D01*
D02*
G37*
G36*
X-83719Y-84219D02*
X-90244D01*
Y-90250D01*
X-83719D01*
Y-84219D01*
D02*
G37*
G36*
X-293750Y-86750D02*
X-298750D01*
Y-91250D01*
X-293750D01*
Y-86750D01*
D02*
G37*
G36*
X-300750D02*
X-305750D01*
Y-91250D01*
X-300750D01*
Y-86750D01*
D02*
G37*
G36*
X-268000Y-87000D02*
X-274250D01*
Y-99000D01*
X-268000D01*
Y-94844D01*
X-266931Y-93763D01*
X-266931Y-93763D01*
Y-93763D01*
X-266500Y-93746D01*
X-265929Y-95124D01*
X-264874Y-96179D01*
X-263496Y-96750D01*
X-262004D01*
X-260626Y-96179D01*
X-259571Y-95124D01*
X-259000Y-93746D01*
Y-92254D01*
X-259571Y-90876D01*
X-260626Y-89821D01*
X-262004Y-89250D01*
X-263496D01*
X-264874Y-89821D01*
X-265929Y-90876D01*
X-266500Y-92254D01*
X-266931Y-92237D01*
Y-92237D01*
X-266931Y-92237D01*
X-268000Y-91156D01*
Y-87000D01*
D02*
G37*
G36*
X-293750Y-93250D02*
X-298750D01*
Y-97750D01*
X-293750D01*
Y-93250D01*
D02*
G37*
G36*
X-300750D02*
X-305750D01*
Y-97750D01*
X-300750D01*
Y-93250D01*
D02*
G37*
G36*
X-83719Y-92250D02*
X-90244D01*
Y-98281D01*
X-83719D01*
Y-92250D01*
D02*
G37*
G36*
X-157969Y-78494D02*
X-165000D01*
X-172031D01*
Y-85020D01*
X-171531D01*
Y-87232D01*
X-171641Y-87478D01*
X-171632Y-87502D01*
X-171642Y-87526D01*
Y-97112D01*
X-171531Y-97381D01*
Y-98531D01*
X-170513D01*
X-170019Y-98736D01*
X-147000D01*
X-146882Y-98687D01*
X-146757Y-98717D01*
X-137959Y-97386D01*
X-137734Y-97250D01*
X-136500D01*
Y-94629D01*
X-136377Y-88744D01*
X-136500Y-88428D01*
Y-87250D01*
X-137527D01*
X-137785Y-87100D01*
X-147823Y-85762D01*
X-147882Y-85778D01*
X-147936Y-85751D01*
X-156526Y-85215D01*
X-157969Y-85020D01*
Y-78494D01*
D02*
G37*
G36*
X-43500Y-95000D02*
X-47000D01*
Y-99000D01*
X-43500D01*
Y-95000D01*
D02*
G37*
G36*
X-180000Y-87000D02*
X-186250D01*
Y-99000D01*
X-180000D01*
Y-87000D01*
D02*
G37*
G36*
X-188250D02*
X-194500D01*
Y-99000D01*
X-188250D01*
Y-87000D01*
D02*
G37*
G36*
X-209500D02*
X-215750D01*
Y-99000D01*
X-209500D01*
Y-87000D01*
D02*
G37*
G36*
X-238500Y-87000D02*
X-244750D01*
Y-99000D01*
X-238500D01*
Y-87000D01*
D02*
G37*
G36*
X-246750D02*
X-253000D01*
Y-99000D01*
X-246750D01*
Y-87000D01*
D02*
G37*
G36*
X-276250D02*
X-282500D01*
Y-99000D01*
X-276250D01*
Y-87000D01*
D02*
G37*
G36*
X-223406Y-105250D02*
X-225594D01*
X-227616Y-106087D01*
X-229163Y-107634D01*
X-230000Y-109656D01*
Y-111844D01*
X-229163Y-113865D01*
X-227616Y-115413D01*
X-225594Y-116250D01*
X-223406D01*
X-221385Y-115413D01*
X-219837Y-113865D01*
X-219000Y-111844D01*
Y-109656D01*
X-219837Y-107634D01*
X-221385Y-106087D01*
X-223406Y-105250D01*
D02*
G37*
G36*
X-237906Y-105500D02*
X-240094D01*
X-242115Y-106337D01*
X-243663Y-107885D01*
X-244500Y-109906D01*
Y-112094D01*
X-243663Y-114115D01*
X-242115Y-115663D01*
X-240094Y-116500D01*
X-237906D01*
X-235884Y-115663D01*
X-234337Y-114115D01*
X-233500Y-112094D01*
Y-109906D01*
X-234337Y-107885D01*
X-235884Y-106337D01*
X-237906Y-105500D01*
D02*
G37*
G36*
X-251906D02*
X-254094D01*
X-256115Y-106337D01*
X-257663Y-107885D01*
X-258500Y-109906D01*
Y-112094D01*
X-257663Y-114115D01*
X-256115Y-115663D01*
X-254094Y-116500D01*
X-251906D01*
X-249884Y-115663D01*
X-248337Y-114115D01*
X-247500Y-112094D01*
Y-109906D01*
X-248337Y-107885D01*
X-249884Y-106337D01*
X-251906Y-105500D01*
D02*
G37*
G36*
X-312236Y-128400D02*
X-312500D01*
Y-137000D01*
X-303900D01*
Y-136736D01*
X-304554Y-134295D01*
X-305818Y-132106D01*
X-307605Y-130318D01*
X-309794Y-129054D01*
X-312236Y-128400D01*
D02*
G37*
G36*
X-314500D02*
X-314764D01*
X-317205Y-129054D01*
X-319394Y-130318D01*
X-321181Y-132106D01*
X-322445Y-134295D01*
X-323100Y-136736D01*
Y-137000D01*
X-314500D01*
Y-128400D01*
D02*
G37*
G36*
X-236102Y-128900D02*
X-238498D01*
X-240812Y-129520D01*
X-242887Y-130718D01*
X-244581Y-132413D01*
X-245779Y-134487D01*
X-246400Y-136802D01*
Y-139198D01*
X-245779Y-141512D01*
X-244581Y-143588D01*
X-242887Y-145282D01*
X-240812Y-146480D01*
X-238498Y-147100D01*
X-236102D01*
X-233787Y-146480D01*
X-231712Y-145282D01*
X-230018Y-143588D01*
X-228820Y-141512D01*
X-228200Y-139198D01*
Y-136802D01*
X-228820Y-134487D01*
X-230018Y-132413D01*
X-231712Y-130718D01*
X-233787Y-129520D01*
X-236102Y-128900D01*
D02*
G37*
G36*
X-261502D02*
X-263898D01*
X-266212Y-129520D01*
X-268287Y-130718D01*
X-269981Y-132413D01*
X-271179Y-134487D01*
X-271800Y-136802D01*
Y-139198D01*
X-271179Y-141512D01*
X-269981Y-143588D01*
X-268287Y-145282D01*
X-266212Y-146480D01*
X-263898Y-147100D01*
X-261502D01*
X-259187Y-146480D01*
X-257112Y-145282D01*
X-255418Y-143588D01*
X-254220Y-141512D01*
X-253600Y-139198D01*
Y-136802D01*
X-254220Y-134487D01*
X-255418Y-132413D01*
X-257112Y-130718D01*
X-259187Y-129520D01*
X-261502Y-128900D01*
D02*
G37*
G36*
X-286902D02*
X-289298D01*
X-291612Y-129520D01*
X-293687Y-130718D01*
X-295381Y-132413D01*
X-296579Y-134487D01*
X-297200Y-136802D01*
Y-139198D01*
X-296579Y-141512D01*
X-295381Y-143588D01*
X-293687Y-145282D01*
X-291612Y-146480D01*
X-289298Y-147100D01*
X-286902D01*
X-284587Y-146480D01*
X-282512Y-145282D01*
X-280818Y-143588D01*
X-279620Y-141512D01*
X-279000Y-139198D01*
Y-136802D01*
X-279620Y-134487D01*
X-280818Y-132413D01*
X-282512Y-130718D01*
X-284587Y-129520D01*
X-286902Y-128900D01*
D02*
G37*
G36*
X-177400Y-128901D02*
X-195600D01*
Y-147101D01*
X-177400D01*
Y-128901D01*
D02*
G37*
G36*
X-210702D02*
X-213099D01*
X-215413Y-129521D01*
X-217488Y-130719D01*
X-219182Y-132413D01*
X-220380Y-134488D01*
X-221000Y-136803D01*
Y-139199D01*
X-220380Y-141513D01*
X-219182Y-143588D01*
X-217488Y-145283D01*
X-215413Y-146481D01*
X-213099Y-147101D01*
X-210702D01*
X-208388Y-146481D01*
X-206313Y-145283D01*
X-204619Y-143588D01*
X-203421Y-141513D01*
X-202800Y-139199D01*
Y-136803D01*
X-203421Y-134488D01*
X-204619Y-132413D01*
X-206313Y-130719D01*
X-208388Y-129521D01*
X-210702Y-128901D01*
D02*
G37*
G36*
X-303900Y-139000D02*
X-312500D01*
Y-147600D01*
X-312236D01*
X-309794Y-146946D01*
X-307605Y-145682D01*
X-305818Y-143895D01*
X-304554Y-141706D01*
X-303900Y-139264D01*
Y-139000D01*
D02*
G37*
G36*
X-314500D02*
X-323100D01*
Y-139264D01*
X-322445Y-141706D01*
X-321181Y-143895D01*
X-319394Y-145682D01*
X-317205Y-146946D01*
X-314764Y-147600D01*
X-314500D01*
Y-139000D01*
D02*
G37*
G36*
X-286836Y-160400D02*
X-287100D01*
Y-169000D01*
X-278500D01*
Y-168736D01*
X-279154Y-166294D01*
X-280418Y-164105D01*
X-282205Y-162318D01*
X-284394Y-161054D01*
X-286836Y-160400D01*
D02*
G37*
G36*
X-312236D02*
X-312500D01*
Y-169000D01*
X-303900D01*
Y-168736D01*
X-304554Y-166294D01*
X-305818Y-164105D01*
X-307605Y-162318D01*
X-309794Y-161054D01*
X-312236Y-160400D01*
D02*
G37*
G36*
X-289100D02*
X-289363D01*
X-291805Y-161054D01*
X-293994Y-162318D01*
X-295781Y-164105D01*
X-297045Y-166294D01*
X-297700Y-168736D01*
Y-169000D01*
X-289100D01*
Y-160400D01*
D02*
G37*
G36*
X-314500D02*
X-314764D01*
X-317205Y-161054D01*
X-319394Y-162318D01*
X-321181Y-164105D01*
X-322445Y-166294D01*
X-323100Y-168736D01*
Y-169000D01*
X-314500D01*
Y-160400D01*
D02*
G37*
G36*
X-236102Y-160900D02*
X-238498D01*
X-240812Y-161520D01*
X-242887Y-162718D01*
X-244581Y-164412D01*
X-245779Y-166488D01*
X-246400Y-168802D01*
Y-171198D01*
X-245779Y-173512D01*
X-244581Y-175588D01*
X-242887Y-177282D01*
X-240812Y-178480D01*
X-238498Y-179100D01*
X-236102D01*
X-233787Y-178480D01*
X-231712Y-177282D01*
X-230018Y-175588D01*
X-228820Y-173512D01*
X-228200Y-171198D01*
Y-168802D01*
X-228820Y-166488D01*
X-230018Y-164412D01*
X-231712Y-162718D01*
X-233787Y-161520D01*
X-236102Y-160900D01*
D02*
G37*
G36*
X-261502D02*
X-263898D01*
X-266212Y-161520D01*
X-268287Y-162718D01*
X-269981Y-164412D01*
X-271179Y-166488D01*
X-271800Y-168802D01*
Y-171198D01*
X-271179Y-173512D01*
X-269981Y-175588D01*
X-268287Y-177282D01*
X-266212Y-178480D01*
X-263898Y-179100D01*
X-261502D01*
X-259187Y-178480D01*
X-257112Y-177282D01*
X-255418Y-175588D01*
X-254220Y-173512D01*
X-253600Y-171198D01*
Y-168802D01*
X-254220Y-166488D01*
X-255418Y-164412D01*
X-257112Y-162718D01*
X-259187Y-161520D01*
X-261502Y-160900D01*
D02*
G37*
G36*
X-177400Y-160901D02*
X-195600D01*
Y-179101D01*
X-177400D01*
Y-160901D01*
D02*
G37*
G36*
X-210702D02*
X-213099D01*
X-215413Y-161521D01*
X-217488Y-162719D01*
X-219182Y-164413D01*
X-220380Y-166488D01*
X-221000Y-168803D01*
Y-171199D01*
X-220380Y-173513D01*
X-219182Y-175588D01*
X-217488Y-177283D01*
X-215413Y-178481D01*
X-213099Y-179101D01*
X-210702D01*
X-208388Y-178481D01*
X-206313Y-177283D01*
X-204619Y-175588D01*
X-203421Y-173513D01*
X-202800Y-171199D01*
Y-168803D01*
X-203421Y-166488D01*
X-204619Y-164413D01*
X-206313Y-162719D01*
X-208388Y-161521D01*
X-210702Y-160901D01*
D02*
G37*
G36*
X-278500Y-171000D02*
X-287100D01*
Y-179600D01*
X-286836D01*
X-284394Y-178946D01*
X-282205Y-177682D01*
X-280418Y-175895D01*
X-279154Y-173705D01*
X-278500Y-171264D01*
Y-171000D01*
D02*
G37*
G36*
X-289100D02*
X-297700D01*
Y-171264D01*
X-297045Y-173705D01*
X-295781Y-175895D01*
X-293994Y-177682D01*
X-291805Y-178946D01*
X-289363Y-179600D01*
X-289100D01*
Y-171000D01*
D02*
G37*
G36*
X-303900D02*
X-312500D01*
Y-179600D01*
X-312236D01*
X-309794Y-178946D01*
X-307605Y-177682D01*
X-305818Y-175895D01*
X-304554Y-173705D01*
X-303900Y-171264D01*
Y-171000D01*
D02*
G37*
G36*
X-314500D02*
X-323100D01*
Y-171264D01*
X-322445Y-173705D01*
X-321181Y-175895D01*
X-319394Y-177682D01*
X-317205Y-178946D01*
X-314764Y-179600D01*
X-314500D01*
Y-171000D01*
D02*
G37*
%LPD*%
G36*
X-148038Y-87371D02*
X-138000Y-88710D01*
X-138144Y-95606D01*
X-138202Y-95781D01*
X-147000Y-97112D01*
X-170019D01*
Y-87526D01*
X-168499Y-86094D01*
X-148038Y-87371D01*
D02*
G37*
%LPC*%
G36*
X-69550Y-11000D02*
X-73350D01*
Y-14600D01*
X-69550D01*
Y-11000D01*
D02*
G37*
G36*
X-66272Y-37000D02*
X-69612D01*
Y-40362D01*
X-66272D01*
Y-37000D01*
D02*
G37*
G36*
X-122500Y-49000D02*
X-124750D01*
Y-52000D01*
X-122500D01*
Y-49000D01*
D02*
G37*
G36*
X-267300Y-50800D02*
X-269500D01*
Y-54800D01*
X-267300D01*
Y-50800D01*
D02*
G37*
%LPD*%
D10*
X-207005Y152725D02*
G03*
X-207005Y152725I-10J0D01*
G01*
X-113250Y-80500D02*
X-113000D01*
D11*
X-224886Y-142709D02*
G03*
X-224838Y-142651I-1152J997D01*
G01*
X-236585Y-154364D02*
G03*
X-224886Y-142709I-81844J93850D01*
G01*
X-250988Y104262D02*
Y123619D01*
X-249012Y125595D01*
Y126000D01*
X-256500Y98750D02*
X-250988Y104262D01*
X-341946Y5354D02*
X-293223D01*
X-360000Y-12700D02*
X-341946Y5354D01*
X-293223D02*
X-290988Y3119D01*
X-351142Y8397D02*
X-314603D01*
X-308000Y15000D01*
X-352828Y10083D02*
X-351142Y8397D01*
X-357383Y10083D02*
X-352828D01*
X-292000Y-37637D02*
X-289843Y-35480D01*
X-282281D02*
X-279809Y-33008D01*
X-289843Y-35480D02*
X-282281D01*
X-292000Y-42166D02*
Y-37637D01*
X-279809Y-30559D02*
X-277556Y-28306D01*
X-279809Y-33008D02*
Y-30559D01*
X-277556Y-28306D02*
X-272800D01*
X-224838Y-142651D02*
X-224514Y-142237D01*
X-237011Y-154734D02*
X-236585Y-154364D01*
X-9562Y64538D02*
X-9500Y64600D01*
X-17780Y51760D02*
X-9562Y59978D01*
Y64538D01*
X-90207Y45500D02*
X-81000D01*
X-93979Y49271D02*
X-90207Y45500D01*
X-94000Y49271D02*
X-93979D01*
X-81341Y38214D02*
Y45159D01*
X-83500Y35250D02*
Y36055D01*
X-81341Y45159D02*
X-81000Y45500D01*
X-83500Y36055D02*
X-81341Y38214D01*
X-96000Y51272D02*
X-94000Y49271D01*
X-96000Y51272D02*
Y58845D01*
X-83500Y35250D02*
X-83250Y35500D01*
X-288100Y-170000D02*
X-279000D01*
X-313500D02*
X-288100D01*
X-308000Y15000D02*
X-294510D01*
X-291674Y12164D01*
X42500Y57000D02*
X59250Y40250D01*
Y15250D02*
Y40250D01*
X51750Y7750D02*
X59250Y15250D01*
X-10805Y-128095D02*
X-10000Y-128900D01*
Y-143000D02*
Y-128900D01*
X5762Y100012D02*
Y116512D01*
X6262Y95638D02*
X6500Y95400D01*
X5762Y100012D02*
X6262Y99512D01*
X5762Y116512D02*
X8250Y119000D01*
X6262Y95638D02*
Y99512D01*
X2321Y95579D02*
X2500Y95400D01*
X1143Y119357D02*
X2321Y118179D01*
Y95579D02*
Y118179D01*
X-1500Y95400D02*
X2500D01*
X1143Y119357D02*
Y127757D01*
X19799Y100398D02*
Y118450D01*
X18738Y99337D02*
X19799Y100398D01*
X20000Y118651D02*
Y128900D01*
X19799Y118450D02*
X20000Y118651D01*
X18738Y95638D02*
Y99337D01*
X23110Y98510D02*
Y116910D01*
X30000Y123800D01*
X18500Y95400D02*
X18738Y95638D01*
X23110Y95400D02*
X26500D01*
X22500D02*
Y97900D01*
X23110Y98510D01*
X22500Y95400D02*
X23110D01*
X36766Y116766D02*
X37712Y117712D01*
X34738Y99337D02*
X36766Y101365D01*
Y116766D01*
X34500Y95400D02*
X34738Y95638D01*
Y99337D01*
X40379Y100386D02*
Y114879D01*
X47012Y121512D01*
X37712Y117712D02*
Y126612D01*
X38738Y98745D02*
X40379Y100386D01*
X38738Y95638D02*
Y98745D01*
X38500Y95400D02*
X38738Y95638D01*
X-11750Y102750D02*
Y127150D01*
Y102750D02*
X-9738Y100738D01*
Y95638D02*
Y100738D01*
Y95638D02*
X-9500Y95400D01*
X-11750Y127150D02*
X-10000Y128900D01*
X-17500Y100750D02*
X-15523Y102727D01*
Y119323D01*
X-21443Y125243D02*
X-15523Y119323D01*
X-17500Y95400D02*
Y100750D01*
X-13738Y98138D02*
X-13500Y97900D01*
Y95400D02*
Y97900D01*
X-17500Y95400D02*
X-13500D01*
X0Y-123800D02*
X3012Y-120788D01*
Y-106226D01*
X0Y-149000D02*
Y-123800D01*
X22500Y-98822D02*
Y-95400D01*
X23024Y-116824D02*
X30000Y-123800D01*
X23024Y-116824D02*
Y-99346D01*
X18738Y-99337D02*
X20000Y-100599D01*
X22500Y-98822D02*
X23024Y-99346D01*
X20000Y-141000D02*
Y-100599D01*
X18738Y-99337D02*
Y-95638D01*
X18500Y-95400D02*
X18738Y-95638D01*
X37712Y-121512D02*
X40000Y-123800D01*
X37500Y-120619D02*
X37712Y-120831D01*
X34738Y-99337D02*
X37500Y-102099D01*
X37712Y-121512D02*
Y-120831D01*
X37500Y-120619D02*
Y-102099D01*
X40000Y-128900D02*
Y-123800D01*
Y-128900D02*
X42142Y-131042D01*
X41813Y-114912D02*
X42250Y-97555D01*
X41813Y-115563D02*
Y-114912D01*
Y-115563D02*
X47712Y-121462D01*
X34500Y-95400D02*
X34738Y-95638D01*
Y-99337D02*
Y-95638D01*
X47712Y-126612D02*
Y-121462D01*
X42250Y-97555D02*
Y-95400D01*
X38500D02*
X42250D01*
X6262Y-99007D02*
Y-95638D01*
X6238Y-99031D02*
X6262Y-99007D01*
Y-95638D02*
X6500Y-95400D01*
X6238Y-118738D02*
Y-99031D01*
Y-118738D02*
X7712Y-120212D01*
Y-126612D02*
Y-120212D01*
Y-126612D02*
X10000Y-128900D01*
X2500Y-105714D02*
Y-95400D01*
Y-105714D02*
X3012Y-106226D01*
X-10805Y-128095D02*
Y-106529D01*
X-9500Y-105224D02*
Y-95400D01*
X-10805Y-106529D02*
X-9500Y-105224D01*
X-20000Y-123800D02*
X-13829Y-117629D01*
Y-99031D01*
X-13738Y-95638D02*
X-13500Y-95400D01*
X-13738Y-98940D02*
Y-95638D01*
X-13829Y-99031D02*
X-13738Y-98940D01*
X-231437Y-106437D02*
X-216750Y-91750D01*
X-231437Y-123563D02*
X-224514Y-130486D01*
X-231437Y-123563D02*
Y-106437D01*
X-300500Y-125000D02*
X-246951D01*
X-246058Y-124107D02*
Y-86308D01*
X-245750Y-86000D01*
X-246951Y-125000D02*
X-246058Y-124107D01*
X-279000Y-170000D02*
X-263734Y-154734D01*
X-237580D01*
X-237011Y-154734D01*
X-224514Y-142237D02*
Y-130486D01*
X-290988Y3119D02*
X-289369Y1500D01*
X-291674Y11990D02*
Y12164D01*
Y11990D02*
X-291388Y11704D01*
X-272800D01*
X-208563Y-44000D02*
X-207299D01*
X-205508Y-42209D01*
X-210862Y-46300D02*
X-208563Y-44000D01*
X-205508Y-42209D02*
X-204702D01*
X-210862Y-49362D02*
Y-46300D01*
X-360000Y12700D02*
X-357383Y10083D01*
X-313500Y-138000D02*
X-300500Y-125000D01*
X-216750Y-91750D02*
Y-86000D01*
X-16000Y-149000D02*
X-10000Y-143000D01*
X-129250Y-26728D02*
Y-21250D01*
X-129522Y-27000D02*
X-129250Y-26728D01*
X-289369Y1500D02*
X-283661D01*
X-210244Y-39550D02*
Y-39500D01*
X-227859Y-42741D02*
X-224618Y-39500D01*
X-228030Y-42741D02*
X-227859D01*
X-228030Y-42450D02*
X-228027D01*
Y-42449D02*
X-228026D01*
X-228030Y-42741D02*
Y-42450D01*
X-228027D02*
Y-42449D01*
X-210244Y-39550D02*
X-210081D01*
X-224618Y-39500D02*
X-210244D01*
X-129522Y-39762D02*
Y-27000D01*
X-128284Y-41000D02*
X-128000D01*
X-129522Y-39762D02*
X-128284Y-41000D01*
X-243225Y-56067D02*
X-235898D01*
X-229649Y-62316D01*
X-229509D01*
X-245862Y-53430D02*
X-245688Y-53604D01*
Y-53604D02*
Y-53604D01*
X-245862Y-53430D02*
Y-50238D01*
X-245688Y-53604D02*
X-243225Y-56067D01*
X-246300Y-49800D02*
X-245862Y-50238D01*
X-211300Y-49800D02*
X-210862Y-49362D01*
X-292000Y-64250D02*
Y-46004D01*
Y-42166D02*
X-291950Y-42216D01*
Y-45954D02*
Y-42216D01*
X-292000Y-46004D02*
X-291950Y-45954D01*
X-283661Y1500D02*
X-278457Y6703D01*
X-292000Y-64250D02*
X-290000Y-66250D01*
X-20000Y-128900D02*
Y-123800D01*
X-21443Y-130343D02*
X-20000Y-128900D01*
X-278457Y6703D02*
X-272800D01*
X-32000Y-149000D02*
X-21443Y-138443D01*
Y-130343D01*
X40651Y-148431D02*
X47431D01*
X30000Y-128900D02*
X30664Y-129564D01*
Y-138443D02*
Y-129564D01*
Y-138443D02*
X40651Y-148431D01*
X42142Y-138142D02*
Y-131042D01*
X49000Y-145000D02*
X60000D01*
X42142Y-138142D02*
X49000Y-145000D01*
X60000D02*
X64000Y-149000D01*
X48000Y-149512D02*
Y-149000D01*
X50443Y-138443D02*
X53000Y-141000D01*
X72000D01*
X50443Y-138443D02*
Y-129343D01*
X47712Y-126612D02*
X50443Y-129343D01*
X72000Y-141000D02*
X80000Y-149000D01*
X47431Y-148431D02*
X48000Y-149000D01*
X20000Y-141000D02*
X27464Y-148464D01*
X31464D01*
X32000Y-149000D01*
X10000Y-143000D02*
Y-128900D01*
X16000Y-149000D02*
Y-149000D01*
X10000Y-143000D02*
X16000Y-149000D01*
X66000Y142000D02*
X72000Y148000D01*
X50000Y134000D02*
X58000Y142000D01*
X66000D01*
X-8000Y143000D02*
X-2288Y137288D01*
Y131188D02*
X1143Y127757D01*
X-8000Y143000D02*
Y148000D01*
X-2288Y131188D02*
Y137288D01*
X-24000Y148000D02*
X-12288Y136288D01*
Y131164D02*
X-10012Y128888D01*
X-12288Y131164D02*
Y136288D01*
X-25000Y142000D02*
X-21443Y138443D01*
X-34000Y142000D02*
X-25000D01*
X-21443Y125243D02*
Y138443D01*
X-40000Y148000D02*
X-40000D01*
X-34000Y142000D01*
X50000Y128900D02*
Y134000D01*
X53431Y147431D02*
X55431D01*
X40000Y128900D02*
Y134000D01*
X53431Y147431D01*
X55431D02*
X56000Y148000D01*
X39464Y147464D02*
X40000Y148000D01*
X30000Y128900D02*
Y134000D01*
X39464Y143464D01*
Y147464D01*
X22288Y131188D02*
Y145483D01*
X24000Y147195D02*
Y148000D01*
X20000Y128900D02*
X22288Y131188D01*
Y145483D02*
X24000Y147195D01*
X8000Y130900D02*
X10000Y128900D01*
X8000Y130900D02*
Y148000D01*
X47712Y121512D02*
Y126612D01*
X47012Y121512D02*
X47712D01*
Y126612D02*
X50000Y128900D01*
X37712Y126612D02*
X40000Y128900D01*
X30000Y123800D02*
Y128900D01*
X8250Y119000D02*
Y127150D01*
X10000Y128900D01*
X30000Y-128900D02*
Y-123800D01*
X18500Y-64600D02*
Y-62100D01*
X17780Y-61380D02*
X18500Y-62100D01*
X17780Y-61380D02*
Y-42164D01*
X42164Y7620D02*
X42294Y7750D01*
X51750D01*
X42164Y-22860D02*
X42171Y-22867D01*
X50867D02*
X52750Y-24750D01*
X42171Y-22867D02*
X50867D01*
X52750Y-30425D02*
Y-24750D01*
X38500Y-64600D02*
X42500D01*
Y-95400D02*
Y-64600D01*
Y-56800D01*
X64250Y-35050D01*
Y-11000D01*
X55790Y-2540D02*
X64250Y-11000D01*
X42164Y-2540D02*
X55790D01*
X30500Y-95400D02*
X34500D01*
Y-64600D01*
X30500D02*
X34500D01*
Y-57750D01*
X58250Y-34000D01*
Y-16750D01*
X54200Y-12700D02*
X58250Y-16750D01*
X42164Y-12700D02*
X54200D01*
X22500Y-64600D02*
X26500D01*
X22500Y-95400D02*
X26500D01*
Y-64600D01*
Y-56675D01*
X52750Y-30425D01*
X18500Y-95400D02*
Y-64600D01*
X14500Y-95400D02*
X18500D01*
X14500Y-64600D02*
X18500D01*
X6500Y-95400D02*
X10500D01*
X6500D02*
Y-64600D01*
X10500D01*
X6500Y-62100D02*
X7620Y-60980D01*
X6500Y-64600D02*
Y-62100D01*
X7620Y-60980D02*
Y-42164D01*
X-1500Y-64600D02*
X2500D01*
X-1500Y-95400D02*
X2500D01*
X-1500D02*
Y-64600D01*
X-2540Y-54886D02*
X-1500Y-55926D01*
Y-64600D02*
Y-55926D01*
X-2540Y-54886D02*
Y-42164D01*
X-9500Y-95400D02*
X-5500D01*
X-9500Y-64600D02*
X-5500D01*
X-9500Y-95400D02*
Y-64600D01*
X-12700Y-53806D02*
Y-42164D01*
Y-53806D02*
X-9500Y-57006D01*
Y-64600D02*
Y-57006D01*
X-17500Y-64600D02*
X-13500D01*
X-17500Y-95400D02*
X-13500D01*
X-17500D02*
Y-64600D01*
Y-57769D01*
X-22860Y-52408D02*
Y-42164D01*
Y-52408D02*
X-17500Y-57769D01*
X38500Y95400D02*
X42500D01*
Y64600D02*
Y95400D01*
X30500D02*
X34500D01*
Y64600D02*
Y95400D01*
X26500Y64600D02*
Y95400D01*
X14500D02*
X18500D01*
X14500Y64600D02*
Y95400D01*
X6500D02*
X10500D01*
X6500Y64600D02*
Y95400D01*
X-1500Y64600D02*
Y95400D01*
X-9500D02*
X-5500D01*
X-9500Y64600D02*
Y95400D01*
X-17500Y64600D02*
Y95400D01*
X42500Y57000D02*
Y64600D01*
X38500D02*
X42500D01*
X42164Y17780D02*
X42799Y18415D01*
X49625D01*
X52250Y21040D01*
Y37925D01*
X30500Y64600D02*
X34500D01*
Y55675D02*
X52250Y37925D01*
X34500Y55675D02*
Y64600D01*
X42164Y27940D02*
Y39846D01*
X26500Y55510D02*
X42164Y39846D01*
X22500Y64600D02*
X26500D01*
Y55510D02*
Y64600D01*
X14500D02*
X18500D01*
X12700Y54506D02*
X14500Y56306D01*
X12700Y42164D02*
Y54506D01*
X14500Y56306D02*
Y64600D01*
X6500D02*
X10500D01*
X2540Y53426D02*
X6500Y57386D01*
X2540Y42164D02*
Y53426D01*
X6500Y57386D02*
Y64600D01*
X-1500D02*
X2500D01*
X-1500Y58466D02*
Y64600D01*
X-7620Y52346D02*
X-1500Y58466D01*
X-7620Y42164D02*
Y52346D01*
X-27940Y42164D02*
X-27630Y42474D01*
Y50746D01*
X-17738Y60639D01*
X-9500Y64600D02*
X-5500D01*
X-17738Y60639D02*
Y64362D01*
X-17780Y42164D02*
Y51760D01*
X-17738Y64362D02*
X-17500Y64600D01*
X-13500D01*
X-184800Y11704D02*
X-173581D01*
X-172036Y13250D01*
X-163464D02*
X-162714Y12500D01*
X-153750D01*
X-153500Y12250D01*
X-144500D01*
X-90344Y16844D02*
X-85181D01*
X-83775Y18250D01*
X-82150D01*
X-81431Y34681D02*
X-75750Y29000D01*
Y27600D02*
Y29000D01*
Y26250D02*
Y27600D01*
Y26250D02*
X-73745Y24245D01*
X-72937Y23437D01*
X-69537D01*
X-69350Y23250D01*
D12*
X-103000Y16762D02*
X-102522Y17240D01*
X-100760D01*
X-197881Y45000D02*
X-197750Y44869D01*
X-197773Y44846D02*
X-196500Y43573D01*
X-197773Y44846D02*
X-197750Y44869D01*
X-196500Y38400D02*
Y43573D01*
X-240050Y88800D02*
X-219186D01*
X-241800D02*
X-240050D01*
X-242500Y89500D02*
X-241800Y88800D01*
X-96500Y30536D02*
X-96464D01*
X-94179Y28250D02*
X-82150D01*
X-96464Y30536D02*
X-94179Y28250D01*
X-96536Y21464D02*
X-96500D01*
X-100760Y17240D02*
X-96536Y21464D01*
X-100272Y40772D02*
X-94543D01*
X-100750Y41250D02*
X-100272Y40772D01*
X-94543D02*
X-94000Y40229D01*
X-196500Y38400D02*
X-196300Y38200D01*
D22*
X-52000Y92250D02*
D03*
Y76250D02*
D03*
X-81000Y45500D02*
D03*
X-56250Y60750D02*
D03*
X-74472Y68000D02*
D03*
X-305000Y77000D02*
D03*
X-77250Y90500D02*
D03*
X-118000Y67438D02*
D03*
X-100250Y90500D02*
D03*
X-127772Y86250D02*
D03*
D23*
X-131000Y70550D02*
D03*
Y62950D02*
D03*
X-74750Y-550D02*
D03*
Y7050D02*
D03*
X-66000Y-93900D02*
D03*
Y-86100D02*
D03*
X-158000Y-53450D02*
D03*
Y-61050D02*
D03*
X-56750Y-86350D02*
D03*
Y-94150D02*
D03*
X-168000Y-60050D02*
D03*
Y-52450D02*
D03*
D24*
X-68500Y47250D02*
D03*
Y55250D02*
D03*
X-87500Y83000D02*
D03*
Y75000D02*
D03*
X-59250Y14000D02*
D03*
Y22000D02*
D03*
X-110750Y6250D02*
D03*
Y14250D02*
D03*
X-177000Y-52000D02*
D03*
Y-60000D02*
D03*
D25*
X-184800Y31709D02*
D03*
Y26708D02*
D03*
Y21707D02*
D03*
Y16706D02*
D03*
Y11704D02*
D03*
Y6703D02*
D03*
Y1702D02*
D03*
Y-3299D02*
D03*
Y-8301D02*
D03*
Y-13302D02*
D03*
Y-18303D02*
D03*
Y-23304D02*
D03*
Y-28306D02*
D03*
Y-33307D02*
D03*
Y-38308D02*
D03*
Y-43309D02*
D03*
X-272800D02*
D03*
Y-38308D02*
D03*
Y-33307D02*
D03*
Y-28306D02*
D03*
Y-23304D02*
D03*
Y-18303D02*
D03*
Y-13302D02*
D03*
Y-8301D02*
D03*
Y-3299D02*
D03*
Y1702D02*
D03*
Y6703D02*
D03*
Y11704D02*
D03*
Y16706D02*
D03*
Y21707D02*
D03*
Y26708D02*
D03*
Y31709D02*
D03*
D26*
X-191300Y-49800D02*
D03*
X-196300D02*
D03*
X-201300D02*
D03*
X-206300D02*
D03*
X-211300D02*
D03*
X-216300D02*
D03*
X-221300D02*
D03*
X-226300D02*
D03*
X-231300D02*
D03*
X-236300D02*
D03*
X-241300D02*
D03*
X-246300D02*
D03*
X-251300D02*
D03*
X-256300D02*
D03*
X-261300D02*
D03*
X-266300D02*
D03*
Y38200D02*
D03*
X-261300D02*
D03*
X-256300D02*
D03*
X-251300D02*
D03*
X-246300D02*
D03*
X-241300D02*
D03*
X-236300D02*
D03*
X-231300D02*
D03*
X-226300D02*
D03*
X-221300D02*
D03*
X-216300D02*
D03*
X-211300D02*
D03*
X-206300D02*
D03*
X-201300D02*
D03*
X-196300D02*
D03*
X-191300D02*
D03*
D27*
X-296000Y21500D02*
D03*
X-304000D02*
D03*
X-57750Y-500D02*
D03*
X-65750D02*
D03*
X-192000Y46500D02*
D03*
X-184000D02*
D03*
D28*
X-207500Y65964D02*
D03*
Y75536D02*
D03*
X-219400Y66014D02*
D03*
Y75586D02*
D03*
D29*
X-209614Y88800D02*
D03*
X-219186D02*
D03*
X-281714Y52250D02*
D03*
X-291286D02*
D03*
X-164464Y86500D02*
D03*
X-174036D02*
D03*
X-142464Y86250D02*
D03*
X-152036D02*
D03*
D30*
X-190500Y68750D02*
D03*
Y92250D02*
D03*
X-143500Y-48500D02*
D03*
Y-25000D02*
D03*
D31*
X-173000Y61000D02*
D03*
X-143000D02*
D03*
D32*
X-158000D02*
D03*
D33*
X-113250Y94522D02*
D03*
Y85478D02*
D03*
X-94000Y49271D02*
D03*
Y40229D02*
D03*
X-100500Y6271D02*
D03*
Y-2772D02*
D03*
D34*
X-96000Y66155D02*
D03*
Y58845D02*
D03*
D35*
X27940Y42164D02*
D03*
X22860D02*
D03*
X17780D02*
D03*
X12700D02*
D03*
X7620D02*
D03*
X2540D02*
D03*
X-2540D02*
D03*
X-7620D02*
D03*
X-12700D02*
D03*
X-17780D02*
D03*
X-22860D02*
D03*
X-27940D02*
D03*
Y-42164D02*
D03*
X-22860D02*
D03*
X-17780D02*
D03*
X-12700D02*
D03*
X-7620D02*
D03*
X-2540D02*
D03*
X2540D02*
D03*
X7620D02*
D03*
X12700D02*
D03*
X17780D02*
D03*
X22860D02*
D03*
X27940D02*
D03*
D36*
X-42164Y27940D02*
D03*
Y22860D02*
D03*
Y17780D02*
D03*
Y12700D02*
D03*
Y7620D02*
D03*
Y2540D02*
D03*
Y-2540D02*
D03*
Y-7620D02*
D03*
Y-12700D02*
D03*
Y-17780D02*
D03*
Y-22860D02*
D03*
Y-27940D02*
D03*
X42164D02*
D03*
Y-22860D02*
D03*
Y-17780D02*
D03*
Y-12700D02*
D03*
Y-7620D02*
D03*
Y-2540D02*
D03*
Y2540D02*
D03*
Y7620D02*
D03*
Y12700D02*
D03*
Y17780D02*
D03*
Y22860D02*
D03*
Y27940D02*
D03*
D37*
X-58750Y40750D02*
D03*
X-54750D02*
D03*
X-58750Y36750D02*
D03*
X-54750D02*
D03*
X-85000Y6000D02*
D03*
Y2000D02*
D03*
X-89000Y6000D02*
D03*
Y2000D02*
D03*
D38*
X-68550Y-10000D02*
D03*
X-60950D02*
D03*
X-127800Y13750D02*
D03*
X-120200D02*
D03*
X-304800Y31750D02*
D03*
X-297200D02*
D03*
X-185450Y55500D02*
D03*
X-193050D02*
D03*
D39*
X-96500Y30536D02*
D03*
Y21464D02*
D03*
D40*
X-109000Y23500D02*
D03*
X-118500D02*
D03*
X-128000D02*
D03*
X-118500Y49000D02*
D03*
X-109000D02*
D03*
X-128000D02*
D03*
D41*
X-144500Y12250D02*
D03*
Y21250D02*
D03*
X-286000Y-40000D02*
D03*
Y-31000D02*
D03*
D42*
X-153750Y12500D02*
D03*
Y23500D02*
D03*
X-48000Y-94000D02*
D03*
Y-83000D02*
D03*
D43*
X-172036Y13250D02*
D03*
X-163464D02*
D03*
X-172286Y-8000D02*
D03*
X-163714D02*
D03*
D44*
X-109228Y-3500D02*
D03*
X-117271D02*
D03*
X-65272Y-36000D02*
D03*
X-57228D02*
D03*
X-55022Y-60250D02*
D03*
X-46979D02*
D03*
X-129522Y-27000D02*
D03*
X-121479D02*
D03*
X-116522Y-12000D02*
D03*
X-108478D02*
D03*
X-100772D02*
D03*
X-92729D02*
D03*
D45*
X-65250Y-60250D02*
D03*
Y-74750D02*
D03*
D46*
X-78250Y-95021D02*
D03*
Y-86979D02*
D03*
D47*
X-91244Y-91250D02*
D03*
X-105256D02*
D03*
X-140256Y-77000D02*
D03*
X-126244D02*
D03*
D48*
X-127750Y-92250D02*
D03*
X-141250D02*
D03*
D49*
X-165000Y-91506D02*
D03*
Y-77494D02*
D03*
D50*
X-201250Y-59500D02*
D03*
X-210250D02*
D03*
D51*
X-299750Y-92250D02*
D03*
Y-77250D02*
D03*
D52*
X-300000Y-66250D02*
D03*
X-290000D02*
D03*
D53*
X-306000Y-51500D02*
D03*
Y-35500D02*
D03*
Y-19500D02*
D03*
D54*
X-279500Y89500D02*
D03*
X-242500D02*
D03*
Y67500D02*
D03*
X-279500D02*
D03*
D55*
X-252500Y53250D02*
D03*
X-244000D02*
D03*
D56*
X-128000Y-41000D02*
D03*
D57*
X-125750Y-48000D02*
D03*
X-130250D02*
D03*
D58*
X-139771Y-64000D02*
D03*
X-130729D02*
D03*
D59*
X-69350Y18250D02*
D03*
X-82150D02*
D03*
X-69350Y28250D02*
D03*
X-82150D02*
D03*
D60*
X-75750Y18900D02*
D03*
Y27600D02*
D03*
D61*
X-69350Y23250D02*
D03*
X-82150D02*
D03*
D62*
X-47214Y-68750D02*
D03*
X-54786D02*
D03*
D63*
X-80250Y-27500D02*
D03*
X-89750D02*
D03*
X-99250D02*
D03*
X-108750D02*
D03*
Y-72500D02*
D03*
X-99250D02*
D03*
X-89750D02*
D03*
X-80250D02*
D03*
D64*
X-94500Y-50000D02*
D03*
D65*
X-175500Y36250D02*
D03*
Y27750D02*
D03*
D66*
X-219900Y52800D02*
D03*
X-208900D02*
D03*
D67*
X-160000Y-39000D02*
D03*
Y-23500D02*
D03*
D68*
X-171500Y-17964D02*
D03*
Y-26536D02*
D03*
D69*
X-153250Y-9500D02*
D03*
X-137750D02*
D03*
D71*
X-225350Y152890D02*
G03*
X-225350Y152890I-10J0D01*
G01*
X-221060D02*
G03*
X-221060Y152890I-10J0D01*
G01*
D74*
X-228800Y-5800D02*
D03*
D76*
X-151400Y157000D02*
D03*
X225000Y155000D02*
D03*
X231400Y-157000D02*
D03*
X-145000Y-155000D02*
D03*
D85*
X-260500Y-70750D02*
D03*
X-202000Y-70750D02*
D03*
D86*
X-245750Y-86000D02*
D03*
X-275250D02*
D03*
X-187250Y-86000D02*
D03*
X-216750D02*
D03*
D87*
X-25500Y64600D02*
D03*
X-21500D02*
D03*
X-17500D02*
D03*
X-13500D02*
D03*
X-9500D02*
D03*
X-5500D02*
D03*
X-1500D02*
D03*
X2500D02*
D03*
X6500D02*
D03*
X10500D02*
D03*
X14500D02*
D03*
X18500D02*
D03*
X22500D02*
D03*
X26500D02*
D03*
X30500D02*
D03*
X34500D02*
D03*
X38500D02*
D03*
X42500D02*
D03*
X46500D02*
D03*
X50500D02*
D03*
X-25500Y95400D02*
D03*
X-21500D02*
D03*
X-17500D02*
D03*
X-13500D02*
D03*
X-9500D02*
D03*
X-5500D02*
D03*
X-1500D02*
D03*
X2500D02*
D03*
X6500D02*
D03*
X10500D02*
D03*
X14500D02*
D03*
X18500D02*
D03*
X22500D02*
D03*
X26500D02*
D03*
X30500D02*
D03*
X34500D02*
D03*
X38500D02*
D03*
X42500D02*
D03*
X46500D02*
D03*
X50500D02*
D03*
X-25500Y-95400D02*
D03*
X-21500D02*
D03*
X-17500D02*
D03*
X-13500D02*
D03*
X-9500D02*
D03*
X-5500D02*
D03*
X-1500D02*
D03*
X2500D02*
D03*
X6500D02*
D03*
X10500D02*
D03*
X14500D02*
D03*
X18500D02*
D03*
X22500D02*
D03*
X26500D02*
D03*
X30500D02*
D03*
X34500D02*
D03*
X38500D02*
D03*
X42500D02*
D03*
X46500D02*
D03*
X50500D02*
D03*
X-25500Y-64600D02*
D03*
X-21500D02*
D03*
X-17500D02*
D03*
X-13500D02*
D03*
X-9500D02*
D03*
X-5500D02*
D03*
X-1500D02*
D03*
X2500D02*
D03*
X6500D02*
D03*
X10500D02*
D03*
X14500D02*
D03*
X18500D02*
D03*
X22500D02*
D03*
X26500D02*
D03*
X30500D02*
D03*
X34500D02*
D03*
X38500D02*
D03*
X42500D02*
D03*
X46500D02*
D03*
X50500D02*
D03*
D102*
X-130000Y128900D02*
D03*
X-120000D02*
D03*
X-110000D02*
D03*
X-100000D02*
D03*
X-90000D02*
D03*
X-80000D02*
D03*
X-70000D02*
D03*
X-60000D02*
D03*
X-50000D02*
D03*
X-40000D02*
D03*
X-30000D02*
D03*
X-20000D02*
D03*
X-10000D02*
D03*
X0D02*
D03*
X10000D02*
D03*
X20000D02*
D03*
X30000D02*
D03*
X40000D02*
D03*
X50000D02*
D03*
X60000D02*
D03*
X70000D02*
D03*
X80000D02*
D03*
X90000D02*
D03*
X100000D02*
D03*
X110000D02*
D03*
X120000D02*
D03*
X130000D02*
D03*
X140000D02*
D03*
X150000D02*
D03*
X160000D02*
D03*
X170000D02*
D03*
X180000D02*
D03*
X190000D02*
D03*
X200000D02*
D03*
X210000D02*
D03*
X-125000Y171100D02*
D03*
X-115000D02*
D03*
X-105000D02*
D03*
X-95000D02*
D03*
X-85000D02*
D03*
X-75000D02*
D03*
X-65000D02*
D03*
X-55000D02*
D03*
X-45000D02*
D03*
X-35000D02*
D03*
X-25000D02*
D03*
X-15000D02*
D03*
X-5000D02*
D03*
X5000D02*
D03*
X15000D02*
D03*
X25000D02*
D03*
X35000D02*
D03*
X45000D02*
D03*
X55000D02*
D03*
X65000D02*
D03*
X75000D02*
D03*
X85000D02*
D03*
X95000D02*
D03*
X105000D02*
D03*
X115000D02*
D03*
X125000D02*
D03*
X135000D02*
D03*
X145000D02*
D03*
X155000D02*
D03*
X165000D02*
D03*
X175000D02*
D03*
X185000D02*
D03*
X195000D02*
D03*
X205000D02*
D03*
X210000Y-128900D02*
D03*
X200000D02*
D03*
X190000D02*
D03*
X180000D02*
D03*
X170000D02*
D03*
X160000D02*
D03*
X150000D02*
D03*
X140000D02*
D03*
X130000D02*
D03*
X120000D02*
D03*
X110000D02*
D03*
X100000D02*
D03*
X90000D02*
D03*
X80000D02*
D03*
X70000D02*
D03*
X60000D02*
D03*
X50000D02*
D03*
X40000D02*
D03*
X30000D02*
D03*
X20000D02*
D03*
X10000D02*
D03*
X0D02*
D03*
X-10000D02*
D03*
X-20000D02*
D03*
X-30000D02*
D03*
X-40000D02*
D03*
X-50000D02*
D03*
X-60000D02*
D03*
X-70000D02*
D03*
X-80000D02*
D03*
X-90000D02*
D03*
X-100000D02*
D03*
X-110000D02*
D03*
X-120000D02*
D03*
X-130000D02*
D03*
X205000Y-171100D02*
D03*
X195000D02*
D03*
X185000D02*
D03*
X175000D02*
D03*
X165000D02*
D03*
X155000D02*
D03*
X145000D02*
D03*
X135000D02*
D03*
X125000D02*
D03*
X115000D02*
D03*
X105000D02*
D03*
X95000D02*
D03*
X85000D02*
D03*
X75000D02*
D03*
X65000D02*
D03*
X55000D02*
D03*
X45000D02*
D03*
X35000D02*
D03*
X25000D02*
D03*
X15000D02*
D03*
X5000D02*
D03*
X-5000D02*
D03*
X-15000D02*
D03*
X-25000D02*
D03*
X-35000D02*
D03*
X-45000D02*
D03*
X-55000D02*
D03*
X-65000D02*
D03*
X-75000D02*
D03*
X-85000D02*
D03*
X-95000D02*
D03*
X-105000D02*
D03*
X-115000D02*
D03*
X-125000D02*
D03*
D103*
X-271000Y126000D02*
X-265000Y120000D01*
Y104000D02*
Y120000D01*
X-291071Y44490D02*
Y52036D01*
Y44490D02*
X-286500Y39918D01*
X-292786Y53750D02*
X-291071Y52036D01*
X-286500Y39250D02*
Y39918D01*
X-278960Y31709D02*
X-272800D01*
X-286500Y39250D02*
X-278960Y31709D01*
X-272800D02*
X-256709D01*
X-253000Y28000D01*
Y21012D02*
Y28000D01*
Y21012D02*
X-252750Y20762D01*
X-247977Y45124D02*
Y45778D01*
X-121191Y34798D02*
X-111397D01*
X-109000Y37195D02*
Y49000D01*
X-111397Y34798D02*
X-109000Y37195D01*
X-253794Y44230D02*
Y46327D01*
X-254217Y46750D02*
X-253794Y46327D01*
Y44230D02*
X-251485Y41920D01*
Y38385D02*
X-251300Y38200D01*
X-251485Y38385D02*
Y41920D01*
X-135031Y77500D02*
X-134559Y77973D01*
Y79463D02*
X-127772Y86250D01*
X-134559Y77973D02*
Y79463D01*
X-129415Y70135D02*
Y73450D01*
X-127666Y75199D02*
Y75867D01*
X-131000Y68550D02*
X-129415Y70135D01*
Y73450D02*
X-127666Y75199D01*
X-125515Y53659D02*
Y60224D01*
X-118301Y67438D01*
X-118000D01*
X-126265Y52909D02*
X-125515Y53659D01*
X-126265Y50735D02*
Y52909D01*
X-119525Y68933D02*
Y73352D01*
X-120494Y74321D02*
Y74989D01*
Y74321D02*
X-119525Y73352D01*
Y68933D02*
X-119000Y68408D01*
X-128000Y49000D02*
X-126265Y50735D01*
X-126891Y29097D02*
X-121191Y34798D01*
X-69985Y46265D02*
X-69000Y47250D01*
X-71004Y39141D02*
Y44746D01*
X-69985Y45765D01*
X-69000Y47250D02*
X-68500D01*
X-69985Y45765D02*
Y46265D01*
X-54973Y53723D02*
X-54500Y53250D01*
X-56250Y60750D02*
X-54973Y59473D01*
Y53723D02*
Y59473D01*
X-44250Y60500D02*
Y68500D01*
X-52000Y76250D02*
X-44250Y68500D01*
X-44723Y60973D02*
X-44250Y60500D01*
X-71004Y29924D02*
Y38860D01*
X-87625Y90875D02*
X-87500Y90750D01*
X-87625Y83125D02*
Y90875D01*
Y83125D02*
X-87500Y83000D01*
X-87750Y91000D02*
X-87625Y90875D01*
X-68591Y73881D02*
X-68064D01*
X-74472Y68000D02*
X-68591Y73881D01*
X-75000Y68000D02*
X-74472D01*
X-71004Y38860D02*
X-71002Y38858D01*
X-67859D02*
X-65750Y36750D01*
X-71002Y38858D02*
X-67859D01*
X-65750Y36750D02*
X-58750D01*
X-70936Y28698D02*
Y29855D01*
X-71004Y29924D02*
X-70936Y29855D01*
X-70487Y28250D02*
X-69350D01*
X-70936Y28698D02*
X-70487Y28250D01*
X-58750Y49000D02*
X-54500Y53250D01*
X-127772Y86250D02*
X-126247Y87775D01*
X-116959Y90834D02*
X-113272Y94522D01*
X-126247Y87775D02*
X-120213D01*
X-117154Y90834D01*
X-116959D01*
X-113272Y94522D02*
X-113250D01*
X-184585Y31709D02*
X-184400Y31894D01*
Y39600D01*
X-184800Y31709D02*
X-184585D01*
X-184400Y39600D02*
X-184000Y40000D01*
X-185250Y55500D02*
X-180750Y60000D01*
X-185450Y55500D02*
X-185250D01*
X-180750Y60000D02*
Y60262D01*
X-184000Y46500D02*
X-184000Y46500D01*
Y40000D02*
Y46500D01*
X-296000Y21500D02*
Y22000D01*
X-291725Y24163D02*
X-291252Y24635D01*
X-293337Y24163D02*
X-291725D01*
X-296000Y22000D02*
X-295015Y22985D01*
X-294515D01*
X-293337Y24163D01*
X-110750Y6250D02*
X-110739Y6261D01*
X-111735Y5265D02*
X-110750Y6250D01*
X-304900Y29900D02*
X-304800Y30000D01*
X-178473Y-40027D02*
X-171973D01*
X-171500Y-40500D01*
X-180192Y-38308D02*
X-178473Y-40027D01*
X-184800Y-38308D02*
X-180192D01*
X-177617Y-34250D02*
X-172250D01*
X-184800Y-33307D02*
X-178560D01*
X-177617Y-34250D01*
X-171500Y-26750D02*
X-166500Y-31750D01*
Y-33250D02*
Y-31750D01*
Y-33250D02*
X-160750Y-39000D01*
X-171500Y-26750D02*
Y-26536D01*
X-57228Y-35979D02*
X-55903Y-34653D01*
X-48077Y-27940D02*
X-42164D01*
X-55903Y-34653D02*
X-54407D01*
X-48459Y-28705D02*
Y-28322D01*
X-48077Y-27940D01*
X-57228Y-36000D02*
Y-35979D01*
X-54407Y-34653D02*
X-48459Y-28705D01*
X-218621Y17750D02*
X-215750D01*
X-224056Y23185D02*
Y26056D01*
Y23185D02*
X-218621Y17750D01*
X-226300Y28300D02*
Y38200D01*
Y28300D02*
X-224056Y26056D01*
X-211300Y21050D02*
Y38200D01*
Y21050D02*
X-211000Y20750D01*
X-201294Y16706D02*
X-184800D01*
X-202750Y15250D02*
X-201294Y16706D01*
X-262750Y-18250D02*
X-249750D01*
X-249250Y-18750D01*
X-184800Y1702D02*
X-177370D01*
X-199815D02*
X-184800D01*
X-205250Y7137D02*
Y8500D01*
Y7137D02*
X-199815Y1702D01*
X-201200Y-11917D02*
X-199815Y-13302D01*
X-184800D01*
X-201200Y-11917D02*
Y-9954D01*
X-117506Y4744D02*
X-117250Y4488D01*
X-116582D02*
X-115805Y5265D01*
X-122744Y4744D02*
X-117506D01*
X-117250Y4488D02*
X-116582D01*
X-115805Y5265D02*
X-111735D01*
X-123000Y5000D02*
X-122744Y4744D01*
X-126015Y8683D02*
X-123000Y5668D01*
X-126015Y8683D02*
Y12165D01*
X-123000Y5000D02*
Y5668D01*
X-135769Y18000D02*
X-133104Y15335D01*
X-136438Y18000D02*
X-135769D01*
X-129385Y15335D02*
X-127800Y13750D01*
X-133104Y15335D02*
X-129385D01*
X-143500Y21250D02*
X-142515Y22235D01*
Y23235D01*
X-141000Y24750D01*
X-128000D01*
X-144500Y21250D02*
X-143500D01*
X-128000Y24750D02*
X-126891Y25859D01*
X-109777Y24277D02*
Y29527D01*
Y24277D02*
X-109000Y23500D01*
X-110250Y30000D02*
X-109777Y29527D01*
X-118500Y23500D02*
Y30000D01*
X-85000Y6000D02*
X-75800D01*
X-73511Y8289D02*
X-65461D01*
X-75800Y6000D02*
X-73511Y8289D01*
X-65461D02*
X-59750Y14000D01*
X-347634Y26384D02*
X-344154Y22904D01*
X-317113D01*
X-315209Y21000D01*
X-332500Y-9000D02*
X-307500D01*
X-306000Y-10500D01*
X-348573Y-25073D02*
X-332500Y-9000D01*
X-410000Y-25000D02*
X-398074Y-13074D01*
X-376807D02*
X-364808Y-25073D01*
X-398074Y-13074D02*
X-376807D01*
X-364808Y-25073D02*
X-348573D01*
X-360000Y63500D02*
X-350250Y53750D01*
X-292786D01*
X-54750Y36750D02*
X-52606Y34606D01*
Y32562D02*
Y34606D01*
X-54000Y30500D02*
Y31168D01*
X-52606Y32562D01*
X-58750Y40750D02*
Y49000D01*
X-420200Y-25000D02*
X-410000D01*
X-224955Y-58231D02*
Y-53901D01*
X-226115Y-52730D02*
Y-49985D01*
Y-52730D02*
X-224986Y-53859D01*
Y-53870D02*
X-224955Y-53901D01*
X-224986Y-53870D02*
Y-53859D01*
X-226300Y-49800D02*
X-226115Y-49985D01*
X-219718Y-66293D02*
X-216479Y-69531D01*
X-219718Y-66293D02*
Y-54139D01*
X-221115Y-52742D02*
Y-49985D01*
Y-52742D02*
X-219718Y-54139D01*
X-216115Y-52702D02*
Y-49985D01*
Y-52702D02*
X-215843Y-52974D01*
Y-62657D02*
Y-52974D01*
X-216300Y-49800D02*
X-216115Y-49985D01*
X-126891Y25859D02*
Y29097D01*
X-160750Y-39000D02*
X-160000D01*
X-70473Y-4277D02*
X-70000Y-4750D01*
X-74750Y-750D02*
Y-550D01*
Y-750D02*
X-71223Y-4277D01*
X-70473D01*
X-69500Y-4750D02*
X-65750Y-1000D01*
X-70000Y-4750D02*
X-69500D01*
X-65750Y-1000D02*
Y-500D01*
X-69527Y-9023D02*
X-68550Y-10000D01*
X-69527Y-9023D02*
Y-5223D01*
X-59250Y22000D02*
X-58858Y22392D01*
X-54896D02*
X-49730Y27558D01*
X-58858Y22392D02*
X-54896D01*
X-49730Y27558D02*
X-42546D01*
X-42164Y27940D01*
X-59750Y14000D02*
X-59250D01*
X-58750D01*
X-54970Y17780D01*
X-42164D01*
X-131000Y-57500D02*
X-130864Y-57636D01*
Y-63864D02*
X-130729Y-64000D01*
X-130864Y-63864D02*
Y-57636D01*
X-131000Y-52205D02*
X-130485Y-51690D01*
Y-48235D02*
X-130250Y-48000D01*
X-130485Y-51690D02*
Y-48235D01*
X-131000Y-57500D02*
Y-52205D01*
X-152973Y-38777D02*
Y-34196D01*
X-153500Y-33668D02*
X-152973Y-34196D01*
Y-38777D02*
X-152500Y-39250D01*
X-153500Y-33668D02*
Y-33000D01*
X-159750Y-39250D02*
X-152500D01*
X-160000Y-39000D02*
X-159750Y-39250D01*
X-110739Y6261D02*
X-100511D01*
X-100500Y6271D01*
X-127600Y13750D02*
X-126015Y12165D01*
X-127800Y13750D02*
X-127600D01*
X-109250Y-27000D02*
X-108750Y-27500D01*
X-121479Y-27000D02*
X-109250D01*
X-150000Y0D02*
X-137500D01*
Y-9250D02*
Y0D01*
X-137750Y-9500D02*
X-137500Y-9250D01*
X-162500Y0D02*
X-150000D01*
X-177370Y1702D02*
X-175668Y0D01*
X-175000D01*
X-162500D01*
Y-6786D02*
Y0D01*
X-163714Y-8000D02*
X-162500Y-6786D01*
X-407450Y37750D02*
X-384135D01*
X-420200Y25000D02*
X-407450Y37750D01*
X-384135D02*
X-372769Y26384D01*
X-347634D01*
X-306000Y-19500D02*
Y-10500D01*
X-272515Y94735D02*
Y96485D01*
X-279500Y89500D02*
X-277750D01*
X-272515Y94735D01*
Y96485D02*
X-265000Y104000D01*
X-80250Y-30017D02*
X-80232Y-30000D01*
X-69750D01*
X-145541Y45209D02*
Y58459D01*
X-151500Y39250D02*
X-145541Y45209D01*
X-154693Y39250D02*
X-151500D01*
X-172236Y21707D02*
X-154693Y39250D01*
X-184800Y21707D02*
X-172236D01*
X-51700Y-12700D02*
X-42164D01*
X-55750Y-16750D02*
X-51700Y-12700D01*
X-52047Y-22860D02*
X-42164D01*
X-58243Y-29056D02*
X-52047Y-22860D01*
X-232899Y2094D02*
Y2149D01*
X-225493Y-66960D02*
X-225458D01*
X-225504Y-66949D02*
X-225493Y-66960D01*
X-241800Y-44200D02*
X-241485Y-44515D01*
X-248262Y45778D02*
X-247977D01*
X-198526Y31593D02*
Y31939D01*
X-199353D02*
X-198526D01*
X-199353D02*
Y32608D01*
X-77500Y90750D02*
X-77250Y90500D01*
X-87500Y90750D02*
X-77500D01*
X-60750Y-10000D02*
X-59165Y-8415D01*
X-57976Y-8311D02*
X-57424D01*
X-56114Y-7000D02*
X-55500D01*
X-55000Y-6500D01*
X-58080Y-8415D02*
X-57976Y-8311D01*
X-59165Y-8415D02*
X-58080D01*
X-57424Y-8311D02*
X-56114Y-7000D01*
X-60950Y-10000D02*
X-60750D01*
X-56765Y-4067D02*
X-55000Y-5832D01*
X-57750Y-500D02*
X-56765Y-1485D01*
Y-4067D02*
Y-1485D01*
X-55000Y-6500D02*
Y-5832D01*
X-55210Y2540D02*
X-42164D01*
X-57750Y0D02*
X-55210Y2540D01*
X-57750Y-500D02*
Y0D01*
X-261115Y-54885D02*
X-243515Y-72485D01*
X-261115Y-54885D02*
Y-49985D01*
X-243515Y-72485D02*
X-239458D01*
X-241545Y-68955D02*
X-234713D01*
X-256277Y-54223D02*
Y-49823D01*
Y-54223D02*
X-241545Y-68955D01*
X-251115Y-53901D02*
X-245672Y-59344D01*
X-237422D01*
X-251115Y-53901D02*
Y-49985D01*
X-234765Y-63911D02*
Y-62000D01*
Y-63911D02*
X-231595Y-67081D01*
X-256300Y-49800D02*
X-256277Y-49823D01*
X-27948Y-2314D02*
X-27722Y-2089D01*
X-240050Y88800D02*
X-231485Y80235D01*
Y38385D02*
Y80235D01*
X-241485Y-49615D02*
Y-44515D01*
X-234713Y-68955D02*
X-232626Y-71042D01*
X-228458D01*
X-230067Y-76172D02*
Y-76048D01*
X-228458Y-71042D02*
X-224934Y-74566D01*
X-230611Y-76048D02*
X-230067D01*
X-224934Y-83184D02*
Y-74566D01*
X-225458Y-67020D02*
Y-66960D01*
X-231846Y-74813D02*
X-230611Y-76048D01*
X-239458Y-72485D02*
X-237371Y-74572D01*
X-232367D01*
X-232127Y-74813D01*
X-231846D01*
X-225466Y-67028D02*
X-225458Y-67020D01*
X-225466Y-67081D02*
Y-67028D01*
X-231595Y-67081D02*
X-225466D01*
X-229751Y-55833D02*
Y-55164D01*
X-231115Y-53801D02*
X-229751Y-55164D01*
X-231115Y-53801D02*
Y-49985D01*
X-237422Y-59344D02*
X-234765Y-62000D01*
X-224955Y-58231D02*
X-224483Y-58704D01*
X-221300Y-49800D02*
X-221115Y-49985D01*
X-231300Y-49800D02*
X-231115Y-49985D01*
X-215843Y-62657D02*
X-210750Y-67750D01*
X-228500Y-86750D02*
X-224934Y-83184D01*
X-228297Y-87451D02*
Y-86953D01*
X-228500Y-86750D02*
X-228297Y-86953D01*
X-251300Y-49800D02*
X-251115Y-49985D01*
X-199937Y-43750D02*
X-198606Y-42418D01*
X-201115Y-49615D02*
Y-45360D01*
X-199937Y-44183D01*
Y-43750D01*
X-264475Y-42000D02*
X-264304D01*
X-241485Y-49615D02*
X-241300Y-49800D01*
X-238000Y-40218D02*
X-236300Y-41918D01*
Y-49800D02*
Y-41918D01*
X-238000Y-40218D02*
Y-39550D01*
X-179168Y-24000D02*
X-178500D01*
X-179679Y-23489D02*
X-179168Y-24000D01*
X-184615Y-23489D02*
X-179679D01*
X-201300Y-49800D02*
X-201115Y-49615D01*
X-198606Y-42418D02*
Y-41750D01*
X-272800Y21707D02*
X-266755D01*
X-262750Y25712D01*
Y25750D01*
X-305500Y-51500D02*
X-302015Y-48015D01*
Y-47515D01*
X-306000Y-51500D02*
X-305500D01*
X-302015Y-47515D02*
X-299057Y-44557D01*
X-296935D01*
X-296462Y-44085D01*
X-280287Y-18303D02*
X-272800D01*
X-282992Y-20998D02*
X-281787Y-19793D01*
X-283750Y-15028D02*
X-283750Y-15028D01*
X-281777Y-19793D02*
X-280287Y-18303D01*
X-281787Y-19793D02*
X-281777D01*
X-302015Y-22985D02*
X-298313Y-26687D01*
X-297316D02*
X-296843Y-27159D01*
X-298313Y-26687D02*
X-297316D01*
X-302515Y-22985D02*
X-302015D01*
X-283661Y-21027D02*
Y-20998D01*
X-283750Y-15028D02*
Y-14999D01*
X-283661Y-9029D02*
Y-9000D01*
X-283661Y-9029D02*
X-283661Y-9029D01*
X-283661Y-21028D02*
X-283661Y-21027D01*
X-208900Y52800D02*
Y64564D01*
Y50300D02*
Y52800D01*
Y64564D02*
X-207500Y65964D01*
X-231485Y38385D02*
X-231300Y38200D01*
X-110500Y14000D02*
Y22000D01*
X-119950Y14000D02*
X-110500D01*
X-145541Y58459D02*
X-143000Y61000D01*
X50500Y84500D02*
Y95400D01*
Y64600D02*
Y72750D01*
X-29250Y89500D02*
X-28777Y89973D01*
X-27084D02*
X-25500Y91557D01*
Y95400D01*
X-28777Y89973D02*
X-27084D01*
X-29250Y83750D02*
X-25500Y80000D01*
Y64600D02*
Y80000D01*
X58250Y-85180D02*
Y-82500D01*
X50500Y-95400D02*
Y-92930D01*
X58250Y-85180D01*
X-25485Y-86485D02*
X-25250Y-86250D01*
X-25500Y-95400D02*
X-25485Y-95385D01*
Y-86485D01*
X-25500Y-73250D02*
Y-64600D01*
X57427Y-71527D02*
X57900Y-72000D01*
X54957Y-71527D02*
X57427D01*
X50500Y-67070D02*
X54957Y-71527D01*
X50500Y-67070D02*
Y-64600D01*
X-110500Y22000D02*
X-109000Y23500D01*
X-120200Y13750D02*
X-119950Y14000D01*
X-143000Y85714D02*
X-142464Y86250D01*
X-143000Y61000D02*
Y85714D01*
X-174036Y86500D02*
X-173000Y85464D01*
Y61000D02*
Y85464D01*
X-175500Y36250D02*
Y58500D01*
X-173000Y61000D01*
X-184615Y26893D02*
X-176357D01*
X-184800Y26708D02*
X-184615Y26893D01*
X-176357D02*
X-175500Y27750D01*
X-184800Y-18303D02*
X-184648Y-18152D01*
X-178652D01*
X-178500Y-18000D01*
X-184800Y-23304D02*
X-184615Y-23489D01*
X-306000Y-19500D02*
X-302515Y-22985D01*
X-305516Y-35016D02*
X-298002D01*
X-297007Y-34022D02*
X-296339D01*
X-298002Y-35016D02*
X-297007Y-34022D01*
X-306000Y-35500D02*
X-305516Y-35016D01*
X-244000Y53250D02*
X-242894Y52144D01*
X-239144D01*
X-236300Y49300D01*
Y38200D02*
Y49300D01*
X-242000Y45250D02*
X-241920Y45330D01*
X-242000Y44582D02*
Y45250D01*
X-246300Y38200D02*
Y43447D01*
X-247977Y45124D02*
X-246300Y43447D01*
X-241920Y45330D02*
X-241667D01*
X-260538Y45538D02*
Y47184D01*
X-261011Y47657D02*
X-260538Y47184D01*
Y45538D02*
X-256485Y41485D01*
Y38385D02*
X-256300Y38200D01*
X-256485Y38385D02*
Y41485D01*
X-261485Y38385D02*
Y41392D01*
X-267302Y47209D02*
X-261485Y41392D01*
X-273756Y48250D02*
X-273750D01*
X-267756Y48210D02*
X-267302Y47756D01*
X-273927Y48421D02*
X-273756Y48250D01*
X-280714Y53250D02*
X-252500D01*
X-281714Y52250D02*
Y65286D01*
X-267302Y47209D02*
Y47756D01*
X-273750Y48250D02*
X-273336Y47836D01*
Y45236D02*
X-268285Y40185D01*
X-273336Y45236D02*
Y47836D01*
X-266485Y40185D02*
X-266300Y40000D01*
X-268285Y40185D02*
X-266485D01*
X-266300Y38200D02*
Y40000D01*
X-283082Y-14999D02*
X-281385Y-13302D01*
X-272800D01*
X-287449Y-3299D02*
X-272800D01*
X-290000Y-5850D02*
X-287449Y-3299D01*
X-283661Y-9000D02*
X-282992D01*
X-282293Y-8301D01*
X-272800D01*
Y16706D02*
X-264692D01*
X-263218Y15232D02*
X-262550D01*
X-264692Y16706D02*
X-263218Y15232D01*
X-290000Y-28000D02*
X-287000Y-31000D01*
X-290000Y-28000D02*
Y-5850D01*
X-283750Y-14999D02*
X-283082D01*
X-241485Y38385D02*
Y44067D01*
X-242000Y44582D02*
X-241485Y44067D01*
X-272615Y-38493D02*
X-267981D01*
X-264475Y-42000D01*
X-272800Y-38308D02*
X-272615Y-38493D01*
X-286000Y-55489D02*
X-270739Y-70750D01*
X-260500D01*
X-286000Y-55489D02*
Y-40000D01*
X-287000Y-31000D02*
X-286000D01*
X-42164Y-17780D02*
X-30780D01*
X-30500Y-17500D01*
X-28940Y-7810D02*
X-28750Y-8000D01*
X-42164Y-7620D02*
X-41974Y-7810D01*
X-28940D01*
X-42164Y-2540D02*
X-41938Y-2314D01*
X-27948D01*
X-300000Y-77000D02*
Y-66250D01*
Y-77000D02*
X-299750Y-77250D01*
X-283661Y-20998D02*
X-282992D01*
X-82473Y-2777D02*
X-82000Y-3250D01*
X-82473Y-2777D02*
Y-590D01*
X-85000Y1938D02*
Y2000D01*
Y1938D02*
X-82473Y-590D01*
X-89250Y-3500D02*
Y1688D01*
X-210250Y-58500D02*
X-206485Y-54735D01*
Y-49985D02*
X-206300Y-49800D01*
X-210250Y-59500D02*
Y-58500D01*
X-206485Y-54735D02*
Y-49985D01*
X-202000Y-70750D02*
X-201250Y-70000D01*
Y-59500D01*
X-261300Y-49800D02*
X-261115Y-49985D01*
X-196115Y-53717D02*
Y-49985D01*
Y-53717D02*
X-193250Y-56582D01*
Y-57250D02*
Y-56582D01*
X-196300Y-49800D02*
X-196115Y-49985D01*
X-69050Y13550D02*
Y17950D01*
X-69350Y18250D02*
X-69050Y17950D01*
Y13550D02*
X-68750Y13250D01*
X-89250Y1688D02*
X-89000Y1938D01*
Y2000D01*
X-281714Y65286D02*
X-279500Y67500D01*
X-281714Y52250D02*
X-280714Y53250D01*
X-219900Y52800D02*
Y65514D01*
X-219400Y66014D01*
X-216300Y43012D02*
X-210497Y48815D01*
X-210385D01*
X-208900Y50300D01*
X-216300Y38200D02*
Y43012D01*
X-221115Y38385D02*
Y51585D01*
X-219900Y52800D01*
X-221300Y38200D02*
X-221115Y38385D01*
X-241485D02*
X-241300Y38200D01*
X-261485Y38385D02*
X-261300Y38200D01*
X-88627Y23500D02*
X-88467Y23340D01*
X-82240D02*
X-82150Y23250D01*
X-88467Y23340D02*
X-82240D01*
X-201300Y38200D02*
X-201115Y38015D01*
Y34370D02*
Y38015D01*
Y34370D02*
X-199353Y32608D01*
D104*
X-298800Y27200D02*
Y30350D01*
X-304000Y22000D02*
X-298800Y27200D01*
X-304000Y21500D02*
Y22000D01*
X-298800Y30350D02*
X-297400Y31750D01*
X-297200D01*
X-291957Y32947D02*
X-290818Y34086D01*
X-290250D01*
X-297200Y31750D02*
X-296003Y32947D01*
X-291957D01*
X-176200Y-51200D02*
X-167750D01*
X4729Y19229D02*
X7620Y22120D01*
X4729Y-12589D02*
Y19229D01*
Y-12589D02*
X5085D01*
X10055Y-7620D01*
X21590Y-12589D02*
X26780Y-17780D01*
X5085Y-12589D02*
X21590D01*
X-2343Y13343D02*
Y41967D01*
Y12999D02*
Y13343D01*
X-1999Y12999D01*
X-7000Y18000D02*
X-2343Y13343D01*
X2540Y-21722D02*
X4691Y-19571D01*
X5093Y-19169D01*
X7972D02*
X8141Y-19000D01*
X4691Y-19571D02*
X12700Y-27580D01*
X8141Y-19000D02*
X19000D01*
X5093Y-19169D02*
X7972D01*
X12700Y-42164D02*
Y-27580D01*
X-2214Y-12855D02*
X-1999Y-12640D01*
Y12999D01*
X-274600Y26708D02*
X-272800D01*
X-284190Y27503D02*
X-275394D01*
X-290250Y33562D02*
X-284190Y27503D01*
X-275394D02*
X-274600Y26708D01*
X-290250Y33562D02*
Y34000D01*
X-132953Y6703D02*
X-122807Y-3444D01*
X-184800Y6703D02*
X-132953D01*
X-122807Y-3444D02*
X-117328D01*
X-117271Y-3500D01*
X-22663Y33663D02*
X-12503Y23503D01*
Y23503D02*
X-7000Y18000D01*
X-12503Y23503D02*
Y41967D01*
X-12700Y42164D02*
X-12503Y41967D01*
X-22860Y42164D02*
X-22663Y41967D01*
Y33663D02*
Y41967D01*
X-2540Y42164D02*
X-2343Y41967D01*
X7620Y22120D02*
X17780Y32280D01*
X7620Y22120D02*
Y42164D01*
X17780Y32280D02*
Y42164D01*
X12433Y12683D02*
X22610Y22860D01*
X42164D01*
X12433Y-5242D02*
X20215Y2540D01*
X10055Y-7620D02*
X12433Y-5242D01*
Y12683D01*
X28500Y8500D02*
X32503Y12503D01*
X41967D01*
X20215Y2540D02*
X26174Y8500D01*
X28500D01*
X41967Y12503D02*
X42164Y12700D01*
X20215Y2540D02*
X42164D01*
X10055Y-7620D02*
X42164D01*
X26780Y-17780D02*
X42164D01*
X19000Y-19000D02*
X27940Y-27940D01*
X42164D01*
X2540Y-42164D02*
Y-21722D01*
X-17730Y-29280D02*
X-13700Y-25250D01*
X-17780Y-29280D02*
X-17730D01*
X-7620Y-42164D02*
Y-24620D01*
X-17780Y-42164D02*
Y-29280D01*
X-161000Y-47818D02*
Y-47250D01*
X-159400Y-52050D02*
Y-49418D01*
X-161000Y-47818D02*
X-159400Y-49418D01*
X-168000Y-52450D02*
X-167000Y-53450D01*
X-158000D01*
X-159400Y-52050D02*
X-158000Y-53450D01*
X-147300Y-53050D02*
X-143500Y-49250D01*
X-157600Y-53050D02*
X-147300D01*
X-158000Y-53450D02*
X-157600Y-53050D01*
X-167750Y-51200D02*
Y-46500D01*
X-177000Y-52000D02*
X-176200Y-51200D01*
X-143500Y-49250D02*
Y-48500D01*
X-178300Y-51200D02*
Y-47200D01*
X-177500Y-52000D02*
X-177000D01*
X-178300Y-51200D02*
X-177500Y-52000D01*
X-182190Y-43309D02*
X-178300Y-47200D01*
X-184800Y-43309D02*
X-182190D01*
X-193050Y55500D02*
Y66200D01*
X-190500Y68750D01*
X-193050Y55500D02*
X-192525Y54975D01*
Y47025D02*
X-192000Y46500D01*
X-192525Y47025D02*
Y54975D01*
X-192000Y46500D02*
X-191300Y45800D01*
Y38200D02*
Y45800D01*
X-92729Y-12021D02*
X-89750Y-15000D01*
Y-27500D02*
Y-15000D01*
X-92729Y-12021D02*
Y-12000D01*
X-93869Y-10859D02*
X-92729Y-12000D01*
X-100500Y-2772D02*
X-100478D01*
X-93869Y-9381D01*
Y-10859D02*
Y-9381D01*
X-108864Y-3136D02*
X-100864D01*
X-100500Y-2772D01*
X-109228Y-3500D02*
X-108864Y-3136D01*
D105*
X210000Y-146000D02*
X210000Y-146000D01*
X210000Y-146000D02*
Y-128900D01*
X-7620Y-24467D02*
X-2783Y-19630D01*
Y-19495D01*
X-7620Y-24620D02*
Y-24467D01*
X-153404Y84888D02*
X-152041Y86250D01*
X-158000Y61000D02*
X-153404Y65596D01*
Y84888D01*
X-152041Y86250D02*
X-152036D01*
X-164464Y86500D02*
X-163493Y85529D01*
Y66493D02*
Y85529D01*
Y66493D02*
X-158000Y61000D01*
X-48000Y-83500D02*
Y-82500D01*
X-56455Y-86055D02*
X-51160D01*
X-49105Y-84000D01*
X-48500D01*
X-56750Y-86350D02*
X-56455Y-86055D01*
X-48500Y-84000D02*
X-48000Y-83500D01*
X-49000Y-82000D02*
X-48500D01*
X-48000Y-82500D01*
X-54786Y-76214D02*
Y-68750D01*
Y-76214D02*
X-49000Y-82000D01*
X-66600Y-86900D02*
X-66000D01*
X-78250Y-86979D02*
X-66679D01*
X-66600Y-86900D01*
X-78250Y-86979D02*
Y-78250D01*
X-66000Y-86100D02*
Y-75500D01*
X-65250Y-74750D01*
X-80250Y-72500D02*
X-80000Y-72750D01*
Y-76500D02*
Y-72750D01*
Y-76500D02*
X-78250Y-78250D01*
X-91244Y-91250D02*
X-90000Y-90006D01*
Y-72750D02*
X-89750Y-72500D01*
X-90000Y-90006D02*
Y-72750D01*
X210000Y144000D02*
X210000Y144000D01*
X210000Y128900D02*
Y144000D01*
X-130000Y128900D02*
Y143000D01*
X-130084Y-145084D02*
X-130000Y-145000D01*
Y-128900D01*
X-8250Y-25250D02*
X-7620Y-24620D01*
X-13700Y-25250D02*
X-8250D01*
X-21500D02*
X-13700D01*
X-28536Y-32286D02*
X-21500Y-25250D01*
X-28536Y-41568D02*
Y-32286D01*
X-46638Y-59888D02*
X-28922Y-42172D01*
X-46979Y-60250D02*
X-46638Y-59909D01*
X-47097Y-60368D02*
X-46979Y-60250D01*
X-46638Y-59909D02*
Y-59888D01*
X-47097Y-68632D02*
Y-60368D01*
X-47214Y-68750D02*
X-47097Y-68632D01*
X-54904D02*
X-54786Y-68750D01*
X-54904Y-68632D02*
Y-60368D01*
X-55022Y-60250D02*
X-54904Y-60368D01*
X-65250Y-60250D02*
X-55022D01*
X-73261Y-95011D02*
X-73250Y-95000D01*
X-78250Y-95021D02*
X-78239Y-95011D01*
X-73261D01*
X-112904Y-80404D02*
X-108750Y-76250D01*
X-113154Y-80404D02*
X-112904D01*
X-113250Y-80500D02*
X-113154Y-80404D01*
X-108750Y-76250D02*
Y-72500D01*
D106*
X-193222Y-42586D02*
Y-32472D01*
X-189240Y-28490D01*
X-193222Y-42586D02*
X-192750Y-43058D01*
X-206069Y31850D02*
X-202731Y28512D01*
X-203293Y27950D02*
X-202731Y28512D01*
X-206400Y31850D02*
X-206069D01*
X-99447Y-14340D02*
X-99250Y-14537D01*
Y-27500D02*
Y-14537D01*
X-100772Y-12000D02*
X-99447Y-13325D01*
Y-14340D02*
Y-13325D01*
X-108478Y-12000D02*
X-100772D01*
X-189240Y-28490D02*
X-184984D01*
X-184800Y-28306D01*
X-206400Y38100D02*
X-206300Y38200D01*
X-206400Y31850D02*
Y38100D01*
D107*
X320000Y-150000D02*
D03*
Y150000D02*
D03*
X-380000Y-150000D02*
D03*
Y150000D02*
D03*
D108*
X-275250Y111000D02*
D03*
X-323000Y15250D02*
D03*
Y-1500D02*
D03*
X-253000Y-111000D02*
D03*
X-224500Y-110750D02*
D03*
X-239000Y-111000D02*
D03*
X-243500Y111000D02*
D03*
X-257750D02*
D03*
X30000Y-111000D02*
D03*
X-3750D02*
D03*
X30000Y111000D02*
D03*
X13000D02*
D03*
X-4750D02*
D03*
X13000Y-111000D02*
D03*
D109*
X-420200Y-75000D02*
D03*
Y-25000D02*
D03*
Y25000D02*
D03*
Y72500D02*
D03*
X-186500Y-138001D02*
D03*
Y-170001D02*
D03*
D110*
X-394800Y-75000D02*
D03*
Y-25000D02*
D03*
Y25000D02*
D03*
Y72500D02*
D03*
X-360000Y-38100D02*
D03*
X-360000Y-12700D02*
D03*
Y12700D02*
D03*
Y38100D02*
D03*
Y63500D02*
D03*
X-313500Y-138000D02*
D03*
X-288100D02*
D03*
X-262700D02*
D03*
X-237300D02*
D03*
X-211900Y-138001D02*
D03*
X-313500Y-170000D02*
D03*
X-288100D02*
D03*
X-262700D02*
D03*
X-237300D02*
D03*
X-211900Y-170001D02*
D03*
D111*
X-360000Y-63500D02*
D03*
D112*
X215260Y161000D02*
D03*
X-135260D02*
D03*
Y-161000D02*
D03*
X215260D02*
D03*
D113*
X-271000Y126000D02*
D03*
X-249012D02*
D03*
X-234000Y31000D02*
D03*
X-252750Y20762D02*
D03*
X-241891Y77770D02*
D03*
X-135031Y77500D02*
D03*
X-130450Y58100D02*
D03*
X-86355Y54410D02*
D03*
X-80048Y54298D02*
D03*
X-118773Y57820D02*
D03*
X-114423Y75423D02*
D03*
X-114951Y42426D02*
D03*
X-127666Y75867D02*
D03*
X-132199Y38058D02*
D03*
X-122000Y42798D02*
D03*
X-51500Y92250D02*
D03*
X-71004Y39141D02*
D03*
X-76281Y36116D02*
D03*
X-68064Y73881D02*
D03*
X-120494Y74989D02*
D03*
X-291252Y24635D02*
D03*
X-295750Y38250D02*
D03*
X-296750Y44500D02*
D03*
X-171500Y-40500D02*
D03*
X-48000Y-35000D02*
D03*
X-85410Y-8486D02*
D03*
X-77250Y-8000D02*
D03*
X-286500Y39250D02*
D03*
X-185188Y-62000D02*
D03*
X-176000Y-96000D02*
D03*
X-175938Y-89250D02*
D03*
X-176188Y-80500D02*
D03*
X61812Y93500D02*
D03*
X62312Y79750D02*
D03*
X62562Y64000D02*
D03*
Y50250D02*
D03*
X64562Y3500D02*
D03*
X61812Y-47500D02*
D03*
X62312Y-61500D02*
D03*
X61062Y-94750D02*
D03*
X-40500Y-90500D02*
D03*
X-45438Y-48250D02*
D03*
X-117250Y4488D02*
D03*
X-123000Y5000D02*
D03*
X-296000Y130000D02*
D03*
X-194000Y170000D02*
D03*
X-191000Y130000D02*
D03*
X-94688Y154500D02*
D03*
X170062Y155000D02*
D03*
X173562Y-142000D02*
D03*
X-92438Y-152250D02*
D03*
X-61000Y6000D02*
D03*
X-84000Y96250D02*
D03*
X-62500Y96000D02*
D03*
X-110250Y30000D02*
D03*
X-118500D02*
D03*
X-136438Y18000D02*
D03*
X-120575Y94641D02*
D03*
X210000Y-146000D02*
D03*
X-285691Y22278D02*
D03*
X-289627Y18377D02*
D03*
X-290250Y34086D02*
D03*
X-201200Y-9954D02*
D03*
X4729Y-12589D02*
D03*
X4691Y-19571D02*
D03*
X-2783Y-19495D02*
D03*
X-2214Y-12855D02*
D03*
X-80048Y60232D02*
D03*
X-86057Y60306D02*
D03*
X-296186Y10295D02*
D03*
X-240888Y12733D02*
D03*
X-252136Y-94583D02*
D03*
X-238000Y-30000D02*
D03*
X-209971Y-23971D02*
D03*
X-249250Y-18750D02*
D03*
X-221965Y-8924D02*
D03*
X-181000Y77000D02*
D03*
X-219000Y96000D02*
D03*
X-261000Y89000D02*
D03*
Y75000D02*
D03*
Y64000D02*
D03*
X-152000Y96000D02*
D03*
X-165000D02*
D03*
X-21000Y3000D02*
D03*
X-33500Y-96250D02*
D03*
X-33000Y-82500D02*
D03*
X-40250Y-76000D02*
D03*
X-153500Y-81500D02*
D03*
X-190750Y-67750D02*
D03*
X-215750Y17750D02*
D03*
X-211000Y20750D02*
D03*
X-202750Y15250D02*
D03*
X-205250Y8500D02*
D03*
X-34000Y96250D02*
D03*
X-287750Y-92500D02*
D03*
X-288000Y-78750D02*
D03*
X-202500Y-83750D02*
D03*
X-202750Y-94750D02*
D03*
X-311000Y48500D02*
D03*
X-310000Y91500D02*
D03*
X-309250Y63500D02*
D03*
X-270000Y-58750D02*
D03*
X-80117Y12827D02*
D03*
X210000Y144000D02*
D03*
X-130000Y143000D02*
D03*
X-16000Y-149000D02*
D03*
X0D02*
D03*
X-130084Y-145084D02*
D03*
X-74163Y79326D02*
D03*
X-91250Y-55479D02*
D03*
X-81250D02*
D03*
X-91250Y-45479D02*
D03*
X-81250D02*
D03*
X-162500Y0D02*
D03*
X-137500D02*
D03*
X-150000D02*
D03*
X-175000D02*
D03*
X-129250Y-21250D02*
D03*
X-69750Y-30000D02*
D03*
X-70000Y-4750D02*
D03*
X-232899Y2149D02*
D03*
X-238750Y-7500D02*
D03*
X-225504Y-66949D02*
D03*
X-228026Y-42449D02*
D03*
X-241800Y-44200D02*
D03*
X-238000Y-39550D02*
D03*
X-248262Y45778D02*
D03*
X-256500Y98750D02*
D03*
X-54000Y30500D02*
D03*
X-82000Y-3250D02*
D03*
X-44250Y60500D02*
D03*
X-54500Y53250D02*
D03*
X-262750Y-93000D02*
D03*
X-239530Y-64190D02*
D03*
X-27722Y-2089D02*
D03*
X-28750Y-8000D02*
D03*
X23000Y27810D02*
D03*
X28750D02*
D03*
X28500Y15500D02*
D03*
X-68750Y13250D02*
D03*
X-259260Y-38524D02*
D03*
X-230067Y-76172D02*
D03*
X-229751Y-55833D02*
D03*
X-229509Y-62316D02*
D03*
X-224483Y-58704D02*
D03*
X-216479Y-69531D02*
D03*
X-228297Y-87451D02*
D03*
X-232815Y-91685D02*
D03*
X-210081Y-39550D02*
D03*
X-198606Y-41750D02*
D03*
X-192750Y-43058D02*
D03*
X-204702Y-42209D02*
D03*
X-210750Y-67750D02*
D03*
X-264304Y-42000D02*
D03*
X-254774Y-43064D02*
D03*
X-245592Y-39550D02*
D03*
X-178500Y-18000D02*
D03*
Y-24000D02*
D03*
X-172250Y-34250D02*
D03*
X-262750Y25750D02*
D03*
X-296462Y-44085D02*
D03*
X-87750Y91000D02*
D03*
X-153500Y-33000D02*
D03*
X-161000Y-47250D02*
D03*
X-167750Y-46500D02*
D03*
X-152500Y-39250D02*
D03*
X-55000Y-6500D02*
D03*
X-296011Y-11457D02*
D03*
X-296762Y-5504D02*
D03*
X-295571Y376D02*
D03*
X-283750Y-15028D02*
D03*
X-283661Y-21028D02*
D03*
X-296319Y-21182D02*
D03*
X-296843Y-27159D02*
D03*
X-283661Y-9029D02*
D03*
X-143381Y39512D02*
D03*
X-203293Y27950D02*
D03*
X-184000Y40000D02*
D03*
X-198526Y31593D02*
D03*
X-180750Y60262D02*
D03*
X-114250Y-93500D02*
D03*
X-226512Y65750D02*
D03*
X-226500Y81000D02*
D03*
X-293250Y70250D02*
D03*
X-293242Y75985D02*
D03*
X-293250Y84000D02*
D03*
X-293044Y89580D02*
D03*
X-197881Y45000D02*
D03*
X-236772Y57000D02*
D03*
X-200000Y78250D02*
D03*
Y71500D02*
D03*
X-100750Y78750D02*
D03*
X-96250Y73500D02*
D03*
X-39000Y57000D02*
D03*
X-35500Y61750D02*
D03*
X50500Y84500D02*
D03*
Y72750D02*
D03*
X-29250Y89500D02*
D03*
Y83750D02*
D03*
X58250Y-82500D02*
D03*
X-25500Y-73250D02*
D03*
X57900Y-72000D02*
D03*
X-25250Y-86250D02*
D03*
X22500Y15750D02*
D03*
X-59411Y-52247D02*
D03*
X-56500Y-47000D02*
D03*
X-176289Y94198D02*
D03*
X-182250Y94250D02*
D03*
X-296339Y-34022D02*
D03*
X-273927Y48421D02*
D03*
X-241667Y45330D02*
D03*
X-254267Y46750D02*
D03*
X-267756Y48210D02*
D03*
X-261011Y47657D02*
D03*
X-284718Y6823D02*
D03*
X-262550Y-733D02*
D03*
Y5267D02*
D03*
X-265893Y10250D02*
D03*
X-255762Y500D02*
D03*
X-262550Y15232D02*
D03*
X64000Y-149000D02*
D03*
X48000Y-149512D02*
D03*
X80000Y-149000D02*
D03*
X32000D02*
D03*
X16000D02*
D03*
X-32000D02*
D03*
X-24000Y148000D02*
D03*
X72000D02*
D03*
X56000D02*
D03*
X40000D02*
D03*
X24000D02*
D03*
X8000D02*
D03*
X-40000D02*
D03*
X-8000D02*
D03*
X-73250Y-95000D02*
D03*
X-58243Y-29056D02*
D03*
X-89250Y-3500D02*
D03*
X-30500Y-17500D02*
D03*
X-131000Y-57500D02*
D03*
X-83500Y35250D02*
D03*
X-103000Y16762D02*
D03*
X-90344Y16844D02*
D03*
X-55750Y-16750D02*
D03*
X-100250Y90500D02*
D03*
X-193250Y-57250D02*
D03*
X-108750Y57500D02*
D03*
X-88627Y23500D02*
D03*
X-100750Y41250D02*
D03*
X-120250Y-93750D02*
D03*
X-113250Y-80500D02*
D03*
X-148250Y-94500D02*
D03*
X-156000Y-94000D02*
D03*
X-152000Y-90000D02*
D03*
X-31000Y16000D02*
D03*
M02*
