G04*
G04 #@! TF.GenerationSoftware,Altium Limited,Altium Designer,24.6.1 (21)*
G04*
G04 Layer_Color=65535*
%FSLAX44Y44*%
%MOMM*%
G71*
G04*
G04 #@! TF.SameCoordinates,E18C277C-CF0C-426E-95C7-D1DF2096CF1D*
G04*
G04*
G04 #@! TF.FilePolarity,Positive*
G04*
G01*
G75*
%ADD10C,0.3000*%
%ADD11C,0.1524*%
%ADD12C,0.2000*%
%ADD13C,0.2500*%
%ADD14C,0.1000*%
%ADD15C,0.1778*%
%ADD16C,0.1500*%
%ADD17C,0.1270*%
G36*
X-279833Y-35212D02*
X-277293D01*
Y-31402D01*
X-279833D01*
Y-35212D01*
D02*
G37*
G36*
X-233205Y-54293D02*
X-229395D01*
Y-56833D01*
X-233205D01*
Y-54293D01*
D02*
G37*
G36*
X-279833Y14801D02*
X-277293D01*
Y18611D01*
X-279833D01*
Y14801D01*
D02*
G37*
G36*
X-238205Y42693D02*
X-234395D01*
Y45233D01*
X-238205D01*
Y42693D01*
D02*
G37*
G36*
X-177767Y-40213D02*
X-180307D01*
Y-36403D01*
X-177767D01*
Y-40213D01*
D02*
G37*
G36*
Y9799D02*
X-180307D01*
Y13609D01*
X-177767D01*
Y9799D01*
D02*
G37*
G36*
X-15875Y52014D02*
Y54554D01*
X-19685D01*
Y52014D01*
X-15875D01*
D02*
G37*
G36*
X-635Y-52014D02*
Y-54554D01*
X-4445D01*
Y-52014D01*
X-635D01*
D02*
G37*
G36*
X52014Y-14605D02*
Y-10795D01*
X54554D01*
Y-14605D01*
X52014D01*
D02*
G37*
D10*
X244500Y-125500D02*
G03*
X244500Y-125500I-1000J0D01*
G01*
X-161750Y128000D02*
G03*
X-161750Y128000I-1000J0D01*
G01*
D11*
X-179238Y62250D02*
G03*
X-179238Y62250I-762J0D01*
G01*
X-156500Y125000D02*
Y175000D01*
X236500Y125000D02*
Y175000D01*
X36322Y32664D02*
Y36322D01*
X32664D02*
X36322D01*
X-36322Y32664D02*
Y36322D01*
Y-36322D02*
X-32664D01*
X36322D02*
Y-32664D01*
X-36322Y36322D02*
X-32664D01*
X-36322Y-36322D02*
Y-32664D01*
X32664Y-36322D02*
X36322D01*
X236500Y-175000D02*
Y-125000D01*
X-156500Y-175000D02*
Y-125000D01*
D12*
X-49120Y32120D02*
G03*
X-49120Y32120I-1000J0D01*
G01*
X-79370Y10630D02*
G03*
X-79370Y10630I-1000J0D01*
G01*
X-289750Y60500D02*
G03*
X-289750Y60500I-1000J0D01*
G01*
X-380200Y-87446D02*
Y-62554D01*
X-434800Y-87446D02*
Y-62554D01*
Y-87446D02*
X-380200D01*
X-434800Y-62554D02*
X-380200D01*
Y-37446D02*
Y-12554D01*
X-434800Y-37446D02*
Y-12554D01*
Y-37446D02*
X-380200D01*
X-434800Y-12554D02*
X-380200D01*
Y12554D02*
Y37446D01*
X-434800Y12554D02*
Y37446D01*
Y12554D02*
X-380200D01*
X-434800Y37446D02*
X-380200D01*
X-434800Y84946D02*
X-380200D01*
X-434800Y60054D02*
X-380200D01*
X-434800D02*
Y84946D01*
X-380200Y60054D02*
Y84946D01*
X-54750Y32120D02*
X-50120Y36750D01*
Y45380D01*
X-63380D02*
X-50120D01*
X-63380Y32120D02*
Y45380D01*
Y32120D02*
X-54750D01*
X-80370Y-2630D02*
Y6000D01*
X-93630Y-2630D02*
X-80370D01*
X-93630D02*
Y10630D01*
X-85000D01*
X-80370Y6000D01*
X-103000Y31250D02*
Y41250D01*
X-134000Y31250D02*
X-103000D01*
X-134000Y41250D02*
X-103000D01*
X-134000Y31250D02*
Y41250D01*
X-304500Y-85000D02*
Y-84500D01*
X-295000Y-85000D02*
Y-84500D01*
X-313500Y-12500D02*
X-298500D01*
Y-58500D02*
Y-12500D01*
X-298500Y-58500D02*
X-298500Y-58500D01*
X-313500Y-58500D02*
X-298500D01*
X-313500D02*
Y-12500D01*
X-266250Y-99750D02*
X-254750D01*
X66500Y-95400D02*
Y-64600D01*
X-41500D02*
X-30250D01*
X55250D02*
X66500D01*
X-41500Y-95400D02*
Y-64600D01*
Y-95400D02*
X-30250D01*
X55250D02*
X66500D01*
X-41500Y64600D02*
Y95400D01*
X55250Y64600D02*
X66500D01*
X-41500D02*
X-30250D01*
X66500D02*
Y95400D01*
X55250D02*
X66500D01*
X-41500D02*
X-30250D01*
X-207750Y-99750D02*
X-196250D01*
D13*
X-100250Y49750D02*
G03*
X-100250Y49750I-1250J0D01*
G01*
X-298750Y-101500D02*
G03*
X-298750Y-101500I-1250J0D01*
G01*
X49750Y-57000D02*
G03*
X49750Y-57000I-1250J0D01*
G01*
X-31000Y58750D02*
G03*
X-31000Y58750I-1250J0D01*
G01*
X-71750Y-21500D02*
G03*
X-71750Y-21500I-1250J0D01*
G01*
D14*
X-131000Y-51500D02*
G03*
X-131000Y-52500I0J-500D01*
G01*
D02*
G03*
X-131000Y-51500I0J500D01*
G01*
X-84000Y33250D02*
G03*
X-84000Y33250I-500J0D01*
G01*
D15*
X-187843Y41450D02*
X-181550D01*
Y35167D02*
Y41450D01*
Y-53050D02*
Y-51050D01*
X-183550Y-53050D02*
X-181550D01*
X-276050D02*
X-274050D01*
X-276050D02*
Y-51050D01*
Y41450D02*
X-274050D01*
X-276050Y39450D02*
Y41450D01*
D16*
X-350090Y-25400D02*
X-347550Y-27940D01*
X-350090Y-25400D02*
X-347550Y-22860D01*
X-350090Y-50800D02*
X-347550Y-53340D01*
X-350090Y-50800D02*
X-347550Y-48260D01*
X-350090Y0D02*
X-347550Y-2540D01*
X-350090Y0D02*
X-347550Y2540D01*
X-350090Y25400D02*
X-347550Y22860D01*
X-372450D02*
X-369910Y25400D01*
X-372450Y27940D02*
X-369910Y25400D01*
X-372450Y-2540D02*
X-369910Y0D01*
X-372450Y2540D02*
X-369910Y0D01*
X-372450Y-27940D02*
X-369910Y-25400D01*
X-372450Y-22860D02*
X-369910Y-25400D01*
X-372450Y-53340D02*
X-369910Y-50800D01*
X-372450Y-48260D02*
X-369910Y-50800D01*
X-347550Y-48260D02*
Y-27940D01*
Y-22860D02*
Y-2540D01*
Y2540D02*
Y22860D01*
X-372450Y-48260D02*
Y-27940D01*
Y-22860D02*
Y-2540D01*
Y2540D02*
Y22860D01*
X-347554Y-73700D02*
Y-53340D01*
X-349854Y-76000D02*
X-347554Y-73700D01*
X-349854Y50600D02*
X-347460Y48206D01*
X-372446Y48300D02*
X-370146Y50600D01*
X-372450Y27940D02*
Y48296D01*
X-372446Y-73700D02*
X-370146Y-76000D01*
X-349854D01*
X-372446Y-73699D02*
Y-53340D01*
X-372446Y52900D02*
X-370146Y50600D01*
X-372446Y52900D02*
Y73256D01*
X-349854Y75556D02*
X-347554Y73256D01*
X-372446D02*
X-370146Y75556D01*
X-349854D01*
X-347554Y52900D02*
Y73256D01*
X-349854Y50600D02*
X-347554Y52900D01*
X-350090Y25400D02*
X-347460Y28030D01*
Y48206D01*
X-298206Y-125460D02*
X-278030D01*
X-275400Y-128090D01*
X-302900Y-125555D02*
X-300600Y-127855D01*
X-323256Y-125555D02*
X-302900D01*
X-325556Y-148146D02*
Y-127855D01*
Y-148146D02*
X-323256Y-150446D01*
X-325556Y-127855D02*
X-323256Y-125555D01*
Y-150446D02*
X-302900D01*
X-300600Y-148146D01*
X-196660Y-150447D02*
X-176301D01*
X-174000Y-148146D02*
Y-127855D01*
X-176300Y-150446D02*
X-174000Y-148146D01*
X-298296Y-150450D02*
X-277940D01*
X-300600Y-148146D02*
X-298300Y-150446D01*
X-300600Y-127855D02*
X-298206Y-125460D01*
X-176300Y-125555D02*
X-174000Y-127855D01*
X-196660Y-125555D02*
X-176300D01*
X-272860Y-150450D02*
X-252540D01*
X-247460D02*
X-227140D01*
X-222060D02*
X-201740D01*
X-272860Y-125550D02*
X-252540D01*
X-247460D02*
X-227140D01*
X-222060D02*
X-201740D01*
Y-150450D02*
X-199200Y-147910D01*
X-196660Y-150450D01*
X-227140D02*
X-224600Y-147910D01*
X-222060Y-150450D01*
X-252540D02*
X-250000Y-147910D01*
X-247460Y-150450D01*
X-277940D02*
X-275400Y-147910D01*
X-272860Y-150450D01*
X-275400Y-128090D02*
X-272860Y-125550D01*
X-252540D02*
X-250000Y-128090D01*
X-247460Y-125550D01*
X-201740D02*
X-199200Y-128090D01*
X-196660Y-125550D01*
X-227140D02*
X-224600Y-128090D01*
X-222060Y-125550D01*
X-298206Y-157460D02*
X-278030D01*
X-275400Y-160090D01*
X-302900Y-157555D02*
X-300600Y-159855D01*
X-323256Y-157555D02*
X-302900D01*
X-325556Y-180146D02*
Y-159855D01*
Y-180146D02*
X-323256Y-182446D01*
X-325556Y-159855D02*
X-323256Y-157555D01*
Y-182446D02*
X-302900D01*
X-300600Y-180146D01*
X-196660Y-182447D02*
X-176301D01*
X-174000Y-180146D02*
Y-159855D01*
X-176300Y-182446D02*
X-174000Y-180146D01*
X-298296Y-182450D02*
X-277940D01*
X-300600Y-180146D02*
X-298300Y-182446D01*
X-300600Y-159855D02*
X-298206Y-157460D01*
X-176300Y-157555D02*
X-174000Y-159855D01*
X-196660Y-157555D02*
X-176300D01*
X-272860Y-182450D02*
X-252540D01*
X-247460D02*
X-227140D01*
X-222060D02*
X-201740D01*
X-272860Y-157550D02*
X-252540D01*
X-247460D02*
X-227140D01*
X-222060D02*
X-201740D01*
Y-182450D02*
X-199200Y-179910D01*
X-196660Y-182450D01*
X-227140D02*
X-224600Y-179910D01*
X-222060Y-182450D01*
X-252540D02*
X-250000Y-179910D01*
X-247460Y-182450D01*
X-277940D02*
X-275400Y-179910D01*
X-272860Y-182450D01*
X-275400Y-160090D02*
X-272860Y-157550D01*
X-252540D02*
X-250000Y-160090D01*
X-247460Y-157550D01*
X-201740D02*
X-199200Y-160090D01*
X-196660Y-157550D01*
X-227140D02*
X-224600Y-160090D01*
X-222060Y-157550D01*
X-308418Y93414D02*
X-309751Y94747D01*
X-312417D01*
X-313750Y93414D01*
Y88083D01*
X-312417Y86750D01*
X-309751D01*
X-308418Y88083D01*
Y90749D01*
X-311084D01*
X-305753Y86750D02*
Y94747D01*
X-300421Y86750D01*
Y94747D01*
X-297755D02*
Y86750D01*
X-293757D01*
X-292424Y88083D01*
Y93414D01*
X-293757Y94747D01*
X-297755D01*
X-67127Y85444D02*
X-68460Y84111D01*
Y81446D01*
X-67127Y80113D01*
X-61796D01*
X-60463Y81446D01*
Y84111D01*
X-61796Y85444D01*
X-64462D01*
Y82778D01*
X-60463Y88110D02*
X-68460D01*
X-60463Y93442D01*
X-68460D01*
Y96108D02*
X-60463D01*
Y100106D01*
X-61796Y101439D01*
X-67127D01*
X-68460Y100106D01*
Y96108D01*
X58753Y-57500D02*
X66750D01*
X64084Y-54834D01*
X66750Y-52168D01*
X58753D01*
Y-49503D02*
X65417D01*
X66750Y-48170D01*
Y-45504D01*
X65417Y-44171D01*
X58753D01*
Y-41505D02*
X66750D01*
Y-36174D01*
Y-33508D02*
X58753D01*
Y-29509D01*
X60086Y-28176D01*
X62751D01*
X64084Y-29509D01*
Y-33508D01*
X58753Y-25510D02*
X65417D01*
X66750Y-24177D01*
Y-21512D01*
X65417Y-20179D01*
X58753D01*
X60086Y-12181D02*
X58753Y-13514D01*
Y-16180D01*
X60086Y-17513D01*
X61418D01*
X62751Y-16180D01*
Y-13514D01*
X64084Y-12181D01*
X65417D01*
X66750Y-13514D01*
Y-16180D01*
X65417Y-17513D01*
X66750Y-1518D02*
X58753D01*
Y2481D01*
X60086Y3814D01*
X62751D01*
X64084Y2481D01*
Y-1518D01*
X66750Y6479D02*
X58753D01*
Y10478D01*
X60086Y11811D01*
X62751D01*
X64084Y10478D01*
Y6479D01*
Y9145D02*
X66750Y11811D01*
X58753Y18476D02*
Y15810D01*
X60086Y14477D01*
X65417D01*
X66750Y15810D01*
Y18476D01*
X65417Y19808D01*
X60086D01*
X58753Y18476D01*
X61418Y30472D02*
X66750Y33137D01*
X61418Y35803D01*
X66750Y38469D02*
Y41135D01*
Y39802D01*
X58753D01*
X60086Y38469D01*
X66750Y45134D02*
X65417D01*
Y46466D01*
X66750D01*
Y45134D01*
X60086Y51798D02*
X58753Y53131D01*
Y55797D01*
X60086Y57130D01*
X65417D01*
X66750Y55797D01*
Y53131D01*
X65417Y51798D01*
X60086D01*
X-341165Y72832D02*
X-342497Y71499D01*
Y68833D01*
X-341165Y67500D01*
X-335833D01*
X-334500Y68833D01*
Y71499D01*
X-335833Y72832D01*
X-338499D01*
Y70166D01*
X-334500Y75497D02*
X-342497D01*
X-334500Y80829D01*
X-342497D01*
Y83495D02*
X-334500D01*
Y87493D01*
X-335833Y88826D01*
X-341165D01*
X-342497Y87493D01*
Y83495D01*
X-334000Y26500D02*
X-341997D01*
Y30499D01*
X-340664Y31832D01*
X-337999D01*
X-336666Y30499D01*
Y26500D01*
Y29166D02*
X-334000Y31832D01*
X-340664Y39829D02*
X-341997Y38496D01*
Y35830D01*
X-340664Y34497D01*
X-339332D01*
X-337999Y35830D01*
Y38496D01*
X-336666Y39829D01*
X-335333D01*
X-334000Y38496D01*
Y35830D01*
X-335333Y34497D01*
X-341997Y42495D02*
Y47826D01*
Y45161D01*
X-334000D01*
Y50492D02*
X-341997D01*
X-334000Y55824D01*
X-341997D01*
Y4000D02*
Y9332D01*
Y6666D01*
X-334000D01*
X-341997Y11997D02*
X-334000Y17329D01*
X-341997D02*
X-334000Y11997D01*
Y-18500D02*
X-341997D01*
Y-14501D01*
X-340664Y-13168D01*
X-337999D01*
X-336666Y-14501D01*
Y-18500D01*
Y-15834D02*
X-334000Y-13168D01*
X-341997Y-10503D02*
X-334000Y-5171D01*
X-341997D02*
X-334000Y-10503D01*
X-373500Y-79503D02*
X-368168D01*
X-370834D01*
Y-87500D01*
X-360171Y-79503D02*
X-365503D01*
Y-87500D01*
X-360171D01*
X-365503Y-83501D02*
X-362837D01*
X-352174Y-80836D02*
X-353507Y-79503D01*
X-356172D01*
X-357505Y-80836D01*
Y-82168D01*
X-356172Y-83501D01*
X-353507D01*
X-352174Y-84834D01*
Y-86167D01*
X-353507Y-87500D01*
X-356172D01*
X-357505Y-86167D01*
X-349508Y-79503D02*
X-344176D01*
X-346842D01*
Y-87500D01*
X-341997Y-58500D02*
X-334000D01*
Y-54501D01*
X-335333Y-53168D01*
X-340664D01*
X-341997Y-54501D01*
Y-58500D01*
Y-50503D02*
X-336666D01*
X-334000Y-47837D01*
X-336666Y-45171D01*
X-341997D01*
X-340664Y-37174D02*
X-341997Y-38507D01*
Y-41172D01*
X-340664Y-42505D01*
X-335333D01*
X-334000Y-41172D01*
Y-38507D01*
X-335333Y-37174D01*
X-340664Y-29176D02*
X-341997Y-30509D01*
Y-33175D01*
X-340664Y-34508D01*
X-335333D01*
X-334000Y-33175D01*
Y-30509D01*
X-335333Y-29176D01*
X-412500Y-54835D02*
X-407835D01*
X-410168Y-52502D02*
Y-57167D01*
X-405502Y-51336D02*
Y-56001D01*
X-403170Y-58334D01*
X-400837Y-56001D01*
Y-51336D01*
X-398504Y-59500D02*
X-393839D01*
X-391507Y-58334D02*
Y-51336D01*
X-388008D01*
X-386842Y-52502D01*
Y-54835D01*
X-388008Y-56001D01*
X-391507D01*
X-389174D02*
X-386842Y-58334D01*
X-384509Y-51336D02*
X-379844Y-58334D01*
Y-51336D02*
X-384509Y-58334D01*
X-404500Y-44001D02*
X-399835D01*
X-402167Y-41669D02*
Y-46334D01*
X-392837Y-40502D02*
X-397502D01*
Y-44001D01*
X-395170Y-42835D01*
X-394003D01*
X-392837Y-44001D01*
Y-46334D01*
X-394003Y-47500D01*
X-396336D01*
X-397502Y-46334D01*
X-390504Y-40502D02*
Y-45167D01*
X-388172Y-47500D01*
X-385839Y-45167D01*
Y-40502D01*
X-416500Y3499D02*
X-411168D01*
X-413834Y6165D02*
Y833D01*
X-408503Y7497D02*
Y2166D01*
X-405837Y-500D01*
X-403171Y2166D01*
Y7497D01*
X-400505Y-500D02*
Y7497D01*
X-397839Y4832D01*
X-395174Y7497D01*
Y-500D01*
X-387176Y6165D02*
X-388509Y7497D01*
X-391175D01*
X-392508Y6165D01*
Y4832D01*
X-391175Y3499D01*
X-388509D01*
X-387176Y2166D01*
Y833D01*
X-388509Y-500D01*
X-391175D01*
X-392508Y833D01*
X-384510Y-500D02*
Y7497D01*
X-380512D01*
X-379179Y6165D01*
Y3499D01*
X-380512Y2166D01*
X-384510D01*
X-416500Y52499D02*
X-411168D01*
X-413834Y55164D02*
Y49833D01*
X-408503Y56497D02*
Y51166D01*
X-405837Y48500D01*
X-403171Y51166D01*
Y56497D01*
X-400505D02*
Y48500D01*
X-396507D01*
X-395174Y49833D01*
Y51166D01*
X-396507Y52499D01*
X-400505D01*
X-396507D01*
X-395174Y53832D01*
Y55164D01*
X-396507Y56497D01*
X-400505D01*
X-392508Y48500D02*
Y53832D01*
X-389842Y56497D01*
X-387176Y53832D01*
Y48500D01*
Y52499D01*
X-392508D01*
X-384510Y56497D02*
X-379179D01*
X-381844D01*
Y48500D01*
X39165Y46250D02*
X33833Y40918D01*
Y46250D02*
X39165Y40918D01*
X36499Y46250D02*
Y40918D01*
X33833Y43584D02*
X39165D01*
X-109499Y54755D02*
Y60086D01*
Y57420D01*
X-101501D01*
Y62752D02*
X-109499D01*
Y66751D01*
X-108166Y68084D01*
X-105500D01*
X-104167Y66751D01*
Y62752D01*
X-101501Y70749D02*
Y73415D01*
Y72082D01*
X-109499D01*
X-108166Y70749D01*
Y77414D02*
X-109499Y78747D01*
Y81413D01*
X-108166Y82746D01*
X-102834D01*
X-101501Y81413D01*
Y78747D01*
X-102834Y77414D01*
X-108166D01*
X-140663Y99749D02*
X-135332D01*
X-137997D01*
Y91751D01*
X-132666D02*
Y99749D01*
X-128667D01*
X-127334Y98416D01*
Y95750D01*
X-128667Y94417D01*
X-132666D01*
X-119337Y99749D02*
X-122003Y98416D01*
X-124668Y95750D01*
Y93084D01*
X-123336Y91751D01*
X-120670D01*
X-119337Y93084D01*
Y94417D01*
X-120670Y95750D01*
X-124668D01*
X-37333Y-53501D02*
X-39999D01*
X-38666D01*
Y-60166D01*
X-39999Y-61499D01*
X-41332D01*
X-42664Y-60166D01*
X-29335Y-61499D02*
X-34667D01*
X-29335Y-56167D01*
Y-54834D01*
X-30668Y-53501D01*
X-33334D01*
X-34667Y-54834D01*
X43000Y59249D02*
X40334D01*
X41667D01*
Y52584D01*
X40334Y51251D01*
X39001D01*
X37668Y52584D01*
X45666Y51251D02*
X48332D01*
X46999D01*
Y59249D01*
X45666Y57916D01*
X-288749Y23253D02*
X-282084D01*
X-280751Y24586D01*
Y27252D01*
X-282084Y28585D01*
X-288749D01*
X-280751Y31251D02*
Y33916D01*
Y32584D01*
X-288749D01*
X-287416Y31251D01*
X-280751Y41914D02*
X-288749D01*
X-284750Y37915D01*
Y43247D01*
X-4144Y59405D02*
Y52740D01*
X-2811Y51407D01*
X-145D01*
X1188Y52740D01*
Y59405D01*
X3854Y51407D02*
X6519D01*
X5186D01*
Y59405D01*
X3854Y58072D01*
X10518Y51407D02*
X13184D01*
X11851D01*
Y59405D01*
X10518Y58072D01*
X-233249Y45585D02*
X-231916D01*
X-229250Y48251D01*
X-231916Y50917D01*
X-233249D01*
X-229250Y48251D02*
X-225251D01*
Y58914D02*
Y53583D01*
X-230583Y58914D01*
X-231916D01*
X-233249Y57582D01*
Y54916D01*
X-231916Y53583D01*
X-172082Y42749D02*
Y41416D01*
X-169416Y38750D01*
X-166750Y41416D01*
Y42749D01*
X-169416Y38750D02*
Y34751D01*
X-164084D02*
X-161418D01*
X-162751D01*
Y42749D01*
X-164084Y41416D01*
X-436665Y7999D02*
X-431333Y1D01*
Y7999D02*
X-436665Y1D01*
X-428667Y6666D02*
X-427334Y7999D01*
X-424668D01*
X-423335Y6666D01*
Y5333D01*
X-424668Y4000D01*
X-423335Y2667D01*
Y1334D01*
X-424668Y1D01*
X-427334D01*
X-428667Y1334D01*
Y2667D01*
X-427334Y4000D01*
X-428667Y5333D01*
Y6666D01*
X-427334Y4000D02*
X-424668D01*
X-436665Y-52001D02*
X-431333Y-59999D01*
Y-52001D02*
X-436665Y-59999D01*
X-428667Y-52001D02*
X-423335D01*
Y-53334D01*
X-428667Y-58666D01*
Y-59999D01*
X-436665Y-40001D02*
X-431333Y-47999D01*
Y-40001D02*
X-436665Y-47999D01*
X-423335Y-40001D02*
X-426001Y-41334D01*
X-428667Y-44000D01*
Y-46666D01*
X-427334Y-47999D01*
X-424668D01*
X-423335Y-46666D01*
Y-45333D01*
X-424668Y-44000D01*
X-428667D01*
X-435664Y56999D02*
X-430333Y49001D01*
Y56999D02*
X-435664Y49001D01*
X-422336Y56999D02*
X-427667D01*
Y53000D01*
X-425001Y54333D01*
X-423668D01*
X-422336Y53000D01*
Y50334D01*
X-423668Y49001D01*
X-426334D01*
X-427667Y50334D01*
X-343164Y-166501D02*
X-337833Y-174499D01*
Y-166501D02*
X-343164Y-174499D01*
X-331168D02*
Y-166501D01*
X-335167Y-170500D01*
X-329836D01*
X-342915Y-134751D02*
X-337583Y-142749D01*
Y-134751D02*
X-342915Y-142749D01*
X-334917Y-136084D02*
X-333584Y-134751D01*
X-330918D01*
X-329585Y-136084D01*
Y-137417D01*
X-330918Y-138750D01*
X-332251D01*
X-330918D01*
X-329585Y-140083D01*
Y-141416D01*
X-330918Y-142749D01*
X-333584D01*
X-334917Y-141416D01*
X-310665Y65249D02*
X-305333Y57251D01*
Y65249D02*
X-310665Y57251D01*
X-297335D02*
X-302667D01*
X-297335Y62583D01*
Y63916D01*
X-298668Y65249D01*
X-301334D01*
X-302667Y63916D01*
X-364832Y88749D02*
X-359500Y80751D01*
Y88749D02*
X-364832Y80751D01*
X-356834D02*
X-354168D01*
X-355501D01*
Y88749D01*
X-356834Y87416D01*
X-157497Y39999D02*
Y33334D01*
X-156164Y32001D01*
X-153498D01*
X-152165Y33334D01*
Y39999D01*
X-149499Y32001D02*
X-146834D01*
X-148167D01*
Y39999D01*
X-149499Y38666D01*
X-142835D02*
X-141502Y39999D01*
X-138836D01*
X-137503Y38666D01*
Y33334D01*
X-138836Y32001D01*
X-141502D01*
X-142835Y33334D01*
Y38666D01*
X-67115Y-22117D02*
Y-28782D01*
X-65782Y-30115D01*
X-63116D01*
X-61783Y-28782D01*
Y-22117D01*
X-59117Y-28782D02*
X-57784Y-30115D01*
X-55118D01*
X-53786Y-28782D01*
Y-23450D01*
X-55118Y-22117D01*
X-57784D01*
X-59117Y-23450D01*
Y-24783D01*
X-57784Y-26116D01*
X-53786D01*
X-47018Y46642D02*
Y39978D01*
X-45685Y38645D01*
X-43019D01*
X-41686Y39978D01*
Y46642D01*
X-39021Y45310D02*
X-37688Y46642D01*
X-35022D01*
X-33689Y45310D01*
Y43977D01*
X-35022Y42644D01*
X-33689Y41311D01*
Y39978D01*
X-35022Y38645D01*
X-37688D01*
X-39021Y39978D01*
Y41311D01*
X-37688Y42644D01*
X-39021Y43977D01*
Y45310D01*
X-37688Y42644D02*
X-35022D01*
X-310999Y-2165D02*
Y-4831D01*
Y-3498D01*
X-304334D01*
X-303001Y-4831D01*
Y-6164D01*
X-304334Y-7497D01*
X-303001Y501D02*
Y3167D01*
Y1834D01*
X-310999D01*
X-309666Y501D01*
Y7165D02*
X-310999Y8498D01*
Y11164D01*
X-309666Y12497D01*
X-308333D01*
X-307000Y11164D01*
Y9831D01*
Y11164D01*
X-305667Y12497D01*
X-304334D01*
X-303001Y11164D01*
Y8498D01*
X-304334Y7165D01*
X-264332Y-55251D02*
X-266998D01*
X-265665D01*
Y-61916D01*
X-266998Y-63249D01*
X-268331D01*
X-269664Y-61916D01*
X-261667Y-63249D02*
X-259001D01*
X-260333D01*
Y-55251D01*
X-261667Y-56584D01*
X-255002Y-63249D02*
X-252336D01*
X-253669D01*
Y-55251D01*
X-255002Y-56584D01*
X-228165Y-64501D02*
X-230831D01*
X-229498D01*
Y-71166D01*
X-230831Y-72499D01*
X-232164D01*
X-233497Y-71166D01*
X-225499Y-72499D02*
X-222834D01*
X-224167D01*
Y-64501D01*
X-225499Y-65834D01*
X-218835D02*
X-217502Y-64501D01*
X-214836D01*
X-213503Y-65834D01*
Y-71166D01*
X-214836Y-72499D01*
X-217502D01*
X-218835Y-71166D01*
Y-65834D01*
X251167Y-148751D02*
X248501D01*
X249834D01*
Y-155416D01*
X248501Y-156749D01*
X247168D01*
X245835Y-155416D01*
X259165Y-148751D02*
X253833D01*
Y-152750D01*
X256499Y-151417D01*
X257832D01*
X259165Y-152750D01*
Y-155416D01*
X257832Y-156749D01*
X255166D01*
X253833Y-155416D01*
X251167Y153999D02*
X248501D01*
X249834D01*
Y147334D01*
X248501Y146001D01*
X247168D01*
X245835Y147334D01*
X253833Y152666D02*
X255166Y153999D01*
X257832D01*
X259165Y152666D01*
Y151333D01*
X257832Y150000D01*
X256499D01*
X257832D01*
X259165Y148667D01*
Y147334D01*
X257832Y146001D01*
X255166D01*
X253833Y147334D01*
X-292499Y-92415D02*
X-284501D01*
Y-88416D01*
X-285834Y-87083D01*
X-291166D01*
X-292499Y-88416D01*
Y-92415D01*
X-284501Y-79085D02*
Y-84417D01*
X-289833Y-79085D01*
X-291166D01*
X-292499Y-80418D01*
Y-83084D01*
X-291166Y-84417D01*
D17*
X-236000Y76500D02*
Y80500D01*
X-286000Y76500D02*
Y80500D01*
X-268000Y62500D02*
X-254000D01*
X-268000Y94500D02*
X-254000D01*
M02*
