G04*
G04 #@! TF.GenerationSoftware,Altium Limited,Altium Designer,24.6.1 (21)*
G04*
G04 Layer_Color=8388736*
%FSLAX44Y44*%
%MOMM*%
G71*
G04*
G04 #@! TF.SameCoordinates,E18C277C-CF0C-426E-95C7-D1DF2096CF1D*
G04*
G04*
G04 #@! TF.FilePolarity,Negative*
G04*
G01*
G75*
%ADD10C,0.3000*%
%ADD24R,0.5000X0.4000*%
%ADD25R,0.6000X0.2400*%
%ADD26R,0.2400X0.6000*%
%ADD27R,0.4000X0.5000*%
%ADD28R,0.6725X0.7154*%
%ADD29R,0.7154X0.6725*%
%ADD31R,0.7112X3.0988*%
%ADD32R,1.4986X3.0988*%
%ADD33R,0.5725X0.5682*%
%ADD34R,0.5121X0.5811*%
%ADD35R,0.2794X1.4620*%
%ADD36R,1.4620X0.2794*%
%ADD39R,0.5725X0.5654*%
%ADD41R,0.6000X0.4000*%
%ADD42R,0.5000X0.6000*%
%ADD43R,0.6153X0.5725*%
%ADD44R,0.4682X0.4725*%
%ADD45R,0.9000X0.6500*%
%ADD46R,0.4725X0.4682*%
%ADD47R,1.1051X1.0062*%
%ADD48R,0.6500X0.7000*%
%ADD49R,1.0062X1.1051*%
%ADD50R,0.4000X0.6000*%
%ADD51R,0.8000X0.7000*%
%ADD58R,0.5682X0.5725*%
%ADD62R,0.5153X0.4725*%
%ADD66R,0.5000X1.0000*%
%ADD67R,0.9000X0.7500*%
%ADD68R,0.5725X0.6153*%
%ADD69R,0.7500X0.9000*%
%ADD70C,1.9000*%
%ADD71C,0.2700*%
%ADD72C,1.0500*%
%ADD73R,0.5700X0.6100*%
%ADD74R,6.0000X6.0000*%
%ADD75R,0.6600X1.6800*%
%ADD76R,0.1000X0.1000*%
%ADD77R,1.0500X1.2000*%
%ADD78C,0.2760*%
%ADD79R,0.6100X0.5700*%
G04:AMPARAMS|DCode=80|XSize=0.6mm|YSize=0.85mm|CornerRadius=0.0745mm|HoleSize=0mm|Usage=FLASHONLY|Rotation=0.000|XOffset=0mm|YOffset=0mm|HoleType=Round|Shape=RoundedRectangle|*
%AMROUNDEDRECTD80*
21,1,0.6000,0.7010,0,0,0.0*
21,1,0.4510,0.8500,0,0,0.0*
1,1,0.1490,0.2255,-0.3505*
1,1,0.1490,-0.2255,-0.3505*
1,1,0.1490,-0.2255,0.3505*
1,1,0.1490,0.2255,0.3505*
%
%ADD80ROUNDEDRECTD80*%
%ADD81R,0.7000X0.7000*%
%ADD82R,1.0500X0.9500*%
%ADD83R,1.6500X1.3000*%
%ADD84R,0.6500X0.6000*%
%ADD85R,1.0000X1.0500*%
%ADD86R,1.0500X2.2000*%
%ADD87R,0.2000X0.7000*%
%ADD88R,0.7500X0.4500*%
%ADD89R,0.3000X0.4500*%
%ADD90O,0.6300X0.3500*%
%ADD91O,0.4000X0.6800*%
%ADD92O,0.6300X0.3000*%
%ADD93R,0.5000X1.2500*%
%ADD94R,3.1500X2.6500*%
%ADD95R,0.6000X0.6500*%
%ADD96C,5.0500*%
%ADD97C,0.8500*%
%ADD98R,1.5700X1.5700*%
%ADD99C,1.5700*%
%ADD100R,1.5700X1.5700*%
%ADD101C,0.8100*%
G36*
X-244050Y139000D02*
X-255120D01*
X-252420Y150505D01*
X-260100D01*
X-262800Y139000D01*
X-273870D01*
X-268665Y161200D01*
X-278550D01*
X-283770Y139000D01*
X-295500D01*
X-290265Y161200D01*
X-316065D01*
X-316905Y157660D01*
X-300960D01*
X-302655Y150460D01*
X-318585D01*
X-319440Y146800D01*
X-302790D01*
X-304620Y139000D01*
X-333000D01*
X-325950Y169000D01*
X-255765D01*
X-258405Y157705D01*
X-250725D01*
X-248070Y169000D01*
X-237000D01*
X-244050Y139000D01*
D02*
G37*
G36*
X-210600Y149800D02*
X-211155Y147295D01*
X-211560Y147400D01*
X-211860D01*
X-212280Y147220D01*
X-212700Y146920D01*
X-213210Y146410D01*
X-213960Y145420D01*
X-214500Y144400D01*
X-215160Y142780D01*
X-215730Y140935D01*
X-216105Y139240D01*
X-218565D01*
X-216240Y149710D01*
X-213780D01*
X-214425Y146800D01*
X-213960Y147760D01*
X-213480Y148480D01*
X-213060Y148900D01*
X-212580Y149320D01*
X-212220Y149560D01*
X-211680Y149800D01*
X-211320Y149860D01*
X-210960D01*
X-210600Y149800D01*
D02*
G37*
G36*
X-221340Y139240D02*
X-224100D01*
X-223680Y141160D01*
X-224370Y140350D01*
X-225000Y139720D01*
X-225840Y139240D01*
X-226800Y139000D01*
X-227760D01*
X-228240Y139120D01*
X-228840Y139480D01*
X-229320Y139960D01*
X-229560Y140680D01*
X-229680Y141520D01*
X-229635Y142420D01*
X-229200Y144400D01*
X-228045Y149710D01*
X-225375D01*
X-226920Y142780D01*
X-226980Y142360D01*
Y141880D01*
X-226920Y141520D01*
X-226680Y141280D01*
X-226320Y141160D01*
X-225960D01*
X-225480Y141400D01*
X-225000Y141730D01*
X-224400Y142360D01*
X-223800Y143320D01*
X-223200Y144400D01*
X-222690Y145615D01*
X-221790Y149710D01*
X-219015D01*
X-221340Y139240D01*
D02*
G37*
G36*
X-208620D02*
X-211080D01*
X-208755Y149710D01*
X-206295D01*
X-208620Y139240D01*
D02*
G37*
G36*
X-229755Y151840D02*
X-237510Y141730D01*
X-232005D01*
X-232560Y139240D01*
X-241620D01*
X-241275Y140845D01*
X-233550Y150910D01*
X-239040D01*
X-238485Y153400D01*
X-229410D01*
X-229755Y151840D01*
D02*
G37*
G36*
X-197400Y149710D02*
X-196860Y149515D01*
X-197340Y147340D01*
X-197760Y147460D01*
X-198060Y147520D01*
X-198720Y147580D01*
X-199440D01*
X-199920Y147520D01*
X-200400Y147340D01*
X-200880Y147040D01*
X-201420Y146380D01*
X-201780Y145840D01*
X-202080Y145180D01*
X-202320Y144400D01*
X-202440Y143620D01*
Y143080D01*
X-202380Y142660D01*
X-202260Y142240D01*
X-202080Y141880D01*
X-201840Y141640D01*
X-201420Y141400D01*
X-200940Y141280D01*
X-200520D01*
X-199920Y141340D01*
X-199140Y141520D01*
X-198585Y141715D01*
X-198840Y139360D01*
X-199125Y139285D01*
X-199800Y139120D01*
X-200880Y139000D01*
X-201480D01*
X-202680Y139120D01*
X-203220Y139240D01*
X-203760Y139480D01*
X-204240Y139840D01*
X-204600Y140320D01*
X-204900Y140920D01*
X-205080Y141520D01*
X-205200Y142420D01*
Y143440D01*
X-205080Y144220D01*
X-204900Y145000D01*
X-204600Y145840D01*
X-204300Y146560D01*
X-203880Y147280D01*
X-203400Y147880D01*
X-202920Y148360D01*
X-202140Y148960D01*
X-201180Y149440D01*
X-200040Y149710D01*
X-198960Y149800D01*
X-198000D01*
X-197400Y149710D01*
D02*
G37*
G36*
X-192510Y147790D02*
X-191820Y148600D01*
X-191190Y149230D01*
X-190350Y149710D01*
X-189390Y149950D01*
X-188430D01*
X-187950Y149830D01*
X-187350Y149470D01*
X-186870Y148990D01*
X-186630Y148270D01*
X-186510Y147430D01*
X-186555Y146530D01*
X-186990Y144550D01*
X-188145Y139240D01*
X-190815D01*
X-189270Y146170D01*
X-189210Y146590D01*
Y147070D01*
X-189270Y147430D01*
X-189510Y147670D01*
X-189870Y147790D01*
X-190230D01*
X-190710Y147550D01*
X-191190Y147220D01*
X-191790Y146590D01*
X-192390Y145630D01*
X-192990Y144550D01*
X-193500Y143335D01*
X-194400Y139240D01*
X-196860D01*
X-193455Y154615D01*
X-190995D01*
X-192510Y147790D01*
D02*
G37*
G36*
X235200Y119735D02*
X219286D01*
Y180250D01*
X235200D01*
Y119735D01*
D02*
G37*
G36*
X-139200Y119713D02*
X-155436D01*
Y180250D01*
X-139200D01*
Y119713D01*
D02*
G37*
G36*
X235436Y-180250D02*
X219200D01*
Y-119713D01*
X235436D01*
Y-180250D01*
D02*
G37*
G36*
X-139286D02*
X-155200D01*
Y-119735D01*
X-139286D01*
Y-180250D01*
D02*
G37*
D10*
X-207005Y152725D02*
G03*
X-207005Y152725I-10J0D01*
G01*
D24*
X-68500Y47250D02*
D03*
Y55250D02*
D03*
X-87500Y83000D02*
D03*
Y75000D02*
D03*
X-59250Y14000D02*
D03*
Y22000D02*
D03*
X-110750Y6250D02*
D03*
Y14250D02*
D03*
X-177000Y-52000D02*
D03*
Y-60000D02*
D03*
D25*
X-184800Y31709D02*
D03*
Y26708D02*
D03*
Y21707D02*
D03*
Y16706D02*
D03*
Y11704D02*
D03*
Y6703D02*
D03*
Y1702D02*
D03*
Y-3299D02*
D03*
Y-8301D02*
D03*
Y-13302D02*
D03*
Y-18303D02*
D03*
Y-23304D02*
D03*
Y-28306D02*
D03*
Y-33307D02*
D03*
Y-38308D02*
D03*
Y-43309D02*
D03*
X-272800D02*
D03*
Y-38308D02*
D03*
Y-33307D02*
D03*
Y-28306D02*
D03*
Y-23304D02*
D03*
Y-18303D02*
D03*
Y-13302D02*
D03*
Y-8301D02*
D03*
Y-3299D02*
D03*
Y1702D02*
D03*
Y6703D02*
D03*
Y11704D02*
D03*
Y16706D02*
D03*
Y21707D02*
D03*
Y26708D02*
D03*
Y31709D02*
D03*
D26*
X-191300Y-49800D02*
D03*
X-196300D02*
D03*
X-201300D02*
D03*
X-206300D02*
D03*
X-211300D02*
D03*
X-216300D02*
D03*
X-221300D02*
D03*
X-226300D02*
D03*
X-231300D02*
D03*
X-236300D02*
D03*
X-241300D02*
D03*
X-246300D02*
D03*
X-251300D02*
D03*
X-256300D02*
D03*
X-261300D02*
D03*
X-266300D02*
D03*
Y38200D02*
D03*
X-261300D02*
D03*
X-256300D02*
D03*
X-251300D02*
D03*
X-246300D02*
D03*
X-241300D02*
D03*
X-236300D02*
D03*
X-231300D02*
D03*
X-226300D02*
D03*
X-221300D02*
D03*
X-216300D02*
D03*
X-211300D02*
D03*
X-206300D02*
D03*
X-201300D02*
D03*
X-196300D02*
D03*
X-191300D02*
D03*
D27*
X-296000Y21500D02*
D03*
X-304000D02*
D03*
X-57750Y-500D02*
D03*
X-65750D02*
D03*
X-192000Y46500D02*
D03*
X-184000D02*
D03*
D28*
X-207500Y65964D02*
D03*
Y75536D02*
D03*
X-219400Y66014D02*
D03*
Y75586D02*
D03*
D29*
X-209614Y88800D02*
D03*
X-219186D02*
D03*
X-281714Y52250D02*
D03*
X-291286D02*
D03*
X-164464Y86500D02*
D03*
X-174036D02*
D03*
X-142464Y86250D02*
D03*
X-152036D02*
D03*
D31*
X-173000Y61000D02*
D03*
X-143000D02*
D03*
D32*
X-158000D02*
D03*
D33*
X-113250Y94522D02*
D03*
Y85478D02*
D03*
X-94000Y49271D02*
D03*
Y40229D02*
D03*
X-100500Y6271D02*
D03*
Y-2772D02*
D03*
D34*
X-96000Y66155D02*
D03*
Y58845D02*
D03*
D35*
X27940Y42164D02*
D03*
X22860D02*
D03*
X17780D02*
D03*
X12700D02*
D03*
X7620D02*
D03*
X2540D02*
D03*
X-2540D02*
D03*
X-7620D02*
D03*
X-12700D02*
D03*
X-17780D02*
D03*
X-22860D02*
D03*
X-27940D02*
D03*
Y-42164D02*
D03*
X-22860D02*
D03*
X-17780D02*
D03*
X-12700D02*
D03*
X-7620D02*
D03*
X-2540D02*
D03*
X2540D02*
D03*
X7620D02*
D03*
X12700D02*
D03*
X17780D02*
D03*
X22860D02*
D03*
X27940D02*
D03*
D36*
X-42164Y27940D02*
D03*
Y22860D02*
D03*
Y17780D02*
D03*
Y12700D02*
D03*
Y7620D02*
D03*
Y2540D02*
D03*
Y-2540D02*
D03*
Y-7620D02*
D03*
Y-12700D02*
D03*
Y-17780D02*
D03*
Y-22860D02*
D03*
Y-27940D02*
D03*
X42164D02*
D03*
Y-22860D02*
D03*
Y-17780D02*
D03*
Y-12700D02*
D03*
Y-7620D02*
D03*
Y-2540D02*
D03*
Y2540D02*
D03*
Y7620D02*
D03*
Y12700D02*
D03*
Y17780D02*
D03*
Y22860D02*
D03*
Y27940D02*
D03*
D39*
X-96500Y30536D02*
D03*
Y21464D02*
D03*
D41*
X-144500Y12250D02*
D03*
Y21250D02*
D03*
X-286000Y-40000D02*
D03*
Y-31000D02*
D03*
D42*
X-153750Y12500D02*
D03*
Y23500D02*
D03*
X-48000Y-94000D02*
D03*
Y-83000D02*
D03*
D43*
X-172036Y13250D02*
D03*
X-163464D02*
D03*
X-172286Y-8000D02*
D03*
X-163714D02*
D03*
D44*
X-109228Y-3500D02*
D03*
X-117271D02*
D03*
X-65272Y-36000D02*
D03*
X-57228D02*
D03*
X-55022Y-60250D02*
D03*
X-46979D02*
D03*
X-129522Y-27000D02*
D03*
X-121479D02*
D03*
X-116522Y-12000D02*
D03*
X-108478D02*
D03*
X-100772D02*
D03*
X-92729D02*
D03*
D45*
X-65250Y-60250D02*
D03*
Y-74750D02*
D03*
D46*
X-78250Y-95021D02*
D03*
Y-86979D02*
D03*
D47*
X-91244Y-91250D02*
D03*
X-105256D02*
D03*
X-140256Y-77000D02*
D03*
X-126244D02*
D03*
D48*
X-127750Y-92250D02*
D03*
X-141250D02*
D03*
D49*
X-165000Y-91506D02*
D03*
Y-77494D02*
D03*
D50*
X-201250Y-59500D02*
D03*
X-210250D02*
D03*
D51*
X-299750Y-92250D02*
D03*
Y-77250D02*
D03*
D58*
X-139771Y-64000D02*
D03*
X-130729D02*
D03*
D62*
X-47214Y-68750D02*
D03*
X-54786D02*
D03*
D66*
X-219900Y52800D02*
D03*
X-208900D02*
D03*
D67*
X-160000Y-39000D02*
D03*
Y-23500D02*
D03*
D68*
X-171500Y-17964D02*
D03*
Y-26536D02*
D03*
D69*
X-153250Y-9500D02*
D03*
X-137750D02*
D03*
D70*
X329500Y-150000D02*
G03*
X329500Y-150000I-9500J0D01*
G01*
Y150000D02*
G03*
X329500Y150000I-9500J0D01*
G01*
X-370500Y-150000D02*
G03*
X-370500Y-150000I-9500J0D01*
G01*
Y150000D02*
G03*
X-370500Y150000I-9500J0D01*
G01*
D71*
X-221060Y152890D02*
G03*
X-221060Y152890I-10J0D01*
G01*
X-225350D02*
G03*
X-225350Y152890I-10J0D01*
G01*
D72*
X-52000Y92250D02*
D03*
Y76250D02*
D03*
X-81000Y45500D02*
D03*
X-56250Y60750D02*
D03*
X-74472Y68000D02*
D03*
X-305000Y77000D02*
D03*
X-77250Y90500D02*
D03*
X-118000Y67438D02*
D03*
X-100250Y90500D02*
D03*
X-127772Y86250D02*
D03*
D73*
X-131000Y70550D02*
D03*
Y62950D02*
D03*
X-74750Y-550D02*
D03*
Y7050D02*
D03*
X-66000Y-93900D02*
D03*
Y-86100D02*
D03*
X-158000Y-53450D02*
D03*
Y-61050D02*
D03*
X-56750Y-86350D02*
D03*
Y-94150D02*
D03*
X-168000Y-60050D02*
D03*
Y-52450D02*
D03*
D74*
X-228800Y-5800D02*
D03*
D75*
X-130000Y128900D02*
D03*
X-120000D02*
D03*
X-110000D02*
D03*
X-100000D02*
D03*
X-90000D02*
D03*
X-80000D02*
D03*
X-70000D02*
D03*
X-60000D02*
D03*
X-50000D02*
D03*
X-40000D02*
D03*
X-30000D02*
D03*
X-20000D02*
D03*
X-10000D02*
D03*
X0D02*
D03*
X10000D02*
D03*
X20000D02*
D03*
X30000D02*
D03*
X40000D02*
D03*
X50000D02*
D03*
X60000D02*
D03*
X70000D02*
D03*
X80000D02*
D03*
X90000D02*
D03*
X100000D02*
D03*
X110000D02*
D03*
X120000D02*
D03*
X130000D02*
D03*
X140000D02*
D03*
X150000D02*
D03*
X160000D02*
D03*
X170000D02*
D03*
X180000D02*
D03*
X190000D02*
D03*
X200000D02*
D03*
X210000D02*
D03*
X-125000Y171100D02*
D03*
X-115000D02*
D03*
X-105000D02*
D03*
X-95000D02*
D03*
X-85000D02*
D03*
X-75000D02*
D03*
X-65000D02*
D03*
X-55000D02*
D03*
X-45000D02*
D03*
X-35000D02*
D03*
X-25000D02*
D03*
X-15000D02*
D03*
X-5000D02*
D03*
X5000D02*
D03*
X15000D02*
D03*
X25000D02*
D03*
X35000D02*
D03*
X45000D02*
D03*
X55000D02*
D03*
X65000D02*
D03*
X75000D02*
D03*
X85000D02*
D03*
X95000D02*
D03*
X105000D02*
D03*
X115000D02*
D03*
X125000D02*
D03*
X135000D02*
D03*
X145000D02*
D03*
X155000D02*
D03*
X165000D02*
D03*
X175000D02*
D03*
X185000D02*
D03*
X195000D02*
D03*
X205000D02*
D03*
X210000Y-128900D02*
D03*
X200000D02*
D03*
X190000D02*
D03*
X180000D02*
D03*
X170000D02*
D03*
X160000D02*
D03*
X150000D02*
D03*
X140000D02*
D03*
X130000D02*
D03*
X120000D02*
D03*
X110000D02*
D03*
X100000D02*
D03*
X90000D02*
D03*
X80000D02*
D03*
X70000D02*
D03*
X60000D02*
D03*
X50000D02*
D03*
X40000D02*
D03*
X30000D02*
D03*
X20000D02*
D03*
X10000D02*
D03*
X0D02*
D03*
X-10000D02*
D03*
X-20000D02*
D03*
X-30000D02*
D03*
X-40000D02*
D03*
X-50000D02*
D03*
X-60000D02*
D03*
X-70000D02*
D03*
X-80000D02*
D03*
X-90000D02*
D03*
X-100000D02*
D03*
X-110000D02*
D03*
X-120000D02*
D03*
X-130000D02*
D03*
X205000Y-171100D02*
D03*
X195000D02*
D03*
X185000D02*
D03*
X175000D02*
D03*
X165000D02*
D03*
X155000D02*
D03*
X145000D02*
D03*
X135000D02*
D03*
X125000D02*
D03*
X115000D02*
D03*
X105000D02*
D03*
X95000D02*
D03*
X85000D02*
D03*
X75000D02*
D03*
X65000D02*
D03*
X55000D02*
D03*
X45000D02*
D03*
X35000D02*
D03*
X25000D02*
D03*
X15000D02*
D03*
X5000D02*
D03*
X-5000D02*
D03*
X-15000D02*
D03*
X-25000D02*
D03*
X-35000D02*
D03*
X-45000D02*
D03*
X-55000D02*
D03*
X-65000D02*
D03*
X-75000D02*
D03*
X-85000D02*
D03*
X-95000D02*
D03*
X-105000D02*
D03*
X-115000D02*
D03*
X-125000D02*
D03*
D76*
X-151400Y157000D02*
D03*
X225000Y155000D02*
D03*
X231400Y-157000D02*
D03*
X-145000Y-155000D02*
D03*
D77*
X-190500Y68750D02*
D03*
Y92250D02*
D03*
X-143500Y-48500D02*
D03*
Y-25000D02*
D03*
D78*
X-58750Y40750D02*
D03*
X-54750D02*
D03*
X-58750Y36750D02*
D03*
X-54750D02*
D03*
X-85000Y6000D02*
D03*
Y2000D02*
D03*
X-89000Y6000D02*
D03*
Y2000D02*
D03*
D79*
X-68550Y-10000D02*
D03*
X-60950D02*
D03*
X-127800Y13750D02*
D03*
X-120200D02*
D03*
X-304800Y31750D02*
D03*
X-297200D02*
D03*
X-185450Y55500D02*
D03*
X-193050D02*
D03*
D80*
X-109000Y23500D02*
D03*
X-118500D02*
D03*
X-128000D02*
D03*
X-118500Y49000D02*
D03*
X-109000D02*
D03*
X-128000D02*
D03*
D81*
X-300000Y-66250D02*
D03*
X-290000D02*
D03*
D82*
X-306000Y-51500D02*
D03*
Y-35500D02*
D03*
Y-19500D02*
D03*
D83*
X-279500Y89500D02*
D03*
X-242500D02*
D03*
Y67500D02*
D03*
X-279500D02*
D03*
D84*
X-252500Y53250D02*
D03*
X-244000D02*
D03*
D85*
X-260500Y-70750D02*
D03*
X-202000Y-70750D02*
D03*
D86*
X-245750Y-86000D02*
D03*
X-275250D02*
D03*
X-187250Y-86000D02*
D03*
X-216750D02*
D03*
D87*
X-25500Y64600D02*
D03*
X-21500D02*
D03*
X-17500D02*
D03*
X-13500D02*
D03*
X-9500D02*
D03*
X-5500D02*
D03*
X-1500D02*
D03*
X2500D02*
D03*
X6500D02*
D03*
X10500D02*
D03*
X14500D02*
D03*
X18500D02*
D03*
X22500D02*
D03*
X26500D02*
D03*
X30500D02*
D03*
X34500D02*
D03*
X38500D02*
D03*
X42500D02*
D03*
X46500D02*
D03*
X50500D02*
D03*
X-25500Y95400D02*
D03*
X-21500D02*
D03*
X-17500D02*
D03*
X-13500D02*
D03*
X-9500D02*
D03*
X-5500D02*
D03*
X-1500D02*
D03*
X2500D02*
D03*
X6500D02*
D03*
X10500D02*
D03*
X14500D02*
D03*
X18500D02*
D03*
X22500D02*
D03*
X26500D02*
D03*
X30500D02*
D03*
X34500D02*
D03*
X38500D02*
D03*
X42500D02*
D03*
X46500D02*
D03*
X50500D02*
D03*
X-25500Y-95400D02*
D03*
X-21500D02*
D03*
X-17500D02*
D03*
X-13500D02*
D03*
X-9500D02*
D03*
X-5500D02*
D03*
X-1500D02*
D03*
X2500D02*
D03*
X6500D02*
D03*
X10500D02*
D03*
X14500D02*
D03*
X18500D02*
D03*
X22500D02*
D03*
X26500D02*
D03*
X30500D02*
D03*
X34500D02*
D03*
X38500D02*
D03*
X42500D02*
D03*
X46500D02*
D03*
X50500D02*
D03*
X-25500Y-64600D02*
D03*
X-21500D02*
D03*
X-17500D02*
D03*
X-13500D02*
D03*
X-9500D02*
D03*
X-5500D02*
D03*
X-1500D02*
D03*
X2500D02*
D03*
X6500D02*
D03*
X10500D02*
D03*
X14500D02*
D03*
X18500D02*
D03*
X22500D02*
D03*
X26500D02*
D03*
X30500D02*
D03*
X34500D02*
D03*
X38500D02*
D03*
X42500D02*
D03*
X46500D02*
D03*
X50500D02*
D03*
D88*
X-128000Y-41000D02*
D03*
D89*
X-125750Y-48000D02*
D03*
X-130250D02*
D03*
D90*
X-69350Y18250D02*
D03*
X-82150D02*
D03*
X-69350Y28250D02*
D03*
X-82150D02*
D03*
D91*
X-75750Y18900D02*
D03*
Y27600D02*
D03*
D92*
X-69350Y23250D02*
D03*
X-82150D02*
D03*
D93*
X-80250Y-27500D02*
D03*
X-89750D02*
D03*
X-99250D02*
D03*
X-108750D02*
D03*
Y-72500D02*
D03*
X-99250D02*
D03*
X-89750D02*
D03*
X-80250D02*
D03*
D94*
X-94500Y-50000D02*
D03*
D95*
X-175500Y36250D02*
D03*
Y27750D02*
D03*
D96*
X320000Y-150000D02*
D03*
Y150000D02*
D03*
X-380000Y-150000D02*
D03*
Y150000D02*
D03*
D97*
X-275250Y111000D02*
D03*
X-323000Y15250D02*
D03*
Y-1500D02*
D03*
X-253000Y-111000D02*
D03*
X-224500Y-110750D02*
D03*
X-239000Y-111000D02*
D03*
X-243500Y111000D02*
D03*
X-257750D02*
D03*
X30000Y-111000D02*
D03*
X-3750D02*
D03*
X30000Y111000D02*
D03*
X13000D02*
D03*
X-4750D02*
D03*
X13000Y-111000D02*
D03*
D98*
X-420200Y-75000D02*
D03*
Y-25000D02*
D03*
Y25000D02*
D03*
Y72500D02*
D03*
X-186500Y-138001D02*
D03*
Y-170001D02*
D03*
D99*
X-394800Y-75000D02*
D03*
Y-25000D02*
D03*
Y25000D02*
D03*
Y72500D02*
D03*
X-360000Y-38100D02*
D03*
X-360000Y-12700D02*
D03*
Y12700D02*
D03*
Y38100D02*
D03*
Y63500D02*
D03*
X-313500Y-138000D02*
D03*
X-288100D02*
D03*
X-262700D02*
D03*
X-237300D02*
D03*
X-211900Y-138001D02*
D03*
X-313500Y-170000D02*
D03*
X-288100D02*
D03*
X-262700D02*
D03*
X-237300D02*
D03*
X-211900Y-170001D02*
D03*
D100*
X-360000Y-63500D02*
D03*
D101*
X215260Y161000D02*
D03*
X-135260D02*
D03*
Y-161000D02*
D03*
X215260D02*
D03*
M02*
