G04*
G04 #@! TF.GenerationSoftware,Altium Limited,Altium Designer,24.6.1 (21)*
G04*
G04 Layer_Physical_Order=4*
G04 Layer_Color=6736896*
%FSLAX44Y44*%
%MOMM*%
G71*
G04*
G04 #@! TF.SameCoordinates,E18C277C-CF0C-426E-95C7-D1DF2096CF1D*
G04*
G04*
G04 #@! TF.FilePolarity,Positive*
G04*
G01*
G75*
%ADD11C,0.1524*%
%ADD103C,0.2030*%
%ADD105C,0.4000*%
%ADD108C,0.8000*%
%ADD109R,1.5200X1.5200*%
%ADD110C,1.5200*%
%ADD111R,1.5200X1.5200*%
%ADD112C,0.7600*%
%ADD113C,0.4500*%
%ADD114C,3.0000*%
G36*
X59535Y95465D02*
X59269Y95199D01*
X58812Y94097D01*
Y92903D01*
X59269Y91801D01*
X60113Y90957D01*
X61216Y90500D01*
X62409D01*
X63512Y90957D01*
X63777Y91223D01*
X69441Y85559D01*
Y-84059D01*
X61723Y-91777D01*
X61659Y-91750D01*
X60465D01*
X59363Y-92207D01*
X58519Y-93051D01*
X58062Y-94153D01*
Y-95250D01*
X-26500D01*
X-30750Y-91000D01*
Y-84493D01*
X-30457Y-84199D01*
X-30000Y-83097D01*
Y-81903D01*
X-30457Y-80801D01*
X-30750Y-80507D01*
Y-68000D01*
X-27500Y-64750D01*
X46500D01*
X52750Y-58500D01*
Y59750D01*
X37250Y75250D01*
X-32571D01*
X-39000Y81250D01*
X-39000Y96346D01*
X-38524Y96639D01*
X-37000Y95786D01*
Y95653D01*
X-36543Y94551D01*
X-35699Y93707D01*
X-34597Y93250D01*
X-33403D01*
X-32301Y93707D01*
X-31457Y94551D01*
X-31000Y95653D01*
Y96847D01*
X-31457Y97949D01*
X-32301Y98793D01*
X-32742Y98976D01*
X-32439Y100500D01*
X54500D01*
X59535Y95465D01*
D02*
G37*
G36*
X-86715Y94965D02*
X-86543Y94551D01*
X-85699Y93707D01*
X-85285Y93535D01*
X-83000Y91250D01*
X-83000Y75806D01*
X-93253D01*
X-94126Y76679D01*
X-95504Y77250D01*
X-96475D01*
X-97343Y77865D01*
X-97750Y78587D01*
Y79347D01*
X-98207Y80449D01*
X-99051Y81293D01*
X-100153Y81750D01*
X-101347D01*
X-102449Y81293D01*
X-103293Y80449D01*
X-103750Y79347D01*
Y78153D01*
X-103293Y77051D01*
X-102449Y76207D01*
X-101347Y75750D01*
X-101026D01*
X-99978Y74299D01*
X-100000Y74246D01*
Y72754D01*
X-99429Y71376D01*
X-98374Y70321D01*
X-96996Y69750D01*
X-95504D01*
X-94126Y70321D01*
X-93253Y71194D01*
X-82069D01*
X-63099Y52224D01*
Y43177D01*
X-65801Y40475D01*
X-67254D01*
X-68402Y39999D01*
X-68878Y38851D01*
Y38718D01*
X-69168Y38017D01*
X-72840D01*
X-73131Y38718D01*
Y38851D01*
X-73606Y39999D01*
X-74754Y40475D01*
X-76473D01*
X-76910Y40294D01*
X-77374Y40202D01*
X-79900Y38518D01*
X-79968Y38417D01*
X-97185D01*
X-97575Y38849D01*
X-98089Y39835D01*
X-97750Y40653D01*
Y41847D01*
X-98207Y42949D01*
X-99051Y43793D01*
X-100153Y44250D01*
X-101347D01*
X-102449Y43793D01*
X-103293Y42949D01*
X-103750Y41847D01*
Y40653D01*
X-103293Y39551D01*
X-102449Y38707D01*
X-101347Y38250D01*
X-100155D01*
X-100149Y38244D01*
X-99293Y36957D01*
X-110500Y25750D01*
X-116939D01*
X-117242Y27274D01*
X-116801Y27457D01*
X-115957Y28301D01*
X-115500Y29403D01*
Y30597D01*
X-115957Y31699D01*
X-116801Y32543D01*
X-117903Y33000D01*
X-119097D01*
X-120199Y32543D01*
X-121043Y31699D01*
X-121500Y30597D01*
Y29403D01*
X-121043Y28301D01*
X-120199Y27457D01*
X-119758Y27274D01*
X-120061Y25750D01*
X-137250D01*
X-178500Y67000D01*
X-199750D01*
X-203000Y70250D01*
Y80500D01*
X-202250Y81250D01*
X-191250D01*
X-187750Y77750D01*
X-184102D01*
X-184000Y77597D01*
Y76403D01*
X-183543Y75301D01*
X-182699Y74457D01*
X-181597Y74000D01*
X-180403D01*
X-179301Y74457D01*
X-178457Y75301D01*
X-178000Y76403D01*
X-176539Y77750D01*
X-139000D01*
X-137934Y76668D01*
X-137575Y75801D01*
X-136731Y74957D01*
X-135628Y74500D01*
X-134435D01*
X-133332Y74957D01*
X-132488Y75801D01*
X-132031Y76903D01*
Y78097D01*
X-132488Y79199D01*
X-133332Y80043D01*
X-134194Y80400D01*
X-134593Y81329D01*
X-134726Y82024D01*
X-123694Y93056D01*
X-123118Y92941D01*
X-122274Y92097D01*
X-121171Y91641D01*
X-119978D01*
X-118875Y92097D01*
X-118031Y92941D01*
X-117575Y94044D01*
Y95237D01*
X-117566Y95250D01*
X-87000D01*
X-86715Y94965D01*
D02*
G37*
G36*
X-231546Y104713D02*
X-231325Y104381D01*
X-229973Y103025D01*
X-229641Y102803D01*
X-229340Y102539D01*
X-227684Y101579D01*
X-227306Y101450D01*
X-226947Y101273D01*
X-225099Y100774D01*
X-224700Y100748D01*
X-224308Y100669D01*
X-223351Y100667D01*
X-223348Y100668D01*
X-223346Y100667D01*
X-171851Y100667D01*
X-170500Y99316D01*
Y93250D01*
X-172750Y91000D01*
X-224750D01*
X-231750Y84000D01*
X-232000D01*
Y54250D01*
X-235750Y50500D01*
X-240750Y50500D01*
X-244250Y54000D01*
Y73895D01*
X-242726Y74869D01*
X-242488Y74770D01*
X-241294D01*
X-240192Y75227D01*
X-239348Y76071D01*
X-238891Y77173D01*
Y78367D01*
X-239348Y79469D01*
X-240192Y80313D01*
X-241294Y80770D01*
X-242488D01*
X-242726Y80671D01*
X-244250Y81645D01*
Y87500D01*
X-244500D01*
X-248000Y91000D01*
X-252429D01*
X-258055Y89729D01*
X-258457Y90699D01*
X-259301Y91543D01*
X-260403Y92000D01*
X-261597D01*
X-262699Y91543D01*
X-263543Y90699D01*
X-264000Y89597D01*
Y88403D01*
X-264009Y88385D01*
X-286750Y83250D01*
X-289281Y81327D01*
X-289352Y81398D01*
X-290500Y81874D01*
X-295500D01*
X-296648Y81398D01*
X-297150Y80896D01*
X-297174Y80896D01*
X-300284Y77851D01*
X-300585Y49167D01*
X-299454Y48151D01*
X-299293Y46199D01*
X-299750Y45097D01*
Y43903D01*
X-299293Y42801D01*
X-298449Y41957D01*
X-298385Y41930D01*
X-298086Y40157D01*
X-298293Y39949D01*
X-298750Y38847D01*
Y37653D01*
X-298293Y36551D01*
X-297449Y35707D01*
X-296347Y35250D01*
X-295153D01*
X-294051Y35707D01*
X-293207Y36551D01*
X-292750Y37653D01*
Y38847D01*
X-293207Y39949D01*
X-293369Y40112D01*
X-293178Y41956D01*
X-292796Y42165D01*
X-289500Y39202D01*
Y38653D01*
X-289043Y37551D01*
X-288199Y36707D01*
X-287097Y36250D01*
X-286750D01*
Y28537D01*
X-287741Y27522D01*
X-289553Y27178D01*
X-290655Y27635D01*
X-291849D01*
X-292952Y27178D01*
X-293795Y26335D01*
X-294252Y25232D01*
Y24039D01*
X-293795Y22936D01*
X-293203Y22343D01*
X-294398Y21148D01*
X-294719Y20373D01*
X-298500Y16500D01*
X-298569Y12155D01*
X-298729Y11995D01*
X-299186Y10892D01*
Y9699D01*
X-298729Y8596D01*
X-298627Y8494D01*
X-298750Y750D01*
X-298571Y630D01*
Y-221D01*
X-298114Y-1323D01*
X-298462Y-2961D01*
X-299306Y-3805D01*
X-299762Y-4908D01*
Y-6101D01*
X-299306Y-7204D01*
X-298462Y-8048D01*
X-297359Y-8504D01*
X-296166D01*
X-294625Y-9516D01*
X-294398Y-10063D01*
X-294208Y-10253D01*
X-293885Y-11034D01*
Y-11880D01*
X-294208Y-12662D01*
X-294398Y-12852D01*
X-294874Y-14000D01*
Y-17615D01*
X-295722Y-18182D01*
X-296916D01*
X-298018Y-18639D01*
X-298862Y-19483D01*
X-299319Y-20586D01*
Y-21779D01*
X-298862Y-22882D01*
X-298890Y-23563D01*
X-300284Y-24750D01*
X-300625Y-41500D01*
X-299157Y-42752D01*
X-299462Y-43488D01*
Y-44681D01*
X-299005Y-45784D01*
X-298161Y-46628D01*
X-297059Y-47085D01*
X-295865D01*
X-294763Y-46628D01*
X-294694Y-46560D01*
X-282750Y-56750D01*
X-274157Y-56964D01*
X-273000Y-58153D01*
Y-59347D01*
X-272543Y-60449D01*
X-271699Y-61293D01*
X-270597Y-61750D01*
X-269403D01*
X-268301Y-61293D01*
X-267457Y-60449D01*
X-267000Y-59347D01*
Y-58667D01*
X-265883Y-57171D01*
X-254750Y-57448D01*
X-245672Y-51287D01*
X-245598Y-46636D01*
X-245356Y-46494D01*
X-244066Y-46176D01*
X-243500Y-46743D01*
X-242397Y-47200D01*
X-241203D01*
X-240101Y-46743D01*
X-239257Y-45899D01*
X-238800Y-44797D01*
Y-43958D01*
X-238741Y-43552D01*
X-237587Y-42550D01*
X-237403D01*
X-236301Y-42093D01*
X-235457Y-41249D01*
X-235000Y-40147D01*
Y-38953D01*
X-235457Y-37851D01*
X-236301Y-37007D01*
X-237403Y-36550D01*
X-238597D01*
X-239699Y-37007D01*
X-240543Y-37851D01*
X-241000Y-38953D01*
Y-39792D01*
X-241059Y-40198D01*
X-242213Y-41200D01*
X-242397D01*
X-243500Y-41657D01*
X-244343Y-42501D01*
X-244651Y-43244D01*
X-245795Y-43684D01*
X-246324Y-43727D01*
X-249108Y-40943D01*
Y-34980D01*
X-242026Y-27898D01*
X-240734Y-28761D01*
X-241000Y-29403D01*
Y-30597D01*
X-240543Y-31699D01*
X-239699Y-32543D01*
X-238597Y-33000D01*
X-237403D01*
X-236301Y-32543D01*
X-235457Y-31699D01*
X-235000Y-30597D01*
Y-29403D01*
X-235457Y-28301D01*
X-236301Y-27457D01*
X-237403Y-27000D01*
X-238597D01*
X-239239Y-27266D01*
X-240102Y-25974D01*
X-238878Y-24750D01*
X-235625Y-24750D01*
X-212895D01*
X-212514Y-25670D01*
X-211670Y-26514D01*
X-210567Y-26971D01*
X-209374D01*
X-208271Y-26514D01*
X-207428Y-25670D01*
X-207046Y-24750D01*
X-181437D01*
X-181043Y-25699D01*
X-180199Y-26543D01*
X-179097Y-27000D01*
X-177903D01*
X-176801Y-26543D01*
X-175957Y-25699D01*
X-175564Y-24750D01*
X-167750D01*
X-144000Y-7500D01*
X-88671D01*
X-88410Y-7890D01*
Y-9083D01*
X-87953Y-10186D01*
X-87109Y-11030D01*
X-86007Y-11487D01*
X-84813D01*
X-83711Y-11030D01*
X-82867Y-10186D01*
X-82410Y-9083D01*
Y-7890D01*
X-82150Y-7500D01*
X-80250D01*
Y-8597D01*
X-79793Y-9699D01*
X-78949Y-10543D01*
X-77847Y-11000D01*
X-76653D01*
X-75551Y-10543D01*
X-74707Y-9699D01*
X-74250Y-8597D01*
Y-7500D01*
X-72250D01*
X-71742Y-7250D01*
X-71699Y-7293D01*
X-70597Y-7750D01*
X-69403D01*
X-68301Y-7293D01*
X-67457Y-6449D01*
X-67000Y-5347D01*
Y-4921D01*
X-62687Y-2803D01*
X-56178D01*
X-52062Y-3024D01*
X-50750Y-4335D01*
Y-7500D01*
X-58750Y-15500D01*
X-114750D01*
X-130250Y-31000D01*
X-158750Y-59500D01*
X-176750Y-77500D01*
X-176784D01*
X-177887Y-77957D01*
X-178731Y-78801D01*
X-179188Y-79903D01*
Y-79938D01*
X-193750Y-94500D01*
X-199750D01*
Y-94153D01*
X-200207Y-93051D01*
X-201051Y-92207D01*
X-202153Y-91750D01*
X-203347D01*
X-204449Y-92207D01*
X-205293Y-93051D01*
X-205750Y-94153D01*
Y-94500D01*
X-249136D01*
Y-93987D01*
X-249593Y-92884D01*
X-250436Y-92040D01*
X-251539Y-91583D01*
X-252733D01*
X-253835Y-92040D01*
X-254679Y-92884D01*
X-255136Y-93987D01*
Y-94500D01*
X-259146D01*
X-259750Y-93597D01*
Y-92403D01*
X-260207Y-91301D01*
X-261051Y-90457D01*
X-262153Y-90000D01*
X-263347D01*
X-264449Y-90457D01*
X-265293Y-91301D01*
X-265750Y-92403D01*
Y-93597D01*
X-266353Y-94500D01*
X-283682D01*
X-284750Y-93097D01*
Y-91903D01*
X-285207Y-90801D01*
X-286051Y-89957D01*
X-287153Y-89500D01*
X-288347D01*
X-289449Y-89957D01*
X-290293Y-90801D01*
X-290750Y-91903D01*
Y-93097D01*
X-291818Y-94500D01*
X-313941D01*
Y-18862D01*
X-313941Y-18861D01*
X-313941Y-18861D01*
X-313941Y-18861D01*
X-313941Y-18597D01*
Y-17667D01*
X-313941Y-17667D01*
X-313941Y-16750D01*
X-314052Y-16195D01*
X-314174Y-15580D01*
X-314174Y-15579D01*
X-314174Y-15579D01*
X-314482Y-15118D01*
X-314837Y-14587D01*
X-314837Y-14587D01*
X-314837Y-14587D01*
X-315014Y-14469D01*
X-315087Y-14292D01*
X-315750Y-13299D01*
X-316250Y-12800D01*
Y27244D01*
X-315613Y28198D01*
X-314704Y30392D01*
X-314471Y31562D01*
Y32599D01*
X-314441Y32750D01*
X-314441Y44943D01*
X-314590Y45692D01*
X-313230Y46488D01*
X-312699Y45957D01*
X-311597Y45500D01*
X-310403D01*
X-309301Y45957D01*
X-308457Y46801D01*
X-308000Y47903D01*
Y49097D01*
X-308457Y50199D01*
X-309301Y51043D01*
X-310403Y51500D01*
X-311597D01*
X-312699Y51043D01*
X-313543Y50199D01*
X-314000Y49097D01*
X-315524Y48608D01*
X-316250Y49374D01*
Y58496D01*
X-315614Y59448D01*
X-314705Y61642D01*
X-314472Y62813D01*
Y63844D01*
X-314441Y64000D01*
Y89288D01*
X-314245Y90731D01*
X-314244D01*
Y90731D01*
X-313000Y90903D01*
X-312902Y90667D01*
X-312543Y89801D01*
X-311699Y88957D01*
X-310597Y88500D01*
X-309403D01*
X-308301Y88957D01*
X-307457Y89801D01*
X-307000Y90903D01*
Y92097D01*
X-307457Y93199D01*
X-308301Y94043D01*
X-309403Y94500D01*
X-310597D01*
X-311699Y94043D01*
X-312543Y93199D01*
X-312902Y92333D01*
X-313000Y92097D01*
X-314244Y92269D01*
Y92269D01*
X-314245Y92269D01*
X-314441Y93712D01*
Y101941D01*
X-290807D01*
X-289636Y102174D01*
X-287431Y103088D01*
X-286438Y103750D01*
X-285439Y104750D01*
X-231578D01*
X-231546Y104713D01*
D02*
G37*
G36*
X-53000Y67000D02*
X-50000Y64000D01*
Y53905D01*
X-51500Y53847D01*
X-51610Y54113D01*
X-51957Y54949D01*
X-52801Y55793D01*
X-53903Y56250D01*
X-55097D01*
X-56199Y55793D01*
X-57043Y54949D01*
X-57500Y53847D01*
Y52653D01*
X-57043Y51551D01*
X-56199Y50707D01*
X-55097Y50250D01*
X-53903D01*
X-52801Y50707D01*
X-51957Y51551D01*
X-51610Y52386D01*
X-51500Y52653D01*
X-50000Y52595D01*
Y40000D01*
X-62500Y27500D01*
X-76000D01*
X-79000Y30500D01*
Y37167D01*
X-76473Y38851D01*
X-74754D01*
Y38395D01*
X-74183Y37017D01*
X-73128Y35962D01*
X-71750Y35391D01*
X-70258D01*
X-68880Y35962D01*
X-67825Y37017D01*
X-67254Y38395D01*
Y38851D01*
X-65129D01*
X-61476Y42504D01*
Y53476D01*
X-77786Y69786D01*
X-77203Y71194D01*
X-70680D01*
X-70188Y70702D01*
X-68810Y70131D01*
X-67318D01*
X-65940Y70702D01*
X-64885Y71757D01*
X-64314Y73135D01*
Y74627D01*
X-64885Y76005D01*
X-65940Y77060D01*
X-67318Y77631D01*
X-68810D01*
X-70188Y77060D01*
X-71243Y76005D01*
X-71325Y75806D01*
X-80000D01*
Y82000D01*
X-77000Y85000D01*
X-71000D01*
X-53000Y67000D01*
D02*
G37*
G36*
X-218000Y80250D02*
Y20250D01*
X-233101Y5149D01*
X-233496D01*
X-234598Y4692D01*
X-235442Y3848D01*
X-235899Y2746D01*
Y2351D01*
X-247750Y-9500D01*
X-259000Y-9500D01*
X-265700Y-2800D01*
Y1300D01*
X-264500Y2500D01*
X-263708D01*
X-263147Y2267D01*
X-261953D01*
X-261392Y2500D01*
X-259830D01*
X-258762Y1097D01*
Y-97D01*
X-258305Y-1199D01*
X-257461Y-2043D01*
X-256359Y-2500D01*
X-255165D01*
X-254063Y-2043D01*
X-253219Y-1199D01*
X-252762Y-97D01*
Y1097D01*
X-251694Y2500D01*
X-251000D01*
X-242949Y10552D01*
X-242587Y10190D01*
X-241484Y9733D01*
X-240291D01*
X-239188Y10190D01*
X-238344Y11034D01*
X-237888Y12136D01*
Y13330D01*
X-238344Y14432D01*
X-238706Y14794D01*
X-228750Y24750D01*
X-228750Y61750D01*
X-230000Y63000D01*
Y81000D01*
X-227250Y83750D01*
X-221000D01*
X-218000Y80250D01*
D02*
G37*
G36*
X-286000Y75750D02*
Y55500D01*
X-268500Y38000D01*
Y18500D01*
X-278282Y8718D01*
X-278267Y5733D01*
X-280750Y3250D01*
X-284750D01*
X-287000Y5500D01*
Y8750D01*
X-277750Y18000D01*
Y34500D01*
X-283785Y40535D01*
X-283957Y40949D01*
X-284801Y41793D01*
X-285215Y41965D01*
X-298500Y55250D01*
Y77250D01*
X-295500Y80250D01*
X-290500D01*
X-286000Y75750D01*
D02*
G37*
G36*
X-264249Y12689D02*
X-263719Y12469D01*
X-263000Y11750D01*
Y8750D01*
X-263720Y8030D01*
X-264249Y7811D01*
X-265093Y6967D01*
X-265312Y6438D01*
X-266684Y5066D01*
Y2612D01*
X-266848Y2448D01*
X-267323Y1300D01*
Y-2800D01*
X-266848Y-3948D01*
X-266684Y-4112D01*
Y-7316D01*
X-261750Y-12250D01*
X-233500Y-12250D01*
X-211500Y9750D01*
X-208687D01*
X-208250Y9097D01*
Y7903D01*
X-207793Y6801D01*
X-206949Y5957D01*
X-205847Y5500D01*
X-204653D01*
X-203551Y5957D01*
X-202707Y6801D01*
X-202250Y7903D01*
Y9097D01*
X-201814Y9750D01*
X-86750D01*
X-77500Y500D01*
Y-4635D01*
X-80312Y-5500D01*
X-84781D01*
X-84813Y-5487D01*
X-85176D01*
X-86246Y-4102D01*
X-86250Y-4078D01*
Y-2903D01*
X-86707Y-1801D01*
X-87551Y-957D01*
X-88653Y-500D01*
X-89847D01*
X-90949Y-957D01*
X-91793Y-1801D01*
X-92250Y-2903D01*
Y-4097D01*
X-93318Y-5500D01*
X-208500D01*
X-223000Y-20000D01*
X-245814D01*
X-246250Y-19347D01*
Y-18153D01*
X-246707Y-17051D01*
X-247551Y-16207D01*
X-248653Y-15750D01*
X-249847D01*
X-250949Y-16207D01*
X-251793Y-17051D01*
X-252250Y-18153D01*
Y-19347D01*
X-252687Y-20000D01*
X-272000D01*
X-273481Y-19019D01*
Y11223D01*
X-271454Y13250D01*
X-264811D01*
X-264249Y12689D01*
D02*
G37*
G36*
X-281500Y24152D02*
Y16546D01*
X-288148Y9898D01*
X-288624Y8750D01*
Y5500D01*
X-288250Y4598D01*
Y4500D01*
X-288181Y4431D01*
X-288148Y4352D01*
X-285898Y2102D01*
X-285819Y2069D01*
X-277750Y-6000D01*
Y-18750D01*
X-264500Y-32000D01*
X-255250Y-32000D01*
X-251041Y-36209D01*
X-251041Y-44791D01*
X-254750Y-48500D01*
X-270494D01*
X-293250Y-26261D01*
Y-14000D01*
X-292832Y-13581D01*
X-292261Y-12203D01*
Y-10711D01*
X-292832Y-9333D01*
X-293250Y-8915D01*
Y-1546D01*
X-293028Y-1323D01*
X-292571Y-221D01*
Y973D01*
X-293028Y2075D01*
X-293250Y2298D01*
Y9544D01*
X-293186Y9699D01*
Y10892D01*
X-293250Y11047D01*
Y20000D01*
X-291615Y21635D01*
X-290655D01*
X-289553Y22092D01*
X-288709Y22936D01*
X-288252Y24039D01*
Y24998D01*
X-288250Y25000D01*
X-282597Y25209D01*
X-281500Y24152D01*
D02*
G37*
G36*
X34500Y30000D02*
Y24750D01*
X32000Y22250D01*
X9500D01*
X-9500Y3250D01*
Y-27500D01*
X-53500Y-71500D01*
X-111750Y-71500D01*
X-118000Y-77750D01*
Y-86500D01*
X-116000Y-88500D01*
X-112500D01*
X-109750Y-91250D01*
Y-95250D01*
X-112500Y-98000D01*
Y-98250D01*
X-120750D01*
X-125500Y-93500D01*
Y-71500D01*
X-111500Y-57500D01*
X-93471D01*
X-92949Y-58022D01*
X-91847Y-58478D01*
X-90653D01*
X-89551Y-58022D01*
X-89029Y-57500D01*
X-83471D01*
X-82949Y-58022D01*
X-81847Y-58478D01*
X-80653D01*
X-79551Y-58022D01*
X-79029Y-57500D01*
X-55250D01*
X-47840Y-50090D01*
X-47137Y-50793D01*
X-46034Y-51250D01*
X-44841D01*
X-43738Y-50793D01*
X-42895Y-49949D01*
X-42438Y-48847D01*
Y-47653D01*
X-42895Y-46551D01*
X-43598Y-45848D01*
X-20250Y-22500D01*
Y63D01*
X-19301Y457D01*
X-18457Y1301D01*
X-18000Y2403D01*
Y3597D01*
X-18457Y4699D01*
X-19301Y5543D01*
X-19996Y5831D01*
X-20155Y7344D01*
X5500Y33000D01*
X31500D01*
X34500Y30000D01*
D02*
G37*
G36*
X-71000Y-90000D02*
X-68250Y-92750D01*
Y-97000D01*
X-70000Y-98750D01*
X-74250D01*
X-109549Y-85250D01*
X-114500D01*
X-116250Y-83500D01*
Y-78549D01*
X-113201Y-75500D01*
X-109549D01*
X-71000Y-90000D01*
D02*
G37*
%LPC*%
G36*
X62909Y82750D02*
X61715D01*
X60613Y82293D01*
X59769Y81449D01*
X59312Y80347D01*
Y79153D01*
X59769Y78051D01*
X60613Y77207D01*
X61715Y76750D01*
X62909D01*
X64012Y77207D01*
X64855Y78051D01*
X65312Y79153D01*
Y80347D01*
X64855Y81449D01*
X64012Y82293D01*
X62909Y82750D01*
D02*
G37*
G36*
X63159Y67000D02*
X61965D01*
X60863Y66543D01*
X60019Y65699D01*
X59562Y64597D01*
Y63403D01*
X60019Y62301D01*
X60863Y61457D01*
X61965Y61000D01*
X63159D01*
X64262Y61457D01*
X65106Y62301D01*
X65562Y63403D01*
Y64597D01*
X65106Y65699D01*
X64262Y66543D01*
X63159Y67000D01*
D02*
G37*
G36*
Y53250D02*
X61965D01*
X60863Y52793D01*
X60019Y51949D01*
X59562Y50847D01*
Y49653D01*
X60019Y48551D01*
X60863Y47707D01*
X61965Y47250D01*
X63159D01*
X64262Y47707D01*
X65106Y48551D01*
X65562Y49653D01*
Y50847D01*
X65106Y51949D01*
X64262Y52793D01*
X63159Y53250D01*
D02*
G37*
G36*
X65159Y6500D02*
X63966D01*
X62863Y6043D01*
X62019Y5199D01*
X61562Y4097D01*
Y2903D01*
X62019Y1801D01*
X62863Y957D01*
X63966Y500D01*
X65159D01*
X66262Y957D01*
X67105Y1801D01*
X67562Y2903D01*
Y4097D01*
X67105Y5199D01*
X66262Y6043D01*
X65159Y6500D01*
D02*
G37*
G36*
X62409Y-44500D02*
X61216D01*
X60113Y-44957D01*
X59269Y-45801D01*
X58812Y-46903D01*
Y-48097D01*
X59269Y-49199D01*
X60113Y-50043D01*
X61216Y-50500D01*
X62409D01*
X63512Y-50043D01*
X64356Y-49199D01*
X64812Y-48097D01*
Y-46903D01*
X64356Y-45801D01*
X63512Y-44957D01*
X62409Y-44500D01*
D02*
G37*
G36*
X62909Y-58500D02*
X61715D01*
X60613Y-58957D01*
X59769Y-59801D01*
X59312Y-60903D01*
Y-62097D01*
X59769Y-63199D01*
X60613Y-64043D01*
X61715Y-64500D01*
X62909D01*
X64012Y-64043D01*
X64855Y-63199D01*
X65312Y-62097D01*
Y-60903D01*
X64855Y-59801D01*
X64012Y-58957D01*
X62909Y-58500D01*
D02*
G37*
G36*
X-99653Y93500D02*
X-100847D01*
X-101949Y93043D01*
X-102793Y92199D01*
X-103250Y91097D01*
Y89903D01*
X-102793Y88801D01*
X-101949Y87957D01*
X-100847Y87500D01*
X-99653D01*
X-98551Y87957D01*
X-97707Y88801D01*
X-97250Y89903D01*
Y91097D01*
X-97707Y92199D01*
X-98551Y93043D01*
X-99653Y93500D01*
D02*
G37*
G36*
X-113826Y78423D02*
X-115019D01*
X-116122Y77966D01*
X-116680Y77408D01*
X-117151Y77141D01*
X-118548Y77285D01*
X-118795Y77533D01*
X-119898Y77989D01*
X-121091D01*
X-122194Y77533D01*
X-123038Y76689D01*
X-123494Y75586D01*
Y74393D01*
X-123038Y73290D01*
X-122194Y72446D01*
X-121091Y71989D01*
X-119898D01*
X-118795Y72446D01*
X-118237Y73004D01*
X-117766Y73271D01*
X-116369Y73127D01*
X-116122Y72880D01*
X-115019Y72423D01*
X-113826D01*
X-112723Y72880D01*
X-111879Y73724D01*
X-111423Y74826D01*
Y76020D01*
X-111879Y77122D01*
X-112723Y77966D01*
X-113826Y78423D01*
D02*
G37*
G36*
X-129853Y61100D02*
X-131047D01*
X-132149Y60643D01*
X-132993Y59799D01*
X-133450Y58697D01*
Y57503D01*
X-132993Y56401D01*
X-132149Y55557D01*
X-131047Y55100D01*
X-129853D01*
X-128751Y55557D01*
X-127907Y56401D01*
X-127450Y57503D01*
Y58697D01*
X-127907Y59799D01*
X-128751Y60643D01*
X-129853Y61100D01*
D02*
G37*
G36*
X-118176Y60820D02*
X-119369D01*
X-120472Y60363D01*
X-121316Y59519D01*
X-121773Y58417D01*
Y57223D01*
X-121316Y56120D01*
X-120472Y55276D01*
X-119369Y54820D01*
X-118176D01*
X-117073Y55276D01*
X-116229Y56120D01*
X-115773Y57223D01*
Y58417D01*
X-116229Y59519D01*
X-117073Y60363D01*
X-118176Y60820D01*
D02*
G37*
G36*
X-85460Y63306D02*
X-86653D01*
X-87756Y62850D01*
X-88600Y62006D01*
X-89057Y60903D01*
Y59710D01*
X-88600Y58607D01*
X-88437Y58444D01*
X-88109Y57166D01*
X-88496Y56512D01*
X-88898Y56109D01*
X-89355Y55007D01*
Y53813D01*
X-88898Y52710D01*
X-88055Y51867D01*
X-86952Y51410D01*
X-85758D01*
X-84656Y51867D01*
X-84148Y52374D01*
X-83094Y52526D01*
X-82321Y52328D01*
X-81748Y51755D01*
X-80645Y51298D01*
X-79451D01*
X-78349Y51755D01*
X-77505Y52599D01*
X-77048Y53701D01*
Y54895D01*
X-77505Y55997D01*
X-77782Y56274D01*
X-78179Y57265D01*
X-77782Y58256D01*
X-77505Y58532D01*
X-77048Y59635D01*
Y60828D01*
X-77505Y61931D01*
X-78349Y62775D01*
X-79451Y63232D01*
X-80645D01*
X-81748Y62775D01*
X-82055Y62467D01*
X-83102Y62136D01*
X-84006Y62498D01*
X-84357Y62850D01*
X-85460Y63306D01*
D02*
G37*
G36*
X-121403Y45798D02*
X-122597D01*
X-123699Y45342D01*
X-124543Y44498D01*
X-125000Y43395D01*
Y42202D01*
X-124543Y41099D01*
X-123699Y40255D01*
X-122597Y39798D01*
X-121403D01*
X-120301Y40255D01*
X-119457Y41099D01*
X-119359Y41336D01*
X-117728Y41291D01*
X-117494Y40726D01*
X-116650Y39882D01*
X-115548Y39426D01*
X-114354D01*
X-113251Y39882D01*
X-112408Y40726D01*
X-111951Y41829D01*
Y43022D01*
X-112408Y44125D01*
X-113251Y44969D01*
X-114354Y45426D01*
X-115548D01*
X-116650Y44969D01*
X-117494Y44125D01*
X-117592Y43889D01*
X-119223Y43933D01*
X-119457Y44498D01*
X-120301Y45342D01*
X-121403Y45798D01*
D02*
G37*
G36*
X-131602Y41058D02*
X-132796D01*
X-133898Y40601D01*
X-134742Y39757D01*
X-135199Y38654D01*
Y37461D01*
X-134742Y36358D01*
X-133898Y35515D01*
X-132796Y35058D01*
X-131602D01*
X-130499Y35515D01*
X-129656Y36358D01*
X-129199Y37461D01*
Y38654D01*
X-129656Y39757D01*
X-130499Y40601D01*
X-131602Y41058D01*
D02*
G37*
G36*
X-255903Y101750D02*
X-257097D01*
X-258199Y101293D01*
X-259043Y100449D01*
X-259500Y99347D01*
Y98153D01*
X-259043Y97051D01*
X-258199Y96207D01*
X-257097Y95750D01*
X-255903D01*
X-254801Y96207D01*
X-253957Y97051D01*
X-253500Y98153D01*
Y99347D01*
X-253957Y100449D01*
X-254801Y101293D01*
X-255903Y101750D01*
D02*
G37*
G36*
X-218403Y99000D02*
X-219597D01*
X-220699Y98543D01*
X-221543Y97699D01*
X-222000Y96597D01*
Y95403D01*
X-221543Y94301D01*
X-220699Y93457D01*
X-219597Y93000D01*
X-218403D01*
X-217301Y93457D01*
X-216457Y94301D01*
X-216000Y95403D01*
Y96597D01*
X-216457Y97699D01*
X-217301Y98543D01*
X-218403Y99000D01*
D02*
G37*
G36*
X-308653Y66500D02*
X-309847D01*
X-310949Y66043D01*
X-311793Y65199D01*
X-312250Y64097D01*
Y62903D01*
X-311793Y61801D01*
X-310949Y60957D01*
X-309847Y60500D01*
X-308653D01*
X-307551Y60957D01*
X-306707Y61801D01*
X-306250Y62903D01*
Y64097D01*
X-306707Y65199D01*
X-307551Y66043D01*
X-308653Y66500D01*
D02*
G37*
G36*
X-128653Y-18250D02*
X-129847D01*
X-130949Y-18707D01*
X-131793Y-19551D01*
X-132250Y-20653D01*
Y-21847D01*
X-131793Y-22949D01*
X-130949Y-23793D01*
X-129847Y-24250D01*
X-128653D01*
X-127551Y-23793D01*
X-126707Y-22949D01*
X-126250Y-21847D01*
Y-20653D01*
X-126707Y-19551D01*
X-127551Y-18707D01*
X-128653Y-18250D01*
D02*
G37*
G36*
X-152903Y-30000D02*
X-154097D01*
X-155199Y-30457D01*
X-156043Y-31301D01*
X-156500Y-32403D01*
Y-33597D01*
X-156043Y-34699D01*
X-155199Y-35543D01*
X-155135Y-35570D01*
X-154836Y-37343D01*
X-155043Y-37551D01*
X-155500Y-38653D01*
Y-39847D01*
X-155043Y-40949D01*
X-154199Y-41793D01*
X-153097Y-42250D01*
X-151903D01*
X-150801Y-41793D01*
X-149957Y-40949D01*
X-149500Y-39847D01*
Y-38653D01*
X-149957Y-37551D01*
X-150801Y-36707D01*
X-150865Y-36680D01*
X-151164Y-34907D01*
X-150957Y-34699D01*
X-150500Y-33597D01*
Y-32403D01*
X-150957Y-31301D01*
X-151801Y-30457D01*
X-152903Y-30000D01*
D02*
G37*
G36*
X-171653Y-31250D02*
X-172847D01*
X-173949Y-31707D01*
X-174793Y-32551D01*
X-175250Y-33653D01*
Y-34847D01*
X-174793Y-35949D01*
X-173988Y-36754D01*
X-173947Y-36818D01*
X-173763Y-38520D01*
X-174043Y-38801D01*
X-174500Y-39903D01*
Y-41097D01*
X-174043Y-42199D01*
X-173199Y-43043D01*
X-172097Y-43500D01*
X-170903D01*
X-169801Y-43043D01*
X-168957Y-42199D01*
X-168500Y-41097D01*
Y-39903D01*
X-168957Y-38801D01*
X-169762Y-37996D01*
X-169803Y-37932D01*
X-169987Y-36230D01*
X-169707Y-35949D01*
X-169250Y-34847D01*
Y-33653D01*
X-169707Y-32551D01*
X-170551Y-31707D01*
X-171653Y-31250D01*
D02*
G37*
G36*
X-227429Y-39449D02*
X-228623D01*
X-229725Y-39906D01*
X-230569Y-40750D01*
X-231026Y-41852D01*
Y-43046D01*
X-230569Y-44149D01*
X-229725Y-44992D01*
X-228623Y-45449D01*
X-227429D01*
X-226327Y-44992D01*
X-225483Y-44149D01*
X-225026Y-43046D01*
Y-41852D01*
X-225483Y-40750D01*
X-226327Y-39906D01*
X-227429Y-39449D01*
D02*
G37*
G36*
X-209484Y-36550D02*
X-210678D01*
X-211780Y-37007D01*
X-212624Y-37851D01*
X-213081Y-38953D01*
Y-40147D01*
X-212624Y-41249D01*
X-211780Y-42093D01*
X-210678Y-42550D01*
X-209484D01*
X-209226Y-42443D01*
X-207884Y-42762D01*
X-207515Y-43258D01*
X-207246Y-43908D01*
X-206402Y-44752D01*
X-205299Y-45209D01*
X-204105D01*
X-203003Y-44752D01*
X-202420Y-44169D01*
X-201984Y-43922D01*
X-200562Y-44036D01*
X-200305Y-44293D01*
X-199202Y-44750D01*
X-198009D01*
X-196906Y-44293D01*
X-195293Y-44758D01*
X-194449Y-45602D01*
X-193347Y-46058D01*
X-192153D01*
X-191051Y-45602D01*
X-190207Y-44758D01*
X-189750Y-43655D01*
Y-42462D01*
X-190207Y-41359D01*
X-191051Y-40515D01*
X-192153Y-40058D01*
X-193347D01*
X-194449Y-40515D01*
X-196062Y-40051D01*
X-196906Y-39207D01*
X-198009Y-38750D01*
X-199202D01*
X-200305Y-39207D01*
X-200888Y-39790D01*
X-201324Y-40037D01*
X-202746Y-39923D01*
X-203003Y-39666D01*
X-204105Y-39209D01*
X-205299D01*
X-205557Y-39316D01*
X-206900Y-38996D01*
X-207268Y-38501D01*
X-207538Y-37851D01*
X-208382Y-37007D01*
X-209484Y-36550D01*
D02*
G37*
G36*
X-192653Y-54250D02*
X-193847D01*
X-194949Y-54707D01*
X-195793Y-55551D01*
X-196250Y-56653D01*
Y-57847D01*
X-195793Y-58949D01*
X-194949Y-59793D01*
X-193847Y-60250D01*
X-192653D01*
X-191551Y-59793D01*
X-190707Y-58949D01*
X-190250Y-57847D01*
Y-56653D01*
X-190707Y-55551D01*
X-191551Y-54707D01*
X-192653Y-54250D01*
D02*
G37*
G36*
X-184591Y-59000D02*
X-185784D01*
X-186887Y-59457D01*
X-187731Y-60301D01*
X-188188Y-61403D01*
Y-62597D01*
X-187731Y-63699D01*
X-186887Y-64543D01*
X-185784Y-65000D01*
X-184591D01*
X-183488Y-64543D01*
X-182645Y-63699D01*
X-182188Y-62597D01*
Y-61403D01*
X-182645Y-60301D01*
X-183488Y-59457D01*
X-184591Y-59000D01*
D02*
G37*
G36*
X-210153Y-64750D02*
X-211347D01*
X-212449Y-65207D01*
X-213293Y-66051D01*
X-213372Y-66241D01*
X-214690Y-66940D01*
X-215143Y-66838D01*
X-215883Y-66531D01*
X-217076D01*
X-218179Y-66988D01*
X-219023Y-67832D01*
X-219480Y-68935D01*
Y-70128D01*
X-219023Y-71231D01*
X-218179Y-72075D01*
X-217076Y-72531D01*
X-215883D01*
X-214780Y-72075D01*
X-213936Y-71231D01*
X-213857Y-71041D01*
X-212539Y-70341D01*
X-212086Y-70444D01*
X-211347Y-70750D01*
X-210153D01*
X-209051Y-70293D01*
X-208207Y-69449D01*
X-207750Y-68347D01*
Y-67153D01*
X-208207Y-66051D01*
X-209051Y-65207D01*
X-210153Y-64750D01*
D02*
G37*
G36*
X-238933Y-61190D02*
X-240127D01*
X-241229Y-61647D01*
X-242073Y-62491D01*
X-242530Y-63593D01*
Y-64787D01*
X-242073Y-65889D01*
X-241229Y-66733D01*
X-240127Y-67190D01*
X-238933D01*
X-237831Y-66733D01*
X-236987Y-65889D01*
X-236530Y-64787D01*
Y-63593D01*
X-236987Y-62491D01*
X-237831Y-61647D01*
X-238933Y-61190D01*
D02*
G37*
G36*
X-229155Y-52833D02*
X-230348D01*
X-231451Y-53289D01*
X-232295Y-54133D01*
X-232751Y-55236D01*
Y-56430D01*
X-232295Y-57532D01*
X-231559Y-58268D01*
X-231452Y-58725D01*
X-231458Y-60022D01*
X-232052Y-60616D01*
X-232509Y-61719D01*
Y-62912D01*
X-232052Y-64015D01*
X-231208Y-64859D01*
X-230106Y-65316D01*
X-229724D01*
X-228647Y-66231D01*
X-228503Y-66724D01*
Y-67546D01*
X-228047Y-68649D01*
X-227203Y-69493D01*
X-226100Y-69949D01*
X-224907D01*
X-223804Y-69493D01*
X-222960Y-68649D01*
X-222504Y-67546D01*
Y-66352D01*
X-222960Y-65250D01*
X-223804Y-64406D01*
X-224907Y-63949D01*
X-225365Y-62457D01*
X-225346Y-61901D01*
X-225081Y-61705D01*
X-224994Y-61704D01*
X-223886D01*
X-223529Y-61556D01*
X-222783Y-61247D01*
X-221940Y-60403D01*
X-221483Y-59300D01*
Y-58107D01*
X-221940Y-57004D01*
X-222783Y-56160D01*
X-223886Y-55704D01*
X-225079D01*
X-225227Y-55765D01*
X-226693Y-55256D01*
X-226880Y-54925D01*
X-227208Y-54133D01*
X-228052Y-53289D01*
X-229155Y-52833D01*
D02*
G37*
G36*
X-190153Y-64750D02*
X-191347D01*
X-192449Y-65207D01*
X-193293Y-66051D01*
X-193750Y-67153D01*
Y-68347D01*
X-193293Y-69449D01*
X-192449Y-70293D01*
X-191347Y-70750D01*
X-190153D01*
X-189051Y-70293D01*
X-188207Y-69449D01*
X-187750Y-68347D01*
Y-67153D01*
X-188207Y-66051D01*
X-189051Y-65207D01*
X-190153Y-64750D01*
D02*
G37*
G36*
X-229470Y-73172D02*
X-230664D01*
X-231766Y-73628D01*
X-232610Y-74472D01*
X-233067Y-75575D01*
Y-76768D01*
X-232610Y-77871D01*
X-231766Y-78715D01*
X-230664Y-79172D01*
X-229470D01*
X-228368Y-78715D01*
X-227524Y-77871D01*
X-227067Y-76768D01*
Y-75575D01*
X-227524Y-74472D01*
X-228368Y-73628D01*
X-229470Y-73172D01*
D02*
G37*
G36*
X-287403Y-75750D02*
X-288597D01*
X-289699Y-76207D01*
X-290543Y-77051D01*
X-291000Y-78153D01*
Y-79347D01*
X-290543Y-80449D01*
X-289699Y-81293D01*
X-288597Y-81750D01*
X-287403D01*
X-286301Y-81293D01*
X-285457Y-80449D01*
X-285000Y-79347D01*
Y-78153D01*
X-285457Y-77051D01*
X-286301Y-76207D01*
X-287403Y-75750D01*
D02*
G37*
G36*
X-201903Y-80750D02*
X-203097D01*
X-204199Y-81207D01*
X-205043Y-82051D01*
X-205500Y-83153D01*
Y-84347D01*
X-205043Y-85449D01*
X-204199Y-86293D01*
X-203097Y-86750D01*
X-201903D01*
X-200801Y-86293D01*
X-199957Y-85449D01*
X-199500Y-84347D01*
Y-83153D01*
X-199957Y-82051D01*
X-200801Y-81207D01*
X-201903Y-80750D01*
D02*
G37*
G36*
X-227700Y-84451D02*
X-228893D01*
X-229996Y-84908D01*
X-230840Y-85752D01*
X-231297Y-86854D01*
Y-88048D01*
X-230840Y-89150D01*
X-229996Y-89994D01*
X-228893Y-90451D01*
X-227700D01*
X-226597Y-89994D01*
X-225753Y-89150D01*
X-225296Y-88048D01*
Y-86854D01*
X-225753Y-85752D01*
X-226597Y-84908D01*
X-227700Y-84451D01*
D02*
G37*
G36*
X-122403Y8000D02*
X-123597D01*
X-124699Y7543D01*
X-125543Y6699D01*
X-126000Y5597D01*
Y4403D01*
X-125543Y3301D01*
X-124699Y2457D01*
X-123597Y2000D01*
X-122403D01*
X-121301Y2457D01*
X-119847Y2777D01*
X-119385Y2381D01*
X-118949Y1945D01*
X-117847Y1488D01*
X-116653D01*
X-115551Y1945D01*
X-114707Y2789D01*
X-114250Y3891D01*
Y5085D01*
X-114707Y6187D01*
X-115551Y7031D01*
X-116653Y7488D01*
X-117847D01*
X-118949Y7031D01*
X-120403Y6711D01*
X-120865Y7107D01*
X-121301Y7543D01*
X-122403Y8000D01*
D02*
G37*
G36*
X-136903Y3000D02*
X-138097D01*
X-139199Y2543D01*
X-140043Y1699D01*
X-140500Y597D01*
Y-597D01*
X-140043Y-1699D01*
X-139199Y-2543D01*
X-138097Y-3000D01*
X-136903D01*
X-135801Y-2543D01*
X-134957Y-1699D01*
X-134500Y-597D01*
Y597D01*
X-134957Y1699D01*
X-135801Y2543D01*
X-136903Y3000D01*
D02*
G37*
G36*
X-149403D02*
X-150597D01*
X-151699Y2543D01*
X-152543Y1699D01*
X-153000Y597D01*
Y-597D01*
X-152543Y-1699D01*
X-151699Y-2543D01*
X-150597Y-3000D01*
X-149403D01*
X-148301Y-2543D01*
X-147457Y-1699D01*
X-147000Y-597D01*
Y597D01*
X-147457Y1699D01*
X-148301Y2543D01*
X-149403Y3000D01*
D02*
G37*
G36*
X-161903D02*
X-163097D01*
X-164199Y2543D01*
X-165043Y1699D01*
X-165500Y597D01*
Y-597D01*
X-165043Y-1699D01*
X-164199Y-2543D01*
X-163097Y-3000D01*
X-161903D01*
X-160801Y-2543D01*
X-159957Y-1699D01*
X-159500Y-597D01*
Y597D01*
X-159957Y1699D01*
X-160801Y2543D01*
X-161903Y3000D01*
D02*
G37*
G36*
X-174403D02*
X-175597D01*
X-176699Y2543D01*
X-177543Y1699D01*
X-178000Y597D01*
Y-597D01*
X-177543Y-1699D01*
X-176699Y-2543D01*
X-175597Y-3000D01*
X-174403D01*
X-173301Y-2543D01*
X-172457Y-1699D01*
X-172000Y-597D01*
Y597D01*
X-172457Y1699D01*
X-173301Y2543D01*
X-174403Y3000D01*
D02*
G37*
G36*
X-221369Y-5924D02*
X-222562D01*
X-223665Y-6381D01*
X-224509Y-7225D01*
X-224965Y-8327D01*
Y-9521D01*
X-224509Y-10623D01*
X-223665Y-11467D01*
X-222562Y-11924D01*
X-221369D01*
X-220266Y-11467D01*
X-219422Y-10623D01*
X-218965Y-9521D01*
Y-8327D01*
X-219422Y-7225D01*
X-220266Y-6381D01*
X-221369Y-5924D01*
D02*
G37*
G36*
X-283064Y-6029D02*
X-284258D01*
X-285360Y-6486D01*
X-286204Y-7329D01*
X-286661Y-8432D01*
Y-9626D01*
X-286204Y-10728D01*
X-285907Y-11025D01*
X-285574Y-12088D01*
X-285944Y-12979D01*
X-286294Y-13329D01*
X-286751Y-14431D01*
Y-15625D01*
X-286294Y-16727D01*
X-285944Y-17077D01*
X-285574Y-17968D01*
X-285907Y-19031D01*
X-286204Y-19328D01*
X-286661Y-20431D01*
Y-21624D01*
X-286204Y-22727D01*
X-285360Y-23571D01*
X-284258Y-24028D01*
X-283064D01*
X-281961Y-23571D01*
X-281117Y-22727D01*
X-280661Y-21624D01*
Y-20431D01*
X-281117Y-19328D01*
X-281467Y-18979D01*
X-281837Y-18087D01*
X-281504Y-17024D01*
X-281207Y-16727D01*
X-280751Y-15625D01*
Y-14431D01*
X-281207Y-13329D01*
X-281504Y-13032D01*
X-281837Y-11969D01*
X-281467Y-11078D01*
X-281117Y-10728D01*
X-280661Y-9626D01*
Y-8432D01*
X-281117Y-7329D01*
X-281961Y-6486D01*
X-283064Y-6029D01*
D02*
G37*
G36*
X-258664Y-35524D02*
X-259857D01*
X-260960Y-35981D01*
X-261804Y-36825D01*
X-262260Y-37927D01*
Y-37950D01*
X-263707Y-39000D01*
X-263784Y-39000D01*
X-264901D01*
X-266003Y-39457D01*
X-266847Y-40301D01*
X-267304Y-41403D01*
Y-42597D01*
X-266847Y-43699D01*
X-266003Y-44543D01*
X-264901Y-45000D01*
X-263707D01*
X-262605Y-44543D01*
X-261761Y-43699D01*
X-261304Y-42597D01*
Y-42574D01*
X-259857Y-41524D01*
X-259780Y-41524D01*
X-258664D01*
X-257561Y-41067D01*
X-256717Y-40223D01*
X-256260Y-39121D01*
Y-37927D01*
X-256717Y-36825D01*
X-257561Y-35981D01*
X-258664Y-35524D01*
D02*
G37*
%LPD*%
D11*
X-68445Y73500D02*
X-68064Y73881D01*
X-96250Y73500D02*
X-68445D01*
D103*
X-262912Y-1095D02*
X-262550Y-733D01*
X-265891Y10249D02*
X-265891Y10249D01*
X-265887Y10246D01*
X-265892Y10249D02*
X-265891D01*
X-265893Y10250D02*
X-265893Y10250D01*
X-265880Y10246D02*
X-265878Y10248D01*
X-265853Y10223D02*
X-265851D01*
X-265854Y10223D02*
X-265853Y10223D01*
X-265851Y10223D02*
X-265851Y10223D01*
X-265847Y10219D01*
X-265839D01*
X-265893Y10250D02*
X-265893D01*
X-265810Y10195D02*
X-265748D01*
X-265853Y10223D02*
X-265853Y10223D01*
X-265893Y10250D02*
X-265892Y10249D01*
X-265837Y10221D02*
X-265810Y10195D01*
X-265854Y10223D02*
X-265854D01*
X-265887Y10246D02*
X-265880D01*
X-265878Y10248D02*
X-265854Y10223D01*
X-265839Y10219D02*
X-265837Y10221D01*
X-265748Y10069D02*
Y10195D01*
X-394800Y25000D02*
X-392390Y22590D01*
X-394800Y-25000D02*
Y-22800D01*
Y-75000D02*
X-392800Y-77000D01*
D105*
X157500Y-148750D02*
X207250D01*
X210000Y-146000D01*
X138750Y-130000D02*
X157500Y-148750D01*
X30000Y-130000D02*
X138750D01*
X21500Y-121500D02*
Y-93500D01*
X32500Y-82500D02*
X58250D01*
X21500Y-93500D02*
X32500Y-82500D01*
X5000Y-123000D02*
Y-96000D01*
X-25250Y-86250D02*
X-4750D01*
X5000Y-96000D01*
X-3500Y89500D02*
X5000Y98000D01*
X-29250Y89500D02*
X-3500D01*
X5000Y98000D02*
Y120000D01*
X-5000Y130000D02*
X5000Y120000D01*
X-56000Y130000D02*
X-5000D01*
X-69000Y143000D02*
X-56000Y130000D01*
X-130000Y143000D02*
X-69000D01*
X29624Y92719D02*
X42281D01*
X21500Y100843D02*
X29624Y92719D01*
X21500Y100843D02*
Y121500D01*
X42281Y92719D02*
X50500Y84500D01*
X21500Y121500D02*
X30000Y130000D01*
X144000D01*
X158000Y144000D01*
X210000D01*
X21500Y-121500D02*
X30000Y-130000D01*
X-2000D02*
X5000Y-123000D01*
X-63432Y-130000D02*
X-2000D01*
X-130084Y-145084D02*
X-78516D01*
X-63432Y-130000D01*
D108*
X-275250Y111000D02*
D03*
X-323000Y15250D02*
D03*
Y-1500D02*
D03*
X-253000Y-111000D02*
D03*
X-224500Y-110750D02*
D03*
X-239000Y-111000D02*
D03*
X-243500Y111000D02*
D03*
X-257750D02*
D03*
X30000Y-111000D02*
D03*
X-3750D02*
D03*
X30000Y111000D02*
D03*
X13000D02*
D03*
X-4750D02*
D03*
X13000Y-111000D02*
D03*
D109*
X-420200Y-75000D02*
D03*
Y-25000D02*
D03*
Y25000D02*
D03*
Y72500D02*
D03*
X-186500Y-138001D02*
D03*
Y-170001D02*
D03*
D110*
X-394800Y-75000D02*
D03*
Y-25000D02*
D03*
Y25000D02*
D03*
Y72500D02*
D03*
X-360000Y-38100D02*
D03*
X-360000Y-12700D02*
D03*
Y12700D02*
D03*
Y38100D02*
D03*
Y63500D02*
D03*
X-313500Y-138000D02*
D03*
X-288100D02*
D03*
X-262700D02*
D03*
X-237300D02*
D03*
X-211900Y-138001D02*
D03*
X-313500Y-170000D02*
D03*
X-288100D02*
D03*
X-262700D02*
D03*
X-237300D02*
D03*
X-211900Y-170001D02*
D03*
D111*
X-360000Y-63500D02*
D03*
D112*
X215260Y161000D02*
D03*
X-135260D02*
D03*
Y-161000D02*
D03*
X215260D02*
D03*
D113*
X-127666Y75867D02*
D03*
X-71004Y39141D02*
D03*
X-76281Y36116D02*
D03*
X-68064Y73881D02*
D03*
X-110250Y30000D02*
D03*
X210000Y-146000D02*
D03*
X-285691Y22278D02*
D03*
X-289627Y18377D02*
D03*
X-290250Y34086D02*
D03*
X210000Y144000D02*
D03*
X-130000Y143000D02*
D03*
X-130084Y-145084D02*
D03*
X-74163Y79326D02*
D03*
X-82000Y-3250D02*
D03*
X23000Y27810D02*
D03*
X28750D02*
D03*
X-232815Y-91685D02*
D03*
X-254774Y-43064D02*
D03*
X-245592Y-39550D02*
D03*
X-87750Y91000D02*
D03*
X-161000Y-47250D02*
D03*
X-167750Y-46500D02*
D03*
X-55000Y-6500D02*
D03*
X-296011Y-11457D02*
D03*
X-143381Y39512D02*
D03*
X-114250Y-93500D02*
D03*
X-226512Y65750D02*
D03*
X-226500Y81000D02*
D03*
X-293250Y70250D02*
D03*
X-293242Y75985D02*
D03*
X-293250Y84000D02*
D03*
X-293044Y89580D02*
D03*
X-236772Y57000D02*
D03*
X-200000Y78250D02*
D03*
Y71500D02*
D03*
X-96250Y73500D02*
D03*
X50500Y84500D02*
D03*
Y72750D02*
D03*
X-29250Y89500D02*
D03*
Y83750D02*
D03*
X58250Y-82500D02*
D03*
X-25500Y-73250D02*
D03*
X57900Y-72000D02*
D03*
X-25250Y-86250D02*
D03*
X-176289Y94198D02*
D03*
X-182250Y94250D02*
D03*
X-284718Y6823D02*
D03*
X-262550Y-733D02*
D03*
X-265893Y10250D02*
D03*
X-73250Y-95000D02*
D03*
X-108750Y57500D02*
D03*
X-120250Y-93750D02*
D03*
X-113250Y-80500D02*
D03*
D114*
X320000Y-150000D02*
D03*
Y150000D02*
D03*
X-380000Y-150000D02*
D03*
Y150000D02*
D03*
M02*
