G04*
G04 #@! TF.GenerationSoftware,Altium Limited,Altium Designer,24.6.1 (21)*
G04*
G04 Layer_Physical_Order=6*
G04 Layer_Color=16711680*
%FSLAX44Y44*%
%MOMM*%
G71*
G04*
G04 #@! TF.SameCoordinates,E18C277C-CF0C-426E-95C7-D1DF2096CF1D*
G04*
G04*
G04 #@! TF.FilePolarity,Positive*
G04*
G01*
G75*
%ADD11C,0.1524*%
%ADD22C,1.0000*%
%ADD23R,0.5200X0.5600*%
%ADD24R,0.5000X0.4000*%
%ADD27R,0.4000X0.5000*%
%ADD33R,0.5725X0.5682*%
%ADD37C,0.2260*%
%ADD38R,0.5600X0.5200*%
G04:AMPARAMS|DCode=40|XSize=0.55mm|YSize=0.8mm|CornerRadius=0.0495mm|HoleSize=0mm|Usage=FLASHONLY|Rotation=0.000|XOffset=0mm|YOffset=0mm|HoleType=Round|Shape=RoundedRectangle|*
%AMROUNDEDRECTD40*
21,1,0.5500,0.7010,0,0,0.0*
21,1,0.4510,0.8000,0,0,0.0*
1,1,0.0990,0.2255,-0.3505*
1,1,0.0990,-0.2255,-0.3505*
1,1,0.0990,-0.2255,0.3505*
1,1,0.0990,0.2255,0.3505*
%
%ADD40ROUNDEDRECTD40*%
%ADD41R,0.6000X0.4000*%
%ADD43R,0.6153X0.5725*%
%ADD44R,0.4682X0.4725*%
%ADD46R,0.4725X0.4682*%
%ADD47R,1.1051X1.0062*%
%ADD48R,0.6500X0.7000*%
%ADD49R,1.0062X1.1051*%
%ADD53R,1.0000X0.9000*%
%ADD58R,0.5682X0.5725*%
%ADD62R,0.5153X0.4725*%
%ADD67R,0.9000X0.7500*%
%ADD68R,0.5725X0.6153*%
%ADD103C,0.2030*%
%ADD104C,0.2400*%
%ADD105C,0.4000*%
%ADD106C,0.2032*%
%ADD107C,5.0000*%
%ADD108C,0.8000*%
%ADD109R,1.5200X1.5200*%
%ADD110C,1.5200*%
%ADD111R,1.5200X1.5200*%
%ADD112C,0.7600*%
%ADD113C,0.4500*%
%ADD115R,0.5334X1.0414*%
%ADD116R,0.9398X1.6510*%
%ADD117R,0.3000X1.2000*%
%ADD118R,1.4000X1.0000*%
%ADD119R,1.1064X0.4156*%
%ADD120R,0.7000X0.2500*%
%ADD121R,1.6500X2.3800*%
%ADD122R,0.4750X0.5000*%
%ADD123R,0.5000X0.4750*%
%ADD124R,0.6000X0.6000*%
G04:AMPARAMS|DCode=125|XSize=0.75mm|YSize=0.22mm|CornerRadius=0.0066mm|HoleSize=0mm|Usage=FLASHONLY|Rotation=90.000|XOffset=0mm|YOffset=0mm|HoleType=Round|Shape=RoundedRectangle|*
%AMROUNDEDRECTD125*
21,1,0.7500,0.2068,0,0,90.0*
21,1,0.7368,0.2200,0,0,90.0*
1,1,0.0132,0.1034,0.3684*
1,1,0.0132,0.1034,-0.3684*
1,1,0.0132,-0.1034,-0.3684*
1,1,0.0132,-0.1034,0.3684*
%
%ADD125ROUNDEDRECTD125*%
G04:AMPARAMS|DCode=126|XSize=0.81mm|YSize=0.22mm|CornerRadius=0.0066mm|HoleSize=0mm|Usage=FLASHONLY|Rotation=180.000|XOffset=0mm|YOffset=0mm|HoleType=Round|Shape=RoundedRectangle|*
%AMROUNDEDRECTD126*
21,1,0.8100,0.2068,0,0,180.0*
21,1,0.7968,0.2200,0,0,180.0*
1,1,0.0132,-0.3984,0.1034*
1,1,0.0132,0.3984,0.1034*
1,1,0.0132,0.3984,-0.1034*
1,1,0.0132,-0.3984,-0.1034*
%
%ADD126ROUNDEDRECTD126*%
G04:AMPARAMS|DCode=127|XSize=0.91mm|YSize=0.22mm|CornerRadius=0.0066mm|HoleSize=0mm|Usage=FLASHONLY|Rotation=0.000|XOffset=0mm|YOffset=0mm|HoleType=Round|Shape=RoundedRectangle|*
%AMROUNDEDRECTD127*
21,1,0.9100,0.2068,0,0,0.0*
21,1,0.8968,0.2200,0,0,0.0*
1,1,0.0132,0.4484,-0.1034*
1,1,0.0132,-0.4484,-0.1034*
1,1,0.0132,-0.4484,0.1034*
1,1,0.0132,0.4484,0.1034*
%
%ADD127ROUNDEDRECTD127*%
%ADD128R,0.4725X0.5153*%
G04:AMPARAMS|DCode=129|XSize=1.2397mm|YSize=0.5258mm|CornerRadius=0.2629mm|HoleSize=0mm|Usage=FLASHONLY|Rotation=270.000|XOffset=0mm|YOffset=0mm|HoleType=Round|Shape=RoundedRectangle|*
%AMROUNDEDRECTD129*
21,1,1.2397,0.0000,0,0,270.0*
21,1,0.7139,0.5258,0,0,270.0*
1,1,0.5258,0.0000,-0.3569*
1,1,0.5258,0.0000,0.3569*
1,1,0.5258,0.0000,0.3569*
1,1,0.5258,0.0000,-0.3569*
%
%ADD129ROUNDEDRECTD129*%
%ADD130R,0.5258X1.2397*%
%ADD131R,0.4000X0.3500*%
%ADD132R,0.5100X0.4000*%
%ADD133R,0.1000X0.1000*%
%AMCUSTOMSHAPE134*
4,1,10,2.1273,0.9525,-0.7176,0.9525,-1.2129,0.4572,-2.6226,0.4572,-2.6226,-0.4572,-1.2129,-0.4572,-0.7176,-0.9525,2.1273,-0.9525,2.6226,-0.4572,2.6226,0.4572,2.1273,0.9525,0.0*%
%ADD134CUSTOMSHAPE134*%

%ADD135R,1.3000X0.7112*%
%ADD136R,0.6000X0.5000*%
%ADD137R,0.9000X0.6500*%
%ADD138R,0.8000X2.7000*%
%ADD139R,1.3082X1.0057*%
%ADD140R,1.1318X0.1524*%
%ADD141R,0.7000X0.6500*%
%ADD142R,0.3627X0.4541*%
%ADD143R,0.4541X0.3627*%
%ADD144R,0.5000X0.4750*%
G04:AMPARAMS|DCode=145|XSize=0.806mm|YSize=0.2393mm|CornerRadius=0.1196mm|HoleSize=0mm|Usage=FLASHONLY|Rotation=180.000|XOffset=0mm|YOffset=0mm|HoleType=Round|Shape=RoundedRectangle|*
%AMROUNDEDRECTD145*
21,1,0.8060,0.0000,0,0,180.0*
21,1,0.5667,0.2393,0,0,180.0*
1,1,0.2393,-0.2834,0.0000*
1,1,0.2393,0.2834,0.0000*
1,1,0.2393,0.2834,0.0000*
1,1,0.2393,-0.2834,0.0000*
%
%ADD145ROUNDEDRECTD145*%
G04:AMPARAMS|DCode=146|XSize=0.2393mm|YSize=0.806mm|CornerRadius=0.1196mm|HoleSize=0mm|Usage=FLASHONLY|Rotation=180.000|XOffset=0mm|YOffset=0mm|HoleType=Round|Shape=RoundedRectangle|*
%AMROUNDEDRECTD146*
21,1,0.2393,0.5667,0,0,180.0*
21,1,0.0000,0.8060,0,0,180.0*
1,1,0.2393,0.0000,0.2834*
1,1,0.2393,0.0000,0.2834*
1,1,0.2393,0.0000,-0.2834*
1,1,0.2393,0.0000,-0.2834*
%
%ADD146ROUNDEDRECTD146*%
%ADD147R,1.5000X1.5000*%
%ADD148R,0.8060X0.2393*%
%ADD149R,0.4750X0.5000*%
G36*
X346941Y157771D02*
X345417Y157529D01*
X344558Y160173D01*
X342665Y163889D01*
X340213Y167264D01*
X337264Y170213D01*
X333889Y172665D01*
X330173Y174559D01*
X326205Y175847D01*
X322086Y176500D01*
X317914D01*
X313795Y175847D01*
X309827Y174559D01*
X306111Y172665D01*
X302736Y170213D01*
X299787Y167264D01*
X297335Y163889D01*
X295441Y160173D01*
X294153Y156205D01*
X293500Y152086D01*
Y147914D01*
X294153Y143795D01*
X295441Y139827D01*
X297335Y136111D01*
X299787Y132736D01*
X302736Y129787D01*
X306111Y127335D01*
X309827Y125442D01*
X313795Y124152D01*
X317914Y123500D01*
X322086D01*
X326205Y124152D01*
X330173Y125442D01*
X333889Y127335D01*
X337264Y129787D01*
X340213Y132736D01*
X342665Y136111D01*
X344558Y139827D01*
X345417Y142471D01*
X346941Y142229D01*
Y121328D01*
X50774D01*
X50774Y121328D01*
X49817Y121328D01*
X49424Y121250D01*
X49025Y121224D01*
X47176Y120729D01*
X46817Y120552D01*
X46438Y120423D01*
X44780Y119466D01*
X44479Y119203D01*
X44147Y118981D01*
X42793Y117627D01*
X42570Y117295D01*
X42307Y116994D01*
X41349Y115337D01*
X41220Y114958D01*
X41043Y114599D01*
X40546Y112750D01*
X40520Y112351D01*
X40442Y111959D01*
X40441Y110045D01*
X40518Y109652D01*
X40544Y109253D01*
X41038Y107404D01*
X41215Y107045D01*
X41343Y106666D01*
X42299Y105007D01*
X42563Y104706D01*
X42785Y104374D01*
X44137Y103019D01*
X44469Y102796D01*
X44770Y102532D01*
X46427Y101573D01*
X46806Y101444D01*
X47164Y101267D01*
X49013Y100769D01*
X49412Y100743D01*
X49804Y100664D01*
X50761Y100663D01*
X50763Y100663D01*
X50765Y100663D01*
X69441D01*
Y-100667D01*
X52000D01*
X52000Y-100667D01*
X51042Y-100667D01*
X50650Y-100745D01*
X50251Y-100772D01*
X48401Y-101267D01*
X48042Y-101444D01*
X47663Y-101573D01*
X46004Y-102530D01*
X45704Y-102794D01*
X45371Y-103017D01*
X44017Y-104371D01*
X43794Y-104704D01*
X43531Y-105004D01*
X42573Y-106663D01*
X42444Y-107042D01*
X42267Y-107401D01*
X41772Y-109251D01*
X41745Y-109650D01*
X41667Y-110042D01*
Y-111958D01*
X41745Y-112350D01*
X41772Y-112749D01*
X42267Y-114599D01*
X42444Y-114958D01*
X42573Y-115337D01*
X43531Y-116996D01*
X43794Y-117296D01*
X44017Y-117629D01*
X45371Y-118983D01*
X45704Y-119206D01*
X46004Y-119469D01*
X47663Y-120427D01*
X48042Y-120556D01*
X48401Y-120733D01*
X50251Y-121228D01*
X50650Y-121255D01*
X51042Y-121333D01*
X52000Y-121333D01*
X301524Y-121333D01*
X346941D01*
Y-142229D01*
X345417Y-142471D01*
X344558Y-139827D01*
X342665Y-136111D01*
X340213Y-132736D01*
X337264Y-129787D01*
X333889Y-127335D01*
X330173Y-125442D01*
X326205Y-124152D01*
X322086Y-123500D01*
X317914D01*
X313795Y-124152D01*
X309827Y-125442D01*
X306111Y-127335D01*
X302736Y-129787D01*
X299787Y-132736D01*
X297335Y-136111D01*
X295441Y-139827D01*
X294153Y-143795D01*
X293500Y-147914D01*
Y-152086D01*
X294153Y-156205D01*
X295441Y-160173D01*
X297335Y-163889D01*
X299787Y-167264D01*
X302736Y-170213D01*
X306111Y-172665D01*
X309827Y-174559D01*
X313795Y-175847D01*
X317914Y-176500D01*
X322086D01*
X326205Y-175847D01*
X330173Y-174559D01*
X333889Y-172665D01*
X337264Y-170213D01*
X340213Y-167264D01*
X342665Y-163889D01*
X344558Y-160173D01*
X345417Y-157529D01*
X346941Y-157771D01*
Y-186941D01*
X99873D01*
X98699Y-186096D01*
X98699Y-185417D01*
Y-166586D01*
X86301D01*
Y-185417D01*
X86301Y-186096D01*
X85127Y-186941D01*
X-45127D01*
X-46301Y-186096D01*
X-46301Y-185417D01*
Y-166586D01*
X-58699D01*
Y-185417D01*
X-58699Y-186096D01*
X-59873Y-186941D01*
X-406941D01*
Y-157771D01*
X-405417Y-157529D01*
X-404558Y-160173D01*
X-402665Y-163889D01*
X-400213Y-167264D01*
X-397264Y-170213D01*
X-393889Y-172665D01*
X-390173Y-174559D01*
X-386205Y-175847D01*
X-382086Y-176500D01*
X-377914D01*
X-373795Y-175847D01*
X-369827Y-174559D01*
X-366111Y-172665D01*
X-362736Y-170213D01*
X-359787Y-167264D01*
X-357335Y-163889D01*
X-355442Y-160173D01*
X-354152Y-156205D01*
X-353500Y-152086D01*
Y-147914D01*
X-354152Y-143795D01*
X-355442Y-139827D01*
X-357335Y-136111D01*
X-359787Y-132736D01*
X-362736Y-129787D01*
X-366111Y-127335D01*
X-369827Y-125442D01*
X-373795Y-124152D01*
X-377914Y-123500D01*
X-382086D01*
X-386205Y-124152D01*
X-390173Y-125442D01*
X-393889Y-127335D01*
X-397264Y-129787D01*
X-400213Y-132736D01*
X-402665Y-136111D01*
X-404558Y-139827D01*
X-405417Y-142471D01*
X-406941Y-142229D01*
Y-120059D01*
X-328001D01*
X-328000Y-120059D01*
X-328000Y-120059D01*
X-269676Y-120059D01*
X-269676Y-120059D01*
X-268483Y-120059D01*
X-267312Y-119826D01*
X-265199Y-118951D01*
X-265074Y-118927D01*
X-263458Y-119644D01*
X-263328Y-120170D01*
X-263339Y-120213D01*
X-268447Y-125321D01*
X-277985D01*
X-278966Y-125516D01*
X-279798Y-126072D01*
X-283737Y-130011D01*
X-284587Y-129520D01*
X-286902Y-128900D01*
X-289298D01*
X-291612Y-129520D01*
X-293687Y-130718D01*
X-295381Y-132413D01*
X-296579Y-134487D01*
X-297200Y-136802D01*
Y-139198D01*
X-296579Y-141512D01*
X-295381Y-143588D01*
X-293687Y-145282D01*
X-291612Y-146480D01*
X-289298Y-147100D01*
X-286902D01*
X-284650Y-146497D01*
X-268411Y-162735D01*
Y-162842D01*
X-269981Y-164412D01*
X-271179Y-166488D01*
X-271800Y-168802D01*
Y-171198D01*
X-271179Y-173512D01*
X-269981Y-175588D01*
X-268287Y-177282D01*
X-266212Y-178480D01*
X-263898Y-179100D01*
X-261502D01*
X-259187Y-178480D01*
X-257112Y-177282D01*
X-255418Y-175588D01*
X-254220Y-173512D01*
X-253600Y-171198D01*
Y-168802D01*
X-254220Y-166488D01*
X-255418Y-164412D01*
X-257112Y-162718D01*
X-259187Y-161520D01*
X-261336Y-160944D01*
X-261546Y-159891D01*
X-262319Y-158734D01*
X-279603Y-141450D01*
X-279000Y-139198D01*
Y-136802D01*
X-279620Y-134487D01*
X-280111Y-133637D01*
X-276922Y-130449D01*
X-270173D01*
X-269542Y-131973D01*
X-269981Y-132413D01*
X-271179Y-134487D01*
X-271800Y-136802D01*
Y-139198D01*
X-271179Y-141512D01*
X-269981Y-143588D01*
X-268287Y-145282D01*
X-266212Y-146480D01*
X-263898Y-147100D01*
X-261502D01*
X-259187Y-146480D01*
X-257112Y-145282D01*
X-255418Y-143588D01*
X-254830Y-142570D01*
X-253306Y-142978D01*
Y-156300D01*
X-253131Y-157182D01*
X-252631Y-157930D01*
X-245155Y-165406D01*
X-245779Y-166488D01*
X-246400Y-168802D01*
Y-171198D01*
X-245779Y-173512D01*
X-244581Y-175588D01*
X-242887Y-177282D01*
X-240812Y-178480D01*
X-238498Y-179100D01*
X-236102D01*
X-233787Y-178480D01*
X-231712Y-177282D01*
X-230018Y-175588D01*
X-228820Y-173512D01*
X-228200Y-171198D01*
Y-168802D01*
X-228820Y-166488D01*
X-230018Y-164412D01*
X-231712Y-162718D01*
X-233787Y-161520D01*
X-236102Y-160900D01*
X-238498D01*
X-240812Y-161520D01*
X-241894Y-162145D01*
X-248694Y-155344D01*
Y-132955D01*
X-244361Y-128622D01*
X-243860Y-127874D01*
X-243685Y-126991D01*
Y-116249D01*
X-242161Y-115617D01*
X-242115Y-115663D01*
X-240094Y-116500D01*
X-237906D01*
X-235884Y-115663D01*
X-235556Y-115334D01*
X-234032Y-115965D01*
Y-119298D01*
X-233856Y-120181D01*
X-233356Y-120929D01*
X-225306Y-128979D01*
Y-158901D01*
X-225131Y-159784D01*
X-224631Y-160532D01*
X-219756Y-165407D01*
X-220380Y-166488D01*
X-221000Y-168803D01*
Y-171199D01*
X-220380Y-173513D01*
X-219182Y-175588D01*
X-217488Y-177283D01*
X-215413Y-178481D01*
X-213099Y-179101D01*
X-210702D01*
X-208388Y-178481D01*
X-206313Y-177283D01*
X-204619Y-175588D01*
X-203421Y-173513D01*
X-202800Y-171199D01*
Y-168803D01*
X-203421Y-166488D01*
X-204619Y-164413D01*
X-206313Y-162719D01*
X-208388Y-161521D01*
X-210702Y-160901D01*
X-213099D01*
X-215413Y-161521D01*
X-216494Y-162145D01*
X-220694Y-157946D01*
Y-144018D01*
X-219229Y-143602D01*
X-219170Y-143601D01*
X-217488Y-145283D01*
X-215413Y-146481D01*
X-213099Y-147101D01*
X-210702D01*
X-208388Y-146481D01*
X-206313Y-145283D01*
X-204619Y-143588D01*
X-203830Y-142223D01*
X-202306Y-142631D01*
Y-147000D01*
X-202131Y-147883D01*
X-201631Y-148631D01*
X-190769Y-159493D01*
X-191352Y-160901D01*
X-195600D01*
Y-179101D01*
X-177400D01*
Y-160901D01*
X-184694D01*
Y-160000D01*
X-184869Y-159117D01*
X-185369Y-158369D01*
X-195114Y-148625D01*
X-194482Y-147101D01*
X-177400D01*
Y-128901D01*
X-195600D01*
Y-144846D01*
X-197124Y-145618D01*
X-197694Y-145200D01*
Y-129000D01*
X-197869Y-128117D01*
X-198369Y-127369D01*
X-202119Y-123619D01*
X-202867Y-123119D01*
X-203750Y-122944D01*
X-203724Y-121430D01*
X-23884Y-121430D01*
X-23168D01*
X-22873Y-121371D01*
X-22572Y-121371D01*
X-21167Y-121092D01*
X-20889Y-120977D01*
X-20594Y-120919D01*
X-19271Y-120371D01*
X-19021Y-120204D01*
X-18743Y-120089D01*
X-17552Y-119294D01*
X-17339Y-119081D01*
X-17089Y-118914D01*
X-16076Y-117902D01*
X-15908Y-117652D01*
X-15695Y-117440D01*
X-14899Y-116250D01*
X-14783Y-115972D01*
X-14616Y-115722D01*
X-14067Y-114399D01*
X-14008Y-114104D01*
X-13892Y-113826D01*
X-13611Y-112422D01*
X-13611Y-112121D01*
X-13552Y-111826D01*
X-13551Y-111115D01*
X-13551Y-111115D01*
X-13551Y-111106D01*
X-13552Y-111102D01*
X-13551Y-111098D01*
Y-110381D01*
X-13610Y-110086D01*
Y-109784D01*
X-13889Y-108379D01*
X-14005Y-108101D01*
X-14064Y-107805D01*
X-14612Y-106482D01*
X-14779Y-106231D01*
X-14894Y-105953D01*
X-15690Y-104761D01*
X-15904Y-104549D01*
X-16071Y-104298D01*
X-17084Y-103285D01*
X-17335Y-103117D01*
X-17548Y-102905D01*
X-18739Y-102108D01*
X-19017Y-101993D01*
X-19268Y-101826D01*
X-20591Y-101277D01*
X-20887Y-101219D01*
X-21165Y-101103D01*
X-22571Y-100824D01*
X-22872D01*
X-23167Y-100765D01*
X-23884D01*
X-103478Y-100765D01*
X-104061Y-99357D01*
X-96665Y-91961D01*
X-93813Y-94813D01*
X-92981Y-95369D01*
X-92000Y-95564D01*
X-81026D01*
X-80045Y-95369D01*
X-79213Y-94813D01*
X-78432Y-94032D01*
X-77000Y-94755D01*
Y-95746D01*
X-76429Y-97124D01*
X-75374Y-98179D01*
X-73996Y-98750D01*
X-72504D01*
X-71126Y-98179D01*
X-70071Y-97124D01*
X-69500Y-95746D01*
Y-94254D01*
X-70071Y-92876D01*
X-71126Y-91821D01*
X-72504Y-91250D01*
X-73495D01*
X-74218Y-89818D01*
X-71374Y-86973D01*
X-67000D01*
Y-79223D01*
X-75000D01*
Y-83347D01*
X-82089Y-90436D01*
X-90938D01*
X-92042Y-89332D01*
X-92753Y-88049D01*
X-92520Y-87478D01*
X-92283Y-86907D01*
X-92285Y-86903D01*
X-92283Y-86899D01*
X-92298Y-83840D01*
X-91222Y-82760D01*
X-86494D01*
Y-75729D01*
Y-68698D01*
X-92953D01*
X-93987Y-65616D01*
X-93097Y-64378D01*
X-87250D01*
Y-50479D01*
Y-36579D01*
X-95378D01*
Y-29575D01*
X-95137Y-28456D01*
X-94181Y-27822D01*
X-91905Y-26932D01*
X-81188D01*
X-80886Y-26806D01*
X-79648D01*
Y-25509D01*
X-79565Y-25308D01*
Y-21168D01*
X-79648Y-20967D01*
Y-19650D01*
X-80932D01*
X-81188Y-19544D01*
X-92186D01*
X-92197Y-19548D01*
X-92207Y-19544D01*
X-97021Y-19607D01*
X-101006D01*
X-101023Y-19614D01*
X-102500Y-19728D01*
X-104451Y-19728D01*
X-115500Y-13532D01*
Y-13000D01*
X-116816D01*
X-117030Y-12911D01*
X-124928D01*
X-125142Y-13000D01*
X-126500D01*
Y-14372D01*
X-126550Y-14483D01*
X-126598Y-15987D01*
X-126588Y-16013D01*
X-126599Y-16039D01*
Y-16640D01*
X-128123Y-17658D01*
X-128504Y-17500D01*
X-129996D01*
X-131374Y-18071D01*
X-132429Y-19126D01*
X-133000Y-20504D01*
Y-21996D01*
X-132429Y-23374D01*
X-131374Y-24429D01*
X-129996Y-25000D01*
X-128504D01*
X-128123Y-24842D01*
X-126599Y-25860D01*
Y-40434D01*
X-128015Y-41734D01*
X-137361Y-40103D01*
Y-14499D01*
X-137500Y-14162D01*
Y-13000D01*
X-138683D01*
X-138984Y-12875D01*
X-146967D01*
X-147268Y-13000D01*
X-148500D01*
Y-14234D01*
X-148624Y-14532D01*
Y-37827D01*
X-150078Y-39282D01*
X-150201Y-39580D01*
X-150430Y-39808D01*
X-150697Y-40455D01*
X-151295Y-41053D01*
X-151942Y-41320D01*
X-152170Y-41549D01*
X-152468Y-41672D01*
X-156295Y-45499D01*
X-157790Y-45202D01*
X-157821Y-45126D01*
X-158876Y-44071D01*
X-159131Y-43965D01*
X-159382Y-43844D01*
X-160400Y-42855D01*
X-160400D01*
Y-36250D01*
X-159900D01*
Y-32450D01*
X-164500D01*
Y-31450D01*
X-165500D01*
Y-26650D01*
X-169100D01*
Y-30106D01*
X-170624Y-30865D01*
X-171504Y-30500D01*
X-172996D01*
X-174374Y-31071D01*
X-175429Y-32126D01*
X-176000Y-33504D01*
Y-34996D01*
X-175429Y-36374D01*
X-174374Y-37429D01*
X-174328Y-37660D01*
X-175248Y-39031D01*
X-176658Y-39289D01*
X-189172Y-24599D01*
X-188051Y-23564D01*
X-186275Y-25341D01*
X-185443Y-25896D01*
X-184461Y-26092D01*
X-181693D01*
X-181679Y-26124D01*
X-180624Y-27179D01*
X-179246Y-27750D01*
X-177754D01*
X-176376Y-27179D01*
X-175321Y-26124D01*
X-174750Y-24746D01*
Y-23254D01*
X-175321Y-21876D01*
X-176197Y-21000D01*
X-175321Y-20124D01*
X-174750Y-18746D01*
Y-17254D01*
X-175321Y-15876D01*
X-176376Y-14821D01*
X-177754Y-14250D01*
X-178000Y-12745D01*
X-178000Y-6067D01*
X-177500Y-4750D01*
X-177500Y-4433D01*
Y-750D01*
X-182500D01*
Y250D01*
X-183500D01*
Y5250D01*
X-185976D01*
X-187500Y5250D01*
X-189024Y5250D01*
X-191500D01*
Y250D01*
X-192500D01*
Y-750D01*
X-197500D01*
Y-4433D01*
X-197500Y-4750D01*
X-197000Y-6067D01*
X-197000Y-6274D01*
Y-13059D01*
X-198524Y-13620D01*
X-199264Y-12751D01*
X-199335Y-12715D01*
X-199401Y-12556D01*
X-199742Y-12414D01*
X-200019Y-12169D01*
X-200294Y-12186D01*
X-200548Y-12080D01*
X-201623D01*
X-202404Y-11757D01*
X-203002Y-11159D01*
X-203326Y-10377D01*
Y-9531D01*
X-203002Y-8750D01*
X-202579Y-8327D01*
X-202438Y-7985D01*
X-202192Y-7708D01*
X-202209Y-7433D01*
X-202104Y-7179D01*
X-202245Y-6837D01*
X-202268Y-6467D01*
X-204790Y-1289D01*
X-204835Y-1250D01*
X-204842Y-1191D01*
X-209842Y7505D01*
X-210056Y7670D01*
X-210173Y7911D01*
X-220982Y17489D01*
X-221042Y17509D01*
X-221073Y17564D01*
X-232173Y26048D01*
X-231945Y27792D01*
X-231876Y27821D01*
X-230821Y28876D01*
X-230250Y30254D01*
Y31746D01*
X-230821Y33124D01*
X-231310Y33614D01*
X-230768Y35138D01*
X-230138D01*
Y42819D01*
X-230138D01*
Y43181D01*
X-230138D01*
Y47716D01*
X-229869Y48117D01*
X-229694Y49000D01*
Y59721D01*
X-228500Y60876D01*
X-223750D01*
X-223638Y60923D01*
X-223520Y60893D01*
X-223078Y61155D01*
X-222602Y61352D01*
X-222556Y61464D01*
X-222451Y61526D01*
X-221701Y62526D01*
X-221573Y63025D01*
X-221376Y63500D01*
Y76376D01*
X-221396Y76423D01*
X-221379Y76471D01*
X-222099Y88685D01*
X-221888Y90209D01*
X-221888D01*
X-221888Y90209D01*
Y93786D01*
X-226250D01*
Y95786D01*
X-221888D01*
Y99362D01*
X-221888D01*
X-221359Y100667D01*
X-216891D01*
X-216362Y99143D01*
Y95786D01*
X-212000D01*
Y93786D01*
X-216362D01*
Y90209D01*
X-216362D01*
X-216047Y88685D01*
X-217410Y78000D01*
X-217500D01*
X-217587Y76515D01*
X-217587Y76512D01*
Y69427D01*
X-217500Y69218D01*
Y68000D01*
X-216899D01*
X-216600Y66600D01*
X-216600Y66600D01*
X-216600Y66600D01*
Y63000D01*
X-211800D01*
Y62000D01*
X-210800D01*
Y57400D01*
X-207000D01*
Y57787D01*
X-206984Y57797D01*
X-201197D01*
X-200949Y57900D01*
X-199900D01*
Y58421D01*
X-195018Y63303D01*
X-194543Y64451D01*
Y82068D01*
X-194750Y82569D01*
Y83500D01*
X-195704D01*
X-196166Y83692D01*
X-204662D01*
X-207553Y85302D01*
X-207821Y86712D01*
X-206878Y88000D01*
X-206433Y88000D01*
X-201750D01*
Y93750D01*
X-200750D01*
Y94750D01*
X-194250D01*
Y99143D01*
X-194250Y99500D01*
X-193389Y100667D01*
X-26250Y100667D01*
X-25534D01*
X-25238Y100726D01*
X-24937D01*
X-23532Y101006D01*
X-23253Y101121D01*
X-22958Y101180D01*
X-21634Y101728D01*
X-21384Y101896D01*
X-21105Y102011D01*
X-19914Y102807D01*
X-19701Y103020D01*
X-19450Y103187D01*
X-18437Y104200D01*
X-18270Y104451D01*
X-18057Y104664D01*
X-17261Y105855D01*
X-17146Y106133D01*
X-16978Y106384D01*
X-16430Y107708D01*
X-16371Y108003D01*
X-16256Y108281D01*
X-15976Y109687D01*
Y109988D01*
X-15917Y110284D01*
Y111716D01*
X-15976Y112012D01*
Y112313D01*
X-16256Y113719D01*
X-16371Y113997D01*
X-16430Y114292D01*
X-16978Y115616D01*
X-17146Y115866D01*
X-17261Y116145D01*
X-18057Y117336D01*
X-18270Y117549D01*
X-18437Y117800D01*
X-19450Y118813D01*
X-19701Y118980D01*
X-19914Y119193D01*
X-21105Y119989D01*
X-21384Y120105D01*
X-21634Y120272D01*
X-22958Y120820D01*
X-23253Y120879D01*
X-23532Y120994D01*
X-24937Y121274D01*
X-25238D01*
X-25534Y121333D01*
X-26250D01*
X-26254Y121332D01*
X-26258Y121333D01*
X-223333Y121333D01*
X-224290Y121333D01*
X-224682Y121255D01*
X-225081Y121228D01*
X-226930Y120733D01*
X-227289Y120556D01*
X-227668Y120428D01*
X-229326Y119472D01*
X-229626Y119208D01*
X-229671Y119178D01*
X-231194Y119671D01*
Y120501D01*
X-231370Y121383D01*
X-231870Y122132D01*
X-237194Y127455D01*
Y131000D01*
X-236500D01*
Y146000D01*
X-266000D01*
Y146500D01*
X-268500D01*
Y138500D01*
X-270500D01*
Y146500D01*
X-273000D01*
Y146000D01*
X-277500D01*
Y134626D01*
X-284529Y127597D01*
X-285085Y126765D01*
X-285280Y125784D01*
Y119050D01*
X-286804Y118494D01*
X-287431Y118912D01*
X-289636Y119826D01*
X-290807Y120059D01*
X-292000D01*
X-329188Y120059D01*
X-329189Y120059D01*
X-406941D01*
Y142229D01*
X-405417Y142471D01*
X-404558Y139827D01*
X-402665Y136111D01*
X-400213Y132736D01*
X-397264Y129787D01*
X-393889Y127335D01*
X-390173Y125442D01*
X-386205Y124152D01*
X-382086Y123500D01*
X-377914D01*
X-373795Y124152D01*
X-369827Y125442D01*
X-366111Y127335D01*
X-362736Y129787D01*
X-359787Y132736D01*
X-357335Y136111D01*
X-355442Y139827D01*
X-354152Y143795D01*
X-353500Y147914D01*
Y152086D01*
X-354152Y156205D01*
X-355442Y160173D01*
X-357335Y163889D01*
X-359787Y167264D01*
X-362736Y170213D01*
X-366111Y172665D01*
X-369827Y174559D01*
X-373795Y175847D01*
X-377914Y176500D01*
X-382086D01*
X-386205Y175847D01*
X-390173Y174559D01*
X-393889Y172665D01*
X-397264Y170213D01*
X-400213Y167264D01*
X-402665Y163889D01*
X-404558Y160173D01*
X-405417Y157529D01*
X-406941Y157771D01*
Y186941D01*
X-59873D01*
X-58699Y186096D01*
X-58699Y185417D01*
Y166586D01*
X-46301D01*
Y185417D01*
X-46301Y186096D01*
X-45127Y186941D01*
X85127D01*
X86301Y186096D01*
X86301Y185417D01*
Y166586D01*
X98699D01*
Y185417D01*
X98699Y186096D01*
X99873Y186941D01*
X346941D01*
Y157771D01*
D02*
G37*
G36*
X-260865Y106337D02*
X-258844Y105500D01*
X-256656D01*
X-254818Y106261D01*
X-253294Y105686D01*
Y103943D01*
X-253619Y103619D01*
X-254119Y102871D01*
X-255747Y102497D01*
X-255754Y102500D01*
X-257246D01*
X-258624Y101929D01*
X-259679Y100874D01*
X-260250Y99496D01*
Y98004D01*
X-259679Y96626D01*
X-258624Y95571D01*
X-258237Y95410D01*
Y53692D01*
X-260522Y51407D01*
X-261757D01*
X-263135Y50836D01*
X-263963Y50548D01*
X-264377Y50763D01*
X-265239Y51630D01*
Y98213D01*
X-263369Y100083D01*
X-262869Y100831D01*
X-262694Y101714D01*
Y106010D01*
X-261170Y106642D01*
X-260865Y106337D01*
D02*
G37*
G36*
X-278365D02*
X-276344Y105500D01*
X-274156D01*
X-273477Y105781D01*
X-271738Y104852D01*
X-271684Y104578D01*
X-272631Y103631D01*
X-273131Y102883D01*
X-273306Y102000D01*
Y52303D01*
X-273438Y52171D01*
X-274673D01*
X-276051Y51600D01*
X-277106Y50545D01*
X-277677Y49167D01*
Y48100D01*
X-278705Y46668D01*
X-278876Y46589D01*
X-279417Y46372D01*
X-279988Y46149D01*
X-279992Y46140D01*
X-280000Y46137D01*
X-281089Y45071D01*
X-282270Y45885D01*
X-292198Y55813D01*
X-293030Y56369D01*
X-294011Y56564D01*
X-316013D01*
X-316644Y58088D01*
X-316277Y58456D01*
X-315614Y59448D01*
X-314705Y61642D01*
X-314472Y62813D01*
Y63844D01*
X-314441Y64000D01*
Y101941D01*
X-290807D01*
X-289636Y102174D01*
X-287431Y103088D01*
X-286804Y103506D01*
X-286615Y103471D01*
X-285574Y103064D01*
X-285280Y102831D01*
Y91874D01*
X-288657D01*
X-289932Y93148D01*
X-291080Y93624D01*
X-295130D01*
X-295638Y93963D01*
Y98862D01*
X-299000D01*
Y94286D01*
X-300000D01*
Y93286D01*
X-304362D01*
Y89709D01*
X-304362D01*
X-303941Y89288D01*
Y84165D01*
X-303862Y83977D01*
Y82638D01*
X-302548D01*
X-302317Y82542D01*
X-298588D01*
X-297057Y81011D01*
X-296347Y79865D01*
X-297057Y79020D01*
X-298512Y77566D01*
X-302314D01*
X-302806Y77362D01*
X-303862D01*
Y76153D01*
X-303958Y75922D01*
Y70749D01*
X-304362Y70291D01*
X-304362D01*
Y66714D01*
X-300000D01*
Y65714D01*
X-299000D01*
Y61138D01*
X-295638D01*
Y65846D01*
X-295017Y66260D01*
X-290866D01*
X-290324Y66485D01*
X-289773Y66684D01*
X-287630Y68635D01*
X-281267D01*
X-280991Y68750D01*
X-279750D01*
Y70003D01*
X-279644Y70259D01*
Y76884D01*
X-279750Y77140D01*
Y78250D01*
X-280646D01*
X-281267Y78508D01*
X-287563D01*
X-288482Y79480D01*
X-288393Y81245D01*
X-287389Y82126D01*
X-281250D01*
X-280952Y82250D01*
X-279750D01*
Y83452D01*
X-279626Y83750D01*
Y90250D01*
X-279750Y90548D01*
Y91750D01*
X-280152D01*
Y105968D01*
X-278628Y106600D01*
X-278365Y106337D01*
D02*
G37*
G36*
X-289330Y90250D02*
X-281250D01*
Y83750D01*
X-288000D01*
X-290849Y81250D01*
X-295000D01*
X-297915Y84165D01*
X-302317D01*
Y89288D01*
X-302297Y89308D01*
X-297822D01*
X-296921Y90209D01*
X-296138D01*
Y90992D01*
X-295130Y92000D01*
X-291080D01*
X-289330Y90250D01*
D02*
G37*
G36*
X-289347Y76884D02*
X-281267D01*
Y70259D01*
X-288259D01*
X-290866Y67884D01*
X-295017D01*
X-296138Y69004D01*
Y69791D01*
X-296924D01*
X-297882Y70748D01*
X-302334D01*
Y75922D01*
X-302314Y75942D01*
X-297839D01*
X-295147Y78634D01*
X-291097D01*
X-289347Y76884D01*
D02*
G37*
G36*
X-235807Y96226D02*
Y66424D01*
X-236269Y65862D01*
X-241819D01*
Y65862D01*
X-242181D01*
Y65862D01*
X-243715D01*
Y67021D01*
X-243891Y67904D01*
X-244391Y68652D01*
X-245921Y70182D01*
Y80638D01*
X-244000D01*
Y85714D01*
X-243000D01*
Y86714D01*
X-238138D01*
Y90791D01*
X-238638D01*
Y95386D01*
X-237215Y96809D01*
X-235807Y96226D01*
D02*
G37*
G36*
X-223000Y76376D02*
Y63500D01*
X-223750Y62500D01*
X-228500D01*
X-229500Y63500D01*
Y76376D01*
X-229520Y76396D01*
X-229500Y76416D01*
X-228472Y89790D01*
X-223790D01*
X-223000Y76376D01*
D02*
G37*
G36*
X-209580Y88627D02*
Y84573D01*
X-205083Y82068D01*
X-196166D01*
Y64451D01*
X-201197Y59421D01*
X-206984D01*
Y64343D01*
X-206876Y64451D01*
X-207500Y65075D01*
Y66100D01*
X-208525D01*
X-211852Y69427D01*
X-215963D01*
Y76515D01*
X-214286Y89657D01*
X-210664Y89699D01*
X-209580Y88627D01*
D02*
G37*
G36*
X-332528Y62813D02*
X-332295Y61642D01*
X-331386Y59448D01*
X-331095Y59012D01*
X-331568Y57553D01*
X-331765Y57342D01*
X-332359Y57235D01*
X-352937Y77813D01*
X-353769Y78369D01*
X-354750Y78564D01*
X-387736D01*
X-387952Y78521D01*
X-389212Y79782D01*
X-391287Y80980D01*
X-393602Y81600D01*
X-395998D01*
X-398312Y80980D01*
X-400387Y79782D01*
X-402082Y78088D01*
X-403280Y76013D01*
X-403900Y73698D01*
Y71302D01*
X-403280Y68987D01*
X-402082Y66912D01*
X-400387Y65218D01*
X-398312Y64020D01*
X-395998Y63400D01*
X-393602D01*
X-391287Y64020D01*
X-389212Y65218D01*
X-387518Y66912D01*
X-386320Y68987D01*
X-385700Y71302D01*
Y73436D01*
X-365038D01*
X-364629Y71912D01*
X-365894Y71182D01*
X-367682Y69394D01*
X-368945Y67205D01*
X-369600Y64763D01*
Y64500D01*
X-360000D01*
X-350400D01*
Y64763D01*
X-350804Y66272D01*
X-349437Y67061D01*
X-334563Y52187D01*
X-333731Y51631D01*
X-332750Y51436D01*
X-330781D01*
X-330149Y49912D01*
X-330750Y49312D01*
X-331413Y48319D01*
X-332326Y46114D01*
X-332559Y44943D01*
Y43750D01*
X-332558Y43746D01*
X-332559Y43742D01*
X-332531Y32742D01*
X-332529Y32730D01*
Y31562D01*
X-332296Y30392D01*
X-331387Y28198D01*
X-330724Y27205D01*
X-329045Y25526D01*
X-328052Y24863D01*
X-325858Y23954D01*
X-324688Y23721D01*
X-322313D01*
X-321142Y23954D01*
X-318948Y24863D01*
X-317955Y25526D01*
X-316276Y27205D01*
X-315613Y28198D01*
X-314704Y30392D01*
X-314471Y31562D01*
Y32599D01*
X-314441Y32750D01*
X-314441Y44943D01*
X-314674Y46114D01*
X-315588Y48319D01*
X-316251Y49312D01*
X-316851Y49912D01*
X-316219Y51436D01*
X-295073D01*
X-284025Y40387D01*
X-283193Y39831D01*
X-282211Y39636D01*
X-281577D01*
Y37504D01*
X-281411Y37102D01*
Y25277D01*
X-282935Y24825D01*
X-283567Y25457D01*
X-284945Y26028D01*
X-286437D01*
X-287815Y25457D01*
X-288870Y24402D01*
X-289441Y23024D01*
Y22127D01*
X-290373D01*
X-291751Y21556D01*
X-292806Y20502D01*
X-293377Y19123D01*
Y17631D01*
X-292806Y16253D01*
X-291751Y15198D01*
X-290373Y14627D01*
X-288881D01*
X-287503Y15198D01*
X-286808Y15894D01*
X-281411D01*
Y10975D01*
X-281838Y10624D01*
X-282935Y10144D01*
X-283972Y10573D01*
X-285464D01*
X-286842Y10002D01*
X-287897Y8947D01*
X-288468Y7569D01*
Y6077D01*
X-287897Y4699D01*
X-286842Y3644D01*
X-285464Y3073D01*
X-283972D01*
X-282935Y3503D01*
X-281411Y2848D01*
Y-4252D01*
X-282915Y-5279D01*
X-284407D01*
X-285785Y-5850D01*
X-286840Y-6905D01*
X-287411Y-8283D01*
Y-9775D01*
X-286840Y-11153D01*
X-286009Y-11984D01*
X-286929Y-12904D01*
X-287500Y-14282D01*
Y-15774D01*
X-286929Y-17152D01*
X-286009Y-18073D01*
X-286840Y-18903D01*
X-287411Y-20282D01*
Y-21773D01*
X-286840Y-23152D01*
X-285785Y-24207D01*
X-284407Y-24778D01*
X-282915D01*
X-282881Y-24800D01*
X-274252D01*
Y-26800D01*
X-281911D01*
Y-28562D01*
X-281411D01*
Y-32062D01*
Y-44062D01*
Y-54922D01*
X-282935Y-55553D01*
X-290319Y-48169D01*
X-291068Y-47669D01*
X-291950Y-47494D01*
X-292412D01*
X-292811Y-46906D01*
X-293184Y-45970D01*
X-292712Y-44831D01*
Y-43339D01*
X-293283Y-41961D01*
X-294338Y-40906D01*
X-295716Y-40335D01*
X-296249D01*
X-297609Y-38977D01*
X-297581Y-38110D01*
X-297085Y-37772D01*
X-295593D01*
X-294215Y-37201D01*
X-293160Y-36146D01*
X-292589Y-34768D01*
Y-33276D01*
X-293160Y-31897D01*
X-294215Y-30843D01*
X-295593Y-30272D01*
X-297085D01*
X-297633Y-29897D01*
X-298089Y-28562D01*
X-298089Y-28562D01*
X-298089Y-28562D01*
Y-25617D01*
X-297065Y-24932D01*
X-295573D01*
X-294195Y-24361D01*
X-293140Y-23307D01*
X-292569Y-21928D01*
Y-20436D01*
X-293140Y-19058D01*
X-294195Y-18003D01*
X-294582Y-17843D01*
Y-17040D01*
X-294758Y-16157D01*
X-293929Y-14654D01*
X-293887Y-14636D01*
X-292832Y-13581D01*
X-292261Y-12203D01*
Y-10711D01*
X-292832Y-9333D01*
X-293887Y-8278D01*
X-293616Y-7661D01*
X-293583Y-7629D01*
X-293012Y-6250D01*
Y-4758D01*
X-293184Y-4344D01*
X-293447Y-2803D01*
X-292392Y-1748D01*
X-291821Y-370D01*
Y1122D01*
X-292392Y2500D01*
X-293447Y3555D01*
X-293567Y3605D01*
X-294757Y4521D01*
X-294602Y5420D01*
Y6892D01*
X-294062Y7116D01*
X-293007Y8171D01*
X-292436Y9549D01*
Y11041D01*
X-293007Y12420D01*
X-294062Y13474D01*
X-295440Y14045D01*
X-296932D01*
X-298089Y14818D01*
Y16962D01*
X-298589D01*
Y23938D01*
Y33794D01*
X-297065Y34736D01*
X-296496Y34500D01*
X-295408D01*
X-295004Y34500D01*
X-294023Y33366D01*
X-293974Y33277D01*
X-293429Y31962D01*
X-292374Y30907D01*
X-290996Y30336D01*
X-289504D01*
X-288126Y30907D01*
X-287071Y31962D01*
X-286500Y33340D01*
Y34832D01*
X-287071Y36210D01*
X-288126Y37265D01*
X-289504Y37836D01*
X-290592D01*
X-290996Y37836D01*
X-291978Y38970D01*
X-292026Y39059D01*
X-292571Y40374D01*
X-293626Y41429D01*
X-293330Y42956D01*
X-293000Y43754D01*
Y45246D01*
X-293571Y46624D01*
X-294626Y47679D01*
X-296004Y48250D01*
X-297496D01*
X-298874Y47679D01*
X-299929Y46624D01*
X-300500Y45246D01*
Y44506D01*
X-305748D01*
X-305971Y44462D01*
X-312907D01*
Y39938D01*
Y27938D01*
Y16962D01*
X-313407D01*
Y15200D01*
X-305748D01*
Y13200D01*
X-313407D01*
Y11438D01*
X-312907D01*
Y3938D01*
Y-7274D01*
X-318888D01*
X-319472Y-5750D01*
X-318337Y-4615D01*
X-317500Y-2594D01*
Y-406D01*
X-318337Y1616D01*
X-319884Y3163D01*
X-321906Y4000D01*
X-324094D01*
X-326115Y3163D01*
X-327663Y1616D01*
X-328500Y-406D01*
Y-2594D01*
X-327663Y-4615D01*
X-326528Y-5750D01*
X-327112Y-7274D01*
X-334580D01*
X-335463Y-7450D01*
X-336211Y-7950D01*
X-357587Y-29325D01*
X-358802Y-29000D01*
X-361198D01*
X-363513Y-29620D01*
X-365588Y-30818D01*
X-367282Y-32512D01*
X-368480Y-34587D01*
X-369100Y-36902D01*
Y-39298D01*
X-368480Y-41612D01*
X-367282Y-43687D01*
X-365588Y-45381D01*
X-363513Y-46579D01*
X-361198Y-47200D01*
X-358802D01*
X-356488Y-46579D01*
X-354413Y-45381D01*
X-352719Y-43687D01*
X-351521Y-41612D01*
X-350900Y-39298D01*
Y-36902D01*
X-351521Y-34587D01*
X-352719Y-32512D01*
X-353484Y-31746D01*
X-333625Y-11887D01*
X-330828D01*
X-330478Y-12732D01*
X-330324Y-13411D01*
X-330913Y-14292D01*
X-331826Y-16497D01*
X-332059Y-17667D01*
Y-18861D01*
Y-88941D01*
X-439941D01*
Y90941D01*
X-332528D01*
Y62813D01*
D02*
G37*
G36*
X-81188Y-25308D02*
X-92211D01*
X-95666Y-26659D01*
X-96997Y-27179D01*
X-97002Y-27176D01*
X-97009Y-27184D01*
X-97002Y-27189D01*
X-97002Y-28616D01*
Y-41732D01*
X-102882Y-41741D01*
X-103961Y-40665D01*
Y-39256D01*
X-101006Y-26152D01*
Y-21230D01*
X-97009D01*
X-92186Y-21168D01*
X-81188D01*
Y-25308D01*
D02*
G37*
G36*
X-226886Y4076D02*
X-221005Y-6782D01*
X-220817Y-6934D01*
X-220725Y-7157D01*
X-220163Y-7719D01*
X-219839Y-8501D01*
Y-8522D01*
X-219685Y-8895D01*
X-219643Y-9296D01*
X-219487Y-9583D01*
X-219397Y-9656D01*
X-219370Y-9769D01*
X-212560Y-19067D01*
X-212424Y-19149D01*
X-212358Y-19295D01*
X-209900Y-21587D01*
X-209623Y-21691D01*
X-209414Y-21900D01*
X-208766Y-22168D01*
X-208168Y-22766D01*
X-208008Y-23152D01*
X-207761Y-23400D01*
X-207616Y-23718D01*
X-195878Y-34668D01*
X-192762Y-37784D01*
X-193393Y-39308D01*
X-193496D01*
X-193848Y-39454D01*
X-195427Y-39626D01*
X-196481Y-38571D01*
X-197860Y-38000D01*
X-199352D01*
X-200730Y-38571D01*
X-201785Y-39626D01*
X-201949Y-39659D01*
X-202578Y-39030D01*
X-203956Y-38459D01*
X-205448D01*
X-206902Y-37426D01*
X-207775Y-36553D01*
Y-30241D01*
X-207950Y-29359D01*
X-208450Y-28611D01*
X-231932Y-5129D01*
Y-4762D01*
X-232107Y-3879D01*
X-232607Y-3131D01*
X-234852Y-886D01*
X-234851Y-812D01*
X-234381Y638D01*
X-233888D01*
Y4000D01*
X-238228D01*
Y6000D01*
X-233888D01*
Y7639D01*
X-232524Y8320D01*
X-226886Y4076D01*
D02*
G37*
G36*
X-104927Y-21323D02*
Y-26080D01*
X-105330D01*
X-110896Y-31646D01*
Y-32355D01*
X-109997Y-40280D01*
X-105500Y-43214D01*
Y-43229D01*
X-105478D01*
X-103961Y-44218D01*
X-98193D01*
X-97138Y-45351D01*
X-97284Y-46718D01*
X-103961D01*
X-117010Y-41454D01*
X-117030Y-41474D01*
X-124975D01*
Y-16039D01*
X-124928Y-14535D01*
X-117030D01*
X-104927Y-21323D01*
D02*
G37*
G36*
X-275225Y44900D02*
X-274673Y44671D01*
X-273181D01*
X-272755Y44847D01*
X-269256Y44773D01*
X-268502Y44460D01*
X-267010D01*
X-266968Y44478D01*
X-260110Y41640D01*
X-256250Y38750D01*
X-241000Y30752D01*
X-222059Y16274D01*
X-211250Y6696D01*
X-206250Y-2000D01*
X-203727Y-7179D01*
X-204379Y-7830D01*
X-204950Y-9208D01*
Y-10700D01*
X-204379Y-12078D01*
X-203324Y-13133D01*
X-201946Y-13704D01*
X-200548D01*
X-200500Y-13804D01*
X-173500Y-45500D01*
X-174043Y-49957D01*
X-175478Y-51392D01*
X-176128Y-51661D01*
X-176227Y-51620D01*
X-176885D01*
X-177665Y-51085D01*
X-178120Y-50465D01*
Y-49727D01*
X-178520Y-48760D01*
X-179260Y-48020D01*
X-180227Y-47620D01*
X-180603D01*
X-180750Y-47500D01*
X-194750Y-33500D01*
X-206508Y-22531D01*
X-206792Y-21847D01*
X-207847Y-20792D01*
X-208792Y-20400D01*
X-211250Y-18107D01*
X-218060Y-8810D01*
X-218215Y-8522D01*
Y-8178D01*
X-218786Y-6800D01*
X-219577Y-6009D01*
X-225627Y5161D01*
X-237345Y13980D01*
X-237709Y14857D01*
X-238764Y15912D01*
X-240142Y16483D01*
X-240670D01*
X-248000Y22000D01*
X-250470Y23785D01*
X-250626Y23941D01*
X-250766Y23999D01*
X-260110Y30752D01*
X-267093Y36287D01*
Y36462D01*
X-267314D01*
X-268656Y37526D01*
X-268678Y37504D01*
X-279953D01*
Y43911D01*
X-278864Y44977D01*
X-275225Y44900D01*
D02*
G37*
G36*
X-138984Y-41427D02*
X-139019Y-41461D01*
X-118750Y-45000D01*
X-104000Y-49227D01*
X-97024D01*
X-97011Y-49233D01*
Y-51744D01*
X-103784Y-51755D01*
X-116554Y-53068D01*
X-129767Y-53952D01*
X-130254Y-53750D01*
X-131746D01*
X-132708Y-54148D01*
X-138984Y-54568D01*
X-139036Y-83465D01*
X-140539Y-83515D01*
X-147001D01*
Y-82277D01*
X-158530Y-70748D01*
X-171540D01*
Y-68390D01*
X-165346D01*
X-164463Y-68214D01*
X-163715Y-67714D01*
X-163369Y-67368D01*
X-162869Y-66620D01*
X-162694Y-65738D01*
X-162869Y-64855D01*
X-163369Y-64107D01*
X-164117Y-63607D01*
X-165000Y-63431D01*
X-165883Y-63607D01*
X-166137Y-63777D01*
X-171540D01*
Y-60675D01*
X-177192Y-55444D01*
X-177149Y-53878D01*
X-176508Y-53244D01*
X-176227D01*
X-176028Y-53161D01*
X-175507Y-53161D01*
X-175281Y-53068D01*
X-161568D01*
X-158967Y-50467D01*
X-158876Y-50429D01*
X-157821Y-49374D01*
X-157783Y-49283D01*
X-151320Y-42820D01*
X-150376Y-42429D01*
X-149321Y-41374D01*
X-148930Y-40430D01*
X-147000Y-38500D01*
Y-14532D01*
X-146967Y-14499D01*
X-138984D01*
Y-41427D01*
D02*
G37*
G36*
X-97012Y-56571D02*
X-98519Y-56766D01*
X-104003D01*
X-105458Y-57729D01*
X-105500D01*
Y-57756D01*
X-116912Y-65305D01*
Y-79541D01*
X-117000Y-79754D01*
Y-81246D01*
X-116912Y-81459D01*
Y-83478D01*
X-124843D01*
X-124848Y-56476D01*
X-124843Y-56471D01*
X-103966Y-54191D01*
X-97012D01*
Y-56571D01*
D02*
G37*
G36*
X-96997Y-59377D02*
Y-61634D01*
X-96500Y-63229D01*
X-93983Y-70733D01*
X-93907Y-86907D01*
X-107750Y-100750D01*
X-154250Y-100750D01*
X-158772Y-96228D01*
X-159000Y-96000D01*
Y-95677D01*
Y-88250D01*
Y-88250D01*
X-157750Y-87000D01*
X-124620Y-87000D01*
X-113000Y-84500D01*
X-112515Y-84250D01*
X-112504D01*
X-111126Y-83679D01*
X-110825Y-83378D01*
X-105004Y-80377D01*
X-105013Y-70742D01*
X-104073Y-59218D01*
X-97156D01*
X-96997Y-59377D01*
D02*
G37*
G36*
X-305748Y-56106D02*
X-294405D01*
X-267631Y-82881D01*
X-266883Y-83381D01*
X-266000Y-83556D01*
X-262599D01*
X-262295Y-83759D01*
X-261684Y-83881D01*
X-257992D01*
X-257881Y-84016D01*
Y-87469D01*
X-257899Y-87562D01*
Y-87805D01*
X-259451D01*
X-260432Y-88000D01*
X-261264Y-88556D01*
X-261971Y-89263D01*
X-262004Y-89250D01*
X-263496D01*
X-263900Y-88980D01*
Y-87400D01*
X-271000D01*
Y-86900D01*
X-274800D01*
Y-91500D01*
Y-96100D01*
X-271000D01*
Y-95600D01*
X-265453D01*
X-264874Y-96179D01*
X-263496Y-96750D01*
X-262626D01*
X-259070Y-100306D01*
X-259345Y-102186D01*
X-259346Y-102187D01*
X-261514Y-104355D01*
X-262059Y-104899D01*
X-263521Y-104344D01*
X-264114Y-103751D01*
X-265107Y-103088D01*
X-267312Y-102174D01*
X-268483Y-101941D01*
X-269676Y-101941D01*
X-313941Y-101941D01*
Y-57157D01*
X-312907Y-56062D01*
X-305971D01*
X-305748Y-56106D01*
D02*
G37*
G36*
X-207881Y-44333D02*
X-206826Y-45388D01*
X-205448Y-45959D01*
X-203956D01*
X-202578Y-45388D01*
X-201523Y-44333D01*
X-201359Y-44300D01*
X-200730Y-44929D01*
X-199352Y-45500D01*
X-197860D01*
X-197508Y-45354D01*
X-196563Y-45251D01*
X-195315Y-46354D01*
Y-48500D01*
X-195120Y-49482D01*
X-194564Y-50314D01*
X-192902Y-51976D01*
X-192932Y-52350D01*
X-193408Y-53500D01*
X-193996D01*
X-195374Y-54071D01*
X-196429Y-55126D01*
X-197000Y-56504D01*
Y-57996D01*
X-196429Y-59374D01*
X-195374Y-60429D01*
X-193996Y-61000D01*
X-192504D01*
X-191126Y-60429D01*
X-190071Y-59374D01*
X-189500Y-57996D01*
Y-56504D01*
X-190071Y-55126D01*
X-190858Y-54339D01*
X-190543Y-53076D01*
X-190390Y-52815D01*
X-184423D01*
X-184132Y-53250D01*
X-180750D01*
Y-54250D01*
X-179750D01*
Y-57224D01*
X-178977Y-56904D01*
X-178295Y-56635D01*
X-173164Y-61385D01*
Y-63777D01*
X-176333D01*
X-177216Y-63952D01*
X-177964Y-64453D01*
X-183131Y-69619D01*
X-183131Y-69619D01*
X-188274Y-74762D01*
X-188394Y-74730D01*
X-190106D01*
X-191759Y-75173D01*
X-193241Y-76028D01*
X-194451Y-77238D01*
X-195307Y-78721D01*
X-195750Y-80374D01*
Y-82085D01*
X-195307Y-83738D01*
X-194451Y-85221D01*
X-193241Y-86431D01*
X-191759Y-87287D01*
X-190106Y-87730D01*
X-188394D01*
X-186741Y-87287D01*
X-185259Y-86431D01*
X-184049Y-85221D01*
X-183193Y-83738D01*
X-182750Y-82085D01*
Y-80374D01*
X-183193Y-78721D01*
X-184049Y-77238D01*
X-184138Y-77150D01*
X-179869Y-72881D01*
X-179869Y-72881D01*
X-175378Y-68390D01*
X-173164D01*
Y-70748D01*
X-173041Y-71044D01*
Y-71917D01*
X-173541Y-73234D01*
X-173541Y-73234D01*
X-173541Y-73234D01*
Y-79262D01*
X-165000D01*
Y-80262D01*
X-164000D01*
Y-87291D01*
X-161264D01*
X-160624Y-88250D01*
Y-96000D01*
X-160148Y-97148D01*
X-157939Y-99357D01*
X-158522Y-100765D01*
X-206500Y-100765D01*
X-207458Y-100765D01*
X-207850Y-100843D01*
X-208249Y-100869D01*
X-210099Y-101365D01*
X-211168Y-100244D01*
X-211188Y-100208D01*
X-211240Y-100043D01*
X-209119Y-97923D01*
X-208619Y-97175D01*
X-208444Y-96292D01*
Y-93000D01*
Y-70747D01*
X-207571Y-69874D01*
X-207000Y-68496D01*
Y-67004D01*
X-207571Y-65626D01*
X-208626Y-64571D01*
X-210004Y-64000D01*
X-210026D01*
Y-44679D01*
X-208502Y-43892D01*
X-207881Y-44333D01*
D02*
G37*
%LPC*%
G36*
X79000Y164348D02*
X75333D01*
Y163848D01*
X68667D01*
Y164348D01*
X65000D01*
Y157141D01*
Y149934D01*
X66635D01*
Y148000D01*
X67043Y145947D01*
X68206Y144206D01*
X69947Y143043D01*
X72000Y142635D01*
X74053Y143043D01*
X75794Y144206D01*
X76957Y145947D01*
X77365Y148000D01*
Y149934D01*
X79000D01*
Y157141D01*
Y164348D01*
D02*
G37*
G36*
X63000D02*
X59333D01*
Y163848D01*
X52667D01*
Y164348D01*
X49000D01*
Y157141D01*
Y149934D01*
X50635D01*
Y148000D01*
X51043Y145947D01*
X52206Y144206D01*
X53947Y143043D01*
X56000Y142635D01*
X58053Y143043D01*
X59794Y144206D01*
X60957Y145947D01*
X61365Y148000D01*
Y149934D01*
X63000D01*
Y157141D01*
Y164348D01*
D02*
G37*
G36*
X47000D02*
X43333D01*
Y163848D01*
X36667D01*
Y164348D01*
X33000D01*
Y157141D01*
Y149934D01*
X34635D01*
Y148000D01*
X35043Y145947D01*
X36206Y144206D01*
X37947Y143043D01*
X40000Y142635D01*
X42053Y143043D01*
X43794Y144206D01*
X44957Y145947D01*
X45365Y148000D01*
Y149934D01*
X47000D01*
Y157141D01*
Y164348D01*
D02*
G37*
G36*
X31000D02*
X27333D01*
Y163848D01*
X20667D01*
Y164348D01*
X17000D01*
Y157141D01*
Y149934D01*
X18635D01*
Y148000D01*
X19043Y145947D01*
X20206Y144206D01*
X21947Y143043D01*
X24000Y142635D01*
X26053Y143043D01*
X27794Y144206D01*
X28957Y145947D01*
X29365Y148000D01*
Y149934D01*
X31000D01*
Y157141D01*
Y164348D01*
D02*
G37*
G36*
X15000D02*
X11333D01*
Y163848D01*
X4667D01*
Y164348D01*
X1000D01*
Y157141D01*
Y149934D01*
X2635D01*
Y148000D01*
X3043Y145947D01*
X4206Y144206D01*
X5947Y143043D01*
X8000Y142635D01*
X10053Y143043D01*
X11794Y144206D01*
X12957Y145947D01*
X13365Y148000D01*
Y149934D01*
X15000D01*
Y157141D01*
Y164348D01*
D02*
G37*
G36*
X-1000D02*
X-4667D01*
Y163848D01*
X-11333D01*
Y164348D01*
X-15000D01*
Y157141D01*
Y149934D01*
X-13365D01*
Y148000D01*
X-12957Y145947D01*
X-11794Y144206D01*
X-10053Y143043D01*
X-8000Y142635D01*
X-5947Y143043D01*
X-4206Y144206D01*
X-3043Y145947D01*
X-2635Y148000D01*
Y149934D01*
X-1000D01*
Y157141D01*
Y164348D01*
D02*
G37*
G36*
X-17000D02*
X-20667D01*
Y163848D01*
X-27333D01*
Y164348D01*
X-31000D01*
Y157141D01*
Y149934D01*
X-29365D01*
Y148000D01*
X-28957Y145947D01*
X-27794Y144206D01*
X-26053Y143043D01*
X-24000Y142635D01*
X-21947Y143043D01*
X-20206Y144206D01*
X-19043Y145947D01*
X-18635Y148000D01*
Y149934D01*
X-17000D01*
Y157141D01*
Y164348D01*
D02*
G37*
G36*
X-206500Y171500D02*
X-223500D01*
Y158500D01*
X-206500D01*
Y171500D01*
D02*
G37*
G36*
X-290000D02*
X-307000D01*
Y158500D01*
X-290000D01*
Y171500D01*
D02*
G37*
G36*
X84667Y164348D02*
X81000D01*
Y158141D01*
X84667D01*
Y164348D01*
D02*
G37*
G36*
X156000Y161979D02*
Y156000D01*
X161979D01*
X161523Y157702D01*
X160601Y159298D01*
X159298Y160601D01*
X157702Y161523D01*
X156000Y161979D01*
D02*
G37*
G36*
X154000Y161979D02*
X152298Y161523D01*
X150702Y160601D01*
X149399Y159298D01*
X148477Y157702D01*
X148021Y156000D01*
X154000D01*
Y161979D01*
D02*
G37*
G36*
X-100469Y162031D02*
X-106994D01*
Y156000D01*
X-100469D01*
Y162031D01*
D02*
G37*
G36*
X184494D02*
X177969D01*
Y156000D01*
X184494D01*
Y162031D01*
D02*
G37*
G36*
X216314Y166300D02*
X214206D01*
X212258Y165493D01*
X210767Y164002D01*
X209960Y162054D01*
Y159946D01*
X210767Y157998D01*
X212258Y156507D01*
X214206Y155700D01*
X216314D01*
X218262Y156507D01*
X219753Y157998D01*
X220560Y159946D01*
Y162054D01*
X219753Y164002D01*
X218262Y165493D01*
X216314Y166300D01*
D02*
G37*
G36*
X84667Y156141D02*
X81000D01*
Y149934D01*
X84667D01*
Y156141D01*
D02*
G37*
G36*
X154000Y154000D02*
X148021D01*
X148477Y152298D01*
X149399Y150702D01*
X150702Y149399D01*
X152298Y148477D01*
X154000Y148021D01*
Y154000D01*
D02*
G37*
G36*
X161979D02*
X156000D01*
Y148021D01*
X157702Y148477D01*
X159298Y149399D01*
X160601Y150702D01*
X161523Y152298D01*
X161979Y154000D01*
D02*
G37*
G36*
X184494Y154000D02*
X177969D01*
Y147969D01*
X184494D01*
Y154000D01*
D02*
G37*
G36*
X-100469D02*
X-106994D01*
Y147969D01*
X-100469D01*
Y154000D01*
D02*
G37*
G36*
X-134206Y166300D02*
X-136314D01*
X-138262Y165493D01*
X-139753Y164002D01*
X-140560Y162054D01*
Y159946D01*
X-139753Y157998D01*
X-138262Y156507D01*
X-136314Y155700D01*
X-134206D01*
X-132258Y156507D01*
X-130767Y157998D01*
X-130555Y158509D01*
X-129031Y158206D01*
Y153516D01*
X-132428Y150119D01*
X-133201Y148961D01*
X-133473Y147596D01*
Y144415D01*
X-133750Y143746D01*
Y142254D01*
X-133179Y140876D01*
X-132124Y139821D01*
X-130746Y139250D01*
X-129254D01*
X-127876Y139821D01*
X-126821Y140876D01*
X-126250Y142254D01*
Y143746D01*
X-126336Y143953D01*
Y146117D01*
X-123984Y148469D01*
X-115520D01*
Y147969D01*
X-108994D01*
Y155000D01*
Y162031D01*
X-115520D01*
Y161531D01*
X-128552D01*
X-129384Y161840D01*
X-130149Y162511D01*
X-130767Y164002D01*
X-132258Y165493D01*
X-134206Y166300D01*
D02*
G37*
G36*
X-33000Y164348D02*
X-36667D01*
Y163848D01*
X-44167D01*
Y160376D01*
X-44957Y159194D01*
X-45365Y157141D01*
Y148000D01*
X-44957Y145947D01*
X-43794Y144206D01*
X-42053Y143043D01*
X-40000Y142635D01*
X-37947Y143043D01*
X-36206Y144206D01*
X-35043Y145947D01*
X-34635Y148000D01*
Y149934D01*
X-33000D01*
Y157141D01*
Y164348D01*
D02*
G37*
G36*
X193020Y162031D02*
X186494D01*
Y155000D01*
Y147969D01*
X193020D01*
Y148469D01*
X200492D01*
X200508Y148446D01*
X206639Y142314D01*
X206821Y141876D01*
X207876Y140821D01*
X209254Y140250D01*
X210746D01*
X210953Y140336D01*
X219033D01*
X219799Y139009D01*
X221009Y137799D01*
X222491Y136943D01*
X224144Y136500D01*
X225856D01*
X227509Y136943D01*
X228991Y137799D01*
X230201Y139009D01*
X231057Y140491D01*
X231500Y142144D01*
Y143856D01*
X231057Y145509D01*
X230201Y146991D01*
X228991Y148201D01*
X227509Y149057D01*
X225856Y149500D01*
X224144D01*
X222491Y149057D01*
X221009Y148201D01*
X220281Y147473D01*
X211574D01*
X206531Y152516D01*
Y161531D01*
X193020D01*
Y162031D01*
D02*
G37*
G36*
X31094Y116500D02*
X28906D01*
X26885Y115663D01*
X25337Y114115D01*
X24500Y112094D01*
Y109906D01*
X25337Y107885D01*
X26885Y106337D01*
X28906Y105500D01*
X31094D01*
X33115Y106337D01*
X34663Y107885D01*
X35500Y109906D01*
Y112094D01*
X34663Y114115D01*
X33115Y115663D01*
X31094Y116500D01*
D02*
G37*
G36*
X14094D02*
X11906D01*
X9884Y115663D01*
X8337Y114115D01*
X7500Y112094D01*
Y109906D01*
X8337Y107885D01*
X9884Y106337D01*
X11906Y105500D01*
X14094D01*
X16115Y106337D01*
X17663Y107885D01*
X18500Y109906D01*
Y112094D01*
X17663Y114115D01*
X16115Y115663D01*
X14094Y116500D01*
D02*
G37*
G36*
X-3656D02*
X-5844D01*
X-7865Y115663D01*
X-9413Y114115D01*
X-10250Y112094D01*
Y109906D01*
X-9413Y107885D01*
X-7865Y106337D01*
X-5844Y105500D01*
X-3656D01*
X-1635Y106337D01*
X-87Y107885D01*
X750Y109906D01*
Y112094D01*
X-87Y114115D01*
X-1635Y115663D01*
X-3656Y116500D01*
D02*
G37*
G36*
X-67243Y96362D02*
X-70743D01*
Y92362D01*
X-72743D01*
Y96362D01*
X-76243D01*
Y93850D01*
X-79750D01*
Y89050D01*
X-81750D01*
Y93850D01*
X-85297D01*
X-85626Y94179D01*
X-87004Y94750D01*
X-88496D01*
X-89874Y94179D01*
X-90929Y93124D01*
X-91500Y91746D01*
Y90439D01*
X-93187Y88751D01*
X-93240Y88730D01*
X-93750Y88219D01*
X-94260Y88730D01*
X-94525Y88839D01*
X-96500Y90814D01*
Y91246D01*
X-97071Y92624D01*
X-98126Y93679D01*
X-99504Y94250D01*
X-100996D01*
X-102374Y93679D01*
X-103429Y92624D01*
X-104000Y91246D01*
Y89754D01*
X-103429Y88376D01*
X-102374Y87321D01*
X-100996Y86750D01*
X-99689D01*
X-98001Y85063D01*
X-97980Y85010D01*
X-97823Y84854D01*
X-98404Y84273D01*
X-98724Y83500D01*
X-95750D01*
Y82500D01*
X-94750D01*
Y79526D01*
X-93977Y79847D01*
X-93396Y80427D01*
X-93240Y80270D01*
X-92975Y80161D01*
X-92451Y79637D01*
X-91619Y79081D01*
X-90638Y78886D01*
X-86375D01*
X-86165Y78551D01*
X-86778Y76875D01*
X-87254Y76557D01*
X-88587Y75808D01*
X-89479Y76404D01*
X-90531Y76613D01*
X-91583Y76404D01*
X-91749Y76293D01*
X-92598Y75863D01*
X-93880Y76433D01*
X-94126Y76679D01*
X-95504Y77250D01*
X-96996D01*
X-98374Y76679D01*
X-99429Y75624D01*
X-100000Y74246D01*
Y72754D01*
X-99429Y71376D01*
X-98374Y70321D01*
X-96996Y69750D01*
X-95504D01*
X-95407Y69791D01*
X-94024Y68829D01*
X-94166Y67926D01*
X-94745Y67749D01*
X-99395D01*
X-100447Y67540D01*
X-101339Y66944D01*
X-103146Y66983D01*
X-103206Y67044D01*
X-104370Y67821D01*
Y68773D01*
X-104694Y69555D01*
Y78250D01*
X-104869Y79133D01*
X-105369Y79881D01*
X-106388Y80899D01*
Y86181D01*
X-105888D01*
Y90021D01*
X-110750D01*
X-115612D01*
Y89158D01*
X-117136Y88476D01*
X-117367Y88631D01*
X-118250Y88806D01*
X-120945D01*
X-121727Y89130D01*
X-122773D01*
X-123740Y88730D01*
X-124263Y88207D01*
X-124597Y88273D01*
X-125477Y89153D01*
X-126627Y89630D01*
X-127873D01*
X-127982Y89585D01*
X-128456Y90294D01*
X-130956Y92794D01*
X-132697Y93957D01*
X-134750Y94365D01*
X-142293D01*
X-143491Y95057D01*
X-145144Y95500D01*
X-146856D01*
X-148509Y95057D01*
X-149991Y94201D01*
X-151201Y92991D01*
X-152057Y91509D01*
X-152415Y90172D01*
X-155544Y87044D01*
X-156707Y85303D01*
X-157115Y83250D01*
Y79862D01*
X-158639Y79047D01*
X-159444Y79585D01*
X-160250Y79745D01*
Y71655D01*
X-162250D01*
Y79745D01*
X-163056Y79585D01*
X-164587Y78562D01*
X-165097Y77799D01*
X-166621Y78262D01*
Y79353D01*
X-174879D01*
Y63956D01*
X-170247D01*
X-167419Y61128D01*
X-167140Y60942D01*
X-166800Y59376D01*
X-166854Y59072D01*
X-169959Y55967D01*
X-170750Y56124D01*
X-172361Y55804D01*
X-173727Y54891D01*
X-174640Y53526D01*
X-174960Y51914D01*
Y44776D01*
X-174640Y43165D01*
X-173727Y41799D01*
X-172361Y40886D01*
X-170750Y40566D01*
X-169139Y40886D01*
X-167773Y41799D01*
X-166860Y43165D01*
X-166777Y43584D01*
X-165223D01*
X-165140Y43165D01*
X-164227Y41799D01*
X-165106Y40662D01*
X-165131Y40631D01*
X-165131Y40631D01*
X-165631Y39883D01*
X-165806Y39000D01*
Y38500D01*
X-168500D01*
Y30500D01*
X-167795D01*
X-166862Y29362D01*
Y20638D01*
X-149138D01*
Y29230D01*
X-148500Y30500D01*
X-147520Y31618D01*
X-140186Y35947D01*
X-138862Y35192D01*
Y33250D01*
X-134022D01*
Y32250D01*
X-133021D01*
Y27388D01*
X-129181D01*
Y27888D01*
X-121684D01*
X-121679Y27876D01*
X-121064Y27261D01*
Y25609D01*
X-121259Y25557D01*
X-122741Y24701D01*
X-123951Y23491D01*
X-124807Y22009D01*
X-125250Y20356D01*
Y18644D01*
X-124807Y16991D01*
X-123951Y15509D01*
X-122741Y14299D01*
X-121259Y13443D01*
X-119606Y13000D01*
X-117894D01*
X-116241Y13443D01*
X-114759Y14299D01*
X-113549Y15509D01*
X-112693Y16991D01*
X-112250Y18644D01*
Y20356D01*
X-112693Y22009D01*
X-113549Y23491D01*
X-114759Y24701D01*
X-115936Y25381D01*
Y27261D01*
X-115321Y27876D01*
X-115200Y28168D01*
X-113550D01*
X-113429Y27876D01*
X-112374Y26821D01*
X-110996Y26250D01*
X-109504D01*
X-108126Y26821D01*
X-107071Y27876D01*
X-106500Y29254D01*
Y30746D01*
X-107071Y32124D01*
X-108126Y33179D01*
X-109504Y33750D01*
X-110996D01*
X-112374Y33179D01*
X-113429Y32124D01*
X-113550Y31832D01*
X-115200D01*
X-115321Y32124D01*
X-116376Y33179D01*
X-117360Y33586D01*
X-117741Y33842D01*
X-118723Y34037D01*
X-120638D01*
Y36612D01*
X-129181D01*
Y37112D01*
X-134192D01*
X-134736Y38636D01*
X-134275Y39014D01*
X-133250Y38750D01*
Y38750D01*
X-130250D01*
Y43250D01*
X-129250D01*
Y44250D01*
X-125250D01*
Y47650D01*
X-124650D01*
Y51250D01*
X-129450D01*
Y52250D01*
X-130450D01*
Y56850D01*
X-134250D01*
Y56462D01*
X-144621D01*
X-145252Y57986D01*
X-139601Y63638D01*
X-132657D01*
X-131768Y63043D01*
X-129714Y62635D01*
X-128457Y62885D01*
X-120326D01*
X-120023Y61361D01*
X-120897Y60999D01*
X-121952Y59944D01*
X-122523Y58566D01*
Y57074D01*
X-121952Y55696D01*
X-120897Y54641D01*
X-119519Y54070D01*
X-118027D01*
X-116649Y54641D01*
X-115594Y55696D01*
X-115023Y57074D01*
Y58322D01*
X-113640Y58908D01*
X-113537Y58847D01*
X-112500Y57996D01*
Y56754D01*
X-112343Y56374D01*
X-112488Y54850D01*
X-112488Y54850D01*
X-112488Y54850D01*
Y47750D01*
X-112988D01*
Y43950D01*
X-108388D01*
Y42950D01*
X-107388D01*
Y38150D01*
X-103788D01*
X-103788Y38150D01*
X-102381Y37867D01*
X-101496Y37500D01*
X-100750Y37250D01*
X-100750Y36255D01*
Y30250D01*
X-100750D01*
X-100808Y28750D01*
X-101250D01*
Y25750D01*
X-96250D01*
Y24750D01*
X-95250D01*
Y20750D01*
X-93897D01*
X-93266Y19226D01*
X-93523Y18968D01*
X-94094Y17590D01*
Y16098D01*
X-93523Y14720D01*
X-92468Y13665D01*
X-91090Y13094D01*
X-89598D01*
X-88220Y13665D01*
X-87165Y14720D01*
X-87051Y14995D01*
X-85814Y15686D01*
X-83000D01*
Y19957D01*
X-81000D01*
Y15686D01*
X-78186D01*
Y20318D01*
X-76778Y20902D01*
X-75750Y19874D01*
Y15500D01*
X-73527D01*
X-72500Y13996D01*
Y12504D01*
X-71929Y11126D01*
X-70874Y10071D01*
X-70761Y10024D01*
X-71064Y8500D01*
X-75250Y8500D01*
X-76567Y8000D01*
X-82750D01*
Y3263D01*
X-82799Y3015D01*
Y478D01*
X-84124Y-71D01*
X-84754Y-701D01*
X-85455Y-1060D01*
X-86680Y-767D01*
X-87126Y-321D01*
X-88504Y250D01*
X-89729D01*
X-90820Y1190D01*
X-91000Y1394D01*
Y3106D01*
X-91443Y4759D01*
X-92299Y6241D01*
X-93509Y7451D01*
X-94991Y8307D01*
X-96644Y8750D01*
X-98356D01*
X-100009Y8307D01*
X-101491Y7451D01*
X-102701Y6241D01*
X-103557Y4759D01*
X-104000Y3106D01*
Y1394D01*
X-103557Y-259D01*
X-102701Y-1741D01*
X-101491Y-2951D01*
X-100009Y-3807D01*
X-98356Y-4250D01*
X-96644D01*
X-95053Y-3824D01*
X-93961Y-4916D01*
X-93129Y-5471D01*
X-92435Y-5609D01*
X-92429Y-5624D01*
X-91374Y-6679D01*
X-89996Y-7250D01*
X-88504D01*
X-87126Y-6679D01*
X-86496Y-6049D01*
X-85795Y-5690D01*
X-84570Y-5983D01*
X-84124Y-6429D01*
X-82746Y-7000D01*
X-81254D01*
X-79876Y-6429D01*
X-78821Y-5374D01*
X-78250Y-3996D01*
Y-2504D01*
X-78284Y-2423D01*
X-77866Y-1798D01*
X-77684Y-882D01*
X-77375Y-689D01*
X-76147Y-159D01*
X-75250Y-500D01*
X-74433Y-500D01*
X-72250D01*
Y4000D01*
X-71250D01*
Y5000D01*
X-67250D01*
Y8163D01*
X-67250Y8500D01*
X-66995Y9918D01*
X-66626Y10071D01*
X-65571Y11126D01*
X-65000Y12504D01*
Y13290D01*
X-64408Y13781D01*
X-63589Y14268D01*
X-61624Y13877D01*
X-59874Y14225D01*
X-58701Y13560D01*
X-58350Y13222D01*
Y7500D01*
X-58850D01*
Y3700D01*
X-54250D01*
Y1700D01*
X-58850D01*
Y-2100D01*
X-57894D01*
X-57825Y-2211D01*
X-57427Y-3624D01*
X-58179Y-4376D01*
X-58750Y-5754D01*
Y-7246D01*
X-58179Y-8624D01*
X-57124Y-9679D01*
X-55746Y-10250D01*
X-54254D01*
X-52876Y-9679D01*
X-51821Y-8624D01*
X-51250Y-7246D01*
Y-5754D01*
X-51821Y-4376D01*
X-52573Y-3624D01*
X-52175Y-2211D01*
X-52106Y-2100D01*
X-49650D01*
Y-1250D01*
X-46250D01*
Y2750D01*
X-44250D01*
Y-1250D01*
X-40750D01*
X-40612Y-2717D01*
Y-4862D01*
X-36750D01*
Y-22D01*
X-34750D01*
Y-4862D01*
X-32907D01*
X-32141Y-6386D01*
X-32500Y-7254D01*
Y-8746D01*
X-31929Y-10124D01*
X-30874Y-11179D01*
X-29496Y-11750D01*
X-28004D01*
X-26626Y-11179D01*
X-26555Y-11108D01*
X-25031Y-11739D01*
Y-15600D01*
X-25485Y-15897D01*
X-27321Y-15376D01*
X-28376Y-14321D01*
X-29754Y-13750D01*
X-31246D01*
X-32624Y-14321D01*
X-33679Y-15376D01*
X-34250Y-16754D01*
Y-18246D01*
X-33679Y-19624D01*
X-32624Y-20679D01*
X-32496Y-20732D01*
X-32264Y-22478D01*
X-38317Y-27147D01*
X-42395D01*
X-53690Y-21605D01*
X-53637Y-19934D01*
X-53626Y-19929D01*
X-52571Y-18874D01*
X-52000Y-17496D01*
Y-16004D01*
X-52571Y-14626D01*
X-53626Y-13571D01*
X-55004Y-13000D01*
X-56496D01*
X-57874Y-13571D01*
X-58929Y-14626D01*
X-59500Y-16004D01*
Y-17496D01*
X-59292Y-17998D01*
X-60274Y-19521D01*
X-68284Y-19513D01*
X-68284Y-19513D01*
X-68285Y-19513D01*
X-68617Y-19650D01*
X-70852D01*
Y-21887D01*
X-70987Y-22213D01*
X-70987Y-22213D01*
X-70987Y-22214D01*
Y-25279D01*
X-70852Y-25605D01*
Y-26398D01*
X-71874Y-26821D01*
X-72929Y-27876D01*
X-73500Y-29254D01*
Y-30746D01*
X-72929Y-32124D01*
X-71874Y-33179D01*
X-70496Y-33750D01*
X-69004D01*
X-68661Y-33608D01*
X-67798Y-34900D01*
X-70626Y-37729D01*
X-76000D01*
Y-36579D01*
X-85250D01*
Y-50479D01*
Y-64378D01*
X-76000D01*
Y-63229D01*
X-73564D01*
Y-68983D01*
X-75000D01*
Y-76733D01*
X-67000D01*
Y-75659D01*
X-63996D01*
Y-77207D01*
X-55996D01*
Y-69457D01*
X-63996D01*
Y-70531D01*
X-67000D01*
Y-68983D01*
X-68436D01*
Y-63229D01*
X-67000D01*
Y-58043D01*
X-64978D01*
X-63997Y-57848D01*
X-63165Y-57292D01*
X-61368Y-55495D01*
X-60157Y-55997D01*
X-58665D01*
X-57287Y-55426D01*
X-57244Y-55383D01*
X-54814Y-57812D01*
Y-60378D01*
X-54619Y-61360D01*
X-54063Y-62191D01*
X-50612Y-65642D01*
Y-70112D01*
X-42069D01*
Y-70612D01*
X-38228D01*
Y-65750D01*
X-37229D01*
Y-64750D01*
X-32388D01*
Y-60888D01*
X-32138Y-60612D01*
X-32138D01*
Y-56750D01*
X-36978D01*
Y-55750D01*
X-37978D01*
Y-50888D01*
X-41819D01*
Y-51388D01*
X-46736D01*
X-51350Y-46774D01*
X-50718Y-45250D01*
X-47255D01*
Y-43874D01*
X-44250D01*
Y-45245D01*
X-36250D01*
Y-39268D01*
X-34726Y-38611D01*
X-26671Y-46222D01*
X-26031Y-47481D01*
Y-54006D01*
X-19000D01*
X-11969D01*
Y-47481D01*
X-11969D01*
X-12423Y-46467D01*
Y-44066D01*
X-10500D01*
Y-45000D01*
X-1000D01*
Y-35000D01*
X-10500D01*
Y-36929D01*
X-12214D01*
X-12403Y-35405D01*
X-11571Y-30031D01*
X-11469D01*
X-11373Y-28754D01*
X-11404Y-28627D01*
X-11354Y-28506D01*
Y-17336D01*
X-10969Y-16520D01*
X-10969D01*
Y-9994D01*
X-18000D01*
Y-8994D01*
X-19000D01*
Y-1469D01*
X-23972D01*
Y-1343D01*
X-24543Y35D01*
X-25598Y1090D01*
X-26976Y1661D01*
X-28468D01*
X-29364Y1290D01*
X-30888Y2040D01*
Y4819D01*
X-31388D01*
Y10600D01*
X-31338Y10847D01*
Y12035D01*
X-31124Y12250D01*
X-30254D01*
X-29024Y12760D01*
X-28308Y12499D01*
X-27500Y12041D01*
Y7500D01*
X-23500D01*
Y12000D01*
Y16500D01*
X-26286D01*
X-26784Y17436D01*
X-25918Y18877D01*
X-23729D01*
X-23728Y18877D01*
X-21577Y19305D01*
X-19752Y20524D01*
X-16187Y24089D01*
X-16187Y24090D01*
X-16144Y24154D01*
X-11339Y28959D01*
X-11274Y29002D01*
X-10055Y30827D01*
X-9627Y32978D01*
X-10055Y35130D01*
X-10619Y35975D01*
X-11258Y36978D01*
X-10435Y38227D01*
X-8206Y40456D01*
X-7043Y42197D01*
X-6635Y44250D01*
Y51729D01*
X-7043Y53782D01*
X-7608Y54626D01*
X-8054Y55725D01*
X-7466Y56815D01*
X-6500Y58261D01*
X-6092Y60315D01*
Y66885D01*
X-2372D01*
X-1292Y65805D01*
Y63891D01*
X-2515Y63074D01*
X-3538Y61542D01*
X-3927D01*
Y60080D01*
X-4086Y59280D01*
X-3927Y58480D01*
Y51430D01*
X2519D01*
X4073Y51121D01*
X5627Y51430D01*
X12073D01*
Y61542D01*
X9438D01*
Y68027D01*
X9030Y70080D01*
X8097Y71476D01*
X8482Y72564D01*
X8843Y73000D01*
X8949Y73000D01*
X8949Y73000D01*
X9033Y73000D01*
X11450D01*
Y76000D01*
X7900D01*
Y74134D01*
Y74094D01*
Y74094D01*
X7900Y73943D01*
X7511Y73782D01*
X6376Y73311D01*
X4915Y74772D01*
Y82000D01*
X4507Y84053D01*
X3600Y85410D01*
Y85500D01*
X3540D01*
X3344Y85794D01*
X1603Y86957D01*
X-450Y87365D01*
X-2503Y86957D01*
X-4244Y85794D01*
X-4349Y85673D01*
X-4500Y85500D01*
Y85500D01*
X-5292Y84903D01*
X-6980Y85186D01*
X-7706Y86272D01*
X-9447Y87435D01*
X-11500Y87844D01*
X-13553Y87435D01*
X-14045Y87107D01*
X-15431Y86612D01*
X-15431Y86612D01*
X-15431Y86612D01*
X-18772D01*
Y82250D01*
X-20772D01*
Y86612D01*
X-24112D01*
Y85128D01*
X-25636Y84825D01*
X-26071Y85874D01*
X-26822Y86625D01*
X-26071Y87376D01*
X-25500Y88754D01*
Y90246D01*
X-26071Y91624D01*
X-27126Y92679D01*
X-28504Y93250D01*
X-29996D01*
X-31374Y92679D01*
X-32429Y91624D01*
X-33000Y90246D01*
Y88754D01*
X-32429Y87376D01*
X-31678Y86625D01*
X-32429Y85874D01*
X-33000Y84496D01*
Y83004D01*
X-32429Y81626D01*
X-31374Y80571D01*
X-29996Y80000D01*
X-28504D01*
X-27126Y80571D01*
X-26071Y81626D01*
X-25636Y82675D01*
X-24112Y82372D01*
Y78433D01*
X-25130Y77598D01*
X-25476Y77500D01*
X-26528D01*
X-26787Y77607D01*
X-37322D01*
X-57900Y85277D01*
Y88050D01*
X-62500D01*
Y89050D01*
X-63500D01*
Y93850D01*
X-67100D01*
X-67243Y95315D01*
Y96362D01*
D02*
G37*
G36*
X-105888Y95862D02*
X-109750D01*
Y92022D01*
X-105888D01*
Y95862D01*
D02*
G37*
G36*
X-111750D02*
X-115612D01*
Y92022D01*
X-111750D01*
Y95862D01*
D02*
G37*
G36*
X-61500Y93850D02*
Y90050D01*
X-57900D01*
Y93850D01*
X-61500D01*
D02*
G37*
G36*
X-194250Y92750D02*
X-199750D01*
Y88000D01*
X-194250D01*
Y92750D01*
D02*
G37*
G36*
X51246Y88250D02*
X49754D01*
X48376Y87679D01*
X47321Y86624D01*
X46750Y85246D01*
Y84598D01*
X45241Y83951D01*
X43759Y84807D01*
X42106Y85250D01*
X40394D01*
X38741Y84807D01*
X37259Y83951D01*
X36049Y82741D01*
X35193Y81259D01*
X34750Y79606D01*
Y77894D01*
X35193Y76241D01*
X36049Y74759D01*
X37259Y73549D01*
X38741Y72693D01*
X40394Y72250D01*
X42106D01*
X43697Y72676D01*
X45125Y71248D01*
X45957Y70692D01*
X46939Y70497D01*
X47450D01*
X48376Y69571D01*
X49754Y69000D01*
X51246D01*
X52624Y69571D01*
X53679Y70626D01*
X54250Y72004D01*
Y73496D01*
X53679Y74874D01*
X52624Y75929D01*
X51246Y76500D01*
X49754D01*
X48854Y76127D01*
X47593Y77030D01*
X47539Y77106D01*
X47750Y77894D01*
Y79606D01*
X47622Y80084D01*
X48930Y81091D01*
X49754Y80750D01*
X51246D01*
X52624Y81321D01*
X53679Y82376D01*
X54250Y83754D01*
Y85246D01*
X53679Y86624D01*
X52624Y87679D01*
X51246Y88250D01*
D02*
G37*
G36*
X-181504Y98000D02*
X-182996D01*
X-184374Y97429D01*
X-185429Y96374D01*
X-186000Y94996D01*
Y93504D01*
X-186337Y92820D01*
X-186592Y92752D01*
X-188074Y91896D01*
X-189284Y90686D01*
X-190140Y89204D01*
X-190583Y87550D01*
Y85839D01*
X-190140Y84186D01*
X-189284Y82704D01*
X-188074Y81493D01*
X-186592Y80638D01*
X-184939Y80195D01*
X-183227D01*
X-181574Y80638D01*
X-180092Y81493D01*
X-178882Y82704D01*
X-178026Y84186D01*
X-177583Y85839D01*
Y87550D01*
X-178026Y89204D01*
X-178030Y89210D01*
X-177035Y90448D01*
X-175543D01*
X-174165Y91019D01*
X-173110Y92073D01*
X-172539Y93452D01*
Y94944D01*
X-173110Y96322D01*
X-174165Y97377D01*
X-175543Y97948D01*
X-177035D01*
X-178413Y97377D01*
X-179243Y96547D01*
X-180126Y97429D01*
X-181504Y98000D01*
D02*
G37*
G36*
X-96750Y81500D02*
X-98724D01*
X-98404Y80727D01*
X-97523Y79847D01*
X-96750Y79526D01*
Y81500D01*
D02*
G37*
G36*
X17000Y81000D02*
X13450D01*
Y78000D01*
X17000D01*
Y81000D01*
D02*
G37*
G36*
X11450D02*
X7900D01*
Y78000D01*
X11450D01*
Y81000D01*
D02*
G37*
G36*
X17000Y76000D02*
X13450D01*
Y73000D01*
X17000D01*
Y76000D01*
D02*
G37*
G36*
X-212800Y61000D02*
X-216600D01*
Y57400D01*
X-212800D01*
Y61000D01*
D02*
G37*
G36*
X-124650Y56850D02*
X-128450D01*
Y53250D01*
X-124650D01*
Y56850D01*
D02*
G37*
G36*
X-197135Y48750D02*
X-198627D01*
X-200005Y48179D01*
X-201060Y47124D01*
X-201631Y45746D01*
Y44254D01*
X-201060Y42876D01*
X-200005Y41821D01*
X-198627Y41250D01*
X-197135D01*
X-195757Y41821D01*
X-194702Y42876D01*
X-194131Y44254D01*
Y45746D01*
X-194702Y47124D01*
X-195757Y48179D01*
X-197135Y48750D01*
D02*
G37*
G36*
X-125250Y42250D02*
X-128250D01*
Y38750D01*
X-125250D01*
Y42250D01*
D02*
G37*
G36*
X-109388Y41950D02*
X-112988D01*
Y38150D01*
X-109388D01*
Y41950D01*
D02*
G37*
G36*
X-135021Y31250D02*
X-138862D01*
Y27388D01*
X-135021D01*
Y31250D01*
D02*
G37*
G36*
X-197780Y35343D02*
X-199272D01*
X-200650Y34772D01*
X-201705Y33717D01*
X-202276Y32339D01*
Y31881D01*
X-202547Y31700D01*
X-204039D01*
X-205418Y31129D01*
X-206472Y30074D01*
X-207043Y28696D01*
Y27204D01*
X-206472Y25826D01*
X-205418Y24771D01*
X-204039Y24200D01*
X-202547D01*
X-201169Y24771D01*
X-200114Y25826D01*
X-199543Y27204D01*
Y27662D01*
X-199272Y27843D01*
X-197780D01*
X-196402Y28414D01*
X-195347Y29469D01*
X-194776Y30847D01*
Y32339D01*
X-195347Y33717D01*
X-196402Y34772D01*
X-197780Y35343D01*
D02*
G37*
G36*
X4073Y31879D02*
X2044D01*
X490Y31570D01*
X-3927D01*
Y28130D01*
X-4544Y27514D01*
X-5707Y25773D01*
X-6115Y23720D01*
Y17365D01*
X-11500D01*
X-13553Y16957D01*
X-14985Y16000D01*
X-15976D01*
X-16000Y16000D01*
X-17500Y16058D01*
Y16500D01*
X-21500D01*
Y12000D01*
Y7500D01*
X-17500D01*
Y7942D01*
X-16000Y8000D01*
X-15976Y8000D01*
X-14985D01*
X-13553Y7043D01*
X-11500Y6635D01*
X-8421D01*
X-7207Y5111D01*
X-7387Y4207D01*
Y-2722D01*
X-7487Y-2872D01*
X-7929Y-5096D01*
X-7929Y-5096D01*
Y-11224D01*
X-8310Y-13140D01*
X-8310Y-13140D01*
Y-18064D01*
X-8595Y-19495D01*
X-8153Y-21719D01*
X-6893Y-23604D01*
X-6855Y-23642D01*
X-6855Y-23642D01*
X-4970Y-24902D01*
X-2745Y-25344D01*
X4500D01*
X4691Y-25382D01*
X6915Y-24940D01*
X8801Y-23680D01*
X10060Y-21795D01*
X10503Y-19571D01*
X10060Y-17347D01*
X9233Y-16108D01*
X10098Y-14813D01*
X10541Y-12589D01*
X10098Y-10366D01*
X9916Y-10093D01*
X10731Y-8569D01*
X12884D01*
X13339Y-9023D01*
X14497Y-9797D01*
X15862Y-10069D01*
X18500D01*
Y-15000D01*
X31500D01*
Y-3000D01*
X22845D01*
X22500Y-2931D01*
X17341D01*
X16886Y-2477D01*
X15728Y-1703D01*
X14362Y-1431D01*
X11358D01*
X10104Y93D01*
X10112Y138D01*
X10708Y1415D01*
X11207Y2161D01*
X11615Y4214D01*
X11207Y6267D01*
X10112Y7905D01*
Y8095D01*
X11207Y9732D01*
X11615Y11786D01*
X11207Y13839D01*
X10112Y15477D01*
Y15862D01*
X9620D01*
X8303Y16742D01*
X6250Y17151D01*
X4615D01*
Y21257D01*
X5627Y21458D01*
X12073D01*
Y31570D01*
X5627D01*
X4073Y31879D01*
D02*
G37*
G36*
X-97250Y23750D02*
X-101250D01*
Y21746D01*
X-102188Y20593D01*
X-102675Y20512D01*
X-103746D01*
X-105124Y19941D01*
X-106179Y18886D01*
X-106750Y17508D01*
Y16016D01*
X-106179Y14638D01*
X-105124Y13583D01*
X-103746Y13012D01*
X-102254D01*
X-100876Y13583D01*
X-99821Y14638D01*
X-99250Y16016D01*
Y17508D01*
X-99821Y18886D01*
X-100161Y19226D01*
X-99529Y20750D01*
X-97250D01*
Y23750D01*
D02*
G37*
G36*
X32000Y13500D02*
X26000D01*
Y8000D01*
X32000D01*
Y13500D01*
D02*
G37*
G36*
X24000D02*
X18000D01*
Y8000D01*
X24000D01*
Y13500D01*
D02*
G37*
G36*
X-181500Y5250D02*
Y1250D01*
X-177500D01*
Y5250D01*
X-181500D01*
D02*
G37*
G36*
X-193500D02*
X-197500D01*
Y1250D01*
X-193500D01*
Y5250D01*
D02*
G37*
G36*
X32000Y6000D02*
X26000D01*
Y500D01*
X32000D01*
Y6000D01*
D02*
G37*
G36*
X24000D02*
X18000D01*
Y500D01*
X24000D01*
Y6000D01*
D02*
G37*
G36*
X-67250Y3000D02*
X-70250D01*
Y-500D01*
X-67250D01*
Y3000D01*
D02*
G37*
G36*
X-10969Y-1469D02*
X-17000D01*
Y-7994D01*
X-10969D01*
Y-1469D01*
D02*
G37*
G36*
X44967Y52649D02*
X16519D01*
X15371Y52173D01*
X10893Y47696D01*
X-2531D01*
X-3679Y47220D01*
X-4155Y46072D01*
Y36928D01*
X-3679Y35780D01*
X-2531Y35304D01*
X10893D01*
X15371Y30827D01*
X16519Y30351D01*
X16564D01*
X17219Y28827D01*
X17136Y28627D01*
X16881Y28124D01*
X16902Y28061D01*
X16876Y28000D01*
X16876Y26250D01*
X17352Y25102D01*
X19352Y23102D01*
X20500Y22626D01*
X36577D01*
X40882Y18322D01*
Y-10990D01*
X41000Y-11274D01*
Y-12500D01*
X42233D01*
X42506Y-12613D01*
X52500D01*
X52773Y-12500D01*
X54000D01*
Y-11288D01*
X54124Y-10990D01*
Y23000D01*
X53648Y24148D01*
X46542Y31254D01*
X51068Y35780D01*
X51544Y36928D01*
Y46072D01*
X51068Y47220D01*
X46115Y52173D01*
X44967Y52649D01*
D02*
G37*
G36*
X54000Y-16500D02*
X41000D01*
Y-20181D01*
X31500D01*
Y-19000D01*
X18500D01*
Y-31000D01*
X31500D01*
Y-27319D01*
X41000D01*
Y-28500D01*
X54000D01*
Y-16500D01*
D02*
G37*
G36*
X-159900Y-26650D02*
X-163500D01*
Y-30450D01*
X-159900D01*
Y-26650D01*
D02*
G37*
G36*
X54000Y-32500D02*
X41000D01*
Y-35806D01*
X31000D01*
Y-35500D01*
X19000D01*
Y-36556D01*
X12500D01*
Y-35000D01*
X3000D01*
Y-45000D01*
X4056D01*
Y-48469D01*
X969D01*
Y-61980D01*
X469D01*
Y-68506D01*
X7500D01*
X14531D01*
Y-61980D01*
X14031D01*
Y-48469D01*
X11194D01*
Y-45000D01*
X12500D01*
Y-43694D01*
X19000D01*
Y-45000D01*
X31000D01*
Y-42944D01*
X41000D01*
Y-44500D01*
X54000D01*
Y-32500D01*
D02*
G37*
G36*
X-32138Y-50888D02*
X-35979D01*
Y-54750D01*
X-32138D01*
Y-50888D01*
D02*
G37*
G36*
X31000Y-50000D02*
X19000D01*
Y-59500D01*
X21431D01*
Y-65969D01*
X18469D01*
Y-73053D01*
X17615Y-73223D01*
X16457Y-73996D01*
X15939Y-74514D01*
X14531Y-73931D01*
Y-70506D01*
X8500D01*
Y-77031D01*
X11431D01*
X12014Y-78439D01*
X8984Y-81469D01*
X520D01*
Y-80969D01*
X-6006D01*
Y-88000D01*
Y-95031D01*
X520D01*
Y-94531D01*
X14031D01*
Y-86516D01*
X16561Y-83986D01*
X17969Y-84569D01*
Y-86006D01*
X25000D01*
X32031D01*
Y-79480D01*
X31531D01*
Y-65969D01*
X28569D01*
Y-59500D01*
X31000D01*
Y-59194D01*
X41000D01*
Y-62500D01*
X54000D01*
Y-50500D01*
X41000D01*
Y-52056D01*
X31000D01*
Y-50000D01*
D02*
G37*
G36*
X-11969Y-56006D02*
X-18000D01*
Y-62531D01*
X-11969D01*
Y-56006D01*
D02*
G37*
G36*
X-20000D02*
X-26031D01*
Y-62531D01*
X-20000D01*
Y-56006D01*
D02*
G37*
G36*
X-32388Y-66750D02*
X-36228D01*
Y-70612D01*
X-32388D01*
Y-66750D01*
D02*
G37*
G36*
X-77969Y-68698D02*
X-84494D01*
Y-74728D01*
X-77969D01*
Y-68698D01*
D02*
G37*
G36*
X-24754Y-69500D02*
X-26246D01*
X-27624Y-70071D01*
X-28679Y-71126D01*
X-29250Y-72504D01*
Y-73996D01*
X-28679Y-75374D01*
X-27624Y-76429D01*
X-26246Y-77000D01*
X-24754D01*
X-23376Y-76429D01*
X-22321Y-75374D01*
X-21750Y-73996D01*
Y-72504D01*
X-22321Y-71126D01*
X-23376Y-70071D01*
X-24754Y-69500D01*
D02*
G37*
G36*
X6500Y-70506D02*
X469D01*
Y-77031D01*
X6500D01*
Y-70506D01*
D02*
G37*
G36*
X-55500Y-79223D02*
X-59000D01*
Y-82598D01*
X-55500D01*
Y-79223D01*
D02*
G37*
G36*
X-61000D02*
X-64500D01*
Y-82598D01*
X-61000D01*
Y-79223D01*
D02*
G37*
G36*
X-77969Y-76729D02*
X-84494D01*
Y-82760D01*
X-77969D01*
Y-76729D01*
D02*
G37*
G36*
X54000Y-66500D02*
X41000D01*
Y-78500D01*
X54000D01*
X54331Y-79887D01*
Y-81408D01*
X54331Y-82000D01*
X53256Y-82000D01*
X48500D01*
Y-87500D01*
X54500D01*
Y-86208D01*
X56024Y-85577D01*
X56126Y-85679D01*
X57504Y-86250D01*
X58996D01*
X60374Y-85679D01*
X61429Y-84624D01*
X62000Y-83246D01*
Y-81754D01*
X61469Y-80471D01*
Y-73184D01*
X61650Y-72746D01*
Y-71254D01*
X61079Y-69876D01*
X60024Y-68821D01*
X58646Y-68250D01*
X57154D01*
X55776Y-68821D01*
X55665Y-68931D01*
X54000D01*
Y-66500D01*
D02*
G37*
G36*
X-8006Y-80969D02*
X-14531D01*
Y-87000D01*
X-8006D01*
Y-80969D01*
D02*
G37*
G36*
X46500Y-82000D02*
X40500D01*
Y-87500D01*
X46500D01*
Y-82000D01*
D02*
G37*
G36*
X-55500Y-84599D02*
X-59000D01*
Y-87973D01*
X-55500D01*
Y-84599D01*
D02*
G37*
G36*
X-61000D02*
X-64500D01*
Y-87973D01*
X-61000D01*
Y-84599D01*
D02*
G37*
G36*
X-24504Y-82500D02*
X-25996D01*
X-27374Y-83071D01*
X-28429Y-84126D01*
X-29000Y-85504D01*
Y-86996D01*
X-28429Y-88374D01*
X-27374Y-89429D01*
X-25996Y-90000D01*
X-24504D01*
X-23126Y-89429D01*
X-22071Y-88374D01*
X-21500Y-86996D01*
Y-85504D01*
X-22071Y-84126D01*
X-23126Y-83071D01*
X-24504Y-82500D01*
D02*
G37*
G36*
X32031Y-88006D02*
X26000D01*
Y-94531D01*
X32031D01*
Y-88006D01*
D02*
G37*
G36*
X24000D02*
X17969D01*
Y-94531D01*
X24000D01*
Y-88006D01*
D02*
G37*
G36*
X54500Y-89500D02*
X48500D01*
Y-95000D01*
X54500D01*
Y-89500D01*
D02*
G37*
G36*
X46500D02*
X40500D01*
Y-95000D01*
X46500D01*
Y-89500D01*
D02*
G37*
G36*
X-8006Y-89000D02*
X-14531D01*
Y-95031D01*
X-8006D01*
Y-89000D01*
D02*
G37*
G36*
X31094Y-105500D02*
X28906D01*
X26885Y-106337D01*
X25337Y-107885D01*
X24500Y-109906D01*
Y-112094D01*
X25337Y-114115D01*
X26885Y-115663D01*
X28906Y-116500D01*
X31094D01*
X33115Y-115663D01*
X34663Y-114115D01*
X35500Y-112094D01*
Y-109906D01*
X34663Y-107885D01*
X33115Y-106337D01*
X31094Y-105500D01*
D02*
G37*
G36*
X14094D02*
X11906D01*
X9884Y-106337D01*
X8337Y-107885D01*
X7500Y-109906D01*
Y-112094D01*
X8337Y-114115D01*
X9884Y-115663D01*
X11906Y-116500D01*
X14094D01*
X16115Y-115663D01*
X17663Y-114115D01*
X18500Y-112094D01*
Y-109906D01*
X17663Y-107885D01*
X16115Y-106337D01*
X14094Y-105500D01*
D02*
G37*
G36*
X-2656D02*
X-4844D01*
X-6866Y-106337D01*
X-8413Y-107885D01*
X-9250Y-109906D01*
Y-112094D01*
X-8413Y-114115D01*
X-6866Y-115663D01*
X-4844Y-116500D01*
X-2656D01*
X-635Y-115663D01*
X913Y-114115D01*
X1750Y-112094D01*
Y-109906D01*
X913Y-107885D01*
X-635Y-106337D01*
X-2656Y-105500D01*
D02*
G37*
G36*
X163000Y-123021D02*
Y-129000D01*
X168979D01*
X168523Y-127298D01*
X167601Y-125702D01*
X166298Y-124399D01*
X164702Y-123477D01*
X163000Y-123021D01*
D02*
G37*
G36*
X161000Y-123021D02*
X159298Y-123477D01*
X157702Y-124399D01*
X156399Y-125702D01*
X155477Y-127298D01*
X155021Y-129000D01*
X161000D01*
Y-123021D01*
D02*
G37*
G36*
X184244Y-123719D02*
X177719D01*
Y-129750D01*
X184244D01*
Y-123719D01*
D02*
G37*
G36*
X216856Y-123500D02*
X215144D01*
X213491Y-123943D01*
X212009Y-124799D01*
X210799Y-126009D01*
X209943Y-127491D01*
X209500Y-129144D01*
Y-130856D01*
X209943Y-132509D01*
X209989Y-132588D01*
X208312Y-134265D01*
X206281Y-132234D01*
Y-124219D01*
X192770D01*
Y-123719D01*
X186244D01*
Y-130750D01*
Y-137781D01*
X192770D01*
Y-137281D01*
X201234D01*
X206336Y-142382D01*
Y-145047D01*
X206250Y-145254D01*
Y-146746D01*
X206821Y-148124D01*
X207876Y-149179D01*
X209254Y-149750D01*
X210746D01*
X212124Y-149179D01*
X213179Y-148124D01*
X213750Y-146746D01*
Y-145254D01*
X213473Y-144585D01*
Y-139197D01*
X216170Y-136500D01*
X216856D01*
X218509Y-136057D01*
X219991Y-135201D01*
X221201Y-133991D01*
X222057Y-132509D01*
X222500Y-130856D01*
Y-129144D01*
X222057Y-127491D01*
X221201Y-126009D01*
X219991Y-124799D01*
X218509Y-123943D01*
X216856Y-123500D01*
D02*
G37*
G36*
X161000Y-131000D02*
X155021D01*
X155477Y-132702D01*
X156399Y-134298D01*
X157702Y-135601D01*
X159298Y-136523D01*
X161000Y-136979D01*
Y-131000D01*
D02*
G37*
G36*
X168979D02*
X163000D01*
Y-136979D01*
X164702Y-136523D01*
X166298Y-135601D01*
X167601Y-134298D01*
X168523Y-132702D01*
X168979Y-131000D01*
D02*
G37*
G36*
X-312236Y-128400D02*
X-312500D01*
Y-137000D01*
X-303900D01*
Y-136736D01*
X-304554Y-134295D01*
X-305818Y-132106D01*
X-307605Y-130318D01*
X-309794Y-129054D01*
X-312236Y-128400D01*
D02*
G37*
G36*
X-314500D02*
X-314764D01*
X-317205Y-129054D01*
X-319394Y-130318D01*
X-321181Y-132106D01*
X-322445Y-134295D01*
X-323100Y-136736D01*
Y-137000D01*
X-314500D01*
Y-128400D01*
D02*
G37*
G36*
X184244Y-131750D02*
X177719D01*
Y-137781D01*
X184244D01*
Y-131750D01*
D02*
G37*
G36*
X-236102Y-128900D02*
X-238498D01*
X-240812Y-129520D01*
X-242887Y-130718D01*
X-244581Y-132413D01*
X-245779Y-134487D01*
X-246400Y-136802D01*
Y-139198D01*
X-245779Y-141512D01*
X-244581Y-143588D01*
X-242887Y-145282D01*
X-240812Y-146480D01*
X-238498Y-147100D01*
X-236102D01*
X-233787Y-146480D01*
X-231712Y-145282D01*
X-230018Y-143588D01*
X-228820Y-141512D01*
X-228200Y-139198D01*
Y-136802D01*
X-228820Y-134487D01*
X-230018Y-132413D01*
X-231712Y-130718D01*
X-233787Y-129520D01*
X-236102Y-128900D01*
D02*
G37*
G36*
X-303900Y-139000D02*
X-312500D01*
Y-147600D01*
X-312236D01*
X-309794Y-146946D01*
X-307605Y-145682D01*
X-305818Y-143895D01*
X-304554Y-141706D01*
X-303900Y-139264D01*
Y-139000D01*
D02*
G37*
G36*
X-314500D02*
X-323100D01*
Y-139264D01*
X-322445Y-141706D01*
X-321181Y-143895D01*
X-319394Y-145682D01*
X-317205Y-146946D01*
X-314764Y-147600D01*
X-314500D01*
Y-139000D01*
D02*
G37*
G36*
X-97969Y-145469D02*
X-104494D01*
Y-151500D01*
X-97969D01*
Y-145469D01*
D02*
G37*
G36*
X-41000Y-149934D02*
X-44667D01*
Y-156141D01*
X-41000D01*
Y-149934D01*
D02*
G37*
G36*
X-97969Y-153500D02*
X-104494D01*
Y-159531D01*
X-97969D01*
Y-153500D01*
D02*
G37*
G36*
X-129338Y-141334D02*
X-130830D01*
X-132208Y-141905D01*
X-133263Y-142960D01*
X-133834Y-144338D01*
Y-145830D01*
X-133557Y-146498D01*
Y-146972D01*
X-133285Y-148337D01*
X-132511Y-149495D01*
X-130014Y-151992D01*
X-128856Y-152766D01*
X-127491Y-153038D01*
X-126531D01*
Y-159031D01*
X-113020D01*
Y-159531D01*
X-106494D01*
Y-152500D01*
Y-145469D01*
X-113020D01*
Y-145969D01*
X-122192D01*
X-122537Y-145900D01*
X-126012D01*
X-126334Y-145579D01*
Y-144338D01*
X-126905Y-142960D01*
X-127960Y-141905D01*
X-129338Y-141334D01*
D02*
G37*
G36*
X80000Y-143635D02*
X77947Y-144043D01*
X76206Y-145206D01*
X75043Y-146947D01*
X74635Y-149000D01*
Y-149934D01*
X73000D01*
Y-157141D01*
Y-164348D01*
X76667D01*
Y-163848D01*
X84167D01*
Y-160376D01*
X84957Y-159194D01*
X85365Y-157141D01*
Y-149000D01*
X84957Y-146947D01*
X83794Y-145206D01*
X82053Y-144043D01*
X80000Y-143635D01*
D02*
G37*
G36*
X64000D02*
X61947Y-144043D01*
X60206Y-145206D01*
X59043Y-146947D01*
X58635Y-149000D01*
Y-149934D01*
X57000D01*
Y-157141D01*
Y-164348D01*
X60667D01*
Y-163848D01*
X67333D01*
Y-164348D01*
X71000D01*
Y-157141D01*
Y-149934D01*
X69365D01*
Y-149000D01*
X68957Y-146947D01*
X67794Y-145206D01*
X66053Y-144043D01*
X64000Y-143635D01*
D02*
G37*
G36*
X48000Y-144147D02*
X45947Y-144555D01*
X44206Y-145718D01*
X43043Y-147459D01*
X42635Y-149512D01*
Y-149934D01*
X41000D01*
Y-157141D01*
Y-164348D01*
X44667D01*
Y-163848D01*
X51333D01*
Y-164348D01*
X55000D01*
Y-157141D01*
Y-149934D01*
X53365D01*
Y-149512D01*
X52957Y-147459D01*
X51794Y-145718D01*
X50053Y-144555D01*
X48000Y-144147D01*
D02*
G37*
G36*
X32000Y-143635D02*
X29947Y-144043D01*
X28206Y-145206D01*
X27043Y-146947D01*
X26635Y-149000D01*
Y-149934D01*
X25000D01*
Y-157141D01*
Y-164348D01*
X28667D01*
Y-163848D01*
X35333D01*
Y-164348D01*
X39000D01*
Y-157141D01*
Y-149934D01*
X37365D01*
Y-149000D01*
X36957Y-146947D01*
X35794Y-145206D01*
X34053Y-144043D01*
X32000Y-143635D01*
D02*
G37*
G36*
X16000D02*
X13947Y-144043D01*
X12206Y-145206D01*
X11043Y-146947D01*
X10635Y-149000D01*
Y-149934D01*
X9000D01*
Y-157141D01*
Y-164348D01*
X12667D01*
Y-163848D01*
X19333D01*
Y-164348D01*
X23000D01*
Y-157141D01*
Y-149934D01*
X21365D01*
Y-149000D01*
X20957Y-146947D01*
X19794Y-145206D01*
X18053Y-144043D01*
X16000Y-143635D01*
D02*
G37*
G36*
X0D02*
X-2053Y-144043D01*
X-3794Y-145206D01*
X-4957Y-146947D01*
X-5365Y-149000D01*
Y-149934D01*
X-7000D01*
Y-157141D01*
Y-164348D01*
X-3333D01*
Y-163848D01*
X3333D01*
Y-164348D01*
X7000D01*
Y-157141D01*
Y-149934D01*
X5365D01*
Y-149000D01*
X4957Y-146947D01*
X3794Y-145206D01*
X2053Y-144043D01*
X0Y-143635D01*
D02*
G37*
G36*
X-16000D02*
X-18053Y-144043D01*
X-19794Y-145206D01*
X-20957Y-146947D01*
X-21365Y-149000D01*
Y-149934D01*
X-23000D01*
Y-157141D01*
Y-164348D01*
X-19333D01*
Y-163848D01*
X-12667D01*
Y-164348D01*
X-9000D01*
Y-157141D01*
Y-149934D01*
X-10635D01*
Y-149000D01*
X-11043Y-146947D01*
X-12206Y-145206D01*
X-13947Y-144043D01*
X-16000Y-143635D01*
D02*
G37*
G36*
X-32000D02*
X-34053Y-144043D01*
X-35794Y-145206D01*
X-36957Y-146947D01*
X-37365Y-149000D01*
Y-149934D01*
X-39000D01*
Y-157141D01*
Y-164348D01*
X-35333D01*
Y-163848D01*
X-28667D01*
Y-164348D01*
X-25000D01*
Y-157141D01*
Y-149934D01*
X-26635D01*
Y-149000D01*
X-27043Y-146947D01*
X-28206Y-145206D01*
X-29947Y-144043D01*
X-32000Y-143635D01*
D02*
G37*
G36*
X-41000Y-158141D02*
X-44667D01*
Y-164348D01*
X-41000D01*
Y-158141D01*
D02*
G37*
G36*
X216314Y-155700D02*
X214206D01*
X212258Y-156507D01*
X210767Y-157998D01*
X209960Y-159946D01*
Y-162054D01*
X210767Y-164002D01*
X212258Y-165493D01*
X214206Y-166300D01*
X216314D01*
X218262Y-165493D01*
X219753Y-164002D01*
X220560Y-162054D01*
Y-159946D01*
X219753Y-157998D01*
X218262Y-156507D01*
X216314Y-155700D01*
D02*
G37*
G36*
X-134206D02*
X-136314D01*
X-138262Y-156507D01*
X-139753Y-157998D01*
X-140560Y-159946D01*
Y-162054D01*
X-139753Y-164002D01*
X-138262Y-165493D01*
X-136314Y-166300D01*
X-134206D01*
X-132258Y-165493D01*
X-130767Y-164002D01*
X-129960Y-162054D01*
Y-159946D01*
X-130767Y-157998D01*
X-132258Y-156507D01*
X-134206Y-155700D01*
D02*
G37*
G36*
X-286836Y-160400D02*
X-287100D01*
Y-169000D01*
X-278500D01*
Y-168736D01*
X-279154Y-166294D01*
X-280418Y-164105D01*
X-282205Y-162318D01*
X-284394Y-161054D01*
X-286836Y-160400D01*
D02*
G37*
G36*
X-312236D02*
X-312500D01*
Y-169000D01*
X-303900D01*
Y-168736D01*
X-304554Y-166294D01*
X-305818Y-164105D01*
X-307605Y-162318D01*
X-309794Y-161054D01*
X-312236Y-160400D01*
D02*
G37*
G36*
X-289100D02*
X-289363D01*
X-291805Y-161054D01*
X-293994Y-162318D01*
X-295781Y-164105D01*
X-297045Y-166294D01*
X-297700Y-168736D01*
Y-169000D01*
X-289100D01*
Y-160400D01*
D02*
G37*
G36*
X-314500D02*
X-314764D01*
X-317205Y-161054D01*
X-319394Y-162318D01*
X-321181Y-164105D01*
X-322445Y-166294D01*
X-323100Y-168736D01*
Y-169000D01*
X-314500D01*
Y-160400D01*
D02*
G37*
G36*
X-278500Y-171000D02*
X-287100D01*
Y-179600D01*
X-286836D01*
X-284394Y-178946D01*
X-282205Y-177682D01*
X-280418Y-175895D01*
X-279154Y-173705D01*
X-278500Y-171264D01*
Y-171000D01*
D02*
G37*
G36*
X-289100D02*
X-297700D01*
Y-171264D01*
X-297045Y-173705D01*
X-295781Y-175895D01*
X-293994Y-177682D01*
X-291805Y-178946D01*
X-289363Y-179600D01*
X-289100D01*
Y-171000D01*
D02*
G37*
G36*
X-303900D02*
X-312500D01*
Y-179600D01*
X-312236D01*
X-309794Y-178946D01*
X-307605Y-177682D01*
X-305818Y-175895D01*
X-304554Y-173705D01*
X-303900Y-171264D01*
Y-171000D01*
D02*
G37*
G36*
X-314500D02*
X-323100D01*
Y-171264D01*
X-322445Y-173705D01*
X-321181Y-175895D01*
X-319394Y-177682D01*
X-317205Y-178946D01*
X-314764Y-179600D01*
X-314500D01*
Y-171000D01*
D02*
G37*
%LPD*%
G36*
X-37504Y75943D02*
X-37463Y75984D01*
X-26787D01*
Y72575D01*
X-28073Y72001D01*
X-42441D01*
X-46883Y67140D01*
X-52955D01*
Y72731D01*
X-54509Y75346D01*
X-62814D01*
X-69638Y68523D01*
X-72516Y67696D01*
X-75553Y67770D01*
Y75017D01*
X-70983D01*
X-65130Y80870D01*
Y84196D01*
X-59648D01*
X-37504Y75943D01*
D02*
G37*
G36*
X-20351Y49514D02*
X-18611Y48351D01*
X-17365Y48103D01*
Y46472D01*
X-18975Y44862D01*
X-19112D01*
Y44713D01*
X-20207Y43075D01*
X-20615Y41021D01*
X-20207Y38968D01*
X-19827Y38400D01*
X-19269Y37009D01*
X-20126Y36076D01*
X-24139Y32063D01*
X-24182Y31998D01*
X-25489Y30691D01*
X-34898Y40101D01*
X-36723Y41320D01*
X-38874Y41748D01*
X-38875Y41748D01*
X-46088D01*
X-46550Y43272D01*
X-45259Y44134D01*
X-44855Y44539D01*
X-44467Y44616D01*
X-43932Y44973D01*
X-43749Y45048D01*
X-42134Y44817D01*
X-42054Y44696D01*
X-41228Y44145D01*
X-40255Y43951D01*
X-39000D01*
Y50000D01*
X-37000D01*
Y43951D01*
X-35745D01*
X-34771Y44145D01*
X-33946Y44696D01*
X-33866Y44817D01*
X-32251Y45048D01*
X-32068Y44973D01*
X-31533Y44616D01*
X-30755Y44461D01*
X-28922D01*
X-28500Y44377D01*
X-28078Y44461D01*
X-26245D01*
X-25467Y44616D01*
X-24807Y45057D01*
X-24366Y45717D01*
X-24228Y46410D01*
X-23191Y47962D01*
X-22820Y49827D01*
X-21420Y50583D01*
X-20351Y49514D01*
D02*
G37*
G36*
X-134234Y49690D02*
X-135260Y45814D01*
Y40741D01*
X-150015Y32030D01*
X-150029Y32044D01*
X-155991D01*
Y36909D01*
X-156012Y36930D01*
X-154299Y38644D01*
Y48748D01*
X-154275Y48805D01*
X-152096Y48811D01*
X-151743Y54517D01*
X-149413Y54839D01*
X-134234D01*
Y49690D01*
D02*
G37*
G36*
X-12977Y-28506D02*
X-14046Y-35405D01*
Y-46467D01*
X-23906D01*
X-23975Y-46536D01*
X-37763Y-33507D01*
X-42760Y-33495D01*
X-42772Y-33507D01*
X-45770Y-31927D01*
X-45876Y-31821D01*
X-46322Y-31636D01*
X-55013Y-27055D01*
X-55064Y-26932D01*
X-56119Y-25877D01*
X-57498Y-25306D01*
X-58989D01*
X-59015Y-25317D01*
X-69325D01*
X-69363Y-25279D01*
Y-22214D01*
X-68285Y-21137D01*
X-58311Y-21146D01*
X-42772Y-28770D01*
X-37763D01*
X-22941Y-17336D01*
X-12977D01*
Y-28506D01*
D02*
G37*
G36*
X52500Y23000D02*
Y-10990D01*
X42506D01*
Y18994D01*
X37250Y24250D01*
X20500D01*
X18500Y26250D01*
X18500Y28000D01*
X21243Y30351D01*
X44967D01*
X45095Y30405D01*
X52500Y23000D01*
D02*
G37*
%LPC*%
G36*
X-301000Y98862D02*
X-304362D01*
Y95286D01*
X-301000D01*
Y98862D01*
D02*
G37*
G36*
Y64714D02*
X-304362D01*
Y61138D01*
X-301000D01*
Y64714D01*
D02*
G37*
G36*
X-238138Y84714D02*
X-242000D01*
Y80638D01*
X-238138D01*
Y84714D01*
D02*
G37*
G36*
X-410600Y82100D02*
X-419200D01*
Y73500D01*
X-410600D01*
Y82100D01*
D02*
G37*
G36*
X-421200D02*
X-429800D01*
Y73500D01*
X-421200D01*
Y82100D01*
D02*
G37*
G36*
X-410600Y71500D02*
X-419200D01*
Y62900D01*
X-410600D01*
Y71500D01*
D02*
G37*
G36*
X-421200D02*
X-429800D01*
Y62900D01*
X-421200D01*
Y71500D01*
D02*
G37*
G36*
X-350400Y62500D02*
X-359000D01*
Y53900D01*
X-358736D01*
X-356294Y54554D01*
X-354105Y55818D01*
X-352318Y57605D01*
X-351054Y59794D01*
X-350400Y62236D01*
Y62500D01*
D02*
G37*
G36*
X-361000D02*
X-369600D01*
Y62236D01*
X-368945Y59794D01*
X-367682Y57605D01*
X-365894Y55818D01*
X-363705Y54554D01*
X-361263Y53900D01*
X-361000D01*
Y62500D01*
D02*
G37*
G36*
X-358801Y47200D02*
X-361198D01*
X-363512Y46579D01*
X-365587Y45381D01*
X-367281Y43687D01*
X-368479Y41612D01*
X-369100Y39298D01*
Y36902D01*
X-368479Y34587D01*
X-367281Y32512D01*
X-365587Y30818D01*
X-363512Y29620D01*
X-361198Y29000D01*
X-358801D01*
X-356487Y29620D01*
X-354412Y30818D01*
X-352718Y32512D01*
X-351520Y34587D01*
X-350900Y36902D01*
Y39298D01*
X-351520Y41612D01*
X-352718Y43687D01*
X-354412Y45381D01*
X-356487Y46579D01*
X-358801Y47200D01*
D02*
G37*
G36*
X-410600Y34600D02*
X-419200D01*
Y26000D01*
X-410600D01*
Y34600D01*
D02*
G37*
G36*
X-421200D02*
X-429800D01*
Y26000D01*
X-421200D01*
Y34600D01*
D02*
G37*
G36*
X-393602Y34100D02*
X-395998D01*
X-398312Y33480D01*
X-400387Y32282D01*
X-402082Y30587D01*
X-403280Y28512D01*
X-403900Y26198D01*
Y23802D01*
X-403280Y21488D01*
X-402082Y19412D01*
X-400387Y17718D01*
X-398312Y16520D01*
X-395998Y15900D01*
X-393602D01*
X-391287Y16520D01*
X-389212Y17718D01*
X-387518Y19412D01*
X-386320Y21488D01*
X-385700Y23802D01*
Y26198D01*
X-386320Y28512D01*
X-387518Y30587D01*
X-389212Y32282D01*
X-391287Y33480D01*
X-393602Y34100D01*
D02*
G37*
G36*
X-410600Y24000D02*
X-419200D01*
Y15400D01*
X-410600D01*
Y24000D01*
D02*
G37*
G36*
X-421200D02*
X-429800D01*
Y15400D01*
X-421200D01*
Y24000D01*
D02*
G37*
G36*
X-321906Y20750D02*
X-324094D01*
X-326115Y19913D01*
X-327663Y18365D01*
X-328500Y16344D01*
Y14156D01*
X-327663Y12134D01*
X-326115Y10587D01*
X-324094Y9750D01*
X-321906D01*
X-319884Y10587D01*
X-318337Y12134D01*
X-317500Y14156D01*
Y16344D01*
X-318337Y18365D01*
X-319884Y19913D01*
X-321906Y20750D01*
D02*
G37*
G36*
X-358801Y21800D02*
X-361198D01*
X-363512Y21179D01*
X-365587Y19981D01*
X-367281Y18287D01*
X-368479Y16212D01*
X-369100Y13898D01*
Y11502D01*
X-368479Y9187D01*
X-367281Y7112D01*
X-365587Y5418D01*
X-363512Y4220D01*
X-361198Y3600D01*
X-358801D01*
X-356487Y4220D01*
X-354412Y5418D01*
X-352718Y7112D01*
X-351520Y9187D01*
X-350900Y11502D01*
Y13898D01*
X-351520Y16212D01*
X-352718Y18287D01*
X-354412Y19981D01*
X-356487Y21179D01*
X-358801Y21800D01*
D02*
G37*
G36*
Y-3600D02*
X-361198D01*
X-363512Y-4221D01*
X-365587Y-5419D01*
X-367281Y-7113D01*
X-368479Y-9188D01*
X-369100Y-11502D01*
Y-13898D01*
X-368479Y-16213D01*
X-367281Y-18288D01*
X-365587Y-19982D01*
X-363512Y-21180D01*
X-361198Y-21800D01*
X-358801D01*
X-356487Y-21180D01*
X-354412Y-19982D01*
X-352718Y-18288D01*
X-351520Y-16213D01*
X-350900Y-13898D01*
Y-11502D01*
X-351520Y-9188D01*
X-352718Y-7113D01*
X-354412Y-5419D01*
X-356487Y-4221D01*
X-358801Y-3600D01*
D02*
G37*
G36*
X-410600Y-15400D02*
X-419200D01*
Y-24000D01*
X-410600D01*
Y-15400D01*
D02*
G37*
G36*
X-421200D02*
X-429800D01*
Y-24000D01*
X-421200D01*
Y-15400D01*
D02*
G37*
G36*
X-393602Y-15900D02*
X-395998D01*
X-398312Y-16520D01*
X-400387Y-17718D01*
X-402082Y-19412D01*
X-403280Y-21488D01*
X-403900Y-23802D01*
Y-26198D01*
X-403280Y-28512D01*
X-402082Y-30587D01*
X-400387Y-32282D01*
X-398312Y-33480D01*
X-395998Y-34100D01*
X-393602D01*
X-391287Y-33480D01*
X-389212Y-32282D01*
X-387518Y-30587D01*
X-386320Y-28512D01*
X-385700Y-26198D01*
Y-23802D01*
X-386320Y-21488D01*
X-387518Y-19412D01*
X-389212Y-17718D01*
X-391287Y-16520D01*
X-393602Y-15900D01*
D02*
G37*
G36*
X-410600Y-26000D02*
X-419200D01*
Y-34600D01*
X-410600D01*
Y-26000D01*
D02*
G37*
G36*
X-421200D02*
X-429800D01*
Y-34600D01*
X-421200D01*
Y-26000D01*
D02*
G37*
G36*
X-350900Y-54400D02*
X-369100D01*
Y-72600D01*
X-350900D01*
Y-54400D01*
D02*
G37*
G36*
X-410600Y-65400D02*
X-419200D01*
Y-74000D01*
X-410600D01*
Y-65400D01*
D02*
G37*
G36*
X-421200D02*
X-429800D01*
Y-74000D01*
X-421200D01*
Y-65400D01*
D02*
G37*
G36*
X-393602Y-65900D02*
X-395998D01*
X-398312Y-66520D01*
X-400387Y-67718D01*
X-402082Y-69412D01*
X-403280Y-71487D01*
X-403900Y-73802D01*
Y-76198D01*
X-403280Y-78513D01*
X-402082Y-80588D01*
X-400387Y-82282D01*
X-398312Y-83480D01*
X-395998Y-84100D01*
X-393602D01*
X-391287Y-83480D01*
X-389212Y-82282D01*
X-387518Y-80588D01*
X-386320Y-78513D01*
X-385700Y-76198D01*
Y-73802D01*
X-386320Y-71487D01*
X-387518Y-69412D01*
X-389212Y-67718D01*
X-391287Y-66520D01*
X-393602Y-65900D01*
D02*
G37*
G36*
X-410600Y-76000D02*
X-419200D01*
Y-84600D01*
X-410600D01*
Y-76000D01*
D02*
G37*
G36*
X-421200D02*
X-429800D01*
Y-84600D01*
X-421200D01*
Y-76000D01*
D02*
G37*
G36*
X-113504Y-89750D02*
X-114996D01*
X-116374Y-90321D01*
X-117375Y-91322D01*
X-118126Y-90571D01*
X-119504Y-90000D01*
X-120996D01*
X-122374Y-90571D01*
X-123429Y-91626D01*
X-124000Y-93004D01*
Y-94496D01*
X-123429Y-95874D01*
X-122374Y-96929D01*
X-120996Y-97500D01*
X-119504D01*
X-118126Y-96929D01*
X-117125Y-95928D01*
X-116374Y-96679D01*
X-114996Y-97250D01*
X-113504D01*
X-112126Y-96679D01*
X-111071Y-95624D01*
X-110500Y-94246D01*
Y-92754D01*
X-111071Y-91376D01*
X-112126Y-90321D01*
X-113504Y-89750D01*
D02*
G37*
G36*
X-276800Y-86900D02*
X-280600D01*
Y-90500D01*
X-276800D01*
Y-86900D01*
D02*
G37*
G36*
Y-92500D02*
X-280600D01*
Y-96100D01*
X-276800D01*
Y-92500D01*
D02*
G37*
G36*
X-181750Y-55250D02*
X-183724D01*
X-183403Y-56023D01*
X-182523Y-56904D01*
X-181750Y-57224D01*
Y-55250D01*
D02*
G37*
G36*
X-166000Y-81262D02*
X-173541D01*
Y-87291D01*
X-166000D01*
Y-81262D01*
D02*
G37*
%LPD*%
D11*
X-251988Y101988D02*
X-250988Y102988D01*
Y116988D01*
X-251988Y76511D02*
Y101988D01*
X-255000Y121000D02*
X-250988Y116988D01*
X-249500Y138500D02*
X-249256Y138256D01*
Y126244D02*
X-249012Y126000D01*
X-249256Y126244D02*
Y138256D01*
X-255000Y121000D02*
Y138000D01*
X-305748Y-13800D02*
X-300128D01*
X-296888Y-17040D01*
Y-20613D02*
Y-17040D01*
Y-20613D02*
X-296319Y-21182D01*
X-233501Y66424D02*
X-232000Y64924D01*
X-233501Y66424D02*
Y120501D01*
X-232000Y49000D02*
Y64924D01*
X-234000Y31000D02*
Y38979D01*
X-243000Y94071D02*
Y94286D01*
X-248227Y90484D02*
X-246740Y91971D01*
X-245100D01*
X-248227Y69227D02*
Y90484D01*
X-245100Y91971D02*
X-243000Y94071D01*
X-246021Y63000D02*
Y67021D01*
Y48823D02*
Y63000D01*
X-248227Y69227D02*
X-246021Y67021D01*
X-252000Y76499D02*
X-251988Y76511D01*
X-252000Y49131D02*
Y76499D01*
X-243000Y94500D02*
X-240900Y96600D01*
X-240685D02*
X-236638Y100648D01*
Y116638D01*
X-240900Y96600D02*
X-240685D01*
X-248262Y45778D02*
Y46583D01*
X-246021Y48823D01*
X-254267Y46864D02*
X-252000Y49131D01*
X-239170Y47021D02*
X-233979D01*
X-232000Y49000D01*
X-240861Y45330D02*
X-239170Y47021D01*
X-241667Y45330D02*
X-240861D01*
X-254267Y46750D02*
Y46864D01*
X-255931Y52737D02*
Y98181D01*
X-256500Y52168D02*
X-255931Y52737D01*
X-256500Y98750D02*
X-255931Y98181D01*
X-297550Y42994D02*
X-296744D01*
X-67655Y73471D02*
X-63869Y77257D01*
X-69217Y71909D02*
X-67655Y73471D01*
X-189250Y-81230D02*
Y-79000D01*
X-181500Y-71250D01*
X-151750Y83250D02*
X-146000Y89000D01*
X-151750Y81000D02*
Y83250D01*
X-146000Y89000D02*
X-134750D01*
X-119500Y68250D02*
X-117000D01*
X-119500D02*
X-118250D01*
X-129464D02*
X-119500D01*
X-129714Y68000D02*
X-129464Y68250D01*
X-138500Y68000D02*
X-138286D01*
X-148000Y58500D02*
X-138500Y68000D01*
X-164164Y58500D02*
X-148000D01*
X-69626Y71500D02*
X-69217Y71909D01*
X-69626Y71500D02*
Y72319D01*
X-68064Y73881D01*
X-69626Y71500D02*
Y71995D01*
X-69404Y72217D01*
X-295800Y38200D02*
X-295750Y38250D01*
X-305748Y38200D02*
X-295800D01*
X-296750Y43000D02*
X-296744Y42994D01*
X-296750Y43000D02*
Y44500D01*
X-231726Y-119298D02*
Y-104476D01*
X-216479Y-89229D01*
X-231726Y-119298D02*
X-223000Y-128024D01*
X-245991Y-126991D02*
Y-106894D01*
X-239097Y-100000D02*
X-237500D01*
X-245991Y-106894D02*
X-239097Y-100000D01*
X-251000Y-132000D02*
X-245991Y-126991D01*
X-216536Y-122214D02*
X-213500Y-125250D01*
X-216536Y-122214D02*
Y-102078D01*
X-210750Y-96292D01*
Y-93000D01*
X-285691Y22278D02*
X-285613Y22200D01*
X-274252D01*
X-289627Y18377D02*
X-289450Y18200D01*
X-296112Y16750D02*
X-295500D01*
X-305748Y14200D02*
X-298662D01*
X-296112Y16750D01*
X-360000Y-35000D02*
X-334580Y-9580D01*
X-312170D02*
X-312033Y-9717D01*
X-334580Y-9580D02*
X-312170D01*
X-265000Y116000D02*
X-260238Y120762D01*
X-267545Y99169D02*
X-265000Y101714D01*
Y116000D01*
X-271000Y102000D02*
X-268250Y104750D01*
Y119750D01*
X-264500Y123500D01*
X-244500Y124500D02*
X-236638Y116638D01*
X-239500Y126500D02*
X-233501Y120501D01*
X-2022Y-5000D02*
Y4207D01*
X-289450Y18200D02*
X-274252D01*
X-296339Y10274D02*
X-296318Y10295D01*
X-296186D01*
X-267756Y48210D02*
X-267589Y48377D01*
X-267545Y51455D02*
Y99169D01*
X-267589Y48377D02*
Y51410D01*
X-267545Y51455D01*
X-216479Y-69891D02*
X-216120Y-69531D01*
X-234238Y-6084D02*
Y-4762D01*
X-236500Y-2500D02*
X-234238Y-4762D01*
X-210081Y-39444D02*
Y-30241D01*
X-234238Y-6084D02*
X-210081Y-30241D01*
X-271000Y51347D02*
Y102000D01*
X-273927Y48421D02*
X-271000Y51347D01*
X-305748Y-25800D02*
X-299008D01*
X-297649Y-27159D01*
X-296843D01*
X-265320Y-64516D02*
Y-52180D01*
X-276000Y-59260D02*
Y-53800D01*
Y-59260D02*
X-273750Y-61510D01*
X-276000Y-53800D02*
X-274252D01*
X-247250Y-6300D02*
Y4000D01*
X-246271Y4979D01*
X-246978Y5685D02*
Y13478D01*
X-213500Y-125250D02*
X-203750D01*
X-200000Y-129000D01*
X0Y-157141D02*
Y-149000D01*
X-16000Y-157141D02*
Y-149000D01*
X-238793Y-2500D02*
X-236500D01*
X-246271Y4979D02*
X-238793Y-2500D01*
X-246271Y4979D02*
Y5000D01*
X-246978Y13478D02*
Y13500D01*
Y13478D02*
X-245400Y11900D01*
X-256600Y14579D02*
Y16181D01*
X-260163Y19744D02*
X-256600Y16181D01*
Y14579D02*
X-254272Y12250D01*
X-254357Y5476D02*
X-251250Y2369D01*
Y-6300D02*
Y2369D01*
X-220991Y-70724D02*
Y-61390D01*
X-223678Y-58704D02*
X-220991Y-61390D01*
X-246912Y-55912D02*
X-234431Y-43431D01*
X-228242Y-42661D02*
X-228030Y-42449D01*
X-228548Y-43431D02*
X-228242Y-43124D01*
X-234431Y-43431D02*
X-228548D01*
X-228026Y-42449D02*
X-228026Y-42449D01*
X-228242Y-43124D02*
Y-42661D01*
X-228030Y-42449D02*
X-228026D01*
X-237500Y-100000D02*
X-234464D01*
X-221000Y-86536D01*
Y-70732D01*
X-248262Y45778D02*
X-247977D01*
X-241667Y45330D02*
Y45628D01*
X-261011Y47657D02*
X-256500Y52168D01*
X-181500Y-71250D02*
X-176333Y-66083D01*
X-165346D02*
X-165000Y-65738D01*
X-176333Y-66083D02*
X-165346D01*
X-11729Y82250D02*
X-11500Y82479D01*
X-151750Y71655D02*
Y81000D01*
X-134750Y89000D02*
X-132250Y86500D01*
X-305748Y-9800D02*
X-298473D01*
X-311091D02*
X-305748D01*
X-224483Y-58704D02*
X-223678D01*
X-221000Y-70732D02*
X-220991Y-70724D01*
X-211900Y-170001D02*
X-210181Y-171720D01*
X-210113Y-39550D02*
X-210081D01*
X-216479Y-89229D02*
Y-69891D01*
X-210750Y-93000D02*
Y-67750D01*
X-246912Y-62462D02*
Y-55912D01*
X-247250Y-62800D02*
X-246912Y-62462D01*
X-267700Y-49800D02*
X-265352Y-52148D01*
X-296816Y-11457D02*
X-296011D01*
X-298473Y-9800D02*
X-296816Y-11457D01*
X-300128Y2200D02*
X-296908Y5419D01*
Y8835D01*
X-305748Y2200D02*
X-300128D01*
X-297832Y-193D02*
X-296140D01*
X-299439Y-1800D02*
X-297832Y-193D01*
X-296140D02*
X-295571Y376D01*
X-297058Y-5800D02*
X-296855Y-5597D01*
X-296855D02*
Y-5597D01*
X-296762Y-5504D01*
X-296855Y-5597D02*
X-296855D01*
X-305748Y-1800D02*
X-299439D01*
X-305748Y-5800D02*
X-297058D01*
X-296339Y9405D02*
Y10274D01*
X-312033Y-9717D02*
X-311174D01*
X-311091Y-9800D01*
X-247977Y45778D02*
X-247407Y45208D01*
X-90932Y73301D02*
X-90531Y72900D01*
X-96250Y73500D02*
X-96051Y73301D01*
X-90932D01*
X-90531Y71031D02*
Y72900D01*
X-49756Y70006D02*
X-49750Y70000D01*
X-41037Y72963D02*
X-39875Y74125D01*
X-63869Y80081D02*
X-62500Y81450D01*
X-63869Y77257D02*
Y80081D01*
X-75129Y71500D02*
X-69626D01*
X-49750Y70000D02*
X-47650Y72100D01*
X-39875Y74125D02*
X-28875D01*
X-28750Y74250D01*
X-273927Y48421D02*
Y48768D01*
X-247977Y45778D02*
X-247964Y45790D01*
X-267756Y48210D02*
X-267302Y47756D01*
X-262396Y5061D02*
X-261981Y5476D01*
X-296908Y8835D02*
X-296339Y9405D01*
X-261000Y-11519D02*
X-260988Y-11531D01*
Y-12412D02*
Y-11531D01*
Y-12412D02*
X-260650Y-12750D01*
X-257700D01*
X-261000Y-11519D02*
Y-8973D01*
X-268174Y-1800D02*
X-261000Y-8973D01*
X-274252Y-1800D02*
X-268174D01*
X-265250Y-18046D02*
Y-9000D01*
X-274252Y-5800D02*
X-268450D01*
X-265250Y-9000D01*
X-262550Y5215D02*
X-262396Y5061D01*
X-262550Y5215D02*
X-262550Y5215D01*
Y5215D02*
Y5215D01*
X-261981Y5476D02*
X-254357D01*
X-262550Y5215D02*
Y5267D01*
X-255637Y375D02*
X-255125D01*
X-255762Y500D02*
X-255637Y375D01*
X-264937Y19744D02*
X-260163D01*
X-266481Y18200D02*
X-264937Y19744D01*
X-274252Y18200D02*
X-266481D01*
X-255125Y-6175D02*
Y375D01*
X-255250Y-6300D02*
X-255125Y-6175D01*
X-360000Y-38100D02*
Y-35000D01*
X-223000Y-158901D02*
X-211900Y-170001D01*
X-200000Y-147000D02*
X-187000Y-160000D01*
X-200000Y-147000D02*
Y-129000D01*
X-187000Y-170001D02*
Y-160000D01*
X-223000Y-158901D02*
Y-128024D01*
X-251000Y-156300D02*
Y-132000D01*
Y-156300D02*
X-237300Y-170000D01*
X-244500Y124500D02*
Y138500D01*
X-264500Y123500D02*
Y138500D01*
X-260238Y120762D02*
Y137762D01*
X-239500Y126500D02*
Y138500D01*
X-260238Y137762D02*
X-259500Y138500D01*
X-255000Y138000D02*
X-254500Y138500D01*
X-305748Y42200D02*
X-298344D01*
X-297550Y42994D01*
X-274252Y-37800D02*
X-266050D01*
X-264250Y-36000D01*
Y-25643D01*
X-305748Y-49800D02*
X-291950D01*
X-264500Y-77250D01*
X-257700D01*
X-293450Y-53800D02*
X-266000Y-81250D01*
X-273750Y-61510D02*
X-262348Y-72912D01*
X-274252Y-53800D02*
X-273750D01*
X-305748D02*
X-293450D01*
X-266000Y-81250D02*
X-257200D01*
X-262348Y-72912D02*
X-258038D01*
X-257700Y-73250D01*
X64000Y-157141D02*
Y-149000D01*
X48000Y-154000D02*
Y-149512D01*
X-32000Y-157141D02*
Y-149000D01*
Y-157141D02*
X-32000Y-157141D01*
X16000Y-157141D02*
Y-149000D01*
Y-157141D02*
X16000Y-157141D01*
X32000D02*
Y-149000D01*
X48000Y-154000D02*
X49000Y-155000D01*
X48000Y-156000D02*
X49000Y-155000D01*
X48000Y-157141D02*
Y-156000D01*
X80000Y-157141D02*
Y-149000D01*
X-24000Y148000D02*
Y157141D01*
X72000Y148000D02*
Y157141D01*
X56000Y148000D02*
Y157141D01*
X56000Y157141D01*
X40000Y157141D02*
X40000Y157141D01*
X40000Y148000D02*
Y157141D01*
X24000Y148000D02*
Y157141D01*
X8000Y148000D02*
Y157141D01*
X-8000Y148000D02*
Y157141D01*
X-8000Y157141D01*
X-24000Y157141D02*
X-24000Y157141D01*
X-40000Y148000D02*
Y157141D01*
X-40000Y157141D01*
X-170750Y51914D02*
X-164164Y58500D01*
X-161439Y48156D02*
X-161250Y48345D01*
X-164000Y34500D02*
X-163500Y35000D01*
Y39000D01*
X-161439Y41061D01*
Y48156D01*
X-164000Y26714D02*
Y34500D01*
Y26714D02*
X-162286Y25000D01*
X-170750Y48345D02*
Y51914D01*
X-118250Y86500D02*
X-115807Y84057D01*
X-122250Y86500D02*
X-118250D01*
X-115807Y84057D02*
X-112829D01*
X-110750Y81979D01*
X-110729D02*
X-107000Y78250D01*
Y68250D02*
Y78250D01*
X-110750Y81979D02*
X-110729D01*
X-107000Y63250D02*
X-103750Y60000D01*
X-96561D01*
X-19052Y70992D02*
Y71448D01*
X-18000Y72500D02*
X-17543D01*
X-20197Y60303D02*
Y69846D01*
X-19052Y71448D02*
X-18000Y72500D01*
X-20197Y69846D02*
X-19052Y70992D01*
X-20250Y60229D02*
X-20229Y60250D01*
X-15229Y41021D02*
X-12000Y44250D01*
X-15250Y41021D02*
X-15229D01*
X-12000Y44250D02*
Y51729D01*
X-16557Y53307D02*
X-13579D01*
X-12000Y51729D01*
X-20250Y57000D02*
X-16557Y53307D01*
X-20250Y57000D02*
Y60229D01*
X-11207Y72250D02*
X-700D01*
X-11457Y72500D02*
X-11207Y72250D01*
X-700D02*
X-450Y72000D01*
Y82000D01*
Y72000D02*
X100D01*
X4073Y56486D02*
Y68027D01*
X100Y72000D02*
X4073Y68027D01*
X-11729Y82250D02*
X-11457Y81978D01*
Y72500D02*
Y81978D01*
X-12000Y59771D02*
X-11457Y60315D01*
Y72500D01*
X1279Y59280D02*
X4073Y56486D01*
X-750Y13500D02*
Y23720D01*
X2044Y26514D02*
X4073D01*
X-2250Y12000D02*
X-750Y13500D01*
Y23720D02*
X2044Y26514D01*
X-2022Y4207D02*
X-2014Y4214D01*
X6250D01*
X-11500Y12000D02*
X-2250D01*
X-2036Y11786D01*
X6250D01*
X-265352Y-64548D02*
X-260988Y-68912D01*
X-258038D01*
X-257700Y-69250D01*
X-274252Y-49800D02*
X-267700D01*
X-75531Y71099D02*
X-75129Y71500D01*
X-75531Y71031D02*
Y71099D01*
X-264250Y-25643D02*
X-263357Y-24750D01*
X-257200D01*
X-262771Y-20525D02*
X-257925D01*
X-257700Y-20750D01*
X-265250Y-18046D02*
X-262771Y-20525D01*
D22*
X162000Y-130000D02*
D03*
X225000Y143000D02*
D03*
X155000Y155000D02*
D03*
X216000Y-130000D02*
D03*
X-184083Y86695D02*
D03*
X-189250Y-81230D02*
D03*
X41250Y78750D02*
D03*
X-97500Y2250D02*
D03*
X-118750Y19500D02*
D03*
X-146000Y89000D02*
D03*
D23*
X-108388Y50550D02*
D03*
Y42950D02*
D03*
X-62500Y89050D02*
D03*
Y81450D02*
D03*
X-54250Y2700D02*
D03*
Y10300D02*
D03*
X-164500Y-39050D02*
D03*
Y-31450D02*
D03*
X-80750Y81450D02*
D03*
Y89050D02*
D03*
D24*
X-45250Y10750D02*
D03*
Y2750D02*
D03*
X-71743Y92362D02*
D03*
Y84362D02*
D03*
X-40000Y66000D02*
D03*
Y74000D02*
D03*
D27*
X-79250Y4000D02*
D03*
X-71250D02*
D03*
X-137250Y43250D02*
D03*
X-129250D02*
D03*
X-99000Y-23728D02*
D03*
X-107000D02*
D03*
D33*
X-35750Y-22D02*
D03*
Y9021D02*
D03*
X-110750Y91021D02*
D03*
Y81979D02*
D03*
D37*
X-176750Y-54250D02*
D03*
Y-50250D02*
D03*
X-180750Y-54250D02*
D03*
Y-50250D02*
D03*
X-117000Y63250D02*
D03*
X-112000D02*
D03*
X-117000Y68250D02*
D03*
X-112000D02*
D03*
X-107000D02*
D03*
Y63250D02*
D03*
X-132250Y81500D02*
D03*
X-127250D02*
D03*
X-132250Y86500D02*
D03*
X-127250D02*
D03*
X-122250D02*
D03*
Y81500D02*
D03*
X-95750Y86500D02*
D03*
Y82500D02*
D03*
X-91750D02*
D03*
Y86500D02*
D03*
D38*
X-129450Y52250D02*
D03*
X-137050D02*
D03*
X-211800Y62000D02*
D03*
X-204200D02*
D03*
X-260050Y-49250D02*
D03*
X-252450D02*
D03*
X-275800Y-91500D02*
D03*
X-268200D02*
D03*
D40*
X-28500Y50000D02*
D03*
X-47500D02*
D03*
X-38000D02*
D03*
X-28500Y24500D02*
D03*
X-38000D02*
D03*
X-47500D02*
D03*
D41*
X-96250Y24750D02*
D03*
Y33750D02*
D03*
D43*
X-138286Y68000D02*
D03*
X-129714D02*
D03*
X-58536Y70000D02*
D03*
X-49964D02*
D03*
X-50214Y60250D02*
D03*
X-58786D02*
D03*
X-162286Y25000D02*
D03*
X-153714D02*
D03*
D44*
X-255021Y13500D02*
D03*
X-246978D02*
D03*
X-237978Y62000D02*
D03*
X-246021D02*
D03*
X-20229Y60250D02*
D03*
X-28272D02*
D03*
X6022Y-5000D02*
D03*
X-2022D02*
D03*
X-246271Y5000D02*
D03*
X-238228D02*
D03*
X-19771Y82250D02*
D03*
X-11729D02*
D03*
D46*
X-234000Y38979D02*
D03*
Y47021D02*
D03*
X-15250Y41021D02*
D03*
Y32978D02*
D03*
X-2250Y12021D02*
D03*
Y3979D02*
D03*
X-12000Y51729D02*
D03*
Y59771D02*
D03*
D47*
X185244Y-130750D02*
D03*
X199256D02*
D03*
X-105494Y-152500D02*
D03*
X-119506D02*
D03*
X185494Y155000D02*
D03*
X199506D02*
D03*
X-107994D02*
D03*
X-122006D02*
D03*
X-99506Y-75729D02*
D03*
X-85494D02*
D03*
X-7006Y-88000D02*
D03*
X7006D02*
D03*
D48*
X-212750Y73000D02*
D03*
X-226250D02*
D03*
X7750Y-40000D02*
D03*
X-5750D02*
D03*
D49*
X-18000Y-23006D02*
D03*
Y-8994D02*
D03*
X-19000Y-55006D02*
D03*
Y-40994D02*
D03*
X7500Y-69506D02*
D03*
Y-55494D02*
D03*
X25000Y-87006D02*
D03*
Y-72994D02*
D03*
D53*
Y7000D02*
D03*
Y-9000D02*
D03*
Y-25000D02*
D03*
X47500Y-6500D02*
D03*
Y-22500D02*
D03*
Y-38500D02*
D03*
Y-88500D02*
D03*
Y-72500D02*
D03*
Y-56500D02*
D03*
D58*
X-134022Y32250D02*
D03*
X-124979D02*
D03*
X-46021Y-55750D02*
D03*
X-36978D02*
D03*
X-37229Y-65750D02*
D03*
X-46272D02*
D03*
D62*
X-61500Y28000D02*
D03*
X-69071D02*
D03*
D67*
X-200750Y78250D02*
D03*
Y93750D02*
D03*
D68*
X-243000Y85714D02*
D03*
Y94286D02*
D03*
D103*
X-271000Y126668D02*
X-269500Y128168D01*
Y138500D01*
X-271000Y126000D02*
Y126668D01*
X-242364Y78243D02*
X-241891Y77770D01*
X-243000Y85714D02*
X-242364Y85078D01*
Y78243D02*
Y85078D01*
X-80048Y54518D02*
X-76546Y51015D01*
X-85531Y60000D02*
Y71031D01*
X-258027Y-39027D02*
Y-36627D01*
X-258511Y-39511D02*
X-258027Y-39027D01*
X-127250Y86500D02*
Y87965D01*
X-125895Y89320D02*
Y89320D01*
X-127250Y87965D02*
X-125895Y89320D01*
Y89320D02*
X-120575Y94641D01*
X-140326Y77424D02*
X-135108D01*
X-135031Y77500D01*
X-145640Y72110D02*
X-140326Y77424D01*
X-135031Y77500D02*
X-134750D01*
X-80048Y54298D02*
Y54518D01*
X-149619Y62941D02*
X-145640Y66920D01*
Y72110D01*
X-118773Y58488D02*
X-117044Y60217D01*
X-118773Y57820D02*
Y58488D01*
X-117044Y63206D02*
X-117000Y63250D01*
X-117044Y60217D02*
Y63206D01*
X-114423Y74755D02*
Y75423D01*
X-112044Y68294D02*
Y72376D01*
X-114423Y74755D02*
X-112044Y72376D01*
X-108569Y50731D02*
Y57319D01*
X-108750Y57500D02*
X-108569Y57319D01*
Y50731D02*
X-108388Y50550D01*
X-127294Y76239D02*
Y81456D01*
X-127250Y81500D01*
X-127666Y75867D02*
X-127294Y76239D01*
X-127667Y75866D02*
X-127666Y75867D01*
X-94265Y37401D02*
X-90531Y41136D01*
X-95250Y33750D02*
X-94265Y34735D01*
X-90531Y41136D02*
Y43969D01*
X-94265Y34735D02*
Y37401D01*
X-96250Y33750D02*
X-95250D01*
X-132671Y33600D02*
Y37585D01*
X-134022Y32250D02*
X-132671Y33600D01*
Y37585D02*
X-132199Y38058D01*
X-80235Y3015D02*
X-79250Y4000D01*
X-80235Y-817D02*
Y3015D01*
X-82000Y-2582D02*
X-80235Y-817D01*
X-82000Y-3250D02*
Y-2582D01*
X-65359Y41311D02*
X-61655Y45016D01*
X-65359Y37141D02*
Y41311D01*
X-69071Y33429D02*
X-65359Y37141D01*
X-60610Y45016D02*
X-59250Y46375D01*
X-61655Y45016D02*
X-60610D01*
X-69071Y28000D02*
Y33429D01*
X-75915Y35750D02*
X-75072D01*
X-80461Y40296D02*
X-76281Y36116D01*
X-80531Y43969D02*
X-80461Y43900D01*
Y40296D02*
Y43900D01*
X-76281Y36116D02*
X-75915Y35750D01*
X-75394D02*
X-75072D01*
X-47500Y49845D02*
Y57750D01*
X-112044Y68294D02*
X-112000Y68250D01*
X-120261Y74989D02*
X-120250Y75000D01*
X-120494Y74989D02*
X-120261D01*
X-122206Y77624D02*
X-120250Y75668D01*
X-122250Y81438D02*
X-122206Y81394D01*
Y77624D02*
Y81394D01*
X-120250Y75000D02*
Y75668D01*
X-118500Y30000D02*
Y31250D01*
X-118723Y31473D02*
X-118500Y31250D01*
X-260245Y-106713D02*
X-257533Y-104000D01*
X-254671D01*
X-254656Y-103985D02*
X-248844D01*
X-254671Y-104000D02*
X-254656Y-103985D01*
X-260245Y-112156D02*
Y-106713D01*
X-248829Y-104000D02*
X-248081D01*
X-248844Y-103985D02*
X-248829Y-104000D01*
X-260209Y-120709D02*
Y-112192D01*
X-267385Y-127885D02*
X-260209Y-120709D01*
X-260245Y-112156D02*
X-260209Y-112192D01*
X-284750Y87000D02*
X-282716Y89034D01*
Y125784D01*
X-274500Y134000D01*
X-83031Y57500D02*
X-80048Y54518D01*
X-76546Y47916D02*
Y51015D01*
X-83250Y57500D02*
X-83031D01*
X-86057Y60306D02*
X-83250Y57500D01*
X-252136Y-94583D02*
X-251663Y-94111D01*
X-214846Y-41524D02*
Y-33160D01*
X-214855Y-33151D02*
Y-31395D01*
Y-33151D02*
X-214846Y-33160D01*
X-76546Y47916D02*
X-75531Y46901D01*
Y43969D02*
Y46901D01*
X-77141Y24891D02*
X-71876Y19625D01*
X-82000Y25689D02*
X-81201Y24891D01*
X-82000Y25689D02*
Y26043D01*
X-71876Y19500D02*
Y19625D01*
X-81201Y24891D02*
X-77141D01*
X-51070Y-41310D02*
X-40310D01*
X-51130Y-41250D02*
X-51070Y-41310D01*
X-40310D02*
X-40250Y-41370D01*
X-243165Y-7500D02*
X-238750D01*
X-243250Y-7415D02*
Y-6300D01*
Y-7415D02*
X-243165Y-7500D01*
X-74163Y79995D02*
X-73228Y80930D01*
Y83377D02*
X-72243Y84362D01*
X-73228Y80930D02*
Y83377D01*
X-74163Y79326D02*
Y79995D01*
X-72243Y84362D02*
X-71743D01*
X-80750Y81450D02*
X-79212Y79912D01*
X-76099D01*
X46939Y73061D02*
X50189D01*
X41250Y78750D02*
X46939Y73061D01*
X50189D02*
X50500Y72750D01*
X-234403Y3653D02*
X-232899Y2149D01*
X-238228Y4979D02*
X-236903Y3653D01*
X-234403D01*
X-238228Y4979D02*
Y5000D01*
X-225493Y-66960D02*
X-225458D01*
X-225504Y-66949D02*
X-225493Y-66960D01*
X-224483Y-58704D02*
Y-45645D01*
X-223261Y-44423D01*
Y-36239D01*
X-234665Y-24835D02*
X-223261Y-36239D01*
X-182723Y88055D02*
Y93777D01*
X-184083Y86695D02*
X-182723Y88055D01*
Y93777D02*
X-182250Y94250D01*
X-100277Y79223D02*
X-99027D01*
X-100750Y78750D02*
X-100277Y79223D01*
X-99027D02*
X-95750Y82500D01*
X-47500Y23250D02*
Y25750D01*
X-45750Y10750D02*
Y21500D01*
X-47500Y23250D02*
X-45750Y21500D01*
X-45700Y10300D02*
X-45250Y10750D01*
X-54250Y10300D02*
X-45700D01*
X-54000Y30500D02*
X-53527Y30027D01*
X-51777D02*
X-47500Y25750D01*
X-53527Y30027D02*
X-51777D01*
X-89648Y-3102D02*
X-89250Y-3500D01*
X-92148Y-3102D02*
X-89648D01*
X-97500Y2250D02*
X-92148Y-3102D01*
X-118750Y19500D02*
X-118500Y19750D01*
Y30750D01*
X-118250Y31000D01*
X-112000Y68250D02*
X-111956Y68294D01*
X-50214Y60250D02*
X-50032Y60433D01*
X-44317D01*
X-44250Y60500D01*
X-50000Y60250D02*
X-47500Y57750D01*
X-50214Y60250D02*
X-50000D01*
X-66584Y50000D02*
X-65296Y51289D01*
X-65129D02*
X-62500Y53918D01*
X-69500Y50000D02*
X-66584D01*
X-65296Y51289D02*
X-65129D01*
X-262171Y-92527D02*
X-261609D01*
X-259451Y-90369D01*
X-255335D01*
X-262750Y-91949D02*
X-262171Y-92527D01*
X-263723D02*
X-263473Y-92277D01*
X-267173Y-92527D02*
X-263723D01*
X-268200Y-91500D02*
X-267173Y-92527D01*
X-255335Y-90369D02*
Y-87562D01*
X-262750Y-93000D02*
Y-91949D01*
X-256402Y-99348D02*
X-249610D01*
X-262750Y-93000D02*
X-256402Y-99348D01*
X-251663Y-92481D02*
X-251335Y-92153D01*
X-251663Y-94111D02*
Y-92481D01*
X-251335Y-92153D02*
Y-87785D01*
X-251250Y-87700D01*
X-249610Y-99348D02*
X-247250Y-96989D01*
X-258973Y-39973D02*
X-258511Y-39511D01*
X-248081Y-104000D02*
X-243250Y-99169D01*
Y-87700D01*
X-236800D01*
X-247250Y-96989D02*
Y-87700D01*
X-72000Y-45479D02*
X-65959D01*
X-63216Y-42735D01*
X-65081Y-50479D02*
X-61795Y-47193D01*
X-72000Y-50479D02*
X-65081D01*
X-61795Y-47193D02*
X-56693D01*
X-259260Y-38805D02*
X-258838Y-39228D01*
X-259260Y-38805D02*
Y-38524D01*
X-234832Y-78145D02*
Y-78116D01*
X-232011Y-80937D02*
X-231866Y-81081D01*
X-232041Y-80937D02*
X-232011D01*
X-235613Y-77335D02*
X-234832Y-78116D01*
X-230067Y-76172D02*
X-229943Y-76048D01*
X-234832Y-78145D02*
X-232041Y-80937D01*
X-231866Y-81081D02*
X-228238D01*
X-225458Y-67020D02*
Y-66960D01*
X-228238Y-81081D02*
X-225178Y-78021D01*
X-240715Y-77335D02*
X-235613D01*
X-225466Y-67028D02*
X-225458Y-67020D01*
X-225466Y-67081D02*
Y-67028D01*
X-229982Y-62901D02*
X-229509Y-62428D01*
Y-62316D01*
X-243165Y-64190D02*
X-239530D01*
X-237765Y-69165D02*
X-231501Y-62901D01*
X-229982D01*
X-225466Y-67081D02*
X-225178Y-67368D01*
Y-78021D02*
Y-67368D01*
X-216479Y-66887D02*
X-216349Y-66757D01*
X-216479Y-69531D02*
Y-66887D01*
X-216349Y-66757D02*
Y-60304D01*
X-216479Y-60174D02*
X-216349Y-60304D01*
X-240800Y-69250D02*
X-240715Y-69165D01*
X-216479Y-60174D02*
Y-44882D01*
X-240715Y-69165D02*
X-237765D01*
X-229943Y-76048D02*
Y-74936D01*
X-243250Y-64105D02*
Y-62800D01*
Y-64105D02*
X-243165Y-64190D01*
X-232298Y-73250D02*
X-230611Y-74936D01*
X-240800Y-73250D02*
X-232298D01*
X-230611Y-74936D02*
X-229943D01*
X-240800Y-77250D02*
X-240715Y-77335D01*
X-228965Y-87451D02*
X-228297D01*
X-230011Y-86405D02*
X-228965Y-87451D01*
X-237665Y-81335D02*
X-232595Y-86405D01*
X-230011D01*
X-240800Y-81250D02*
X-240715Y-81335D01*
X-237665D01*
X-236800Y-87700D02*
X-232815Y-91685D01*
X-219073Y-42289D02*
X-216479Y-44882D01*
X-219073Y-42289D02*
Y-33677D01*
X-231947Y-20803D02*
X-219073Y-33677D01*
X-212590Y-65910D02*
Y-43779D01*
X-214846Y-41524D02*
X-212590Y-43779D01*
Y-65910D02*
X-210750Y-67750D01*
X-233415Y-12835D02*
X-214970Y-31280D01*
X-259539Y-41090D02*
X-258973Y-40524D01*
X-259539Y-45038D02*
Y-41090D01*
X-254696Y-43142D02*
X-254274D01*
X-254774Y-43064D02*
X-254696Y-43142D01*
X-259539Y-45038D02*
X-258973Y-45604D01*
Y-40524D02*
Y-39973D01*
Y-48172D02*
Y-45604D01*
X-258838Y-39228D02*
X-258822D01*
X-258662Y-39388D02*
X-258636D01*
X-254274Y-43476D02*
Y-43142D01*
X-258822Y-39228D02*
X-258662Y-39388D01*
X-254274Y-43476D02*
X-253327Y-44423D01*
X-253800Y-42668D02*
Y-42614D01*
X-254274Y-43142D02*
X-253800Y-42668D01*
X-178500Y-18000D02*
Y-17332D01*
X-178973Y-23527D02*
X-178500Y-24000D01*
X-184461Y-23527D02*
X-178973D01*
X-240747Y-20803D02*
X-231947D01*
X-277985Y-127885D02*
X-267385D01*
X-288100Y-138000D02*
X-277985Y-127885D01*
X-252450Y-49250D02*
X-251335Y-50365D01*
X-253327Y-48373D02*
X-252450Y-49250D01*
X-258629Y-39395D02*
X-258627D01*
X-258636Y-39388D02*
X-258629Y-39395D01*
X-258627D02*
X-258511Y-39511D01*
X-91750Y86500D02*
Y86562D01*
X-87750Y90562D01*
Y91000D01*
X-258027Y-36627D02*
X-255250Y-33850D01*
Y-31200D01*
X-260050Y-49250D02*
X-258973Y-48172D01*
X-251250Y-40064D02*
Y-31200D01*
X-253800Y-42614D02*
X-251250Y-40064D01*
X-253327Y-48373D02*
Y-44423D01*
X-255250Y-62800D02*
X-251250D01*
X-251335Y-62715D02*
Y-50365D01*
Y-62715D02*
X-251250Y-62800D01*
Y-31200D02*
X-247250D01*
X-118723Y31473D02*
X-118250Y31000D01*
X-124979Y32250D02*
X-124201Y31473D01*
X-118723D01*
X-135031Y77500D02*
X-134750D01*
X-152500Y34500D02*
X-151812Y35187D01*
X-138235Y41765D02*
X-137250Y42750D01*
Y43250D01*
X-137150Y43350D01*
Y53400D01*
X-153000Y34500D02*
X-152368Y35132D01*
Y47727D02*
X-151750Y48345D01*
X-137150Y53400D02*
X-137050Y53500D01*
X-153714Y25000D02*
X-153000Y25714D01*
Y34500D01*
X-91688Y82500D02*
X-90638Y81450D01*
X-91750Y82500D02*
X-91688D01*
X-90638Y81450D02*
X-80750D01*
X-80600Y81300D02*
X-80275Y80975D01*
X-80750Y81450D02*
X-80600Y81300D01*
Y71100D02*
Y81300D01*
Y71100D02*
X-80531Y71031D01*
X-92000Y-93000D02*
X-81026D01*
X-99506Y-85494D02*
Y-75729D01*
Y-85494D02*
X-92000Y-93000D01*
X-81026D02*
X-71125Y-83098D01*
X-71000D01*
X-99076Y-75729D02*
X-95060Y-79745D01*
X-99506Y-75729D02*
X-99076D01*
X-71235Y-60479D02*
X-71000Y-60714D01*
X-72000Y-60479D02*
X-71235D01*
X-71000Y-72859D02*
Y-60714D01*
Y-72859D02*
X-70764Y-73095D01*
X-60232D02*
X-59996Y-73331D01*
X-70764Y-73095D02*
X-60232D01*
X-56368Y-52632D02*
X-52250Y-56750D01*
Y-60378D02*
Y-56750D01*
Y-60378D02*
X-48726Y-63903D01*
X-59411Y-52247D02*
X-59026Y-52632D01*
X-56368D01*
X-54277Y-47473D02*
X-46021Y-55729D01*
X-56027Y-47473D02*
X-54277D01*
X-62219Y-52719D02*
X-59883D01*
X-56500Y-47000D02*
X-56027Y-47473D01*
X-56693Y-47193D02*
X-56500Y-47000D01*
X-59883Y-52719D02*
X-59411Y-52247D01*
X-64978Y-55479D02*
X-62219Y-52719D01*
X-72000Y-55479D02*
X-64978D01*
X-46272Y-65750D02*
Y-65729D01*
X-48097Y-63903D02*
X-46272Y-65729D01*
X-48726Y-63903D02*
X-48097D01*
X-69750Y-40479D02*
X-65507Y-36235D01*
X-56020D01*
X-51130Y-41250D02*
Y-41125D01*
X-72000Y-40479D02*
X-69750D01*
X-56020Y-36235D02*
X-51130Y-41125D01*
X-62730Y-42735D02*
X-61370Y-41375D01*
Y-41250D01*
X-63216Y-42735D02*
X-62730D01*
X-46021Y-55750D02*
Y-55729D01*
X-180918Y-14914D02*
X-178500Y-17332D01*
X-180918Y-14914D02*
Y-11832D01*
X-182500Y-10250D02*
X-180918Y-11832D01*
X-192394Y-15595D02*
X-184461Y-23527D01*
X-192394Y-15595D02*
Y-10356D01*
X-192500Y-10250D02*
X-192394Y-10356D01*
X-265918Y10225D02*
X-265893Y10250D01*
X-274252Y10200D02*
X-274227Y10225D01*
X-265918D01*
X-284095Y6200D02*
X-274252D01*
X-284718Y6823D02*
X-284095Y6200D01*
X-263761Y-260D02*
X-263023D01*
X-262550Y-733D01*
X-274252Y2200D02*
X-266221D01*
X-263761Y-260D01*
X-240715Y-12835D02*
X-233415D01*
X-294011Y54000D02*
X-282211Y42200D01*
X-354750Y76000D02*
X-332750Y54000D01*
X-294011D01*
X-387736Y76000D02*
X-354750D01*
X-391236Y72500D02*
X-387736Y76000D01*
X-394800Y72500D02*
X-391236D01*
X-274500Y134000D02*
Y138500D01*
X-282211Y42200D02*
X-274252D01*
X-83500Y35250D02*
Y35918D01*
X-165606Y62941D02*
X-149619D01*
X-170750Y68086D02*
X-165606Y62941D01*
X-170750Y68086D02*
Y71655D01*
X-61562Y27938D02*
X-61500Y28000D01*
X-61562Y19562D02*
Y27938D01*
X-61624Y19500D02*
X-61562Y19562D01*
X-57890Y47736D02*
X-56951D01*
X-56576Y48110D01*
X-49235D01*
X-47500Y49845D01*
X-59250Y46375D02*
X-57890Y47736D01*
X-59375Y46375D02*
X-59250D01*
X-69319Y65181D02*
X-65819D01*
X-69500Y65000D02*
X-69319Y65181D01*
X-60383Y68153D02*
X-58536Y70000D01*
X-65819Y65181D02*
X-62847Y68153D01*
X-60383D01*
X-59000Y60250D02*
X-58786D01*
X-60847Y58188D02*
Y58403D01*
X-62500Y53918D02*
Y56536D01*
X-60847Y58403D02*
X-59000Y60250D01*
X-62500Y56536D02*
X-60847Y58188D01*
X-28750Y67750D02*
X-28511Y67511D01*
Y60489D02*
X-28272Y60250D01*
X-28511Y60489D02*
Y67511D01*
X-28500Y50000D02*
X-28386Y50114D01*
Y60136D02*
X-28272Y60250D01*
X-28386Y50114D02*
Y60136D01*
X-20163Y28087D02*
X-15272Y32978D01*
X-20163Y28066D02*
Y28087D01*
X-23728Y24500D02*
X-20163Y28066D01*
X-28500Y24500D02*
X-23728D01*
X-15272Y32978D02*
X-15250D01*
X-33903Y13097D02*
X-31000Y16000D01*
X-35750Y9021D02*
X-35728D01*
X-33903Y10847D01*
Y13097D01*
X-36265Y21265D02*
X-31000Y16000D01*
X-38000Y24500D02*
X-36265Y22765D01*
Y21265D02*
Y22765D01*
X-122250Y81438D02*
Y81500D01*
X-134277Y79410D02*
X-132250Y81438D01*
Y81500D01*
X-240800Y-12750D02*
X-240715Y-12835D01*
Y-24835D02*
X-234665D01*
X-240800Y-24750D02*
X-240715Y-24835D01*
X-240800Y-20750D02*
X-240747Y-20803D01*
X-85461Y37880D02*
Y43900D01*
Y37880D02*
X-83500Y35918D01*
X-85531Y43969D02*
X-85461Y43900D01*
X-80531Y41038D02*
Y43969D01*
X-72104Y19728D02*
X-71876Y19500D01*
X-61500Y28000D02*
X-61362D01*
X-60015Y29347D02*
Y35359D01*
X-59250Y36124D01*
X-61362Y28000D02*
X-60015Y29347D01*
X-59250Y36124D02*
X-38874D01*
X-28500Y25750D01*
Y24500D02*
Y25750D01*
X-111956Y61374D02*
Y63206D01*
Y61374D02*
X-108750Y58168D01*
Y57500D02*
Y58168D01*
X-112000Y63250D02*
X-111956Y63206D01*
X-99812Y90500D02*
X-95812Y86500D01*
X-100250Y90500D02*
X-99812D01*
X-95812Y86500D02*
X-95750D01*
D104*
X-237173Y57402D02*
Y62195D01*
X-237978Y63000D02*
X-237173Y62195D01*
Y57402D02*
X-236772Y57000D01*
X4479Y-12840D02*
X4729Y-12589D01*
X-2499Y-13140D02*
X-2199Y-12840D01*
X4479D01*
X-2745Y-19533D02*
X4653D01*
X4691Y-19571D01*
X-2783Y-19495D02*
X-2745Y-19533D01*
X-2499Y-19210D02*
Y-13140D01*
X-2783Y-19495D02*
X-2499Y-19210D01*
X-2118Y-12759D02*
Y-5096D01*
X-2022Y-5000D01*
X-165246Y-43996D02*
Y-39796D01*
X-167750Y-46500D02*
X-165246Y-43996D01*
Y-39796D02*
X-164500Y-39050D01*
X-245592Y-39550D02*
Y-39516D01*
X-243250Y-37174D01*
Y-31200D01*
D105*
X-35556Y61559D02*
X-35500D01*
X199506Y155000D02*
X200000D01*
X203031Y151969D01*
Y150969D02*
Y151969D01*
Y150969D02*
X209904Y144096D01*
X210000Y144000D02*
X210096Y143904D01*
X209904Y-137719D02*
X216000Y-131624D01*
Y-130000D01*
X209904Y-140904D02*
Y-137719D01*
X199750Y-130750D02*
X209904Y-140904D01*
X199256Y-130750D02*
X199750D01*
X209904Y-145904D02*
Y-140904D01*
Y-145904D02*
X210000Y-146000D01*
X21250Y-101250D02*
X25000Y-97500D01*
X21250Y-135127D02*
Y-101250D01*
X210096Y143904D02*
X224096D01*
X225000Y143000D01*
X25000Y-97500D02*
Y-87006D01*
X-7006Y-88000D02*
X-6511D01*
X-3480Y-91031D01*
Y-94020D02*
Y-91031D01*
Y-94020D02*
X5000Y-102500D01*
Y-137500D02*
Y-102500D01*
X-122537Y-149469D02*
X-119506Y-152500D01*
X-129988Y-146972D02*
Y-145179D01*
X-127491Y-149469D02*
X-122537D01*
X-129988Y-146972D02*
X-127491Y-149469D01*
X-130084Y-145084D02*
X-129988Y-145179D01*
X-129904Y147596D02*
X-122500Y155000D01*
X-129904Y143096D02*
Y147596D01*
X-130000Y143000D02*
X-129904Y143096D01*
X-122500Y155000D02*
X-122006D01*
X-35596Y60348D02*
Y61519D01*
X-35556Y61559D01*
X-39500Y66000D02*
X-35596Y62096D01*
Y61846D02*
Y62096D01*
Y61846D02*
X-35500Y61750D01*
X-40000Y66000D02*
X-39500D01*
X-38944Y57000D02*
X-35596Y60348D01*
X-39000Y56865D02*
Y57000D01*
X-38750Y50750D02*
X-38000Y50000D01*
X-38750Y50750D02*
Y56615D01*
X-39000Y56865D02*
X-38750Y56615D01*
X-264843Y-167857D02*
Y-161257D01*
Y-167857D02*
X-262700Y-170000D01*
X-288100Y-138000D02*
X-264843Y-161257D01*
X57900Y-82015D02*
X58250Y-82365D01*
Y-82500D02*
Y-82365D01*
X57900Y-82015D02*
Y-72000D01*
X57265Y-72500D02*
X57765Y-72000D01*
X47500Y-72500D02*
X57265D01*
X57765Y-72000D02*
X57900D01*
X14362Y-5000D02*
X15862Y-6500D01*
X22500D02*
X25000Y-9000D01*
X15862Y-6500D02*
X22500D01*
X6022Y-5000D02*
X14362D01*
X46250Y-23750D02*
X47500Y-22500D01*
X25000Y-25000D02*
X26250Y-23750D01*
X46250D01*
X21969Y-76520D02*
X25000Y-73489D01*
X18980Y-76520D02*
X21969D01*
X25000Y-73489D02*
Y-72994D01*
X7500Y-88000D02*
X18980Y-76520D01*
X7006Y-88000D02*
X7500D01*
X46625Y-55625D02*
X47500Y-56500D01*
X25000Y-54750D02*
X25875Y-55625D01*
X46625D01*
X25000Y-72994D02*
Y-54750D01*
X46625Y-39375D02*
X47500Y-38500D01*
X25000Y-40250D02*
X25875Y-39375D01*
X46625D01*
X7625Y-55369D02*
Y-40125D01*
X7500Y-55494D02*
X7625Y-55369D01*
Y-40125D02*
X7750Y-40000D01*
X24875Y-40125D02*
X25000Y-40250D01*
X7750Y-40000D02*
X7875Y-40125D01*
X24875D01*
X-18503Y-40497D02*
X-6247D01*
X-19000Y-40994D02*
X-18503Y-40497D01*
X-6247D02*
X-5750Y-40000D01*
D106*
X-192750Y-48500D02*
Y-43058D01*
Y-48500D02*
X-191000Y-50250D01*
X-180750D01*
D107*
X320000Y-150000D02*
D03*
Y150000D02*
D03*
X-380000Y-150000D02*
D03*
Y150000D02*
D03*
D108*
X-275250Y111000D02*
D03*
X-323000Y15250D02*
D03*
Y-1500D02*
D03*
X-253000Y-111000D02*
D03*
X-224500Y-110750D02*
D03*
X-239000Y-111000D02*
D03*
X-243500Y111000D02*
D03*
X-257750D02*
D03*
X30000Y-111000D02*
D03*
X-3750D02*
D03*
X30000Y111000D02*
D03*
X13000D02*
D03*
X-4750D02*
D03*
X13000Y-111000D02*
D03*
D109*
X-420200Y-75000D02*
D03*
Y-25000D02*
D03*
Y25000D02*
D03*
Y72500D02*
D03*
X-186500Y-138001D02*
D03*
Y-170001D02*
D03*
D110*
X-394800Y-75000D02*
D03*
Y-25000D02*
D03*
Y25000D02*
D03*
Y72500D02*
D03*
X-360000Y-38100D02*
D03*
X-360000Y-12700D02*
D03*
Y12700D02*
D03*
Y38100D02*
D03*
Y63500D02*
D03*
X-313500Y-138000D02*
D03*
X-288100D02*
D03*
X-262700D02*
D03*
X-237300D02*
D03*
X-211900Y-138001D02*
D03*
X-313500Y-170000D02*
D03*
X-288100D02*
D03*
X-262700D02*
D03*
X-237300D02*
D03*
X-211900Y-170001D02*
D03*
D111*
X-360000Y-63500D02*
D03*
D112*
X215260Y161000D02*
D03*
X-135260D02*
D03*
Y-161000D02*
D03*
X215260D02*
D03*
D113*
X-271000Y126000D02*
D03*
X-249012D02*
D03*
X-234000Y31000D02*
D03*
X-252750Y20762D02*
D03*
X-241891Y77770D02*
D03*
X-135031Y77500D02*
D03*
X-130450Y58100D02*
D03*
X-86355Y54410D02*
D03*
X-80048Y54298D02*
D03*
X-118773Y57820D02*
D03*
X-114423Y75423D02*
D03*
X-114951Y42426D02*
D03*
X-127666Y75867D02*
D03*
X-132199Y38058D02*
D03*
X-122000Y42798D02*
D03*
X-51500Y92250D02*
D03*
X-71004Y39141D02*
D03*
X-76281Y36116D02*
D03*
X-68064Y73881D02*
D03*
X-120494Y74989D02*
D03*
X-291252Y24635D02*
D03*
X-295750Y38250D02*
D03*
X-296750Y44500D02*
D03*
X-171500Y-40500D02*
D03*
X-48000Y-35000D02*
D03*
X-85410Y-8486D02*
D03*
X-77250Y-8000D02*
D03*
X-286500Y39250D02*
D03*
X-185188Y-62000D02*
D03*
X-176000Y-96000D02*
D03*
X-175938Y-89250D02*
D03*
X-176188Y-80500D02*
D03*
X61812Y93500D02*
D03*
X62312Y79750D02*
D03*
X62562Y64000D02*
D03*
Y50250D02*
D03*
X64562Y3500D02*
D03*
X61812Y-47500D02*
D03*
X62312Y-61500D02*
D03*
X61062Y-94750D02*
D03*
X-40500Y-90500D02*
D03*
X-45438Y-48250D02*
D03*
X-117250Y4488D02*
D03*
X-123000Y5000D02*
D03*
X-296000Y130000D02*
D03*
X-194000Y170000D02*
D03*
X-191000Y130000D02*
D03*
X-94688Y154500D02*
D03*
X170062Y155000D02*
D03*
X173562Y-142000D02*
D03*
X-92438Y-152250D02*
D03*
X-61000Y6000D02*
D03*
X-84000Y96250D02*
D03*
X-62500Y96000D02*
D03*
X-110250Y30000D02*
D03*
X-118500D02*
D03*
X-136438Y18000D02*
D03*
X-120575Y94641D02*
D03*
X210000Y-146000D02*
D03*
X-285691Y22278D02*
D03*
X-289627Y18377D02*
D03*
X-290250Y34086D02*
D03*
X-201200Y-9954D02*
D03*
X4729Y-12589D02*
D03*
X4691Y-19571D02*
D03*
X-2783Y-19495D02*
D03*
X-2214Y-12855D02*
D03*
X-80048Y60232D02*
D03*
X-86057Y60306D02*
D03*
X-296186Y10295D02*
D03*
X-240888Y12733D02*
D03*
X-252136Y-94583D02*
D03*
X-238000Y-30000D02*
D03*
X-209971Y-23971D02*
D03*
X-249250Y-18750D02*
D03*
X-221965Y-8924D02*
D03*
X-181000Y77000D02*
D03*
X-219000Y96000D02*
D03*
X-261000Y89000D02*
D03*
Y75000D02*
D03*
Y64000D02*
D03*
X-152000Y96000D02*
D03*
X-165000D02*
D03*
X-21000Y3000D02*
D03*
X-33500Y-96250D02*
D03*
X-33000Y-82500D02*
D03*
X-40250Y-76000D02*
D03*
X-153500Y-81500D02*
D03*
X-190750Y-67750D02*
D03*
X-215750Y17750D02*
D03*
X-211000Y20750D02*
D03*
X-202750Y15250D02*
D03*
X-205250Y8500D02*
D03*
X-34000Y96250D02*
D03*
X-287750Y-92500D02*
D03*
X-288000Y-78750D02*
D03*
X-202500Y-83750D02*
D03*
X-202750Y-94750D02*
D03*
X-311000Y48500D02*
D03*
X-310000Y91500D02*
D03*
X-309250Y63500D02*
D03*
X-270000Y-58750D02*
D03*
X-80117Y12827D02*
D03*
X210000Y144000D02*
D03*
X-130000Y143000D02*
D03*
X-16000Y-149000D02*
D03*
X0D02*
D03*
X-130084Y-145084D02*
D03*
X-74163Y79326D02*
D03*
X-91250Y-55479D02*
D03*
X-81250D02*
D03*
X-91250Y-45479D02*
D03*
X-81250D02*
D03*
X-162500Y0D02*
D03*
X-137500D02*
D03*
X-150000D02*
D03*
X-175000D02*
D03*
X-129250Y-21250D02*
D03*
X-69750Y-30000D02*
D03*
X-70000Y-4750D02*
D03*
X-232899Y2149D02*
D03*
X-238750Y-7500D02*
D03*
X-225504Y-66949D02*
D03*
X-228026Y-42449D02*
D03*
X-241800Y-44200D02*
D03*
X-238000Y-39550D02*
D03*
X-248262Y45778D02*
D03*
X-256500Y98750D02*
D03*
X-54000Y30500D02*
D03*
X-82000Y-3250D02*
D03*
X-44250Y60500D02*
D03*
X-54500Y53250D02*
D03*
X-262750Y-93000D02*
D03*
X-239530Y-64190D02*
D03*
X-27722Y-2089D02*
D03*
X-28750Y-8000D02*
D03*
X23000Y27810D02*
D03*
X28750D02*
D03*
X28500Y15500D02*
D03*
X-68750Y13250D02*
D03*
X-259260Y-38524D02*
D03*
X-230067Y-76172D02*
D03*
X-229751Y-55833D02*
D03*
X-229509Y-62316D02*
D03*
X-224483Y-58704D02*
D03*
X-216479Y-69531D02*
D03*
X-228297Y-87451D02*
D03*
X-232815Y-91685D02*
D03*
X-210081Y-39550D02*
D03*
X-198606Y-41750D02*
D03*
X-192750Y-43058D02*
D03*
X-204702Y-42209D02*
D03*
X-210750Y-67750D02*
D03*
X-264304Y-42000D02*
D03*
X-254774Y-43064D02*
D03*
X-245592Y-39550D02*
D03*
X-178500Y-18000D02*
D03*
Y-24000D02*
D03*
X-172250Y-34250D02*
D03*
X-262750Y25750D02*
D03*
X-296462Y-44085D02*
D03*
X-87750Y91000D02*
D03*
X-153500Y-33000D02*
D03*
X-161000Y-47250D02*
D03*
X-167750Y-46500D02*
D03*
X-152500Y-39250D02*
D03*
X-55000Y-6500D02*
D03*
X-296011Y-11457D02*
D03*
X-296762Y-5504D02*
D03*
X-295571Y376D02*
D03*
X-283750Y-15028D02*
D03*
X-283661Y-21028D02*
D03*
X-296319Y-21182D02*
D03*
X-296843Y-27159D02*
D03*
X-283661Y-9029D02*
D03*
X-143381Y39512D02*
D03*
X-203293Y27950D02*
D03*
X-184000Y40000D02*
D03*
X-198526Y31593D02*
D03*
X-180750Y60262D02*
D03*
X-114250Y-93500D02*
D03*
X-226512Y65750D02*
D03*
X-226500Y81000D02*
D03*
X-293250Y70250D02*
D03*
X-293242Y75985D02*
D03*
X-293250Y84000D02*
D03*
X-293044Y89580D02*
D03*
X-197881Y45000D02*
D03*
X-236772Y57000D02*
D03*
X-200000Y78250D02*
D03*
Y71500D02*
D03*
X-100750Y78750D02*
D03*
X-96250Y73500D02*
D03*
X-39000Y57000D02*
D03*
X-35500Y61750D02*
D03*
X50500Y84500D02*
D03*
Y72750D02*
D03*
X-29250Y89500D02*
D03*
Y83750D02*
D03*
X58250Y-82500D02*
D03*
X-25500Y-73250D02*
D03*
X57900Y-72000D02*
D03*
X-25250Y-86250D02*
D03*
X22500Y15750D02*
D03*
X-59411Y-52247D02*
D03*
X-56500Y-47000D02*
D03*
X-176289Y94198D02*
D03*
X-182250Y94250D02*
D03*
X-296339Y-34022D02*
D03*
X-273927Y48421D02*
D03*
X-241667Y45330D02*
D03*
X-254267Y46750D02*
D03*
X-267756Y48210D02*
D03*
X-261011Y47657D02*
D03*
X-284718Y6823D02*
D03*
X-262550Y-733D02*
D03*
Y5267D02*
D03*
X-265893Y10250D02*
D03*
X-255762Y500D02*
D03*
X-262550Y15232D02*
D03*
X64000Y-149000D02*
D03*
X48000Y-149512D02*
D03*
X80000Y-149000D02*
D03*
X32000D02*
D03*
X16000D02*
D03*
X-32000D02*
D03*
X-24000Y148000D02*
D03*
X72000D02*
D03*
X56000D02*
D03*
X40000D02*
D03*
X24000D02*
D03*
X8000D02*
D03*
X-40000D02*
D03*
X-8000D02*
D03*
X-73250Y-95000D02*
D03*
X-58243Y-29056D02*
D03*
X-89250Y-3500D02*
D03*
X-30500Y-17500D02*
D03*
X-131000Y-57500D02*
D03*
X-83500Y35250D02*
D03*
X-103000Y16762D02*
D03*
X-90344Y16844D02*
D03*
X-55750Y-16750D02*
D03*
X-100250Y90500D02*
D03*
X-193250Y-57250D02*
D03*
X-108750Y57500D02*
D03*
X-88627Y23500D02*
D03*
X-100750Y41250D02*
D03*
X-120250Y-93750D02*
D03*
X-113250Y-80500D02*
D03*
X-148250Y-94500D02*
D03*
X-156000Y-94000D02*
D03*
X-152000Y-90000D02*
D03*
X-31000Y16000D02*
D03*
D115*
X40000Y-157141D02*
D03*
X56000D02*
D03*
X32000D02*
D03*
X80000D02*
D03*
X64000D02*
D03*
X72000D02*
D03*
X-24000D02*
D03*
X-16000D02*
D03*
X-40000D02*
D03*
X-32000D02*
D03*
X8000D02*
D03*
X24000D02*
D03*
X0D02*
D03*
X-8000D02*
D03*
X48000D02*
D03*
X16000D02*
D03*
X0Y157141D02*
D03*
X-16000D02*
D03*
X8000D02*
D03*
X-40000D02*
D03*
X-24000D02*
D03*
X-32000D02*
D03*
X64000D02*
D03*
X56000D02*
D03*
X80000D02*
D03*
X72000D02*
D03*
X32000D02*
D03*
X16000D02*
D03*
X40000D02*
D03*
X48000D02*
D03*
X-8000D02*
D03*
X24000D02*
D03*
D116*
X92500Y-176341D02*
D03*
X-52500D02*
D03*
Y176341D02*
D03*
X92500D02*
D03*
D117*
X-249500Y138500D02*
D03*
X-239500D02*
D03*
X-259500D02*
D03*
X-264500D02*
D03*
X-254500D02*
D03*
X-244500D02*
D03*
X-269500D02*
D03*
X-274500D02*
D03*
D118*
X-215000Y165000D02*
D03*
X-298500D02*
D03*
D119*
X-63820Y-23228D02*
D03*
X-86680D02*
D03*
D120*
X-100500Y-60479D02*
D03*
Y-55479D02*
D03*
Y-50479D02*
D03*
Y-45479D02*
D03*
Y-40479D02*
D03*
X-72000Y-60479D02*
D03*
Y-55479D02*
D03*
Y-50479D02*
D03*
Y-45479D02*
D03*
Y-40479D02*
D03*
D121*
X-86250Y-50479D02*
D03*
D122*
X-61370Y-41250D02*
D03*
X-51130D02*
D03*
D123*
X-60000Y-83598D02*
D03*
X-59996Y-73331D02*
D03*
X-71000Y-72859D02*
D03*
Y-83098D02*
D03*
X-40250Y-31130D02*
D03*
Y-41370D02*
D03*
D124*
X-182500Y-10250D02*
D03*
Y250D02*
D03*
X-192500Y-10250D02*
D03*
Y250D02*
D03*
D125*
X-255250Y-31200D02*
D03*
X-251250D02*
D03*
X-247250D02*
D03*
X-243250D02*
D03*
Y-6300D02*
D03*
X-247250D02*
D03*
X-251250D02*
D03*
X-255250D02*
D03*
Y-87700D02*
D03*
Y-62800D02*
D03*
X-251250D02*
D03*
X-247250D02*
D03*
X-243250D02*
D03*
Y-87700D02*
D03*
X-247250D02*
D03*
X-251250D02*
D03*
D126*
X-240800Y-24750D02*
D03*
Y-20750D02*
D03*
Y-16750D02*
D03*
Y-12750D02*
D03*
X-257700D02*
D03*
Y-16750D02*
D03*
Y-20750D02*
D03*
Y-77250D02*
D03*
Y-73250D02*
D03*
Y-69250D02*
D03*
X-240800D02*
D03*
Y-73250D02*
D03*
Y-77250D02*
D03*
Y-81250D02*
D03*
D127*
X-257200Y-24750D02*
D03*
Y-81250D02*
D03*
D128*
X-226250Y94786D02*
D03*
Y87214D02*
D03*
X-212000Y94786D02*
D03*
Y87214D02*
D03*
X-300000Y86714D02*
D03*
Y94286D02*
D03*
Y65714D02*
D03*
Y73286D02*
D03*
X6250Y4214D02*
D03*
Y11786D02*
D03*
D129*
X-170750Y48345D02*
D03*
X-151750D02*
D03*
X-161250D02*
D03*
X-151750Y71655D02*
D03*
X-161250D02*
D03*
D130*
X-170750D02*
D03*
D131*
X-28750Y67750D02*
D03*
Y74250D02*
D03*
D132*
X12450Y77000D02*
D03*
X-450Y72000D02*
D03*
Y82000D02*
D03*
D133*
X23250Y41500D02*
D03*
D134*
X23695D02*
D03*
D135*
X4073Y56486D02*
D03*
Y26514D02*
D03*
D136*
X-22500Y12000D02*
D03*
X-11500D02*
D03*
X-153000Y34500D02*
D03*
X-164000D02*
D03*
D137*
X25000Y-40250D02*
D03*
Y-54750D02*
D03*
D138*
X-143000Y-28000D02*
D03*
X-121000D02*
D03*
Y-70000D02*
D03*
X-143000D02*
D03*
D139*
X-165000Y-65738D02*
D03*
Y-80262D02*
D03*
D140*
X-274252Y-53800D02*
D03*
X-305748D02*
D03*
Y-49800D02*
D03*
Y-45800D02*
D03*
Y-41800D02*
D03*
Y-37800D02*
D03*
Y-33800D02*
D03*
Y-29800D02*
D03*
Y-25800D02*
D03*
Y-21800D02*
D03*
Y-17800D02*
D03*
Y-13800D02*
D03*
X-274252Y-9800D02*
D03*
X-305748D02*
D03*
X-274252Y-5800D02*
D03*
X-305748D02*
D03*
X-274252Y-1800D02*
D03*
X-305748D02*
D03*
X-274252Y2200D02*
D03*
X-305748D02*
D03*
X-274252Y6200D02*
D03*
X-305748D02*
D03*
X-274252Y10200D02*
D03*
X-305748D02*
D03*
X-274252Y14200D02*
D03*
X-305748D02*
D03*
X-274252Y18200D02*
D03*
X-305748D02*
D03*
X-274252Y22200D02*
D03*
X-305748D02*
D03*
X-274252Y26200D02*
D03*
X-305748D02*
D03*
X-274252Y30200D02*
D03*
X-305748D02*
D03*
X-274252Y34200D02*
D03*
X-305748D02*
D03*
X-274252Y38200D02*
D03*
X-305748D02*
D03*
X-274252Y42200D02*
D03*
X-305748D02*
D03*
X-274252Y-13800D02*
D03*
Y-17800D02*
D03*
Y-21800D02*
D03*
Y-25800D02*
D03*
Y-29800D02*
D03*
Y-33800D02*
D03*
Y-37800D02*
D03*
Y-41800D02*
D03*
Y-45800D02*
D03*
Y-49800D02*
D03*
D141*
X-284750Y87000D02*
D03*
Y73500D02*
D03*
D142*
X-82000Y26043D02*
D03*
Y19957D02*
D03*
D143*
X-17543Y72500D02*
D03*
X-11457D02*
D03*
D144*
X-59250Y46375D02*
D03*
Y36124D02*
D03*
D145*
X-96561Y60000D02*
D03*
Y55000D02*
D03*
Y65000D02*
D03*
Y50000D02*
D03*
X-69500D02*
D03*
Y55000D02*
D03*
Y60000D02*
D03*
D146*
X-85531Y71031D02*
D03*
X-90531D02*
D03*
X-80531D02*
D03*
Y43969D02*
D03*
X-90531D02*
D03*
X-85531D02*
D03*
X-75531Y71031D02*
D03*
Y43969D02*
D03*
D147*
X-83031Y57500D02*
D03*
D148*
X-69500Y65000D02*
D03*
D149*
X-71876Y19500D02*
D03*
X-61624D02*
D03*
M02*
