G04*
G04 #@! TF.GenerationSoftware,Altium Limited,Altium Designer,24.6.1 (21)*
G04*
G04 Layer_Color=65535*
%FSLAX44Y44*%
%MOMM*%
G71*
G04*
G04 #@! TF.SameCoordinates,A60324F7-5EA5-4536-B251-014C174E4282*
G04*
G04*
G04 #@! TF.FilePolarity,Positive*
G04*
G01*
G75*
%ADD10C,0.2500*%
%ADD11C,0.2000*%
%ADD12C,0.2540*%
%ADD13C,0.1500*%
D10*
X-44750Y-79000D02*
G03*
X-44750Y-79000I-1250J0D01*
G01*
D11*
X123200Y-35000D02*
X150800D01*
X102000Y-13800D02*
Y13800D01*
X172000Y-13800D02*
Y13800D01*
X123200Y35000D02*
X150800D01*
X82503Y-38654D02*
X90500D01*
X87834Y-35988D01*
X90500Y-33323D01*
X82503D01*
Y-30657D02*
X89167D01*
X90500Y-29324D01*
Y-26658D01*
X89167Y-25325D01*
X82503D01*
Y-22659D02*
X90500D01*
Y-17328D01*
Y-14662D02*
X82503D01*
Y-10663D01*
X83835Y-9330D01*
X86501D01*
X87834Y-10663D01*
Y-14662D01*
X82503Y-6665D02*
X89167D01*
X90500Y-5332D01*
Y-2666D01*
X89167Y-1333D01*
X82503D01*
X83835Y6665D02*
X82503Y5332D01*
Y2666D01*
X83835Y1333D01*
X85168D01*
X86501Y2666D01*
Y5332D01*
X87834Y6665D01*
X89167D01*
X90500Y5332D01*
Y2666D01*
X89167Y1333D01*
X83835Y22659D02*
X82503Y21326D01*
Y18661D01*
X83835Y17328D01*
X89167D01*
X90500Y18661D01*
Y21326D01*
X89167Y22659D01*
X82503Y25325D02*
X90500D01*
X86501D01*
Y30657D01*
X82503D01*
X90500D01*
X82503Y38654D02*
X83835Y35988D01*
X86501Y33323D01*
X89167D01*
X90500Y34655D01*
Y37321D01*
X89167Y38654D01*
X87834D01*
X86501Y37321D01*
Y33323D01*
D12*
X-177518Y-100595D02*
X-165522D01*
X-169520Y-96596D01*
X-165522Y-92598D01*
X-177518D01*
Y-88599D02*
X-167521D01*
X-165522Y-86599D01*
Y-82601D01*
X-167521Y-80601D01*
X-177518D01*
Y-76603D02*
X-165522D01*
Y-68605D01*
Y-64606D02*
X-177518D01*
Y-58608D01*
X-175518Y-56609D01*
X-171520D01*
X-169520Y-58608D01*
Y-64606D01*
X-177518Y-52610D02*
X-167521D01*
X-165522Y-50611D01*
Y-46612D01*
X-167521Y-44613D01*
X-177518D01*
X-175518Y-32617D02*
X-177518Y-34616D01*
Y-38615D01*
X-175518Y-40614D01*
X-173519D01*
X-171520Y-38615D01*
Y-34616D01*
X-169520Y-32617D01*
X-167521D01*
X-165522Y-34616D01*
Y-38615D01*
X-167521Y-40614D01*
X-177518Y-16622D02*
Y-8625D01*
Y-12623D01*
X-165522D01*
Y1372D02*
Y-2627D01*
X-167521Y-4626D01*
X-171520D01*
X-173519Y-2627D01*
Y1372D01*
X-171520Y3372D01*
X-169520D01*
Y-4626D01*
X-165522Y7370D02*
Y13368D01*
X-167521Y15368D01*
X-169520Y13368D01*
Y9370D01*
X-171520Y7370D01*
X-173519Y9370D01*
Y15368D01*
X-175518Y21366D02*
X-173519D01*
Y19366D01*
Y23365D01*
Y21366D01*
X-167521D01*
X-165522Y23365D01*
X-177518Y29363D02*
X-165522D01*
Y35361D01*
X-167521Y37360D01*
X-169520D01*
X-171520D01*
X-173519Y35361D01*
Y29363D01*
X-165522Y47357D02*
Y43358D01*
X-167521Y41359D01*
X-171520D01*
X-173519Y43358D01*
Y47357D01*
X-171520Y49357D01*
X-169520D01*
Y41359D01*
X-165522Y53355D02*
X-173519D01*
Y59353D01*
X-171520Y61353D01*
X-165522D01*
X-173519Y73349D02*
Y67351D01*
X-171520Y65351D01*
X-167521D01*
X-165522Y67351D01*
Y73349D01*
X-177518Y77347D02*
X-165522D01*
X-171520D01*
X-173519Y79347D01*
Y83346D01*
X-171520Y85345D01*
X-165522D01*
X-145030Y-128586D02*
X-157026D01*
Y-122588D01*
X-155027Y-120588D01*
X-151028D01*
X-149029Y-122588D01*
Y-128586D01*
X-145030Y-114590D02*
Y-110592D01*
X-147030Y-108592D01*
X-151028D01*
X-153028Y-110592D01*
Y-114590D01*
X-151028Y-116590D01*
X-147030D01*
X-145030Y-114590D01*
Y-104594D02*
Y-100595D01*
Y-102594D01*
X-157026D01*
Y-104594D01*
X-153028Y-94597D02*
X-147030D01*
X-145030Y-92598D01*
Y-86599D01*
X-143031D01*
X-141032Y-88599D01*
Y-90598D01*
X-145030Y-86599D02*
X-153028D01*
X-155027Y-74603D02*
X-157026Y-76603D01*
Y-80601D01*
X-155027Y-82601D01*
X-147030D01*
X-145030Y-80601D01*
Y-76603D01*
X-147030Y-74603D01*
X-145030Y-70605D02*
X-157026D01*
X-153028Y-66606D01*
X-157026Y-62607D01*
X-145030D01*
X-157026Y-58608D02*
X-147030D01*
X-145030Y-56609D01*
Y-52610D01*
X-147030Y-50611D01*
X-157026D01*
Y-46612D02*
Y-38615D01*
Y-42614D01*
X-145030D01*
Y-22620D02*
X-153028D01*
X-157026Y-18621D01*
X-153028Y-14623D01*
X-145030D01*
X-151028D01*
Y-22620D01*
X-157026Y-2627D02*
X-145030D01*
Y-8625D01*
X-147030Y-10624D01*
X-151028D01*
X-153028Y-8625D01*
Y-2627D01*
Y3372D02*
Y7370D01*
X-151028Y9370D01*
X-145030D01*
Y3372D01*
X-147030Y1372D01*
X-149029Y3372D01*
Y9370D01*
X-141032Y13368D02*
X-153028D01*
Y19366D01*
X-151028Y21366D01*
X-147030D01*
X-145030Y19366D01*
Y13368D01*
X-155027Y27364D02*
X-153028D01*
Y25364D01*
Y29363D01*
Y27364D01*
X-147030D01*
X-145030Y29363D01*
Y41359D02*
Y37360D01*
X-147030Y35361D01*
X-151028D01*
X-153028Y37360D01*
Y41359D01*
X-151028Y43358D01*
X-149029D01*
Y35361D01*
X-153028Y47357D02*
X-145030D01*
X-149029D01*
X-151028Y49357D01*
X-153028Y51356D01*
Y53355D01*
Y71350D02*
X-145030Y75348D01*
X-153028Y79347D01*
X-145030Y91343D02*
Y83346D01*
X-153028Y91343D01*
X-155027D01*
X-157026Y89344D01*
Y85345D01*
X-155027Y83346D01*
X-145030Y95342D02*
X-147030D01*
Y97341D01*
X-145030D01*
Y95342D01*
X-155027Y105338D02*
X-157026Y107338D01*
Y111336D01*
X-155027Y113336D01*
X-147030D01*
X-145030Y111336D01*
Y107338D01*
X-147030Y105338D01*
X-155027D01*
X-130537Y-128586D02*
X-132536Y-130585D01*
Y-134584D01*
X-130537Y-136583D01*
X-122540D01*
X-120540Y-134584D01*
Y-130585D01*
X-122540Y-128586D01*
X-120540Y-118589D02*
Y-122588D01*
X-122540Y-124587D01*
X-126538D01*
X-128538Y-122588D01*
Y-118589D01*
X-126538Y-116590D01*
X-124539D01*
Y-124587D01*
X-132536Y-104594D02*
X-120540D01*
Y-110592D01*
X-122540Y-112591D01*
X-126538D01*
X-128538Y-110592D01*
Y-104594D01*
Y-100595D02*
X-120540D01*
X-124539D01*
X-126538Y-98596D01*
X-128538Y-96596D01*
Y-94597D01*
X-120540Y-88599D02*
Y-84600D01*
Y-86599D01*
X-128538D01*
Y-88599D01*
Y-70605D02*
Y-76603D01*
X-126538Y-78602D01*
X-122540D01*
X-120540Y-76603D01*
Y-70605D01*
X-132536Y-54610D02*
X-120540D01*
X-126538D01*
Y-46612D01*
X-132536D01*
X-120540D01*
Y-42614D02*
Y-38615D01*
Y-40614D01*
X-128538D01*
Y-42614D01*
Y-32617D02*
X-120540D01*
X-124539D01*
X-126538Y-30617D01*
X-128538Y-28618D01*
Y-26619D01*
X-120540Y-20621D02*
Y-14623D01*
X-122540Y-12623D01*
X-124539Y-14623D01*
Y-18621D01*
X-126538Y-20621D01*
X-128538Y-18621D01*
Y-12623D01*
Y-627D02*
Y-6625D01*
X-126538Y-8625D01*
X-122540D01*
X-120540Y-6625D01*
Y-627D01*
X-132536Y3371D02*
X-120540D01*
X-126538D01*
X-128538Y5371D01*
Y9370D01*
X-126538Y11369D01*
X-120540D01*
Y15368D02*
Y19366D01*
Y17367D01*
X-128538D01*
Y15368D01*
X-120540Y37360D02*
Y41359D01*
Y39360D01*
X-132536D01*
X-130537Y37360D01*
Y47357D02*
X-132536Y49357D01*
Y53355D01*
X-130537Y55355D01*
X-122540D01*
X-120540Y53355D01*
Y49357D01*
X-122540Y47357D01*
X-130537D01*
X-120540Y59353D02*
X-122540D01*
Y61353D01*
X-120540D01*
Y59353D01*
X-130537Y69350D02*
X-132536Y71350D01*
Y75348D01*
X-130537Y77347D01*
X-122540D01*
X-120540Y75348D01*
Y71350D01*
X-122540Y69350D01*
X-130537D01*
X-120540Y81346D02*
Y85345D01*
Y83346D01*
X-132536D01*
X-130537Y81346D01*
X-120540Y91343D02*
X-122540D01*
Y93342D01*
X-120540D01*
Y91343D01*
Y109337D02*
Y101340D01*
X-128538Y109337D01*
X-130537D01*
X-132536Y107338D01*
Y103339D01*
X-130537Y101340D01*
X-132536Y121333D02*
Y113336D01*
X-126538D01*
X-128538Y117335D01*
Y119334D01*
X-126538Y121333D01*
X-122540D01*
X-120540Y119334D01*
Y115335D01*
X-122540Y113336D01*
D13*
X-26501Y99169D02*
X-33499D01*
Y102667D01*
X-32333Y103834D01*
X-30000D01*
X-28834Y102667D01*
Y99169D01*
Y101501D02*
X-26501Y103834D01*
X-32333Y106166D02*
X-33499Y107333D01*
Y109665D01*
X-32333Y110831D01*
X-31166D01*
X-30000Y109665D01*
X-28834Y110831D01*
X-27667D01*
X-26501Y109665D01*
Y107333D01*
X-27667Y106166D01*
X-28834D01*
X-30000Y107333D01*
X-31166Y106166D01*
X-32333D01*
X-30000Y107333D02*
Y109665D01*
X-26501Y-110831D02*
X-33499D01*
Y-107333D01*
X-32332Y-106166D01*
X-30000D01*
X-28834Y-107333D01*
Y-110831D01*
Y-108499D02*
X-26501Y-106166D01*
X-33499Y-103834D02*
Y-99169D01*
X-32332D01*
X-27667Y-103834D01*
X-26501D01*
X-6501Y99169D02*
X-13499D01*
Y102667D01*
X-12333Y103834D01*
X-10000D01*
X-8834Y102667D01*
Y99169D01*
Y101501D02*
X-6501Y103834D01*
X-13499Y110831D02*
X-12333Y108499D01*
X-10000Y106166D01*
X-7667D01*
X-6501Y107333D01*
Y109665D01*
X-7667Y110831D01*
X-8834D01*
X-10000Y109665D01*
Y106166D01*
X-6501Y-110831D02*
X-13499D01*
Y-107333D01*
X-12333Y-106166D01*
X-10000D01*
X-8834Y-107333D01*
Y-110831D01*
Y-108499D02*
X-6501Y-106166D01*
X-13499Y-99169D02*
Y-103834D01*
X-10000D01*
X-11166Y-101501D01*
Y-100335D01*
X-10000Y-99169D01*
X-7667D01*
X-6501Y-100335D01*
Y-102667D01*
X-7667Y-103834D01*
X13499Y99169D02*
X6501D01*
Y102667D01*
X7667Y103834D01*
X10000D01*
X11166Y102667D01*
Y99169D01*
Y101501D02*
X13499Y103834D01*
Y109665D02*
X6501D01*
X10000Y106166D01*
Y110831D01*
X13499Y-110831D02*
X6501D01*
Y-107333D01*
X7667Y-106166D01*
X10000D01*
X11166Y-107333D01*
Y-110831D01*
Y-108499D02*
X13499Y-106166D01*
X7667Y-103834D02*
X6501Y-102667D01*
Y-100335D01*
X7667Y-99169D01*
X8834D01*
X10000Y-100335D01*
Y-101501D01*
Y-100335D01*
X11166Y-99169D01*
X12333D01*
X13499Y-100335D01*
Y-102667D01*
X12333Y-103834D01*
X33499Y99169D02*
X26501D01*
Y102667D01*
X27667Y103834D01*
X30000D01*
X31166Y102667D01*
Y99169D01*
Y101501D02*
X33499Y103834D01*
Y110831D02*
Y106166D01*
X28834Y110831D01*
X27667D01*
X26501Y109665D01*
Y107333D01*
X27667Y106166D01*
X33499Y-109665D02*
X26501D01*
Y-106166D01*
X27667Y-105000D01*
X30000D01*
X31166Y-106166D01*
Y-109665D01*
Y-107333D02*
X33499Y-105000D01*
Y-102667D02*
Y-100335D01*
Y-101501D01*
X26501D01*
X27667Y-102667D01*
X3499Y-4665D02*
X-3499D01*
Y-1166D01*
X-2333Y0D01*
X-0D01*
X1166Y-1166D01*
Y-4665D01*
X3499Y2333D02*
Y4665D01*
Y3499D01*
X-3499D01*
X-2333Y2333D01*
X105470Y51321D02*
X103138D01*
X104304D01*
Y45489D01*
X103138Y44323D01*
X101971D01*
X100805Y45489D01*
X112468Y51321D02*
X107803D01*
Y47822D01*
X110135Y48988D01*
X111302D01*
X112468Y47822D01*
Y45489D01*
X111302Y44323D01*
X108969D01*
X107803Y45489D01*
M02*
