G04*
G04 #@! TF.GenerationSoftware,Altium Limited,Altium Designer,24.6.1 (21)*
G04*
G04 Layer_Color=128*
%FSLAX44Y44*%
%MOMM*%
G71*
G04*
G04 #@! TF.SameCoordinates,A60324F7-5EA5-4536-B251-014C174E4282*
G04*
G04*
G04 #@! TF.FilePolarity,Positive*
G04*
G01*
G75*
%ADD35R,1.3980X6.3580*%
G36*
X172550Y-143850D02*
X167450D01*
Y-120750D01*
X172550D01*
Y-143850D01*
D02*
G37*
G36*
X162550D02*
X157450D01*
Y-120750D01*
X162550D01*
Y-143850D01*
D02*
G37*
G36*
X152550D02*
X147450D01*
Y-120750D01*
X152550D01*
Y-143850D01*
D02*
G37*
G36*
X142550D02*
X137450D01*
Y-120750D01*
X142550D01*
Y-143850D01*
D02*
G37*
G36*
X132550D02*
X127450D01*
Y-120750D01*
X132550D01*
Y-143850D01*
D02*
G37*
G36*
X122550D02*
X117450D01*
Y-120750D01*
X122550D01*
Y-143850D01*
D02*
G37*
G36*
X112550D02*
X107450D01*
Y-120750D01*
X112550D01*
Y-143850D01*
D02*
G37*
G36*
X102550D02*
X97450D01*
Y-120750D01*
X102550D01*
Y-143850D01*
D02*
G37*
G36*
X92550D02*
X87450D01*
Y-120750D01*
X92550D01*
Y-143850D01*
D02*
G37*
G36*
X82550D02*
X77450D01*
Y-120750D01*
X82550D01*
Y-143850D01*
D02*
G37*
G36*
X72550D02*
X67450D01*
Y-120750D01*
X72550D01*
Y-143850D01*
D02*
G37*
G36*
X62550D02*
X57450D01*
Y-120750D01*
X62550D01*
Y-143850D01*
D02*
G37*
G36*
X52550D02*
X47450D01*
Y-120750D01*
X52550D01*
Y-143850D01*
D02*
G37*
G36*
X42550D02*
X37450D01*
Y-120750D01*
X42550D01*
Y-143850D01*
D02*
G37*
G36*
X32550D02*
X27450D01*
Y-120750D01*
X32550D01*
Y-143850D01*
D02*
G37*
G36*
X22550D02*
X17450D01*
Y-120750D01*
X22550D01*
Y-143850D01*
D02*
G37*
G36*
X12550D02*
X7450D01*
Y-120750D01*
X12550D01*
Y-143850D01*
D02*
G37*
G36*
X2550D02*
X-2550D01*
Y-120750D01*
X2550D01*
Y-143850D01*
D02*
G37*
G36*
X-7450D02*
X-12550D01*
Y-120750D01*
X-7450D01*
Y-143850D01*
D02*
G37*
G36*
X-17450D02*
X-22550D01*
Y-120750D01*
X-17450D01*
Y-143850D01*
D02*
G37*
G36*
X-27450D02*
X-32550D01*
Y-120750D01*
X-27450D01*
Y-143850D01*
D02*
G37*
G36*
X-37450D02*
X-42550D01*
Y-120750D01*
X-37450D01*
Y-143850D01*
D02*
G37*
G36*
X-47450D02*
X-52550D01*
Y-120750D01*
X-47450D01*
Y-143850D01*
D02*
G37*
G36*
X-57450D02*
X-62550D01*
Y-120750D01*
X-57450D01*
Y-143850D01*
D02*
G37*
G36*
X-67450D02*
X-72550D01*
Y-120750D01*
X-67450D01*
Y-143850D01*
D02*
G37*
G36*
X-77450D02*
X-82550D01*
Y-120750D01*
X-77450D01*
Y-143850D01*
D02*
G37*
G36*
X-87450D02*
X-92550D01*
Y-120750D01*
X-87450D01*
Y-143850D01*
D02*
G37*
G36*
X-97450D02*
X-102550D01*
Y-120750D01*
X-97450D01*
Y-143850D01*
D02*
G37*
G36*
X-107450D02*
X-112550D01*
Y-120750D01*
X-107450D01*
Y-143850D01*
D02*
G37*
G36*
X-117450D02*
X-122550D01*
Y-120750D01*
X-117450D01*
Y-143850D01*
D02*
G37*
G36*
X-127450D02*
X-132550D01*
Y-120750D01*
X-127450D01*
Y-143850D01*
D02*
G37*
G36*
X-137450D02*
X-142550D01*
Y-120750D01*
X-137450D01*
Y-143850D01*
D02*
G37*
G36*
X-147450D02*
X-152550D01*
Y-120750D01*
X-147450D01*
Y-143850D01*
D02*
G37*
G36*
X-157450D02*
X-162550D01*
Y-120750D01*
X-157450D01*
Y-143850D01*
D02*
G37*
G36*
X-167450D02*
X-172550D01*
Y-120750D01*
X-167450D01*
Y-143850D01*
D02*
G37*
G36*
X167550Y-179250D02*
X162450D01*
Y-156150D01*
X167550D01*
Y-179250D01*
D02*
G37*
G36*
X157550D02*
X152450D01*
Y-156150D01*
X157550D01*
Y-179250D01*
D02*
G37*
G36*
X147550D02*
X142450D01*
Y-156150D01*
X147550D01*
Y-179250D01*
D02*
G37*
G36*
X137550D02*
X132450D01*
Y-156150D01*
X137550D01*
Y-179250D01*
D02*
G37*
G36*
X127550D02*
X122450D01*
Y-156150D01*
X127550D01*
Y-179250D01*
D02*
G37*
G36*
X117550D02*
X112450D01*
Y-156150D01*
X117550D01*
Y-179250D01*
D02*
G37*
G36*
X107550D02*
X102450D01*
Y-156150D01*
X107550D01*
Y-179250D01*
D02*
G37*
G36*
X97550D02*
X92450D01*
Y-156150D01*
X97550D01*
Y-179250D01*
D02*
G37*
G36*
X87550D02*
X82450D01*
Y-156150D01*
X87550D01*
Y-179250D01*
D02*
G37*
G36*
X77550D02*
X72450D01*
Y-156150D01*
X77550D01*
Y-179250D01*
D02*
G37*
G36*
X67550D02*
X62450D01*
Y-156150D01*
X67550D01*
Y-179250D01*
D02*
G37*
G36*
X57550D02*
X52450D01*
Y-156150D01*
X57550D01*
Y-179250D01*
D02*
G37*
G36*
X47550D02*
X42450D01*
Y-156150D01*
X47550D01*
Y-179250D01*
D02*
G37*
G36*
X37550D02*
X32450D01*
Y-156150D01*
X37550D01*
Y-179250D01*
D02*
G37*
G36*
X27550D02*
X22450D01*
Y-156150D01*
X27550D01*
Y-179250D01*
D02*
G37*
G36*
X17550D02*
X12450D01*
Y-156150D01*
X17550D01*
Y-179250D01*
D02*
G37*
G36*
X7550D02*
X2450D01*
Y-156150D01*
X7550D01*
Y-179250D01*
D02*
G37*
G36*
X-2450D02*
X-7550D01*
Y-156150D01*
X-2450D01*
Y-179250D01*
D02*
G37*
G36*
X-12450D02*
X-17550D01*
Y-156150D01*
X-12450D01*
Y-179250D01*
D02*
G37*
G36*
X-22450D02*
X-27550D01*
Y-156150D01*
X-22450D01*
Y-179250D01*
D02*
G37*
G36*
X-32450D02*
X-37550D01*
Y-156150D01*
X-32450D01*
Y-179250D01*
D02*
G37*
G36*
X-42450D02*
X-47550D01*
Y-156150D01*
X-42450D01*
Y-179250D01*
D02*
G37*
G36*
X-52450D02*
X-57550D01*
Y-156150D01*
X-52450D01*
Y-179250D01*
D02*
G37*
G36*
X-62450D02*
X-67550D01*
Y-156150D01*
X-62450D01*
Y-179250D01*
D02*
G37*
G36*
X-72450D02*
X-77550D01*
Y-156150D01*
X-72450D01*
Y-179250D01*
D02*
G37*
G36*
X-82450D02*
X-87550D01*
Y-156150D01*
X-82450D01*
Y-179250D01*
D02*
G37*
G36*
X-92450D02*
X-97550D01*
Y-156150D01*
X-92450D01*
Y-179250D01*
D02*
G37*
G36*
X-102450D02*
X-107550D01*
Y-156150D01*
X-102450D01*
Y-179250D01*
D02*
G37*
G36*
X-112450D02*
X-117550D01*
Y-156150D01*
X-112450D01*
Y-179250D01*
D02*
G37*
G36*
X-122450D02*
X-127550D01*
Y-156150D01*
X-122450D01*
Y-179250D01*
D02*
G37*
G36*
X-132450D02*
X-137550D01*
Y-156150D01*
X-132450D01*
Y-179250D01*
D02*
G37*
G36*
X-142450D02*
X-147550D01*
Y-156150D01*
X-142450D01*
Y-179250D01*
D02*
G37*
G36*
X-152450D02*
X-157550D01*
Y-156150D01*
X-152450D01*
Y-179250D01*
D02*
G37*
G36*
X-162450D02*
X-167550D01*
Y-156150D01*
X-162450D01*
Y-179250D01*
D02*
G37*
G36*
X167550Y156150D02*
X162450D01*
Y179250D01*
X167550D01*
Y156150D01*
D02*
G37*
G36*
X157550D02*
X152450D01*
Y179250D01*
X157550D01*
Y156150D01*
D02*
G37*
G36*
X147550D02*
X142450D01*
Y179250D01*
X147550D01*
Y156150D01*
D02*
G37*
G36*
X137550D02*
X132450D01*
Y179250D01*
X137550D01*
Y156150D01*
D02*
G37*
G36*
X127550D02*
X122450D01*
Y179250D01*
X127550D01*
Y156150D01*
D02*
G37*
G36*
X117550D02*
X112450D01*
Y179250D01*
X117550D01*
Y156150D01*
D02*
G37*
G36*
X107550D02*
X102450D01*
Y179250D01*
X107550D01*
Y156150D01*
D02*
G37*
G36*
X97550D02*
X92450D01*
Y179250D01*
X97550D01*
Y156150D01*
D02*
G37*
G36*
X87550D02*
X82450D01*
Y179250D01*
X87550D01*
Y156150D01*
D02*
G37*
G36*
X77550D02*
X72450D01*
Y179250D01*
X77550D01*
Y156150D01*
D02*
G37*
G36*
X67550D02*
X62450D01*
Y179250D01*
X67550D01*
Y156150D01*
D02*
G37*
G36*
X57550D02*
X52450D01*
Y179250D01*
X57550D01*
Y156150D01*
D02*
G37*
G36*
X47550D02*
X42450D01*
Y179250D01*
X47550D01*
Y156150D01*
D02*
G37*
G36*
X37550D02*
X32450D01*
Y179250D01*
X37550D01*
Y156150D01*
D02*
G37*
G36*
X27550D02*
X22450D01*
Y179250D01*
X27550D01*
Y156150D01*
D02*
G37*
G36*
X17550D02*
X12450D01*
Y179250D01*
X17550D01*
Y156150D01*
D02*
G37*
G36*
X7550D02*
X2450D01*
Y179250D01*
X7550D01*
Y156150D01*
D02*
G37*
G36*
X-2450D02*
X-7550D01*
Y179250D01*
X-2450D01*
Y156150D01*
D02*
G37*
G36*
X-12450D02*
X-17550D01*
Y179250D01*
X-12450D01*
Y156150D01*
D02*
G37*
G36*
X-22450D02*
X-27550D01*
Y179250D01*
X-22450D01*
Y156150D01*
D02*
G37*
G36*
X-32450D02*
X-37550D01*
Y179250D01*
X-32450D01*
Y156150D01*
D02*
G37*
G36*
X-42450D02*
X-47550D01*
Y179250D01*
X-42450D01*
Y156150D01*
D02*
G37*
G36*
X-52450D02*
X-57550D01*
Y179250D01*
X-52450D01*
Y156150D01*
D02*
G37*
G36*
X-62450D02*
X-67550D01*
Y179250D01*
X-62450D01*
Y156150D01*
D02*
G37*
G36*
X-72450D02*
X-77550D01*
Y179250D01*
X-72450D01*
Y156150D01*
D02*
G37*
G36*
X-82450D02*
X-87550D01*
Y179250D01*
X-82450D01*
Y156150D01*
D02*
G37*
G36*
X-92450D02*
X-97550D01*
Y179250D01*
X-92450D01*
Y156150D01*
D02*
G37*
G36*
X-102450D02*
X-107550D01*
Y179250D01*
X-102450D01*
Y156150D01*
D02*
G37*
G36*
X-112450D02*
X-117550D01*
Y179250D01*
X-112450D01*
Y156150D01*
D02*
G37*
G36*
X-122450D02*
X-127550D01*
Y179250D01*
X-122450D01*
Y156150D01*
D02*
G37*
G36*
X-132450D02*
X-137550D01*
Y179250D01*
X-132450D01*
Y156150D01*
D02*
G37*
G36*
X-142450D02*
X-147550D01*
Y179250D01*
X-142450D01*
Y156150D01*
D02*
G37*
G36*
X-152450D02*
X-157550D01*
Y179250D01*
X-152450D01*
Y156150D01*
D02*
G37*
G36*
X-162450D02*
X-167550D01*
Y179250D01*
X-162450D01*
Y156150D01*
D02*
G37*
G36*
X172550Y120750D02*
X167450D01*
Y143850D01*
X172550D01*
Y120750D01*
D02*
G37*
G36*
X162550D02*
X157450D01*
Y143850D01*
X162550D01*
Y120750D01*
D02*
G37*
G36*
X152550D02*
X147450D01*
Y143850D01*
X152550D01*
Y120750D01*
D02*
G37*
G36*
X142550D02*
X137450D01*
Y143850D01*
X142550D01*
Y120750D01*
D02*
G37*
G36*
X132550D02*
X127450D01*
Y143850D01*
X132550D01*
Y120750D01*
D02*
G37*
G36*
X122550D02*
X117450D01*
Y143850D01*
X122550D01*
Y120750D01*
D02*
G37*
G36*
X112550D02*
X107450D01*
Y143850D01*
X112550D01*
Y120750D01*
D02*
G37*
G36*
X102550D02*
X97450D01*
Y143850D01*
X102550D01*
Y120750D01*
D02*
G37*
G36*
X92550D02*
X87450D01*
Y143850D01*
X92550D01*
Y120750D01*
D02*
G37*
G36*
X82550D02*
X77450D01*
Y143850D01*
X82550D01*
Y120750D01*
D02*
G37*
G36*
X72550D02*
X67450D01*
Y143850D01*
X72550D01*
Y120750D01*
D02*
G37*
G36*
X62550D02*
X57450D01*
Y143850D01*
X62550D01*
Y120750D01*
D02*
G37*
G36*
X52550D02*
X47450D01*
Y143850D01*
X52550D01*
Y120750D01*
D02*
G37*
G36*
X42550D02*
X37450D01*
Y143850D01*
X42550D01*
Y120750D01*
D02*
G37*
G36*
X32550D02*
X27450D01*
Y143850D01*
X32550D01*
Y120750D01*
D02*
G37*
G36*
X22550D02*
X17450D01*
Y143850D01*
X22550D01*
Y120750D01*
D02*
G37*
G36*
X12550D02*
X7450D01*
Y143850D01*
X12550D01*
Y120750D01*
D02*
G37*
G36*
X2550D02*
X-2550D01*
Y143850D01*
X2550D01*
Y120750D01*
D02*
G37*
G36*
X-7450D02*
X-12550D01*
Y143850D01*
X-7450D01*
Y120750D01*
D02*
G37*
G36*
X-17450D02*
X-22550D01*
Y143850D01*
X-17450D01*
Y120750D01*
D02*
G37*
G36*
X-27450D02*
X-32550D01*
Y143850D01*
X-27450D01*
Y120750D01*
D02*
G37*
G36*
X-37450D02*
X-42550D01*
Y143850D01*
X-37450D01*
Y120750D01*
D02*
G37*
G36*
X-47450D02*
X-52550D01*
Y143850D01*
X-47450D01*
Y120750D01*
D02*
G37*
G36*
X-57450D02*
X-62550D01*
Y143850D01*
X-57450D01*
Y120750D01*
D02*
G37*
G36*
X-67450D02*
X-72550D01*
Y143850D01*
X-67450D01*
Y120750D01*
D02*
G37*
G36*
X-77450D02*
X-82550D01*
Y143850D01*
X-77450D01*
Y120750D01*
D02*
G37*
G36*
X-87450D02*
X-92550D01*
Y143850D01*
X-87450D01*
Y120750D01*
D02*
G37*
G36*
X-97450D02*
X-102550D01*
Y143850D01*
X-97450D01*
Y120750D01*
D02*
G37*
G36*
X-107450D02*
X-112550D01*
Y143850D01*
X-107450D01*
Y120750D01*
D02*
G37*
G36*
X-117450D02*
X-122550D01*
Y143850D01*
X-117450D01*
Y120750D01*
D02*
G37*
G36*
X-127450D02*
X-132550D01*
Y143850D01*
X-127450D01*
Y120750D01*
D02*
G37*
G36*
X-137450D02*
X-142550D01*
Y143850D01*
X-137450D01*
Y120750D01*
D02*
G37*
G36*
X-147450D02*
X-152550D01*
Y143850D01*
X-147450D01*
Y120750D01*
D02*
G37*
G36*
X-157450D02*
X-162550D01*
Y143850D01*
X-157450D01*
Y120750D01*
D02*
G37*
G36*
X-167450D02*
X-172550D01*
Y143850D01*
X-167450D01*
Y120750D01*
D02*
G37*
D35*
X189750Y-150000D02*
D03*
X-189750D02*
D03*
Y150000D02*
D03*
X189750D02*
D03*
M02*
