G04*
G04 #@! TF.GenerationSoftware,Altium Limited,Altium Designer,24.6.1 (21)*
G04*
G04 Layer_Color=16711935*
%FSLAX44Y44*%
%MOMM*%
G71*
G04*
G04 #@! TF.SameCoordinates,A60324F7-5EA5-4536-B251-014C174E4282*
G04*
G04*
G04 #@! TF.FilePolarity,Negative*
G04*
G01*
G75*
%ADD21C,2.4000*%
%ADD22R,2.2000X2.2000*%
%ADD23C,1.0400*%
%ADD34R,0.8100X2.6100*%
G36*
X-195200Y-180250D02*
X-179200D01*
Y-164550D01*
X-179310Y-164430D01*
X-179390Y-164340D01*
X-179470Y-164230D01*
X-179550Y-164130D01*
X-179630Y-164030D01*
X-179700Y-163920D01*
X-179770Y-163810D01*
X-179840Y-163700D01*
X-179910Y-163590D01*
X-179970Y-163480D01*
X-180030Y-163360D01*
X-180090Y-163240D01*
X-180140Y-163120D01*
X-180190Y-163000D01*
X-180240Y-162880D01*
X-180280Y-162760D01*
X-180320Y-162640D01*
X-180360Y-162510D01*
X-180390Y-162390D01*
X-180420Y-162260D01*
X-180450Y-162130D01*
X-180480Y-162010D01*
X-180500Y-161880D01*
X-180520Y-161750D01*
X-180530Y-161620D01*
X-180540Y-161490D01*
X-180550Y-161360D01*
Y-161230D01*
Y-161100D01*
Y-161000D01*
Y-160900D01*
Y-160770D01*
Y-160640D01*
X-180540Y-160510D01*
X-180530Y-160380D01*
X-180520Y-160250D01*
X-180500Y-160120D01*
X-180480Y-159990D01*
X-180450Y-159870D01*
X-180420Y-159740D01*
X-180390Y-159610D01*
X-180360Y-159490D01*
X-180320Y-159360D01*
X-180280Y-159240D01*
X-180240Y-159120D01*
X-180190Y-159000D01*
X-180140Y-158880D01*
X-180090Y-158760D01*
X-180030Y-158640D01*
X-179970Y-158520D01*
X-179910Y-158410D01*
X-179840Y-158300D01*
X-179770Y-158190D01*
X-179700Y-158080D01*
X-179630Y-157970D01*
X-179550Y-157870D01*
X-179470Y-157770D01*
X-179390Y-157660D01*
X-179310Y-157570D01*
X-179200Y-157450D01*
Y-119750D01*
X-195200D01*
Y-180250D01*
D02*
G37*
G36*
X-179200Y157450D02*
X-179310Y157570D01*
X-179390Y157660D01*
X-179470Y157770D01*
X-179550Y157870D01*
X-179630Y157970D01*
X-179700Y158080D01*
X-179770Y158190D01*
X-179840Y158300D01*
X-179910Y158410D01*
X-179970Y158520D01*
X-180030Y158640D01*
X-180090Y158760D01*
X-180140Y158880D01*
X-180190Y159000D01*
X-180240Y159120D01*
X-180280Y159240D01*
X-180320Y159360D01*
X-180360Y159490D01*
X-180390Y159610D01*
X-180420Y159740D01*
X-180450Y159870D01*
X-180480Y159990D01*
X-180500Y160120D01*
X-180520Y160250D01*
X-180530Y160380D01*
X-180540Y160510D01*
X-180550Y160640D01*
Y160770D01*
Y160900D01*
Y161000D01*
Y161100D01*
Y161230D01*
Y161360D01*
X-180540Y161490D01*
X-180530Y161620D01*
X-180520Y161750D01*
X-180500Y161880D01*
X-180480Y162010D01*
X-180450Y162130D01*
X-180420Y162260D01*
X-180390Y162390D01*
X-180360Y162510D01*
X-180320Y162640D01*
X-180280Y162760D01*
X-180240Y162880D01*
X-180190Y163000D01*
X-180140Y163120D01*
X-180090Y163240D01*
X-180030Y163360D01*
X-179970Y163480D01*
X-179910Y163590D01*
X-179840Y163700D01*
X-179770Y163810D01*
X-179700Y163920D01*
X-179630Y164030D01*
X-179550Y164130D01*
X-179470Y164230D01*
X-179390Y164340D01*
X-179310Y164430D01*
X-179200Y164550D01*
Y180250D01*
X-195200D01*
Y119750D01*
X-179200D01*
Y157450D01*
D02*
G37*
G36*
X179200Y-157450D02*
X179310Y-157570D01*
X179390Y-157660D01*
X179470Y-157770D01*
X179550Y-157870D01*
X179630Y-157970D01*
X179700Y-158080D01*
X179770Y-158190D01*
X179840Y-158300D01*
X179910Y-158410D01*
X179970Y-158520D01*
X180030Y-158640D01*
X180090Y-158760D01*
X180140Y-158880D01*
X180190Y-159000D01*
X180240Y-159120D01*
X180280Y-159240D01*
X180320Y-159360D01*
X180360Y-159490D01*
X180390Y-159610D01*
X180420Y-159740D01*
X180450Y-159870D01*
X180480Y-159990D01*
X180500Y-160120D01*
X180520Y-160250D01*
X180530Y-160380D01*
X180540Y-160510D01*
X180550Y-160640D01*
Y-160770D01*
Y-160900D01*
Y-161000D01*
Y-161100D01*
Y-161230D01*
Y-161360D01*
X180540Y-161490D01*
X180530Y-161620D01*
X180520Y-161750D01*
X180500Y-161880D01*
X180480Y-162010D01*
X180450Y-162130D01*
X180420Y-162260D01*
X180390Y-162390D01*
X180360Y-162510D01*
X180320Y-162640D01*
X180280Y-162760D01*
X180240Y-162880D01*
X180190Y-163000D01*
X180140Y-163120D01*
X180090Y-163240D01*
X180030Y-163360D01*
X179970Y-163480D01*
X179910Y-163590D01*
X179840Y-163700D01*
X179770Y-163810D01*
X179700Y-163920D01*
X179630Y-164030D01*
X179550Y-164130D01*
X179470Y-164230D01*
X179390Y-164340D01*
X179310Y-164430D01*
X179200Y-164550D01*
Y-180250D01*
X195200D01*
Y-119750D01*
X179200D01*
Y-157450D01*
D02*
G37*
G36*
X195200Y180250D02*
X179200D01*
Y164550D01*
X179310Y164430D01*
X179390Y164340D01*
X179470Y164230D01*
X179550Y164130D01*
X179630Y164030D01*
X179700Y163920D01*
X179770Y163810D01*
X179840Y163700D01*
X179910Y163590D01*
X179970Y163480D01*
X180030Y163360D01*
X180090Y163240D01*
X180140Y163120D01*
X180190Y163000D01*
X180240Y162880D01*
X180280Y162760D01*
X180320Y162640D01*
X180360Y162510D01*
X180390Y162390D01*
X180420Y162260D01*
X180450Y162130D01*
X180480Y162010D01*
X180500Y161880D01*
X180520Y161750D01*
X180530Y161620D01*
X180540Y161490D01*
X180550Y161360D01*
Y161230D01*
Y161100D01*
Y161000D01*
Y160900D01*
Y160770D01*
Y160640D01*
X180540Y160510D01*
X180530Y160380D01*
X180520Y160250D01*
X180500Y160120D01*
X180480Y159990D01*
X180450Y159870D01*
X180420Y159740D01*
X180390Y159610D01*
X180360Y159490D01*
X180320Y159360D01*
X180280Y159240D01*
X180240Y159120D01*
X180190Y159000D01*
X180140Y158880D01*
X180090Y158760D01*
X180030Y158640D01*
X179970Y158520D01*
X179910Y158410D01*
X179840Y158300D01*
X179770Y158190D01*
X179700Y158080D01*
X179630Y157970D01*
X179550Y157870D01*
X179470Y157770D01*
X179390Y157660D01*
X179310Y157570D01*
X179200Y157450D01*
Y119750D01*
X195200D01*
Y180250D01*
D02*
G37*
D21*
X162400Y-25400D02*
D03*
X111600D02*
D03*
Y25400D02*
D03*
X162400D02*
D03*
D22*
X137000Y0D02*
D03*
D23*
X175260Y-161000D02*
D03*
X-175260D02*
D03*
Y161000D02*
D03*
X175260D02*
D03*
D34*
X170000Y-132800D02*
D03*
X165000Y-167200D02*
D03*
X160000Y-132800D02*
D03*
X155000Y-167200D02*
D03*
X150000Y-132800D02*
D03*
X145000Y-167200D02*
D03*
X140000Y-132800D02*
D03*
X135000Y-167200D02*
D03*
X130000Y-132800D02*
D03*
X125000Y-167200D02*
D03*
X120000Y-132800D02*
D03*
X115000Y-167200D02*
D03*
X110000Y-132800D02*
D03*
X105000Y-167200D02*
D03*
X100000Y-132800D02*
D03*
X95000Y-167200D02*
D03*
X90000Y-132800D02*
D03*
X85000Y-167200D02*
D03*
X80000Y-132800D02*
D03*
X75000Y-167200D02*
D03*
X70000Y-132800D02*
D03*
X65000Y-167200D02*
D03*
X60000Y-132800D02*
D03*
X55000Y-167200D02*
D03*
X50000Y-132800D02*
D03*
X45000Y-167200D02*
D03*
X40000Y-132800D02*
D03*
X35000Y-167200D02*
D03*
X30000Y-132800D02*
D03*
X25000Y-167200D02*
D03*
X20000Y-132800D02*
D03*
X15000Y-167200D02*
D03*
X10000Y-132800D02*
D03*
X5000Y-167200D02*
D03*
X0Y-132800D02*
D03*
X-5000Y-167200D02*
D03*
X-10000Y-132800D02*
D03*
X-15000Y-167200D02*
D03*
X-20000Y-132800D02*
D03*
X-25000Y-167200D02*
D03*
X-30000Y-132800D02*
D03*
X-35000Y-167200D02*
D03*
X-40000Y-132800D02*
D03*
X-45000Y-167200D02*
D03*
X-50000Y-132800D02*
D03*
X-55000Y-167200D02*
D03*
X-60000Y-132800D02*
D03*
X-65000Y-167200D02*
D03*
X-70000Y-132800D02*
D03*
X-75000Y-167200D02*
D03*
X-80000Y-132800D02*
D03*
X-85000Y-167200D02*
D03*
X-90000Y-132800D02*
D03*
X-95000Y-167200D02*
D03*
X-100000Y-132800D02*
D03*
X-105000Y-167200D02*
D03*
X-110000Y-132800D02*
D03*
X-115000Y-167200D02*
D03*
X-120000Y-132800D02*
D03*
X-125000Y-167200D02*
D03*
X-130000Y-132800D02*
D03*
X-135000Y-167200D02*
D03*
X-140000Y-132800D02*
D03*
X-145000Y-167200D02*
D03*
X-150000Y-132800D02*
D03*
X-155000Y-167200D02*
D03*
X-160000Y-132800D02*
D03*
X-165000Y-167200D02*
D03*
X-170000Y-132800D02*
D03*
Y132800D02*
D03*
X-165000Y167200D02*
D03*
X-160000Y132800D02*
D03*
X-155000Y167200D02*
D03*
X-150000Y132800D02*
D03*
X-145000Y167200D02*
D03*
X-140000Y132800D02*
D03*
X-135000Y167200D02*
D03*
X-130000Y132800D02*
D03*
X-125000Y167200D02*
D03*
X-120000Y132800D02*
D03*
X-115000Y167200D02*
D03*
X-110000Y132800D02*
D03*
X-105000Y167200D02*
D03*
X-100000Y132800D02*
D03*
X-95000Y167200D02*
D03*
X-90000Y132800D02*
D03*
X-85000Y167200D02*
D03*
X-80000Y132800D02*
D03*
X-75000Y167200D02*
D03*
X-70000Y132800D02*
D03*
X-65000Y167200D02*
D03*
X-60000Y132800D02*
D03*
X-55000Y167200D02*
D03*
X-50000Y132800D02*
D03*
X-45000Y167200D02*
D03*
X-40000Y132800D02*
D03*
X-35000Y167200D02*
D03*
X-30000Y132800D02*
D03*
X-25000Y167200D02*
D03*
X-20000Y132800D02*
D03*
X-15000Y167200D02*
D03*
X-10000Y132800D02*
D03*
X-5000Y167200D02*
D03*
X0Y132800D02*
D03*
X5000Y167200D02*
D03*
X10000Y132800D02*
D03*
X15000Y167200D02*
D03*
X20000Y132800D02*
D03*
X25000Y167200D02*
D03*
X30000Y132800D02*
D03*
X35000Y167200D02*
D03*
X40000Y132800D02*
D03*
X45000Y167200D02*
D03*
X50000Y132800D02*
D03*
X55000Y167200D02*
D03*
X60000Y132800D02*
D03*
X65000Y167200D02*
D03*
X70000Y132800D02*
D03*
X75000Y167200D02*
D03*
X80000Y132800D02*
D03*
X85000Y167200D02*
D03*
X90000Y132800D02*
D03*
X95000Y167200D02*
D03*
X100000Y132800D02*
D03*
X105000Y167200D02*
D03*
X110000Y132800D02*
D03*
X115000Y167200D02*
D03*
X120000Y132800D02*
D03*
X125000Y167200D02*
D03*
X130000Y132800D02*
D03*
X135000Y167200D02*
D03*
X140000Y132800D02*
D03*
X145000Y167200D02*
D03*
X150000Y132800D02*
D03*
X155000Y167200D02*
D03*
X160000Y132800D02*
D03*
X165000Y167200D02*
D03*
X170000Y132800D02*
D03*
M02*
