G04*
G04 #@! TF.GenerationSoftware,Altium Limited,Altium Designer,24.6.1 (21)*
G04*
G04 Layer_Physical_Order=4*
G04 Layer_Color=16711680*
%FSLAX44Y44*%
%MOMM*%
G71*
G04*
G04 #@! TF.SameCoordinates,A60324F7-5EA5-4536-B251-014C174E4282*
G04*
G04*
G04 #@! TF.FilePolarity,Positive*
G04*
G01*
G75*
%ADD11C,0.2000*%
%ADD27C,0.6000*%
%ADD28C,2.2000*%
%ADD29R,2.0000X2.0000*%
%ADD30C,0.8400*%
%ADD31R,0.6100X2.4100*%
%ADD32R,0.8900X5.8500*%
%ADD33C,0.6100*%
G36*
X-194200Y-179250D02*
X-180200D01*
Y-164900D01*
X-180290Y-164780D01*
X-180380Y-164670D01*
X-180460Y-164560D01*
X-180540Y-164440D01*
X-180620Y-164320D01*
X-180690Y-164200D01*
X-180760Y-164080D01*
X-180830Y-163960D01*
X-180890Y-163830D01*
X-180960Y-163710D01*
X-181010Y-163580D01*
X-181070Y-163450D01*
X-181120Y-163320D01*
X-181170Y-163190D01*
X-181220Y-163060D01*
X-181270Y-162930D01*
X-181310Y-162790D01*
X-181350Y-162660D01*
X-181380Y-162520D01*
X-181410Y-162380D01*
X-181440Y-162250D01*
X-181470Y-162110D01*
X-181490Y-161970D01*
X-181510Y-161830D01*
X-181520Y-161690D01*
X-181530Y-161550D01*
X-181540Y-161410D01*
X-181550Y-161270D01*
Y-161130D01*
Y-161100D01*
Y-161000D01*
Y-160870D01*
Y-160730D01*
X-181540Y-160590D01*
X-181530Y-160450D01*
X-181520Y-160310D01*
X-181510Y-160170D01*
X-181490Y-160030D01*
X-181470Y-159890D01*
X-181440Y-159750D01*
X-181410Y-159620D01*
X-181380Y-159480D01*
X-181350Y-159340D01*
X-181310Y-159210D01*
X-181270Y-159070D01*
X-181220Y-158940D01*
X-181170Y-158810D01*
X-181120Y-158680D01*
X-181070Y-158550D01*
X-181010Y-158420D01*
X-180960Y-158290D01*
X-180890Y-158170D01*
X-180830Y-158040D01*
X-180760Y-157920D01*
X-180690Y-157800D01*
X-180620Y-157680D01*
X-180540Y-157560D01*
X-180460Y-157440D01*
X-180380Y-157330D01*
X-180290Y-157220D01*
X-180200Y-157100D01*
Y-120750D01*
X-194200D01*
Y-179250D01*
D02*
G37*
G36*
X-180200Y157100D02*
X-180290Y157220D01*
X-180380Y157330D01*
X-180460Y157440D01*
X-180540Y157560D01*
X-180620Y157680D01*
X-180690Y157800D01*
X-180760Y157920D01*
X-180830Y158040D01*
X-180890Y158170D01*
X-180960Y158290D01*
X-181010Y158420D01*
X-181070Y158550D01*
X-181120Y158680D01*
X-181170Y158810D01*
X-181220Y158940D01*
X-181270Y159070D01*
X-181310Y159210D01*
X-181350Y159340D01*
X-181380Y159480D01*
X-181410Y159620D01*
X-181440Y159750D01*
X-181470Y159890D01*
X-181490Y160030D01*
X-181510Y160170D01*
X-181520Y160310D01*
X-181530Y160450D01*
X-181540Y160590D01*
X-181550Y160730D01*
Y160870D01*
Y161000D01*
Y161130D01*
Y161270D01*
X-181540Y161410D01*
X-181530Y161550D01*
X-181520Y161690D01*
X-181510Y161830D01*
X-181490Y161970D01*
X-181470Y162110D01*
X-181440Y162250D01*
X-181410Y162380D01*
X-181380Y162520D01*
X-181350Y162660D01*
X-181310Y162790D01*
X-181270Y162930D01*
X-181220Y163060D01*
X-181170Y163190D01*
X-181120Y163320D01*
X-181070Y163450D01*
X-181010Y163580D01*
X-180960Y163710D01*
X-180890Y163830D01*
X-180830Y163960D01*
X-180760Y164080D01*
X-180690Y164200D01*
X-180620Y164320D01*
X-180540Y164440D01*
X-180460Y164560D01*
X-180380Y164670D01*
X-180290Y164780D01*
X-180200Y164900D01*
Y179250D01*
X-194200D01*
Y120750D01*
X-180200D01*
Y157100D01*
D02*
G37*
G36*
X179420Y118866D02*
X179903Y118770D01*
Y-118770D01*
X179420Y-118866D01*
X179219Y-119000D01*
X175590D01*
Y-118210D01*
X164410D01*
Y-118750D01*
X63059D01*
Y-111012D01*
X63239Y-110832D01*
X64000Y-108995D01*
Y-107006D01*
X63239Y-105168D01*
X61832Y-103761D01*
X59995Y-103000D01*
X58005D01*
X56168Y-103761D01*
X54761Y-105168D01*
X54000Y-107006D01*
Y-107133D01*
X52730Y-107659D01*
X51832Y-106761D01*
X49995Y-106000D01*
X48005D01*
X46168Y-106761D01*
X44761Y-108168D01*
X44256Y-109388D01*
X42833Y-109761D01*
X42831Y-109761D01*
X40995Y-109000D01*
X39005D01*
X37168Y-109761D01*
X35761Y-111168D01*
X35221Y-112472D01*
X33827Y-112756D01*
X32832Y-111761D01*
X32145Y-111477D01*
X31847Y-109979D01*
X37163Y-104663D01*
X37163Y-104663D01*
X37826Y-103671D01*
X38059Y-102500D01*
Y-98012D01*
X39239Y-96832D01*
X40000Y-94995D01*
Y-93005D01*
X39239Y-91168D01*
X37832Y-89761D01*
X35995Y-89000D01*
X34005D01*
X32168Y-89761D01*
X30761Y-91168D01*
X30000Y-93005D01*
Y-94995D01*
X30761Y-96832D01*
X31941Y-98012D01*
Y-101233D01*
X19371Y-113804D01*
X19102Y-113764D01*
X18059Y-112500D01*
X18059Y-112500D01*
Y-98012D01*
X19239Y-96832D01*
X20000Y-94995D01*
Y-93005D01*
X19239Y-91168D01*
X17832Y-89761D01*
X15995Y-89000D01*
X14005D01*
X12168Y-89761D01*
X10761Y-91168D01*
X10000Y-93005D01*
Y-94995D01*
X10761Y-96832D01*
X11941Y-98012D01*
Y-111233D01*
X7837Y-115337D01*
X7174Y-116329D01*
X6941Y-117500D01*
X6941Y-117500D01*
Y-118750D01*
X3059D01*
Y-117500D01*
X3059Y-117500D01*
X2826Y-116329D01*
X2163Y-115337D01*
X-1941Y-111233D01*
Y-98012D01*
X-761Y-96832D01*
X0Y-94995D01*
Y-93005D01*
X-761Y-91168D01*
X-2168Y-89761D01*
X-4005Y-89000D01*
X-5995D01*
X-7832Y-89761D01*
X-9239Y-91168D01*
X-10000Y-93005D01*
Y-94995D01*
X-9239Y-96832D01*
X-8059Y-98012D01*
Y-112500D01*
X-8059Y-112500D01*
X-9102Y-113764D01*
X-9370Y-113804D01*
X-21941Y-101233D01*
Y-98012D01*
X-20761Y-96832D01*
X-20000Y-94995D01*
Y-93005D01*
X-20761Y-91168D01*
X-22168Y-89761D01*
X-24005Y-89000D01*
X-25995D01*
X-27832Y-89761D01*
X-29239Y-91168D01*
X-30000Y-93005D01*
Y-94995D01*
X-29239Y-96832D01*
X-28059Y-98012D01*
Y-102500D01*
X-28059Y-102500D01*
X-27826Y-103671D01*
X-27163Y-104663D01*
X-14249Y-117577D01*
X-14735Y-118750D01*
X-164410D01*
Y-118210D01*
X-175590D01*
Y-119000D01*
X-179219D01*
X-179420Y-118866D01*
X-179903Y-118770D01*
Y118770D01*
X-179420Y118866D01*
X-179219Y119000D01*
X-175590D01*
Y118210D01*
X-164410D01*
Y118750D01*
X-16416D01*
X-15710Y117694D01*
X-16000Y116995D01*
Y115005D01*
X-15239Y113168D01*
X-13832Y111761D01*
X-13285Y111534D01*
X-13037Y110289D01*
X-24326Y99000D01*
X-25995D01*
X-27832Y98239D01*
X-29239Y96832D01*
X-30000Y94995D01*
Y93005D01*
X-29239Y91168D01*
X-27832Y89761D01*
X-25995Y89000D01*
X-24005D01*
X-22168Y89761D01*
X-20761Y91168D01*
X-20000Y93005D01*
Y94674D01*
X-7733Y106941D01*
X1956D01*
X2442Y105768D01*
X-4326Y99000D01*
X-5995D01*
X-7832Y98239D01*
X-9239Y96832D01*
X-10000Y94995D01*
Y93005D01*
X-9239Y91168D01*
X-7832Y89761D01*
X-5995Y89000D01*
X-4005D01*
X-2168Y89761D01*
X-761Y91168D01*
X0Y93005D01*
Y94674D01*
X7267Y101941D01*
X16956D01*
X17442Y100768D01*
X15674Y99000D01*
X14005D01*
X12168Y98239D01*
X10761Y96832D01*
X10000Y94995D01*
Y93005D01*
X10761Y91168D01*
X12168Y89761D01*
X14005Y89000D01*
X15995D01*
X17832Y89761D01*
X19239Y91168D01*
X20000Y93005D01*
Y94674D01*
X22267Y96941D01*
X29432D01*
X30280Y95671D01*
X30000Y94995D01*
Y93005D01*
X30761Y91168D01*
X31941Y89988D01*
Y83006D01*
X31941Y83006D01*
X32174Y81836D01*
X32837Y80843D01*
X47917Y65763D01*
X47431Y64590D01*
X-51000D01*
X-51991Y64393D01*
X-52831Y63831D01*
X-53393Y62991D01*
X-53590Y62000D01*
Y-62000D01*
X-53393Y-62991D01*
X-52831Y-63831D01*
X-51991Y-64393D01*
X-51000Y-64590D01*
X51000D01*
X51991Y-64393D01*
X52831Y-63831D01*
X53393Y-62991D01*
X53590Y-62000D01*
Y25687D01*
X54763Y26173D01*
X83099Y-2163D01*
X84091Y-2826D01*
X85262Y-3059D01*
X85262Y-3059D01*
X125000D01*
Y-12000D01*
X149000D01*
Y12000D01*
X125000D01*
Y3059D01*
X86529D01*
X57599Y31989D01*
Y63466D01*
X57599Y63466D01*
X57366Y64637D01*
X56703Y65629D01*
X56703Y65629D01*
X38059Y84273D01*
Y89988D01*
X39239Y91168D01*
X40000Y93005D01*
Y94674D01*
X62084Y116759D01*
X62748Y117751D01*
X62946Y118750D01*
X164410D01*
Y118210D01*
X175590D01*
Y119000D01*
X179219D01*
X179420Y118866D01*
D02*
G37*
G36*
X194200Y179250D02*
X180200D01*
Y164900D01*
X180290Y164780D01*
X180380Y164670D01*
X180460Y164560D01*
X180540Y164440D01*
X180620Y164320D01*
X180690Y164200D01*
X180760Y164080D01*
X180830Y163960D01*
X180890Y163830D01*
X180960Y163710D01*
X181010Y163580D01*
X181070Y163450D01*
X181120Y163320D01*
X181170Y163190D01*
X181220Y163060D01*
X181270Y162930D01*
X181310Y162790D01*
X181350Y162660D01*
X181380Y162520D01*
X181410Y162380D01*
X181440Y162250D01*
X181470Y162110D01*
X181490Y161970D01*
X181510Y161830D01*
X181520Y161690D01*
X181530Y161550D01*
X181540Y161410D01*
X181550Y161270D01*
Y161130D01*
Y161100D01*
Y161000D01*
Y160870D01*
Y160730D01*
X181540Y160590D01*
X181530Y160450D01*
X181520Y160310D01*
X181510Y160170D01*
X181490Y160030D01*
X181470Y159890D01*
X181440Y159750D01*
X181410Y159620D01*
X181380Y159480D01*
X181350Y159340D01*
X181310Y159210D01*
X181270Y159070D01*
X181220Y158940D01*
X181170Y158810D01*
X181120Y158680D01*
X181070Y158550D01*
X181010Y158420D01*
X180960Y158290D01*
X180890Y158170D01*
X180830Y158040D01*
X180760Y157920D01*
X180690Y157800D01*
X180620Y157680D01*
X180540Y157560D01*
X180460Y157440D01*
X180380Y157330D01*
X180290Y157220D01*
X180200Y157100D01*
Y120750D01*
X194200D01*
Y179250D01*
D02*
G37*
G36*
X180200Y-157100D02*
X180290Y-157220D01*
X180380Y-157330D01*
X180460Y-157440D01*
X180540Y-157560D01*
X180620Y-157680D01*
X180690Y-157800D01*
X180760Y-157920D01*
X180830Y-158040D01*
X180890Y-158170D01*
X180960Y-158290D01*
X181010Y-158420D01*
X181070Y-158550D01*
X181120Y-158680D01*
X181170Y-158810D01*
X181220Y-158940D01*
X181270Y-159070D01*
X181310Y-159210D01*
X181350Y-159340D01*
X181380Y-159480D01*
X181410Y-159620D01*
X181440Y-159750D01*
X181470Y-159890D01*
X181490Y-160030D01*
X181510Y-160170D01*
X181520Y-160310D01*
X181530Y-160450D01*
X181540Y-160590D01*
X181550Y-160730D01*
Y-160870D01*
Y-161000D01*
Y-161130D01*
Y-161270D01*
X181540Y-161410D01*
X181530Y-161550D01*
X181520Y-161690D01*
X181510Y-161830D01*
X181490Y-161970D01*
X181470Y-162110D01*
X181440Y-162250D01*
X181410Y-162380D01*
X181380Y-162520D01*
X181350Y-162660D01*
X181310Y-162790D01*
X181270Y-162930D01*
X181220Y-163060D01*
X181170Y-163190D01*
X181120Y-163320D01*
X181070Y-163450D01*
X181010Y-163580D01*
X180960Y-163710D01*
X180890Y-163830D01*
X180830Y-163960D01*
X180760Y-164080D01*
X180690Y-164200D01*
X180620Y-164320D01*
X180540Y-164440D01*
X180460Y-164560D01*
X180380Y-164670D01*
X180290Y-164780D01*
X180200Y-164900D01*
Y-179250D01*
X194200D01*
Y-120750D01*
X180200D01*
Y-157100D01*
D02*
G37*
%LPC*%
G36*
X164183Y38940D02*
X163670D01*
Y26670D01*
X175940D01*
Y27183D01*
X175017Y30626D01*
X173235Y33714D01*
X170714Y36235D01*
X167626Y38017D01*
X164183Y38940D01*
D02*
G37*
G36*
X161130D02*
X160617D01*
X157174Y38017D01*
X154086Y36235D01*
X151565Y33714D01*
X149783Y30626D01*
X148860Y27183D01*
Y26670D01*
X161130D01*
Y38940D01*
D02*
G37*
G36*
X113383D02*
X112870D01*
Y26670D01*
X125140D01*
Y27183D01*
X124217Y30626D01*
X122435Y33714D01*
X119914Y36235D01*
X116826Y38017D01*
X113383Y38940D01*
D02*
G37*
G36*
X110330D02*
X109817D01*
X106374Y38017D01*
X103286Y36235D01*
X100765Y33714D01*
X98983Y30626D01*
X98060Y27183D01*
Y26670D01*
X110330D01*
Y38940D01*
D02*
G37*
G36*
X175940Y24130D02*
X163670D01*
Y11860D01*
X164183D01*
X167626Y12783D01*
X170714Y14565D01*
X173235Y17086D01*
X175017Y20174D01*
X175940Y23617D01*
Y24130D01*
D02*
G37*
G36*
X161130D02*
X148860D01*
Y23617D01*
X149783Y20174D01*
X151565Y17086D01*
X154086Y14565D01*
X157174Y12783D01*
X160617Y11860D01*
X161130D01*
Y24130D01*
D02*
G37*
G36*
X125140D02*
X112870D01*
Y11860D01*
X113383D01*
X116826Y12783D01*
X119914Y14565D01*
X122435Y17086D01*
X124217Y20174D01*
X125140Y23617D01*
Y24130D01*
D02*
G37*
G36*
X110330D02*
X98060D01*
Y23617D01*
X98983Y20174D01*
X100765Y17086D01*
X103286Y14565D01*
X106374Y12783D01*
X109817Y11860D01*
X110330D01*
Y24130D01*
D02*
G37*
G36*
X164183Y-11860D02*
X163670D01*
Y-24130D01*
X175940D01*
Y-23617D01*
X175017Y-20174D01*
X173235Y-17086D01*
X170714Y-14565D01*
X167626Y-12783D01*
X164183Y-11860D01*
D02*
G37*
G36*
X161130D02*
X160617D01*
X157174Y-12783D01*
X154086Y-14565D01*
X151565Y-17086D01*
X149783Y-20174D01*
X148860Y-23617D01*
Y-24130D01*
X161130D01*
Y-11860D01*
D02*
G37*
G36*
X113383D02*
X112870D01*
Y-24130D01*
X125140D01*
Y-23617D01*
X124217Y-20174D01*
X122435Y-17086D01*
X119914Y-14565D01*
X116826Y-12783D01*
X113383Y-11860D01*
D02*
G37*
G36*
X110330D02*
X109817D01*
X106374Y-12783D01*
X103286Y-14565D01*
X100765Y-17086D01*
X98983Y-20174D01*
X98060Y-23617D01*
Y-24130D01*
X110330D01*
Y-11860D01*
D02*
G37*
G36*
X175940Y-26670D02*
X163670D01*
Y-38940D01*
X164183D01*
X167626Y-38017D01*
X170714Y-36235D01*
X173235Y-33714D01*
X175017Y-30626D01*
X175940Y-27183D01*
Y-26670D01*
D02*
G37*
G36*
X161130D02*
X148860D01*
Y-27183D01*
X149783Y-30626D01*
X151565Y-33714D01*
X154086Y-36235D01*
X157174Y-38017D01*
X160617Y-38940D01*
X161130D01*
Y-26670D01*
D02*
G37*
G36*
X125140D02*
X112870D01*
Y-38940D01*
X113383D01*
X116826Y-38017D01*
X119914Y-36235D01*
X122435Y-33714D01*
X124217Y-30626D01*
X125140Y-27183D01*
Y-26670D01*
D02*
G37*
G36*
X110330D02*
X98060D01*
Y-27183D01*
X98983Y-30626D01*
X100765Y-33714D01*
X103286Y-36235D01*
X106374Y-38017D01*
X109817Y-38940D01*
X110330D01*
Y-26670D01*
D02*
G37*
%LPD*%
D11*
X59000Y-108812D02*
X60000Y-109812D01*
X59000Y-108812D02*
Y-108000D01*
X60000Y-132800D02*
Y-109812D01*
X49000Y-111812D02*
Y-111000D01*
X50000Y-132800D02*
Y-112812D01*
X49000Y-111812D02*
X50000Y-112812D01*
X40000Y-132800D02*
Y-114000D01*
X30000Y-132800D02*
Y-116000D01*
X-25000Y-102500D02*
Y-94000D01*
X-5000Y-112500D02*
Y-94000D01*
X15000Y-112500D02*
Y-94000D01*
X35000Y-102500D02*
Y-94000D01*
X-10000Y117812D02*
Y132800D01*
X-11000Y116812D02*
X-10000Y117812D01*
X-11000Y116000D02*
Y116812D01*
X0Y116000D02*
Y132800D01*
X10000Y116000D02*
Y132800D01*
X20000Y116000D02*
Y132800D01*
X-9000Y110000D02*
X22500D01*
X-25000Y94000D02*
X-9000Y110000D01*
X6000Y105000D02*
X27500D01*
X-5000Y94000D02*
X6000Y105000D01*
X59922Y132722D02*
X60000Y132800D01*
X59922Y118922D02*
Y132722D01*
X35000Y94000D02*
X59922Y118922D01*
X15000Y94000D02*
X21000Y100000D01*
X32500D01*
X35000Y83006D02*
X54540Y63466D01*
Y30722D02*
X85262Y0D01*
X137000D01*
X54540Y30722D02*
Y63466D01*
X35000Y83006D02*
Y94000D01*
X30000Y117500D02*
Y132800D01*
X22500Y110000D02*
X30000Y117500D01*
X40000D02*
Y132800D01*
X27500Y105000D02*
X40000Y117500D01*
X50000D02*
Y132800D01*
X32500Y100000D02*
X50000Y117500D01*
X20000Y-117500D02*
X35000Y-102500D01*
X20000Y-132800D02*
Y-117500D01*
X10000D02*
X15000Y-112500D01*
X10000Y-132800D02*
Y-117500D01*
X-5000Y-112500D02*
X0Y-117500D01*
Y-132800D02*
Y-117500D01*
X-25000Y-102500D02*
X-10000Y-117500D01*
Y-132800D02*
Y-117500D01*
D27*
X189143Y105541D02*
D03*
X174143Y75542D02*
D03*
X189143Y45542D02*
D03*
Y-14459D02*
D03*
X174143Y-44458D02*
D03*
X189143Y-74458D02*
D03*
X159143Y105541D02*
D03*
X144143Y75542D02*
D03*
X159143Y45542D02*
D03*
X144143Y15541D02*
D03*
Y-44458D02*
D03*
X159143Y-74458D02*
D03*
X129143Y105541D02*
D03*
X114143Y75542D02*
D03*
X129143Y45542D02*
D03*
X114143Y-44458D02*
D03*
Y-104458D02*
D03*
X99143Y105541D02*
D03*
X84143Y75542D02*
D03*
X99143Y45542D02*
D03*
X84143Y15541D02*
D03*
X99143Y-14459D02*
D03*
X84143Y-44458D02*
D03*
X99143Y-74458D02*
D03*
X84143Y-104458D02*
D03*
X69143Y105541D02*
D03*
X54143Y75542D02*
D03*
X69143Y45542D02*
D03*
Y-14459D02*
D03*
Y-74458D02*
D03*
X-50857Y105541D02*
D03*
X-65857Y75542D02*
D03*
Y15541D02*
D03*
X-50857Y-74458D02*
D03*
X-65857Y-104458D02*
D03*
X-80857Y105541D02*
D03*
X-95857Y75542D02*
D03*
X-80857Y45542D02*
D03*
X-95857Y15541D02*
D03*
X-80857Y-14459D02*
D03*
X-95857Y-44458D02*
D03*
X-80857Y-74458D02*
D03*
X-95857Y-104458D02*
D03*
X-110857Y105541D02*
D03*
X-125857Y75542D02*
D03*
X-110857Y45542D02*
D03*
X-125857Y15541D02*
D03*
X-110857Y-14459D02*
D03*
X-125857Y-44458D02*
D03*
X-110857Y-74458D02*
D03*
X-125857Y-104458D02*
D03*
X-140857Y105541D02*
D03*
X-155857Y75542D02*
D03*
X-140857Y45542D02*
D03*
X-155857Y15541D02*
D03*
X-140857Y-14459D02*
D03*
X-155857Y-44458D02*
D03*
X-140857Y-74458D02*
D03*
X-155857Y-104458D02*
D03*
X-185857Y75542D02*
D03*
X-170857Y45542D02*
D03*
X-185857Y15541D02*
D03*
X-170857Y-14459D02*
D03*
X-185857Y-44458D02*
D03*
X-170857Y-74458D02*
D03*
X-185857Y-104458D02*
D03*
X59000Y-108000D02*
D03*
X49000Y-111000D02*
D03*
X40000Y-114000D02*
D03*
X30000Y-116000D02*
D03*
X-25000Y-94000D02*
D03*
X-5000D02*
D03*
X15000D02*
D03*
X35000D02*
D03*
X-61000Y31000D02*
D03*
Y67000D02*
D03*
Y-32000D02*
D03*
Y-68000D02*
D03*
X61000Y-67000D02*
D03*
Y-32000D02*
D03*
X63000Y67000D02*
D03*
X62000Y32000D02*
D03*
X-11000Y116000D02*
D03*
X0D02*
D03*
X10000D02*
D03*
X20000D02*
D03*
X-25000Y94000D02*
D03*
X-5000D02*
D03*
X15000D02*
D03*
X35000D02*
D03*
X170000Y105000D02*
D03*
X-170000D02*
D03*
X170000Y-105000D02*
D03*
X-170000D02*
D03*
D28*
X162400Y-25400D02*
D03*
X111600D02*
D03*
Y25400D02*
D03*
X162400D02*
D03*
D29*
X137000Y0D02*
D03*
D30*
X175260Y-161000D02*
D03*
X-175260D02*
D03*
Y161000D02*
D03*
X175260D02*
D03*
D31*
X170000Y-132800D02*
D03*
X165000Y-167200D02*
D03*
X160000Y-132800D02*
D03*
X155000Y-167200D02*
D03*
X150000Y-132800D02*
D03*
X145000Y-167200D02*
D03*
X140000Y-132800D02*
D03*
X135000Y-167200D02*
D03*
X130000Y-132800D02*
D03*
X125000Y-167200D02*
D03*
X120000Y-132800D02*
D03*
X115000Y-167200D02*
D03*
X110000Y-132800D02*
D03*
X105000Y-167200D02*
D03*
X100000Y-132800D02*
D03*
X95000Y-167200D02*
D03*
X90000Y-132800D02*
D03*
X85000Y-167200D02*
D03*
X80000Y-132800D02*
D03*
X75000Y-167200D02*
D03*
X70000Y-132800D02*
D03*
X65000Y-167200D02*
D03*
X60000Y-132800D02*
D03*
X55000Y-167200D02*
D03*
X50000Y-132800D02*
D03*
X45000Y-167200D02*
D03*
X40000Y-132800D02*
D03*
X35000Y-167200D02*
D03*
X30000Y-132800D02*
D03*
X25000Y-167200D02*
D03*
X20000Y-132800D02*
D03*
X15000Y-167200D02*
D03*
X10000Y-132800D02*
D03*
X5000Y-167200D02*
D03*
X0Y-132800D02*
D03*
X-5000Y-167200D02*
D03*
X-10000Y-132800D02*
D03*
X-15000Y-167200D02*
D03*
X-20000Y-132800D02*
D03*
X-25000Y-167200D02*
D03*
X-30000Y-132800D02*
D03*
X-35000Y-167200D02*
D03*
X-40000Y-132800D02*
D03*
X-45000Y-167200D02*
D03*
X-50000Y-132800D02*
D03*
X-55000Y-167200D02*
D03*
X-60000Y-132800D02*
D03*
X-65000Y-167200D02*
D03*
X-70000Y-132800D02*
D03*
X-75000Y-167200D02*
D03*
X-80000Y-132800D02*
D03*
X-85000Y-167200D02*
D03*
X-90000Y-132800D02*
D03*
X-95000Y-167200D02*
D03*
X-100000Y-132800D02*
D03*
X-105000Y-167200D02*
D03*
X-110000Y-132800D02*
D03*
X-115000Y-167200D02*
D03*
X-120000Y-132800D02*
D03*
X-125000Y-167200D02*
D03*
X-130000Y-132800D02*
D03*
X-135000Y-167200D02*
D03*
X-140000Y-132800D02*
D03*
X-145000Y-167200D02*
D03*
X-150000Y-132800D02*
D03*
X-155000Y-167200D02*
D03*
X-160000Y-132800D02*
D03*
X-165000Y-167200D02*
D03*
X-170000Y-132800D02*
D03*
Y132800D02*
D03*
X-165000Y167200D02*
D03*
X-160000Y132800D02*
D03*
X-155000Y167200D02*
D03*
X-150000Y132800D02*
D03*
X-145000Y167200D02*
D03*
X-140000Y132800D02*
D03*
X-135000Y167200D02*
D03*
X-130000Y132800D02*
D03*
X-125000Y167200D02*
D03*
X-120000Y132800D02*
D03*
X-115000Y167200D02*
D03*
X-110000Y132800D02*
D03*
X-105000Y167200D02*
D03*
X-100000Y132800D02*
D03*
X-95000Y167200D02*
D03*
X-90000Y132800D02*
D03*
X-85000Y167200D02*
D03*
X-80000Y132800D02*
D03*
X-75000Y167200D02*
D03*
X-70000Y132800D02*
D03*
X-65000Y167200D02*
D03*
X-60000Y132800D02*
D03*
X-55000Y167200D02*
D03*
X-50000Y132800D02*
D03*
X-45000Y167200D02*
D03*
X-40000Y132800D02*
D03*
X-35000Y167200D02*
D03*
X-30000Y132800D02*
D03*
X-25000Y167200D02*
D03*
X-20000Y132800D02*
D03*
X-15000Y167200D02*
D03*
X-10000Y132800D02*
D03*
X-5000Y167200D02*
D03*
X0Y132800D02*
D03*
X5000Y167200D02*
D03*
X10000Y132800D02*
D03*
X15000Y167200D02*
D03*
X20000Y132800D02*
D03*
X25000Y167200D02*
D03*
X30000Y132800D02*
D03*
X35000Y167200D02*
D03*
X40000Y132800D02*
D03*
X45000Y167200D02*
D03*
X50000Y132800D02*
D03*
X55000Y167200D02*
D03*
X60000Y132800D02*
D03*
X65000Y167200D02*
D03*
X70000Y132800D02*
D03*
X75000Y167200D02*
D03*
X80000Y132800D02*
D03*
X85000Y167200D02*
D03*
X90000Y132800D02*
D03*
X95000Y167200D02*
D03*
X100000Y132800D02*
D03*
X105000Y167200D02*
D03*
X110000Y132800D02*
D03*
X115000Y167200D02*
D03*
X120000Y132800D02*
D03*
X125000Y167200D02*
D03*
X130000Y132800D02*
D03*
X135000Y167200D02*
D03*
X140000Y132800D02*
D03*
X145000Y167200D02*
D03*
X150000Y132800D02*
D03*
X155000Y167200D02*
D03*
X160000Y132800D02*
D03*
X165000Y167200D02*
D03*
X170000Y132800D02*
D03*
D32*
X189750Y-150000D02*
D03*
X-189750D02*
D03*
Y150000D02*
D03*
X189750D02*
D03*
D33*
X170000Y105000D02*
Y132800D01*
X-170000Y105000D02*
Y132800D01*
X170000Y-132800D02*
Y-105000D01*
X-170000Y-132800D02*
Y-105000D01*
M02*
